G04 #@! TF.GenerationSoftware,KiCad,Pcbnew,8.0.7*
G04 #@! TF.CreationDate,2025-02-13T09:18:49+05:30*
G04 #@! TF.ProjectId,pico_ov7670_adapter,7069636f-5f6f-4763-9736-37305f616461,Ver 1.0*
G04 #@! TF.SameCoordinates,Original*
G04 #@! TF.FileFunction,Paste,Top*
G04 #@! TF.FilePolarity,Positive*
%FSLAX46Y46*%
G04 Gerber Fmt 4.6, Leading zero omitted, Abs format (unit mm)*
G04 Created by KiCad (PCBNEW 8.0.7) date 2025-02-13 09:18:49*
%MOMM*%
%LPD*%
G01*
G04 APERTURE LIST*
G04 Aperture macros list*
%AMRoundRect*
0 Rectangle with rounded corners*
0 $1 Rounding radius*
0 $2 $3 $4 $5 $6 $7 $8 $9 X,Y pos of 4 corners*
0 Add a 4 corners polygon primitive as box body*
4,1,4,$2,$3,$4,$5,$6,$7,$8,$9,$2,$3,0*
0 Add four circle primitives for the rounded corners*
1,1,$1+$1,$2,$3*
1,1,$1+$1,$4,$5*
1,1,$1+$1,$6,$7*
1,1,$1+$1,$8,$9*
0 Add four rect primitives between the rounded corners*
20,1,$1+$1,$2,$3,$4,$5,0*
20,1,$1+$1,$4,$5,$6,$7,0*
20,1,$1+$1,$6,$7,$8,$9,0*
20,1,$1+$1,$8,$9,$2,$3,0*%
%AMFreePoly0*
4,1,129,0.800119,0.804999,0.842119,0.803999,0.842356,0.803987,0.884356,0.800987,0.884724,0.800947,0.925724,0.794947,0.925841,0.794929,0.966841,0.787929,0.967185,0.787858,1.008185,0.777858,1.008437,0.777789,1.048437,0.765789,1.048652,0.765719,1.088652,0.751719,1.088940,0.751608,1.126940,0.735608,1.127140,0.735519,1.165140,0.717519,1.165378,0.717399,1.202378,0.697399,
1.202607,0.697266,1.238607,0.675266,1.238883,0.675085,1.272883,0.651085,1.273019,0.650985,1.306019,0.625985,1.306224,0.625821,1.338224,0.598821,1.338416,0.598651,1.369416,0.569651,1.369651,0.569416,1.398651,0.538416,1.398821,0.538224,1.425821,0.506224,1.425985,0.506019,1.450985,0.473019,1.451085,0.472883,1.475085,0.438883,1.475266,0.438607,1.497266,0.402607,
1.497399,0.402378,1.517399,0.365378,1.517519,0.365140,1.535519,0.327140,1.535608,0.326940,1.551608,0.288940,1.551719,0.288652,1.565719,0.248652,1.565789,0.248437,1.577789,0.208437,1.577858,0.208185,1.587858,0.167185,1.587929,0.166841,1.594929,0.125841,1.594947,0.125724,1.600947,0.084724,1.600987,0.084356,1.603987,0.042356,1.603999,0.042119,1.604999,0.000119,
1.604999,-0.000119,1.603999,-0.042119,1.603987,-0.042356,1.600987,-0.084356,1.600947,-0.084724,1.594947,-0.125724,1.594929,-0.125841,1.587929,-0.166841,1.587858,-0.167185,1.577858,-0.208185,1.577789,-0.208437,1.565789,-0.248437,1.565719,-0.248652,1.551719,-0.288652,1.551608,-0.288940,1.535608,-0.326940,1.535519,-0.327140,1.517519,-0.365140,1.517399,-0.365378,1.497399,-0.402378,
1.497266,-0.402607,1.475266,-0.438607,1.475085,-0.438883,1.451085,-0.472883,1.450985,-0.473019,1.425985,-0.506019,1.425821,-0.506224,1.398821,-0.538224,1.398651,-0.538416,1.369651,-0.569416,1.369416,-0.569651,1.338416,-0.598651,1.338224,-0.598821,1.306224,-0.625821,1.306019,-0.625985,1.273019,-0.650985,1.272883,-0.651085,1.238883,-0.675085,1.238607,-0.675266,1.202607,-0.697266,
1.202378,-0.697399,1.165378,-0.717399,1.165140,-0.717519,1.127140,-0.735519,1.126940,-0.735608,1.088940,-0.751608,1.088652,-0.751719,1.048652,-0.765719,1.048437,-0.765789,1.008437,-0.777789,1.008185,-0.777858,0.967185,-0.787858,0.966841,-0.787929,0.925841,-0.794929,0.925724,-0.794947,0.884724,-0.800947,0.884356,-0.800987,0.842356,-0.803987,0.842119,-0.803999,0.800119,-0.804999,
0.800000,-0.805000,-1.600000,-0.805000,-1.603536,-0.803536,-1.605000,-0.800000,-1.605000,0.800000,-1.603536,0.803536,-1.600000,0.805000,0.800000,0.805000,0.800119,0.804999,0.800119,0.804999,$1*%
G04 Aperture macros list end*
%ADD10RoundRect,0.200000X0.275000X-0.200000X0.275000X0.200000X-0.275000X0.200000X-0.275000X-0.200000X0*%
%ADD11RoundRect,0.200000X-0.275000X0.200000X-0.275000X-0.200000X0.275000X-0.200000X0.275000X0.200000X0*%
%ADD12RoundRect,0.225000X0.250000X-0.225000X0.250000X0.225000X-0.250000X0.225000X-0.250000X-0.225000X0*%
%ADD13FreePoly0,0.000000*%
%ADD14FreePoly0,180.000000*%
%ADD15O,1.100000X1.800000*%
%ADD16O,1.050000X1.450000*%
%ADD17R,1.574800X1.574800*%
%ADD18C,1.574800*%
%ADD19RoundRect,0.300000X-0.450000X-0.450000X0.450000X-0.450000X0.450000X0.450000X-0.450000X0.450000X0*%
G04 APERTURE END LIST*
D10*
X125200000Y-91425000D03*
X125200000Y-89775000D03*
X125200000Y-87625000D03*
X125200000Y-85975000D03*
D11*
X129400000Y-79175000D03*
X129400000Y-80825000D03*
D12*
X128000000Y-87575000D03*
X128000000Y-86025000D03*
D11*
X127400000Y-79175000D03*
X127400000Y-80825000D03*
D13*
X102810000Y-68000000D03*
X102810000Y-70540000D03*
X102810000Y-73080000D03*
X102810000Y-75620000D03*
X102810000Y-78160000D03*
X102810000Y-80700000D03*
X102810000Y-83240000D03*
X102810000Y-85780000D03*
X102810000Y-88320000D03*
X102810000Y-90860000D03*
X102810000Y-93400000D03*
X102810000Y-95940000D03*
X102810000Y-98480000D03*
X102810000Y-101020000D03*
X102810000Y-103560000D03*
X102810000Y-106100000D03*
X102810000Y-108640000D03*
X102810000Y-111180000D03*
X102810000Y-113720000D03*
X102810000Y-116260000D03*
D14*
X122190000Y-116260000D03*
X122190000Y-113720000D03*
X122190000Y-111180000D03*
X122190000Y-108640000D03*
X122190000Y-106100000D03*
X122190000Y-103560000D03*
X122190000Y-101020000D03*
X122190000Y-98480000D03*
X122190000Y-95940000D03*
X122190000Y-93400000D03*
X122190000Y-90860000D03*
X122190000Y-88320000D03*
X122190000Y-85780000D03*
X122190000Y-83240000D03*
X122190000Y-80700000D03*
X122190000Y-78160000D03*
X122190000Y-75620000D03*
X122190000Y-73080000D03*
X122190000Y-70540000D03*
X122190000Y-68000000D03*
D15*
X109775000Y-68130000D03*
X115225000Y-68130000D03*
D16*
X110075000Y-71160000D03*
X114925000Y-71160000D03*
D17*
X113084100Y-97830000D03*
D18*
X115624100Y-97830000D03*
X118164100Y-97830000D03*
D19*
X112500000Y-71130000D03*
X113500000Y-67830000D03*
X111500000Y-67830000D03*
X110000000Y-76130000D03*
X110000000Y-78630000D03*
X110000000Y-81130000D03*
M02*
