G04 #@! TF.GenerationSoftware,KiCad,Pcbnew,8.0.7*
G04 #@! TF.CreationDate,2025-02-13T09:18:49+05:30*
G04 #@! TF.ProjectId,pico_ov7670_adapter,7069636f-5f6f-4763-9736-37305f616461,Ver 1.0*
G04 #@! TF.SameCoordinates,Original*
G04 #@! TF.FileFunction,Soldermask,Top*
G04 #@! TF.FilePolarity,Negative*
%FSLAX46Y46*%
G04 Gerber Fmt 4.6, Leading zero omitted, Abs format (unit mm)*
G04 Created by KiCad (PCBNEW 8.0.7) date 2025-02-13 09:18:49*
%MOMM*%
%LPD*%
G01*
G04 APERTURE LIST*
G04 Aperture macros list*
%AMRoundRect*
0 Rectangle with rounded corners*
0 $1 Rounding radius*
0 $2 $3 $4 $5 $6 $7 $8 $9 X,Y pos of 4 corners*
0 Add a 4 corners polygon primitive as box body*
4,1,4,$2,$3,$4,$5,$6,$7,$8,$9,$2,$3,0*
0 Add four circle primitives for the rounded corners*
1,1,$1+$1,$2,$3*
1,1,$1+$1,$4,$5*
1,1,$1+$1,$6,$7*
1,1,$1+$1,$8,$9*
0 Add four rect primitives between the rounded corners*
20,1,$1+$1,$2,$3,$4,$5,0*
20,1,$1+$1,$4,$5,$6,$7,0*
20,1,$1+$1,$6,$7,$8,$9,0*
20,1,$1+$1,$8,$9,$2,$3,0*%
G04 Aperture macros list end*
%ADD10C,0.010000*%
%ADD11R,1.700000X1.700000*%
%ADD12O,1.700000X1.700000*%
%ADD13RoundRect,0.200000X0.275000X-0.200000X0.275000X0.200000X-0.275000X0.200000X-0.275000X-0.200000X0*%
%ADD14C,3.200000*%
%ADD15C,1.000000*%
%ADD16RoundRect,0.200000X-0.275000X0.200000X-0.275000X-0.200000X0.275000X-0.200000X0.275000X0.200000X0*%
%ADD17RoundRect,0.225000X0.250000X-0.225000X0.250000X0.225000X-0.250000X0.225000X-0.250000X-0.225000X0*%
%ADD18C,1.700000*%
%ADD19O,1.304000X2.004000*%
%ADD20O,1.254000X1.654000*%
%ADD21RoundRect,0.102000X-0.787400X-0.787400X0.787400X-0.787400X0.787400X0.787400X-0.787400X0.787400X0*%
%ADD22C,1.778800*%
%ADD23RoundRect,0.340800X-0.511200X-0.511200X0.511200X-0.511200X0.511200X0.511200X-0.511200X0.511200X0*%
G04 APERTURE END LIST*
D10*
X103657000Y-67101000D02*
X103704000Y-67105000D01*
X103751000Y-67111000D01*
X103797000Y-67120000D01*
X103843000Y-67131000D01*
X103888000Y-67144000D01*
X103933000Y-67160000D01*
X103976000Y-67178000D01*
X104019000Y-67198000D01*
X104060000Y-67221000D01*
X104100000Y-67245000D01*
X104139000Y-67272000D01*
X104176000Y-67301000D01*
X104212000Y-67331000D01*
X104246000Y-67364000D01*
X104279000Y-67398000D01*
X104309000Y-67434000D01*
X104338000Y-67471000D01*
X104365000Y-67510000D01*
X104389000Y-67550000D01*
X104412000Y-67591000D01*
X104432000Y-67634000D01*
X104450000Y-67677000D01*
X104466000Y-67722000D01*
X104479000Y-67767000D01*
X104490000Y-67813000D01*
X104499000Y-67859000D01*
X104505000Y-67906000D01*
X104509000Y-67953000D01*
X104510000Y-68000000D01*
X104509000Y-68047000D01*
X104505000Y-68094000D01*
X104499000Y-68141000D01*
X104490000Y-68187000D01*
X104479000Y-68233000D01*
X104466000Y-68278000D01*
X104450000Y-68323000D01*
X104432000Y-68366000D01*
X104412000Y-68409000D01*
X104389000Y-68450000D01*
X104365000Y-68490000D01*
X104338000Y-68529000D01*
X104309000Y-68566000D01*
X104279000Y-68602000D01*
X104246000Y-68636000D01*
X104212000Y-68669000D01*
X104176000Y-68699000D01*
X104139000Y-68728000D01*
X104100000Y-68755000D01*
X104060000Y-68779000D01*
X104019000Y-68802000D01*
X103976000Y-68822000D01*
X103933000Y-68840000D01*
X103888000Y-68856000D01*
X103843000Y-68869000D01*
X103797000Y-68880000D01*
X103751000Y-68889000D01*
X103704000Y-68895000D01*
X103657000Y-68899000D01*
X103610000Y-68900000D01*
X101110000Y-68900000D01*
X101110000Y-67100000D01*
X103610000Y-67100000D01*
X103657000Y-67101000D01*
G36*
X103657000Y-67101000D02*
G01*
X103704000Y-67105000D01*
X103751000Y-67111000D01*
X103797000Y-67120000D01*
X103843000Y-67131000D01*
X103888000Y-67144000D01*
X103933000Y-67160000D01*
X103976000Y-67178000D01*
X104019000Y-67198000D01*
X104060000Y-67221000D01*
X104100000Y-67245000D01*
X104139000Y-67272000D01*
X104176000Y-67301000D01*
X104212000Y-67331000D01*
X104246000Y-67364000D01*
X104279000Y-67398000D01*
X104309000Y-67434000D01*
X104338000Y-67471000D01*
X104365000Y-67510000D01*
X104389000Y-67550000D01*
X104412000Y-67591000D01*
X104432000Y-67634000D01*
X104450000Y-67677000D01*
X104466000Y-67722000D01*
X104479000Y-67767000D01*
X104490000Y-67813000D01*
X104499000Y-67859000D01*
X104505000Y-67906000D01*
X104509000Y-67953000D01*
X104510000Y-68000000D01*
X104509000Y-68047000D01*
X104505000Y-68094000D01*
X104499000Y-68141000D01*
X104490000Y-68187000D01*
X104479000Y-68233000D01*
X104466000Y-68278000D01*
X104450000Y-68323000D01*
X104432000Y-68366000D01*
X104412000Y-68409000D01*
X104389000Y-68450000D01*
X104365000Y-68490000D01*
X104338000Y-68529000D01*
X104309000Y-68566000D01*
X104279000Y-68602000D01*
X104246000Y-68636000D01*
X104212000Y-68669000D01*
X104176000Y-68699000D01*
X104139000Y-68728000D01*
X104100000Y-68755000D01*
X104060000Y-68779000D01*
X104019000Y-68802000D01*
X103976000Y-68822000D01*
X103933000Y-68840000D01*
X103888000Y-68856000D01*
X103843000Y-68869000D01*
X103797000Y-68880000D01*
X103751000Y-68889000D01*
X103704000Y-68895000D01*
X103657000Y-68899000D01*
X103610000Y-68900000D01*
X101110000Y-68900000D01*
X101110000Y-67100000D01*
X103610000Y-67100000D01*
X103657000Y-67101000D01*
G37*
X103657000Y-69641000D02*
X103704000Y-69645000D01*
X103751000Y-69651000D01*
X103797000Y-69660000D01*
X103843000Y-69671000D01*
X103888000Y-69684000D01*
X103933000Y-69700000D01*
X103976000Y-69718000D01*
X104019000Y-69738000D01*
X104060000Y-69761000D01*
X104100000Y-69785000D01*
X104139000Y-69812000D01*
X104176000Y-69841000D01*
X104212000Y-69871000D01*
X104246000Y-69904000D01*
X104279000Y-69938000D01*
X104309000Y-69974000D01*
X104338000Y-70011000D01*
X104365000Y-70050000D01*
X104389000Y-70090000D01*
X104412000Y-70131000D01*
X104432000Y-70174000D01*
X104450000Y-70217000D01*
X104466000Y-70262000D01*
X104479000Y-70307000D01*
X104490000Y-70353000D01*
X104499000Y-70399000D01*
X104505000Y-70446000D01*
X104509000Y-70493000D01*
X104510000Y-70540000D01*
X104509000Y-70587000D01*
X104505000Y-70634000D01*
X104499000Y-70681000D01*
X104490000Y-70727000D01*
X104479000Y-70773000D01*
X104466000Y-70818000D01*
X104450000Y-70863000D01*
X104432000Y-70906000D01*
X104412000Y-70949000D01*
X104389000Y-70990000D01*
X104365000Y-71030000D01*
X104338000Y-71069000D01*
X104309000Y-71106000D01*
X104279000Y-71142000D01*
X104246000Y-71176000D01*
X104212000Y-71209000D01*
X104176000Y-71239000D01*
X104139000Y-71268000D01*
X104100000Y-71295000D01*
X104060000Y-71319000D01*
X104019000Y-71342000D01*
X103976000Y-71362000D01*
X103933000Y-71380000D01*
X103888000Y-71396000D01*
X103843000Y-71409000D01*
X103797000Y-71420000D01*
X103751000Y-71429000D01*
X103704000Y-71435000D01*
X103657000Y-71439000D01*
X103610000Y-71440000D01*
X101110000Y-71440000D01*
X101110000Y-69640000D01*
X103610000Y-69640000D01*
X103657000Y-69641000D01*
G36*
X103657000Y-69641000D02*
G01*
X103704000Y-69645000D01*
X103751000Y-69651000D01*
X103797000Y-69660000D01*
X103843000Y-69671000D01*
X103888000Y-69684000D01*
X103933000Y-69700000D01*
X103976000Y-69718000D01*
X104019000Y-69738000D01*
X104060000Y-69761000D01*
X104100000Y-69785000D01*
X104139000Y-69812000D01*
X104176000Y-69841000D01*
X104212000Y-69871000D01*
X104246000Y-69904000D01*
X104279000Y-69938000D01*
X104309000Y-69974000D01*
X104338000Y-70011000D01*
X104365000Y-70050000D01*
X104389000Y-70090000D01*
X104412000Y-70131000D01*
X104432000Y-70174000D01*
X104450000Y-70217000D01*
X104466000Y-70262000D01*
X104479000Y-70307000D01*
X104490000Y-70353000D01*
X104499000Y-70399000D01*
X104505000Y-70446000D01*
X104509000Y-70493000D01*
X104510000Y-70540000D01*
X104509000Y-70587000D01*
X104505000Y-70634000D01*
X104499000Y-70681000D01*
X104490000Y-70727000D01*
X104479000Y-70773000D01*
X104466000Y-70818000D01*
X104450000Y-70863000D01*
X104432000Y-70906000D01*
X104412000Y-70949000D01*
X104389000Y-70990000D01*
X104365000Y-71030000D01*
X104338000Y-71069000D01*
X104309000Y-71106000D01*
X104279000Y-71142000D01*
X104246000Y-71176000D01*
X104212000Y-71209000D01*
X104176000Y-71239000D01*
X104139000Y-71268000D01*
X104100000Y-71295000D01*
X104060000Y-71319000D01*
X104019000Y-71342000D01*
X103976000Y-71362000D01*
X103933000Y-71380000D01*
X103888000Y-71396000D01*
X103843000Y-71409000D01*
X103797000Y-71420000D01*
X103751000Y-71429000D01*
X103704000Y-71435000D01*
X103657000Y-71439000D01*
X103610000Y-71440000D01*
X101110000Y-71440000D01*
X101110000Y-69640000D01*
X103610000Y-69640000D01*
X103657000Y-69641000D01*
G37*
X103657000Y-74721000D02*
X103704000Y-74725000D01*
X103751000Y-74731000D01*
X103797000Y-74740000D01*
X103843000Y-74751000D01*
X103888000Y-74764000D01*
X103933000Y-74780000D01*
X103976000Y-74798000D01*
X104019000Y-74818000D01*
X104060000Y-74841000D01*
X104100000Y-74865000D01*
X104139000Y-74892000D01*
X104176000Y-74921000D01*
X104212000Y-74951000D01*
X104246000Y-74984000D01*
X104279000Y-75018000D01*
X104309000Y-75054000D01*
X104338000Y-75091000D01*
X104365000Y-75130000D01*
X104389000Y-75170000D01*
X104412000Y-75211000D01*
X104432000Y-75254000D01*
X104450000Y-75297000D01*
X104466000Y-75342000D01*
X104479000Y-75387000D01*
X104490000Y-75433000D01*
X104499000Y-75479000D01*
X104505000Y-75526000D01*
X104509000Y-75573000D01*
X104510000Y-75620000D01*
X104509000Y-75667000D01*
X104505000Y-75714000D01*
X104499000Y-75761000D01*
X104490000Y-75807000D01*
X104479000Y-75853000D01*
X104466000Y-75898000D01*
X104450000Y-75943000D01*
X104432000Y-75986000D01*
X104412000Y-76029000D01*
X104389000Y-76070000D01*
X104365000Y-76110000D01*
X104338000Y-76149000D01*
X104309000Y-76186000D01*
X104279000Y-76222000D01*
X104246000Y-76256000D01*
X104212000Y-76289000D01*
X104176000Y-76319000D01*
X104139000Y-76348000D01*
X104100000Y-76375000D01*
X104060000Y-76399000D01*
X104019000Y-76422000D01*
X103976000Y-76442000D01*
X103933000Y-76460000D01*
X103888000Y-76476000D01*
X103843000Y-76489000D01*
X103797000Y-76500000D01*
X103751000Y-76509000D01*
X103704000Y-76515000D01*
X103657000Y-76519000D01*
X103610000Y-76520000D01*
X101110000Y-76520000D01*
X101110000Y-74720000D01*
X103610000Y-74720000D01*
X103657000Y-74721000D01*
G36*
X103657000Y-74721000D02*
G01*
X103704000Y-74725000D01*
X103751000Y-74731000D01*
X103797000Y-74740000D01*
X103843000Y-74751000D01*
X103888000Y-74764000D01*
X103933000Y-74780000D01*
X103976000Y-74798000D01*
X104019000Y-74818000D01*
X104060000Y-74841000D01*
X104100000Y-74865000D01*
X104139000Y-74892000D01*
X104176000Y-74921000D01*
X104212000Y-74951000D01*
X104246000Y-74984000D01*
X104279000Y-75018000D01*
X104309000Y-75054000D01*
X104338000Y-75091000D01*
X104365000Y-75130000D01*
X104389000Y-75170000D01*
X104412000Y-75211000D01*
X104432000Y-75254000D01*
X104450000Y-75297000D01*
X104466000Y-75342000D01*
X104479000Y-75387000D01*
X104490000Y-75433000D01*
X104499000Y-75479000D01*
X104505000Y-75526000D01*
X104509000Y-75573000D01*
X104510000Y-75620000D01*
X104509000Y-75667000D01*
X104505000Y-75714000D01*
X104499000Y-75761000D01*
X104490000Y-75807000D01*
X104479000Y-75853000D01*
X104466000Y-75898000D01*
X104450000Y-75943000D01*
X104432000Y-75986000D01*
X104412000Y-76029000D01*
X104389000Y-76070000D01*
X104365000Y-76110000D01*
X104338000Y-76149000D01*
X104309000Y-76186000D01*
X104279000Y-76222000D01*
X104246000Y-76256000D01*
X104212000Y-76289000D01*
X104176000Y-76319000D01*
X104139000Y-76348000D01*
X104100000Y-76375000D01*
X104060000Y-76399000D01*
X104019000Y-76422000D01*
X103976000Y-76442000D01*
X103933000Y-76460000D01*
X103888000Y-76476000D01*
X103843000Y-76489000D01*
X103797000Y-76500000D01*
X103751000Y-76509000D01*
X103704000Y-76515000D01*
X103657000Y-76519000D01*
X103610000Y-76520000D01*
X101110000Y-76520000D01*
X101110000Y-74720000D01*
X103610000Y-74720000D01*
X103657000Y-74721000D01*
G37*
X103657000Y-77261000D02*
X103704000Y-77265000D01*
X103751000Y-77271000D01*
X103797000Y-77280000D01*
X103843000Y-77291000D01*
X103888000Y-77304000D01*
X103933000Y-77320000D01*
X103976000Y-77338000D01*
X104019000Y-77358000D01*
X104060000Y-77381000D01*
X104100000Y-77405000D01*
X104139000Y-77432000D01*
X104176000Y-77461000D01*
X104212000Y-77491000D01*
X104246000Y-77524000D01*
X104279000Y-77558000D01*
X104309000Y-77594000D01*
X104338000Y-77631000D01*
X104365000Y-77670000D01*
X104389000Y-77710000D01*
X104412000Y-77751000D01*
X104432000Y-77794000D01*
X104450000Y-77837000D01*
X104466000Y-77882000D01*
X104479000Y-77927000D01*
X104490000Y-77973000D01*
X104499000Y-78019000D01*
X104505000Y-78066000D01*
X104509000Y-78113000D01*
X104510000Y-78160000D01*
X104509000Y-78207000D01*
X104505000Y-78254000D01*
X104499000Y-78301000D01*
X104490000Y-78347000D01*
X104479000Y-78393000D01*
X104466000Y-78438000D01*
X104450000Y-78483000D01*
X104432000Y-78526000D01*
X104412000Y-78569000D01*
X104389000Y-78610000D01*
X104365000Y-78650000D01*
X104338000Y-78689000D01*
X104309000Y-78726000D01*
X104279000Y-78762000D01*
X104246000Y-78796000D01*
X104212000Y-78829000D01*
X104176000Y-78859000D01*
X104139000Y-78888000D01*
X104100000Y-78915000D01*
X104060000Y-78939000D01*
X104019000Y-78962000D01*
X103976000Y-78982000D01*
X103933000Y-79000000D01*
X103888000Y-79016000D01*
X103843000Y-79029000D01*
X103797000Y-79040000D01*
X103751000Y-79049000D01*
X103704000Y-79055000D01*
X103657000Y-79059000D01*
X103610000Y-79060000D01*
X101110000Y-79060000D01*
X101110000Y-77260000D01*
X103610000Y-77260000D01*
X103657000Y-77261000D01*
G36*
X103657000Y-77261000D02*
G01*
X103704000Y-77265000D01*
X103751000Y-77271000D01*
X103797000Y-77280000D01*
X103843000Y-77291000D01*
X103888000Y-77304000D01*
X103933000Y-77320000D01*
X103976000Y-77338000D01*
X104019000Y-77358000D01*
X104060000Y-77381000D01*
X104100000Y-77405000D01*
X104139000Y-77432000D01*
X104176000Y-77461000D01*
X104212000Y-77491000D01*
X104246000Y-77524000D01*
X104279000Y-77558000D01*
X104309000Y-77594000D01*
X104338000Y-77631000D01*
X104365000Y-77670000D01*
X104389000Y-77710000D01*
X104412000Y-77751000D01*
X104432000Y-77794000D01*
X104450000Y-77837000D01*
X104466000Y-77882000D01*
X104479000Y-77927000D01*
X104490000Y-77973000D01*
X104499000Y-78019000D01*
X104505000Y-78066000D01*
X104509000Y-78113000D01*
X104510000Y-78160000D01*
X104509000Y-78207000D01*
X104505000Y-78254000D01*
X104499000Y-78301000D01*
X104490000Y-78347000D01*
X104479000Y-78393000D01*
X104466000Y-78438000D01*
X104450000Y-78483000D01*
X104432000Y-78526000D01*
X104412000Y-78569000D01*
X104389000Y-78610000D01*
X104365000Y-78650000D01*
X104338000Y-78689000D01*
X104309000Y-78726000D01*
X104279000Y-78762000D01*
X104246000Y-78796000D01*
X104212000Y-78829000D01*
X104176000Y-78859000D01*
X104139000Y-78888000D01*
X104100000Y-78915000D01*
X104060000Y-78939000D01*
X104019000Y-78962000D01*
X103976000Y-78982000D01*
X103933000Y-79000000D01*
X103888000Y-79016000D01*
X103843000Y-79029000D01*
X103797000Y-79040000D01*
X103751000Y-79049000D01*
X103704000Y-79055000D01*
X103657000Y-79059000D01*
X103610000Y-79060000D01*
X101110000Y-79060000D01*
X101110000Y-77260000D01*
X103610000Y-77260000D01*
X103657000Y-77261000D01*
G37*
X103657000Y-79801000D02*
X103704000Y-79805000D01*
X103751000Y-79811000D01*
X103797000Y-79820000D01*
X103843000Y-79831000D01*
X103888000Y-79844000D01*
X103933000Y-79860000D01*
X103976000Y-79878000D01*
X104019000Y-79898000D01*
X104060000Y-79921000D01*
X104100000Y-79945000D01*
X104139000Y-79972000D01*
X104176000Y-80001000D01*
X104212000Y-80031000D01*
X104246000Y-80064000D01*
X104279000Y-80098000D01*
X104309000Y-80134000D01*
X104338000Y-80171000D01*
X104365000Y-80210000D01*
X104389000Y-80250000D01*
X104412000Y-80291000D01*
X104432000Y-80334000D01*
X104450000Y-80377000D01*
X104466000Y-80422000D01*
X104479000Y-80467000D01*
X104490000Y-80513000D01*
X104499000Y-80559000D01*
X104505000Y-80606000D01*
X104509000Y-80653000D01*
X104510000Y-80700000D01*
X104509000Y-80747000D01*
X104505000Y-80794000D01*
X104499000Y-80841000D01*
X104490000Y-80887000D01*
X104479000Y-80933000D01*
X104466000Y-80978000D01*
X104450000Y-81023000D01*
X104432000Y-81066000D01*
X104412000Y-81109000D01*
X104389000Y-81150000D01*
X104365000Y-81190000D01*
X104338000Y-81229000D01*
X104309000Y-81266000D01*
X104279000Y-81302000D01*
X104246000Y-81336000D01*
X104212000Y-81369000D01*
X104176000Y-81399000D01*
X104139000Y-81428000D01*
X104100000Y-81455000D01*
X104060000Y-81479000D01*
X104019000Y-81502000D01*
X103976000Y-81522000D01*
X103933000Y-81540000D01*
X103888000Y-81556000D01*
X103843000Y-81569000D01*
X103797000Y-81580000D01*
X103751000Y-81589000D01*
X103704000Y-81595000D01*
X103657000Y-81599000D01*
X103610000Y-81600000D01*
X101110000Y-81600000D01*
X101110000Y-79800000D01*
X103610000Y-79800000D01*
X103657000Y-79801000D01*
G36*
X103657000Y-79801000D02*
G01*
X103704000Y-79805000D01*
X103751000Y-79811000D01*
X103797000Y-79820000D01*
X103843000Y-79831000D01*
X103888000Y-79844000D01*
X103933000Y-79860000D01*
X103976000Y-79878000D01*
X104019000Y-79898000D01*
X104060000Y-79921000D01*
X104100000Y-79945000D01*
X104139000Y-79972000D01*
X104176000Y-80001000D01*
X104212000Y-80031000D01*
X104246000Y-80064000D01*
X104279000Y-80098000D01*
X104309000Y-80134000D01*
X104338000Y-80171000D01*
X104365000Y-80210000D01*
X104389000Y-80250000D01*
X104412000Y-80291000D01*
X104432000Y-80334000D01*
X104450000Y-80377000D01*
X104466000Y-80422000D01*
X104479000Y-80467000D01*
X104490000Y-80513000D01*
X104499000Y-80559000D01*
X104505000Y-80606000D01*
X104509000Y-80653000D01*
X104510000Y-80700000D01*
X104509000Y-80747000D01*
X104505000Y-80794000D01*
X104499000Y-80841000D01*
X104490000Y-80887000D01*
X104479000Y-80933000D01*
X104466000Y-80978000D01*
X104450000Y-81023000D01*
X104432000Y-81066000D01*
X104412000Y-81109000D01*
X104389000Y-81150000D01*
X104365000Y-81190000D01*
X104338000Y-81229000D01*
X104309000Y-81266000D01*
X104279000Y-81302000D01*
X104246000Y-81336000D01*
X104212000Y-81369000D01*
X104176000Y-81399000D01*
X104139000Y-81428000D01*
X104100000Y-81455000D01*
X104060000Y-81479000D01*
X104019000Y-81502000D01*
X103976000Y-81522000D01*
X103933000Y-81540000D01*
X103888000Y-81556000D01*
X103843000Y-81569000D01*
X103797000Y-81580000D01*
X103751000Y-81589000D01*
X103704000Y-81595000D01*
X103657000Y-81599000D01*
X103610000Y-81600000D01*
X101110000Y-81600000D01*
X101110000Y-79800000D01*
X103610000Y-79800000D01*
X103657000Y-79801000D01*
G37*
X103657000Y-82341000D02*
X103704000Y-82345000D01*
X103751000Y-82351000D01*
X103797000Y-82360000D01*
X103843000Y-82371000D01*
X103888000Y-82384000D01*
X103933000Y-82400000D01*
X103976000Y-82418000D01*
X104019000Y-82438000D01*
X104060000Y-82461000D01*
X104100000Y-82485000D01*
X104139000Y-82512000D01*
X104176000Y-82541000D01*
X104212000Y-82571000D01*
X104246000Y-82604000D01*
X104279000Y-82638000D01*
X104309000Y-82674000D01*
X104338000Y-82711000D01*
X104365000Y-82750000D01*
X104389000Y-82790000D01*
X104412000Y-82831000D01*
X104432000Y-82874000D01*
X104450000Y-82917000D01*
X104466000Y-82962000D01*
X104479000Y-83007000D01*
X104490000Y-83053000D01*
X104499000Y-83099000D01*
X104505000Y-83146000D01*
X104509000Y-83193000D01*
X104510000Y-83240000D01*
X104509000Y-83287000D01*
X104505000Y-83334000D01*
X104499000Y-83381000D01*
X104490000Y-83427000D01*
X104479000Y-83473000D01*
X104466000Y-83518000D01*
X104450000Y-83563000D01*
X104432000Y-83606000D01*
X104412000Y-83649000D01*
X104389000Y-83690000D01*
X104365000Y-83730000D01*
X104338000Y-83769000D01*
X104309000Y-83806000D01*
X104279000Y-83842000D01*
X104246000Y-83876000D01*
X104212000Y-83909000D01*
X104176000Y-83939000D01*
X104139000Y-83968000D01*
X104100000Y-83995000D01*
X104060000Y-84019000D01*
X104019000Y-84042000D01*
X103976000Y-84062000D01*
X103933000Y-84080000D01*
X103888000Y-84096000D01*
X103843000Y-84109000D01*
X103797000Y-84120000D01*
X103751000Y-84129000D01*
X103704000Y-84135000D01*
X103657000Y-84139000D01*
X103610000Y-84140000D01*
X101110000Y-84140000D01*
X101110000Y-82340000D01*
X103610000Y-82340000D01*
X103657000Y-82341000D01*
G36*
X103657000Y-82341000D02*
G01*
X103704000Y-82345000D01*
X103751000Y-82351000D01*
X103797000Y-82360000D01*
X103843000Y-82371000D01*
X103888000Y-82384000D01*
X103933000Y-82400000D01*
X103976000Y-82418000D01*
X104019000Y-82438000D01*
X104060000Y-82461000D01*
X104100000Y-82485000D01*
X104139000Y-82512000D01*
X104176000Y-82541000D01*
X104212000Y-82571000D01*
X104246000Y-82604000D01*
X104279000Y-82638000D01*
X104309000Y-82674000D01*
X104338000Y-82711000D01*
X104365000Y-82750000D01*
X104389000Y-82790000D01*
X104412000Y-82831000D01*
X104432000Y-82874000D01*
X104450000Y-82917000D01*
X104466000Y-82962000D01*
X104479000Y-83007000D01*
X104490000Y-83053000D01*
X104499000Y-83099000D01*
X104505000Y-83146000D01*
X104509000Y-83193000D01*
X104510000Y-83240000D01*
X104509000Y-83287000D01*
X104505000Y-83334000D01*
X104499000Y-83381000D01*
X104490000Y-83427000D01*
X104479000Y-83473000D01*
X104466000Y-83518000D01*
X104450000Y-83563000D01*
X104432000Y-83606000D01*
X104412000Y-83649000D01*
X104389000Y-83690000D01*
X104365000Y-83730000D01*
X104338000Y-83769000D01*
X104309000Y-83806000D01*
X104279000Y-83842000D01*
X104246000Y-83876000D01*
X104212000Y-83909000D01*
X104176000Y-83939000D01*
X104139000Y-83968000D01*
X104100000Y-83995000D01*
X104060000Y-84019000D01*
X104019000Y-84042000D01*
X103976000Y-84062000D01*
X103933000Y-84080000D01*
X103888000Y-84096000D01*
X103843000Y-84109000D01*
X103797000Y-84120000D01*
X103751000Y-84129000D01*
X103704000Y-84135000D01*
X103657000Y-84139000D01*
X103610000Y-84140000D01*
X101110000Y-84140000D01*
X101110000Y-82340000D01*
X103610000Y-82340000D01*
X103657000Y-82341000D01*
G37*
X103657000Y-87421000D02*
X103704000Y-87425000D01*
X103751000Y-87431000D01*
X103797000Y-87440000D01*
X103843000Y-87451000D01*
X103888000Y-87464000D01*
X103933000Y-87480000D01*
X103976000Y-87498000D01*
X104019000Y-87518000D01*
X104060000Y-87541000D01*
X104100000Y-87565000D01*
X104139000Y-87592000D01*
X104176000Y-87621000D01*
X104212000Y-87651000D01*
X104246000Y-87684000D01*
X104279000Y-87718000D01*
X104309000Y-87754000D01*
X104338000Y-87791000D01*
X104365000Y-87830000D01*
X104389000Y-87870000D01*
X104412000Y-87911000D01*
X104432000Y-87954000D01*
X104450000Y-87997000D01*
X104466000Y-88042000D01*
X104479000Y-88087000D01*
X104490000Y-88133000D01*
X104499000Y-88179000D01*
X104505000Y-88226000D01*
X104509000Y-88273000D01*
X104510000Y-88320000D01*
X104509000Y-88367000D01*
X104505000Y-88414000D01*
X104499000Y-88461000D01*
X104490000Y-88507000D01*
X104479000Y-88553000D01*
X104466000Y-88598000D01*
X104450000Y-88643000D01*
X104432000Y-88686000D01*
X104412000Y-88729000D01*
X104389000Y-88770000D01*
X104365000Y-88810000D01*
X104338000Y-88849000D01*
X104309000Y-88886000D01*
X104279000Y-88922000D01*
X104246000Y-88956000D01*
X104212000Y-88989000D01*
X104176000Y-89019000D01*
X104139000Y-89048000D01*
X104100000Y-89075000D01*
X104060000Y-89099000D01*
X104019000Y-89122000D01*
X103976000Y-89142000D01*
X103933000Y-89160000D01*
X103888000Y-89176000D01*
X103843000Y-89189000D01*
X103797000Y-89200000D01*
X103751000Y-89209000D01*
X103704000Y-89215000D01*
X103657000Y-89219000D01*
X103610000Y-89220000D01*
X101110000Y-89220000D01*
X101110000Y-87420000D01*
X103610000Y-87420000D01*
X103657000Y-87421000D01*
G36*
X103657000Y-87421000D02*
G01*
X103704000Y-87425000D01*
X103751000Y-87431000D01*
X103797000Y-87440000D01*
X103843000Y-87451000D01*
X103888000Y-87464000D01*
X103933000Y-87480000D01*
X103976000Y-87498000D01*
X104019000Y-87518000D01*
X104060000Y-87541000D01*
X104100000Y-87565000D01*
X104139000Y-87592000D01*
X104176000Y-87621000D01*
X104212000Y-87651000D01*
X104246000Y-87684000D01*
X104279000Y-87718000D01*
X104309000Y-87754000D01*
X104338000Y-87791000D01*
X104365000Y-87830000D01*
X104389000Y-87870000D01*
X104412000Y-87911000D01*
X104432000Y-87954000D01*
X104450000Y-87997000D01*
X104466000Y-88042000D01*
X104479000Y-88087000D01*
X104490000Y-88133000D01*
X104499000Y-88179000D01*
X104505000Y-88226000D01*
X104509000Y-88273000D01*
X104510000Y-88320000D01*
X104509000Y-88367000D01*
X104505000Y-88414000D01*
X104499000Y-88461000D01*
X104490000Y-88507000D01*
X104479000Y-88553000D01*
X104466000Y-88598000D01*
X104450000Y-88643000D01*
X104432000Y-88686000D01*
X104412000Y-88729000D01*
X104389000Y-88770000D01*
X104365000Y-88810000D01*
X104338000Y-88849000D01*
X104309000Y-88886000D01*
X104279000Y-88922000D01*
X104246000Y-88956000D01*
X104212000Y-88989000D01*
X104176000Y-89019000D01*
X104139000Y-89048000D01*
X104100000Y-89075000D01*
X104060000Y-89099000D01*
X104019000Y-89122000D01*
X103976000Y-89142000D01*
X103933000Y-89160000D01*
X103888000Y-89176000D01*
X103843000Y-89189000D01*
X103797000Y-89200000D01*
X103751000Y-89209000D01*
X103704000Y-89215000D01*
X103657000Y-89219000D01*
X103610000Y-89220000D01*
X101110000Y-89220000D01*
X101110000Y-87420000D01*
X103610000Y-87420000D01*
X103657000Y-87421000D01*
G37*
X103657000Y-89961000D02*
X103704000Y-89965000D01*
X103751000Y-89971000D01*
X103797000Y-89980000D01*
X103843000Y-89991000D01*
X103888000Y-90004000D01*
X103933000Y-90020000D01*
X103976000Y-90038000D01*
X104019000Y-90058000D01*
X104060000Y-90081000D01*
X104100000Y-90105000D01*
X104139000Y-90132000D01*
X104176000Y-90161000D01*
X104212000Y-90191000D01*
X104246000Y-90224000D01*
X104279000Y-90258000D01*
X104309000Y-90294000D01*
X104338000Y-90331000D01*
X104365000Y-90370000D01*
X104389000Y-90410000D01*
X104412000Y-90451000D01*
X104432000Y-90494000D01*
X104450000Y-90537000D01*
X104466000Y-90582000D01*
X104479000Y-90627000D01*
X104490000Y-90673000D01*
X104499000Y-90719000D01*
X104505000Y-90766000D01*
X104509000Y-90813000D01*
X104510000Y-90860000D01*
X104509000Y-90907000D01*
X104505000Y-90954000D01*
X104499000Y-91001000D01*
X104490000Y-91047000D01*
X104479000Y-91093000D01*
X104466000Y-91138000D01*
X104450000Y-91183000D01*
X104432000Y-91226000D01*
X104412000Y-91269000D01*
X104389000Y-91310000D01*
X104365000Y-91350000D01*
X104338000Y-91389000D01*
X104309000Y-91426000D01*
X104279000Y-91462000D01*
X104246000Y-91496000D01*
X104212000Y-91529000D01*
X104176000Y-91559000D01*
X104139000Y-91588000D01*
X104100000Y-91615000D01*
X104060000Y-91639000D01*
X104019000Y-91662000D01*
X103976000Y-91682000D01*
X103933000Y-91700000D01*
X103888000Y-91716000D01*
X103843000Y-91729000D01*
X103797000Y-91740000D01*
X103751000Y-91749000D01*
X103704000Y-91755000D01*
X103657000Y-91759000D01*
X103610000Y-91760000D01*
X101110000Y-91760000D01*
X101110000Y-89960000D01*
X103610000Y-89960000D01*
X103657000Y-89961000D01*
G36*
X103657000Y-89961000D02*
G01*
X103704000Y-89965000D01*
X103751000Y-89971000D01*
X103797000Y-89980000D01*
X103843000Y-89991000D01*
X103888000Y-90004000D01*
X103933000Y-90020000D01*
X103976000Y-90038000D01*
X104019000Y-90058000D01*
X104060000Y-90081000D01*
X104100000Y-90105000D01*
X104139000Y-90132000D01*
X104176000Y-90161000D01*
X104212000Y-90191000D01*
X104246000Y-90224000D01*
X104279000Y-90258000D01*
X104309000Y-90294000D01*
X104338000Y-90331000D01*
X104365000Y-90370000D01*
X104389000Y-90410000D01*
X104412000Y-90451000D01*
X104432000Y-90494000D01*
X104450000Y-90537000D01*
X104466000Y-90582000D01*
X104479000Y-90627000D01*
X104490000Y-90673000D01*
X104499000Y-90719000D01*
X104505000Y-90766000D01*
X104509000Y-90813000D01*
X104510000Y-90860000D01*
X104509000Y-90907000D01*
X104505000Y-90954000D01*
X104499000Y-91001000D01*
X104490000Y-91047000D01*
X104479000Y-91093000D01*
X104466000Y-91138000D01*
X104450000Y-91183000D01*
X104432000Y-91226000D01*
X104412000Y-91269000D01*
X104389000Y-91310000D01*
X104365000Y-91350000D01*
X104338000Y-91389000D01*
X104309000Y-91426000D01*
X104279000Y-91462000D01*
X104246000Y-91496000D01*
X104212000Y-91529000D01*
X104176000Y-91559000D01*
X104139000Y-91588000D01*
X104100000Y-91615000D01*
X104060000Y-91639000D01*
X104019000Y-91662000D01*
X103976000Y-91682000D01*
X103933000Y-91700000D01*
X103888000Y-91716000D01*
X103843000Y-91729000D01*
X103797000Y-91740000D01*
X103751000Y-91749000D01*
X103704000Y-91755000D01*
X103657000Y-91759000D01*
X103610000Y-91760000D01*
X101110000Y-91760000D01*
X101110000Y-89960000D01*
X103610000Y-89960000D01*
X103657000Y-89961000D01*
G37*
X103657000Y-92501000D02*
X103704000Y-92505000D01*
X103751000Y-92511000D01*
X103797000Y-92520000D01*
X103843000Y-92531000D01*
X103888000Y-92544000D01*
X103933000Y-92560000D01*
X103976000Y-92578000D01*
X104019000Y-92598000D01*
X104060000Y-92621000D01*
X104100000Y-92645000D01*
X104139000Y-92672000D01*
X104176000Y-92701000D01*
X104212000Y-92731000D01*
X104246000Y-92764000D01*
X104279000Y-92798000D01*
X104309000Y-92834000D01*
X104338000Y-92871000D01*
X104365000Y-92910000D01*
X104389000Y-92950000D01*
X104412000Y-92991000D01*
X104432000Y-93034000D01*
X104450000Y-93077000D01*
X104466000Y-93122000D01*
X104479000Y-93167000D01*
X104490000Y-93213000D01*
X104499000Y-93259000D01*
X104505000Y-93306000D01*
X104509000Y-93353000D01*
X104510000Y-93400000D01*
X104509000Y-93447000D01*
X104505000Y-93494000D01*
X104499000Y-93541000D01*
X104490000Y-93587000D01*
X104479000Y-93633000D01*
X104466000Y-93678000D01*
X104450000Y-93723000D01*
X104432000Y-93766000D01*
X104412000Y-93809000D01*
X104389000Y-93850000D01*
X104365000Y-93890000D01*
X104338000Y-93929000D01*
X104309000Y-93966000D01*
X104279000Y-94002000D01*
X104246000Y-94036000D01*
X104212000Y-94069000D01*
X104176000Y-94099000D01*
X104139000Y-94128000D01*
X104100000Y-94155000D01*
X104060000Y-94179000D01*
X104019000Y-94202000D01*
X103976000Y-94222000D01*
X103933000Y-94240000D01*
X103888000Y-94256000D01*
X103843000Y-94269000D01*
X103797000Y-94280000D01*
X103751000Y-94289000D01*
X103704000Y-94295000D01*
X103657000Y-94299000D01*
X103610000Y-94300000D01*
X101110000Y-94300000D01*
X101110000Y-92500000D01*
X103610000Y-92500000D01*
X103657000Y-92501000D01*
G36*
X103657000Y-92501000D02*
G01*
X103704000Y-92505000D01*
X103751000Y-92511000D01*
X103797000Y-92520000D01*
X103843000Y-92531000D01*
X103888000Y-92544000D01*
X103933000Y-92560000D01*
X103976000Y-92578000D01*
X104019000Y-92598000D01*
X104060000Y-92621000D01*
X104100000Y-92645000D01*
X104139000Y-92672000D01*
X104176000Y-92701000D01*
X104212000Y-92731000D01*
X104246000Y-92764000D01*
X104279000Y-92798000D01*
X104309000Y-92834000D01*
X104338000Y-92871000D01*
X104365000Y-92910000D01*
X104389000Y-92950000D01*
X104412000Y-92991000D01*
X104432000Y-93034000D01*
X104450000Y-93077000D01*
X104466000Y-93122000D01*
X104479000Y-93167000D01*
X104490000Y-93213000D01*
X104499000Y-93259000D01*
X104505000Y-93306000D01*
X104509000Y-93353000D01*
X104510000Y-93400000D01*
X104509000Y-93447000D01*
X104505000Y-93494000D01*
X104499000Y-93541000D01*
X104490000Y-93587000D01*
X104479000Y-93633000D01*
X104466000Y-93678000D01*
X104450000Y-93723000D01*
X104432000Y-93766000D01*
X104412000Y-93809000D01*
X104389000Y-93850000D01*
X104365000Y-93890000D01*
X104338000Y-93929000D01*
X104309000Y-93966000D01*
X104279000Y-94002000D01*
X104246000Y-94036000D01*
X104212000Y-94069000D01*
X104176000Y-94099000D01*
X104139000Y-94128000D01*
X104100000Y-94155000D01*
X104060000Y-94179000D01*
X104019000Y-94202000D01*
X103976000Y-94222000D01*
X103933000Y-94240000D01*
X103888000Y-94256000D01*
X103843000Y-94269000D01*
X103797000Y-94280000D01*
X103751000Y-94289000D01*
X103704000Y-94295000D01*
X103657000Y-94299000D01*
X103610000Y-94300000D01*
X101110000Y-94300000D01*
X101110000Y-92500000D01*
X103610000Y-92500000D01*
X103657000Y-92501000D01*
G37*
X103657000Y-95041000D02*
X103704000Y-95045000D01*
X103751000Y-95051000D01*
X103797000Y-95060000D01*
X103843000Y-95071000D01*
X103888000Y-95084000D01*
X103933000Y-95100000D01*
X103976000Y-95118000D01*
X104019000Y-95138000D01*
X104060000Y-95161000D01*
X104100000Y-95185000D01*
X104139000Y-95212000D01*
X104176000Y-95241000D01*
X104212000Y-95271000D01*
X104246000Y-95304000D01*
X104279000Y-95338000D01*
X104309000Y-95374000D01*
X104338000Y-95411000D01*
X104365000Y-95450000D01*
X104389000Y-95490000D01*
X104412000Y-95531000D01*
X104432000Y-95574000D01*
X104450000Y-95617000D01*
X104466000Y-95662000D01*
X104479000Y-95707000D01*
X104490000Y-95753000D01*
X104499000Y-95799000D01*
X104505000Y-95846000D01*
X104509000Y-95893000D01*
X104510000Y-95940000D01*
X104509000Y-95987000D01*
X104505000Y-96034000D01*
X104499000Y-96081000D01*
X104490000Y-96127000D01*
X104479000Y-96173000D01*
X104466000Y-96218000D01*
X104450000Y-96263000D01*
X104432000Y-96306000D01*
X104412000Y-96349000D01*
X104389000Y-96390000D01*
X104365000Y-96430000D01*
X104338000Y-96469000D01*
X104309000Y-96506000D01*
X104279000Y-96542000D01*
X104246000Y-96576000D01*
X104212000Y-96609000D01*
X104176000Y-96639000D01*
X104139000Y-96668000D01*
X104100000Y-96695000D01*
X104060000Y-96719000D01*
X104019000Y-96742000D01*
X103976000Y-96762000D01*
X103933000Y-96780000D01*
X103888000Y-96796000D01*
X103843000Y-96809000D01*
X103797000Y-96820000D01*
X103751000Y-96829000D01*
X103704000Y-96835000D01*
X103657000Y-96839000D01*
X103610000Y-96840000D01*
X101110000Y-96840000D01*
X101110000Y-95040000D01*
X103610000Y-95040000D01*
X103657000Y-95041000D01*
G36*
X103657000Y-95041000D02*
G01*
X103704000Y-95045000D01*
X103751000Y-95051000D01*
X103797000Y-95060000D01*
X103843000Y-95071000D01*
X103888000Y-95084000D01*
X103933000Y-95100000D01*
X103976000Y-95118000D01*
X104019000Y-95138000D01*
X104060000Y-95161000D01*
X104100000Y-95185000D01*
X104139000Y-95212000D01*
X104176000Y-95241000D01*
X104212000Y-95271000D01*
X104246000Y-95304000D01*
X104279000Y-95338000D01*
X104309000Y-95374000D01*
X104338000Y-95411000D01*
X104365000Y-95450000D01*
X104389000Y-95490000D01*
X104412000Y-95531000D01*
X104432000Y-95574000D01*
X104450000Y-95617000D01*
X104466000Y-95662000D01*
X104479000Y-95707000D01*
X104490000Y-95753000D01*
X104499000Y-95799000D01*
X104505000Y-95846000D01*
X104509000Y-95893000D01*
X104510000Y-95940000D01*
X104509000Y-95987000D01*
X104505000Y-96034000D01*
X104499000Y-96081000D01*
X104490000Y-96127000D01*
X104479000Y-96173000D01*
X104466000Y-96218000D01*
X104450000Y-96263000D01*
X104432000Y-96306000D01*
X104412000Y-96349000D01*
X104389000Y-96390000D01*
X104365000Y-96430000D01*
X104338000Y-96469000D01*
X104309000Y-96506000D01*
X104279000Y-96542000D01*
X104246000Y-96576000D01*
X104212000Y-96609000D01*
X104176000Y-96639000D01*
X104139000Y-96668000D01*
X104100000Y-96695000D01*
X104060000Y-96719000D01*
X104019000Y-96742000D01*
X103976000Y-96762000D01*
X103933000Y-96780000D01*
X103888000Y-96796000D01*
X103843000Y-96809000D01*
X103797000Y-96820000D01*
X103751000Y-96829000D01*
X103704000Y-96835000D01*
X103657000Y-96839000D01*
X103610000Y-96840000D01*
X101110000Y-96840000D01*
X101110000Y-95040000D01*
X103610000Y-95040000D01*
X103657000Y-95041000D01*
G37*
X103657000Y-100121000D02*
X103704000Y-100125000D01*
X103751000Y-100131000D01*
X103797000Y-100140000D01*
X103843000Y-100151000D01*
X103888000Y-100164000D01*
X103933000Y-100180000D01*
X103976000Y-100198000D01*
X104019000Y-100218000D01*
X104060000Y-100241000D01*
X104100000Y-100265000D01*
X104139000Y-100292000D01*
X104176000Y-100321000D01*
X104212000Y-100351000D01*
X104246000Y-100384000D01*
X104279000Y-100418000D01*
X104309000Y-100454000D01*
X104338000Y-100491000D01*
X104365000Y-100530000D01*
X104389000Y-100570000D01*
X104412000Y-100611000D01*
X104432000Y-100654000D01*
X104450000Y-100697000D01*
X104466000Y-100742000D01*
X104479000Y-100787000D01*
X104490000Y-100833000D01*
X104499000Y-100879000D01*
X104505000Y-100926000D01*
X104509000Y-100973000D01*
X104510000Y-101020000D01*
X104509000Y-101067000D01*
X104505000Y-101114000D01*
X104499000Y-101161000D01*
X104490000Y-101207000D01*
X104479000Y-101253000D01*
X104466000Y-101298000D01*
X104450000Y-101343000D01*
X104432000Y-101386000D01*
X104412000Y-101429000D01*
X104389000Y-101470000D01*
X104365000Y-101510000D01*
X104338000Y-101549000D01*
X104309000Y-101586000D01*
X104279000Y-101622000D01*
X104246000Y-101656000D01*
X104212000Y-101689000D01*
X104176000Y-101719000D01*
X104139000Y-101748000D01*
X104100000Y-101775000D01*
X104060000Y-101799000D01*
X104019000Y-101822000D01*
X103976000Y-101842000D01*
X103933000Y-101860000D01*
X103888000Y-101876000D01*
X103843000Y-101889000D01*
X103797000Y-101900000D01*
X103751000Y-101909000D01*
X103704000Y-101915000D01*
X103657000Y-101919000D01*
X103610000Y-101920000D01*
X101110000Y-101920000D01*
X101110000Y-100120000D01*
X103610000Y-100120000D01*
X103657000Y-100121000D01*
G36*
X103657000Y-100121000D02*
G01*
X103704000Y-100125000D01*
X103751000Y-100131000D01*
X103797000Y-100140000D01*
X103843000Y-100151000D01*
X103888000Y-100164000D01*
X103933000Y-100180000D01*
X103976000Y-100198000D01*
X104019000Y-100218000D01*
X104060000Y-100241000D01*
X104100000Y-100265000D01*
X104139000Y-100292000D01*
X104176000Y-100321000D01*
X104212000Y-100351000D01*
X104246000Y-100384000D01*
X104279000Y-100418000D01*
X104309000Y-100454000D01*
X104338000Y-100491000D01*
X104365000Y-100530000D01*
X104389000Y-100570000D01*
X104412000Y-100611000D01*
X104432000Y-100654000D01*
X104450000Y-100697000D01*
X104466000Y-100742000D01*
X104479000Y-100787000D01*
X104490000Y-100833000D01*
X104499000Y-100879000D01*
X104505000Y-100926000D01*
X104509000Y-100973000D01*
X104510000Y-101020000D01*
X104509000Y-101067000D01*
X104505000Y-101114000D01*
X104499000Y-101161000D01*
X104490000Y-101207000D01*
X104479000Y-101253000D01*
X104466000Y-101298000D01*
X104450000Y-101343000D01*
X104432000Y-101386000D01*
X104412000Y-101429000D01*
X104389000Y-101470000D01*
X104365000Y-101510000D01*
X104338000Y-101549000D01*
X104309000Y-101586000D01*
X104279000Y-101622000D01*
X104246000Y-101656000D01*
X104212000Y-101689000D01*
X104176000Y-101719000D01*
X104139000Y-101748000D01*
X104100000Y-101775000D01*
X104060000Y-101799000D01*
X104019000Y-101822000D01*
X103976000Y-101842000D01*
X103933000Y-101860000D01*
X103888000Y-101876000D01*
X103843000Y-101889000D01*
X103797000Y-101900000D01*
X103751000Y-101909000D01*
X103704000Y-101915000D01*
X103657000Y-101919000D01*
X103610000Y-101920000D01*
X101110000Y-101920000D01*
X101110000Y-100120000D01*
X103610000Y-100120000D01*
X103657000Y-100121000D01*
G37*
X103657000Y-102661000D02*
X103704000Y-102665000D01*
X103751000Y-102671000D01*
X103797000Y-102680000D01*
X103843000Y-102691000D01*
X103888000Y-102704000D01*
X103933000Y-102720000D01*
X103976000Y-102738000D01*
X104019000Y-102758000D01*
X104060000Y-102781000D01*
X104100000Y-102805000D01*
X104139000Y-102832000D01*
X104176000Y-102861000D01*
X104212000Y-102891000D01*
X104246000Y-102924000D01*
X104279000Y-102958000D01*
X104309000Y-102994000D01*
X104338000Y-103031000D01*
X104365000Y-103070000D01*
X104389000Y-103110000D01*
X104412000Y-103151000D01*
X104432000Y-103194000D01*
X104450000Y-103237000D01*
X104466000Y-103282000D01*
X104479000Y-103327000D01*
X104490000Y-103373000D01*
X104499000Y-103419000D01*
X104505000Y-103466000D01*
X104509000Y-103513000D01*
X104510000Y-103560000D01*
X104509000Y-103607000D01*
X104505000Y-103654000D01*
X104499000Y-103701000D01*
X104490000Y-103747000D01*
X104479000Y-103793000D01*
X104466000Y-103838000D01*
X104450000Y-103883000D01*
X104432000Y-103926000D01*
X104412000Y-103969000D01*
X104389000Y-104010000D01*
X104365000Y-104050000D01*
X104338000Y-104089000D01*
X104309000Y-104126000D01*
X104279000Y-104162000D01*
X104246000Y-104196000D01*
X104212000Y-104229000D01*
X104176000Y-104259000D01*
X104139000Y-104288000D01*
X104100000Y-104315000D01*
X104060000Y-104339000D01*
X104019000Y-104362000D01*
X103976000Y-104382000D01*
X103933000Y-104400000D01*
X103888000Y-104416000D01*
X103843000Y-104429000D01*
X103797000Y-104440000D01*
X103751000Y-104449000D01*
X103704000Y-104455000D01*
X103657000Y-104459000D01*
X103610000Y-104460000D01*
X101110000Y-104460000D01*
X101110000Y-102660000D01*
X103610000Y-102660000D01*
X103657000Y-102661000D01*
G36*
X103657000Y-102661000D02*
G01*
X103704000Y-102665000D01*
X103751000Y-102671000D01*
X103797000Y-102680000D01*
X103843000Y-102691000D01*
X103888000Y-102704000D01*
X103933000Y-102720000D01*
X103976000Y-102738000D01*
X104019000Y-102758000D01*
X104060000Y-102781000D01*
X104100000Y-102805000D01*
X104139000Y-102832000D01*
X104176000Y-102861000D01*
X104212000Y-102891000D01*
X104246000Y-102924000D01*
X104279000Y-102958000D01*
X104309000Y-102994000D01*
X104338000Y-103031000D01*
X104365000Y-103070000D01*
X104389000Y-103110000D01*
X104412000Y-103151000D01*
X104432000Y-103194000D01*
X104450000Y-103237000D01*
X104466000Y-103282000D01*
X104479000Y-103327000D01*
X104490000Y-103373000D01*
X104499000Y-103419000D01*
X104505000Y-103466000D01*
X104509000Y-103513000D01*
X104510000Y-103560000D01*
X104509000Y-103607000D01*
X104505000Y-103654000D01*
X104499000Y-103701000D01*
X104490000Y-103747000D01*
X104479000Y-103793000D01*
X104466000Y-103838000D01*
X104450000Y-103883000D01*
X104432000Y-103926000D01*
X104412000Y-103969000D01*
X104389000Y-104010000D01*
X104365000Y-104050000D01*
X104338000Y-104089000D01*
X104309000Y-104126000D01*
X104279000Y-104162000D01*
X104246000Y-104196000D01*
X104212000Y-104229000D01*
X104176000Y-104259000D01*
X104139000Y-104288000D01*
X104100000Y-104315000D01*
X104060000Y-104339000D01*
X104019000Y-104362000D01*
X103976000Y-104382000D01*
X103933000Y-104400000D01*
X103888000Y-104416000D01*
X103843000Y-104429000D01*
X103797000Y-104440000D01*
X103751000Y-104449000D01*
X103704000Y-104455000D01*
X103657000Y-104459000D01*
X103610000Y-104460000D01*
X101110000Y-104460000D01*
X101110000Y-102660000D01*
X103610000Y-102660000D01*
X103657000Y-102661000D01*
G37*
X103657000Y-105201000D02*
X103704000Y-105205000D01*
X103751000Y-105211000D01*
X103797000Y-105220000D01*
X103843000Y-105231000D01*
X103888000Y-105244000D01*
X103933000Y-105260000D01*
X103976000Y-105278000D01*
X104019000Y-105298000D01*
X104060000Y-105321000D01*
X104100000Y-105345000D01*
X104139000Y-105372000D01*
X104176000Y-105401000D01*
X104212000Y-105431000D01*
X104246000Y-105464000D01*
X104279000Y-105498000D01*
X104309000Y-105534000D01*
X104338000Y-105571000D01*
X104365000Y-105610000D01*
X104389000Y-105650000D01*
X104412000Y-105691000D01*
X104432000Y-105734000D01*
X104450000Y-105777000D01*
X104466000Y-105822000D01*
X104479000Y-105867000D01*
X104490000Y-105913000D01*
X104499000Y-105959000D01*
X104505000Y-106006000D01*
X104509000Y-106053000D01*
X104510000Y-106100000D01*
X104509000Y-106147000D01*
X104505000Y-106194000D01*
X104499000Y-106241000D01*
X104490000Y-106287000D01*
X104479000Y-106333000D01*
X104466000Y-106378000D01*
X104450000Y-106423000D01*
X104432000Y-106466000D01*
X104412000Y-106509000D01*
X104389000Y-106550000D01*
X104365000Y-106590000D01*
X104338000Y-106629000D01*
X104309000Y-106666000D01*
X104279000Y-106702000D01*
X104246000Y-106736000D01*
X104212000Y-106769000D01*
X104176000Y-106799000D01*
X104139000Y-106828000D01*
X104100000Y-106855000D01*
X104060000Y-106879000D01*
X104019000Y-106902000D01*
X103976000Y-106922000D01*
X103933000Y-106940000D01*
X103888000Y-106956000D01*
X103843000Y-106969000D01*
X103797000Y-106980000D01*
X103751000Y-106989000D01*
X103704000Y-106995000D01*
X103657000Y-106999000D01*
X103610000Y-107000000D01*
X101110000Y-107000000D01*
X101110000Y-105200000D01*
X103610000Y-105200000D01*
X103657000Y-105201000D01*
G36*
X103657000Y-105201000D02*
G01*
X103704000Y-105205000D01*
X103751000Y-105211000D01*
X103797000Y-105220000D01*
X103843000Y-105231000D01*
X103888000Y-105244000D01*
X103933000Y-105260000D01*
X103976000Y-105278000D01*
X104019000Y-105298000D01*
X104060000Y-105321000D01*
X104100000Y-105345000D01*
X104139000Y-105372000D01*
X104176000Y-105401000D01*
X104212000Y-105431000D01*
X104246000Y-105464000D01*
X104279000Y-105498000D01*
X104309000Y-105534000D01*
X104338000Y-105571000D01*
X104365000Y-105610000D01*
X104389000Y-105650000D01*
X104412000Y-105691000D01*
X104432000Y-105734000D01*
X104450000Y-105777000D01*
X104466000Y-105822000D01*
X104479000Y-105867000D01*
X104490000Y-105913000D01*
X104499000Y-105959000D01*
X104505000Y-106006000D01*
X104509000Y-106053000D01*
X104510000Y-106100000D01*
X104509000Y-106147000D01*
X104505000Y-106194000D01*
X104499000Y-106241000D01*
X104490000Y-106287000D01*
X104479000Y-106333000D01*
X104466000Y-106378000D01*
X104450000Y-106423000D01*
X104432000Y-106466000D01*
X104412000Y-106509000D01*
X104389000Y-106550000D01*
X104365000Y-106590000D01*
X104338000Y-106629000D01*
X104309000Y-106666000D01*
X104279000Y-106702000D01*
X104246000Y-106736000D01*
X104212000Y-106769000D01*
X104176000Y-106799000D01*
X104139000Y-106828000D01*
X104100000Y-106855000D01*
X104060000Y-106879000D01*
X104019000Y-106902000D01*
X103976000Y-106922000D01*
X103933000Y-106940000D01*
X103888000Y-106956000D01*
X103843000Y-106969000D01*
X103797000Y-106980000D01*
X103751000Y-106989000D01*
X103704000Y-106995000D01*
X103657000Y-106999000D01*
X103610000Y-107000000D01*
X101110000Y-107000000D01*
X101110000Y-105200000D01*
X103610000Y-105200000D01*
X103657000Y-105201000D01*
G37*
X103657000Y-107741000D02*
X103704000Y-107745000D01*
X103751000Y-107751000D01*
X103797000Y-107760000D01*
X103843000Y-107771000D01*
X103888000Y-107784000D01*
X103933000Y-107800000D01*
X103976000Y-107818000D01*
X104019000Y-107838000D01*
X104060000Y-107861000D01*
X104100000Y-107885000D01*
X104139000Y-107912000D01*
X104176000Y-107941000D01*
X104212000Y-107971000D01*
X104246000Y-108004000D01*
X104279000Y-108038000D01*
X104309000Y-108074000D01*
X104338000Y-108111000D01*
X104365000Y-108150000D01*
X104389000Y-108190000D01*
X104412000Y-108231000D01*
X104432000Y-108274000D01*
X104450000Y-108317000D01*
X104466000Y-108362000D01*
X104479000Y-108407000D01*
X104490000Y-108453000D01*
X104499000Y-108499000D01*
X104505000Y-108546000D01*
X104509000Y-108593000D01*
X104510000Y-108640000D01*
X104509000Y-108687000D01*
X104505000Y-108734000D01*
X104499000Y-108781000D01*
X104490000Y-108827000D01*
X104479000Y-108873000D01*
X104466000Y-108918000D01*
X104450000Y-108963000D01*
X104432000Y-109006000D01*
X104412000Y-109049000D01*
X104389000Y-109090000D01*
X104365000Y-109130000D01*
X104338000Y-109169000D01*
X104309000Y-109206000D01*
X104279000Y-109242000D01*
X104246000Y-109276000D01*
X104212000Y-109309000D01*
X104176000Y-109339000D01*
X104139000Y-109368000D01*
X104100000Y-109395000D01*
X104060000Y-109419000D01*
X104019000Y-109442000D01*
X103976000Y-109462000D01*
X103933000Y-109480000D01*
X103888000Y-109496000D01*
X103843000Y-109509000D01*
X103797000Y-109520000D01*
X103751000Y-109529000D01*
X103704000Y-109535000D01*
X103657000Y-109539000D01*
X103610000Y-109540000D01*
X101110000Y-109540000D01*
X101110000Y-107740000D01*
X103610000Y-107740000D01*
X103657000Y-107741000D01*
G36*
X103657000Y-107741000D02*
G01*
X103704000Y-107745000D01*
X103751000Y-107751000D01*
X103797000Y-107760000D01*
X103843000Y-107771000D01*
X103888000Y-107784000D01*
X103933000Y-107800000D01*
X103976000Y-107818000D01*
X104019000Y-107838000D01*
X104060000Y-107861000D01*
X104100000Y-107885000D01*
X104139000Y-107912000D01*
X104176000Y-107941000D01*
X104212000Y-107971000D01*
X104246000Y-108004000D01*
X104279000Y-108038000D01*
X104309000Y-108074000D01*
X104338000Y-108111000D01*
X104365000Y-108150000D01*
X104389000Y-108190000D01*
X104412000Y-108231000D01*
X104432000Y-108274000D01*
X104450000Y-108317000D01*
X104466000Y-108362000D01*
X104479000Y-108407000D01*
X104490000Y-108453000D01*
X104499000Y-108499000D01*
X104505000Y-108546000D01*
X104509000Y-108593000D01*
X104510000Y-108640000D01*
X104509000Y-108687000D01*
X104505000Y-108734000D01*
X104499000Y-108781000D01*
X104490000Y-108827000D01*
X104479000Y-108873000D01*
X104466000Y-108918000D01*
X104450000Y-108963000D01*
X104432000Y-109006000D01*
X104412000Y-109049000D01*
X104389000Y-109090000D01*
X104365000Y-109130000D01*
X104338000Y-109169000D01*
X104309000Y-109206000D01*
X104279000Y-109242000D01*
X104246000Y-109276000D01*
X104212000Y-109309000D01*
X104176000Y-109339000D01*
X104139000Y-109368000D01*
X104100000Y-109395000D01*
X104060000Y-109419000D01*
X104019000Y-109442000D01*
X103976000Y-109462000D01*
X103933000Y-109480000D01*
X103888000Y-109496000D01*
X103843000Y-109509000D01*
X103797000Y-109520000D01*
X103751000Y-109529000D01*
X103704000Y-109535000D01*
X103657000Y-109539000D01*
X103610000Y-109540000D01*
X101110000Y-109540000D01*
X101110000Y-107740000D01*
X103610000Y-107740000D01*
X103657000Y-107741000D01*
G37*
X103657000Y-112821000D02*
X103704000Y-112825000D01*
X103751000Y-112831000D01*
X103797000Y-112840000D01*
X103843000Y-112851000D01*
X103888000Y-112864000D01*
X103933000Y-112880000D01*
X103976000Y-112898000D01*
X104019000Y-112918000D01*
X104060000Y-112941000D01*
X104100000Y-112965000D01*
X104139000Y-112992000D01*
X104176000Y-113021000D01*
X104212000Y-113051000D01*
X104246000Y-113084000D01*
X104279000Y-113118000D01*
X104309000Y-113154000D01*
X104338000Y-113191000D01*
X104365000Y-113230000D01*
X104389000Y-113270000D01*
X104412000Y-113311000D01*
X104432000Y-113354000D01*
X104450000Y-113397000D01*
X104466000Y-113442000D01*
X104479000Y-113487000D01*
X104490000Y-113533000D01*
X104499000Y-113579000D01*
X104505000Y-113626000D01*
X104509000Y-113673000D01*
X104510000Y-113720000D01*
X104509000Y-113767000D01*
X104505000Y-113814000D01*
X104499000Y-113861000D01*
X104490000Y-113907000D01*
X104479000Y-113953000D01*
X104466000Y-113998000D01*
X104450000Y-114043000D01*
X104432000Y-114086000D01*
X104412000Y-114129000D01*
X104389000Y-114170000D01*
X104365000Y-114210000D01*
X104338000Y-114249000D01*
X104309000Y-114286000D01*
X104279000Y-114322000D01*
X104246000Y-114356000D01*
X104212000Y-114389000D01*
X104176000Y-114419000D01*
X104139000Y-114448000D01*
X104100000Y-114475000D01*
X104060000Y-114499000D01*
X104019000Y-114522000D01*
X103976000Y-114542000D01*
X103933000Y-114560000D01*
X103888000Y-114576000D01*
X103843000Y-114589000D01*
X103797000Y-114600000D01*
X103751000Y-114609000D01*
X103704000Y-114615000D01*
X103657000Y-114619000D01*
X103610000Y-114620000D01*
X101110000Y-114620000D01*
X101110000Y-112820000D01*
X103610000Y-112820000D01*
X103657000Y-112821000D01*
G36*
X103657000Y-112821000D02*
G01*
X103704000Y-112825000D01*
X103751000Y-112831000D01*
X103797000Y-112840000D01*
X103843000Y-112851000D01*
X103888000Y-112864000D01*
X103933000Y-112880000D01*
X103976000Y-112898000D01*
X104019000Y-112918000D01*
X104060000Y-112941000D01*
X104100000Y-112965000D01*
X104139000Y-112992000D01*
X104176000Y-113021000D01*
X104212000Y-113051000D01*
X104246000Y-113084000D01*
X104279000Y-113118000D01*
X104309000Y-113154000D01*
X104338000Y-113191000D01*
X104365000Y-113230000D01*
X104389000Y-113270000D01*
X104412000Y-113311000D01*
X104432000Y-113354000D01*
X104450000Y-113397000D01*
X104466000Y-113442000D01*
X104479000Y-113487000D01*
X104490000Y-113533000D01*
X104499000Y-113579000D01*
X104505000Y-113626000D01*
X104509000Y-113673000D01*
X104510000Y-113720000D01*
X104509000Y-113767000D01*
X104505000Y-113814000D01*
X104499000Y-113861000D01*
X104490000Y-113907000D01*
X104479000Y-113953000D01*
X104466000Y-113998000D01*
X104450000Y-114043000D01*
X104432000Y-114086000D01*
X104412000Y-114129000D01*
X104389000Y-114170000D01*
X104365000Y-114210000D01*
X104338000Y-114249000D01*
X104309000Y-114286000D01*
X104279000Y-114322000D01*
X104246000Y-114356000D01*
X104212000Y-114389000D01*
X104176000Y-114419000D01*
X104139000Y-114448000D01*
X104100000Y-114475000D01*
X104060000Y-114499000D01*
X104019000Y-114522000D01*
X103976000Y-114542000D01*
X103933000Y-114560000D01*
X103888000Y-114576000D01*
X103843000Y-114589000D01*
X103797000Y-114600000D01*
X103751000Y-114609000D01*
X103704000Y-114615000D01*
X103657000Y-114619000D01*
X103610000Y-114620000D01*
X101110000Y-114620000D01*
X101110000Y-112820000D01*
X103610000Y-112820000D01*
X103657000Y-112821000D01*
G37*
X103657000Y-115361000D02*
X103704000Y-115365000D01*
X103751000Y-115371000D01*
X103797000Y-115380000D01*
X103843000Y-115391000D01*
X103888000Y-115404000D01*
X103933000Y-115420000D01*
X103976000Y-115438000D01*
X104019000Y-115458000D01*
X104060000Y-115481000D01*
X104100000Y-115505000D01*
X104139000Y-115532000D01*
X104176000Y-115561000D01*
X104212000Y-115591000D01*
X104246000Y-115624000D01*
X104279000Y-115658000D01*
X104309000Y-115694000D01*
X104338000Y-115731000D01*
X104365000Y-115770000D01*
X104389000Y-115810000D01*
X104412000Y-115851000D01*
X104432000Y-115894000D01*
X104450000Y-115937000D01*
X104466000Y-115982000D01*
X104479000Y-116027000D01*
X104490000Y-116073000D01*
X104499000Y-116119000D01*
X104505000Y-116166000D01*
X104509000Y-116213000D01*
X104510000Y-116260000D01*
X104509000Y-116307000D01*
X104505000Y-116354000D01*
X104499000Y-116401000D01*
X104490000Y-116447000D01*
X104479000Y-116493000D01*
X104466000Y-116538000D01*
X104450000Y-116583000D01*
X104432000Y-116626000D01*
X104412000Y-116669000D01*
X104389000Y-116710000D01*
X104365000Y-116750000D01*
X104338000Y-116789000D01*
X104309000Y-116826000D01*
X104279000Y-116862000D01*
X104246000Y-116896000D01*
X104212000Y-116929000D01*
X104176000Y-116959000D01*
X104139000Y-116988000D01*
X104100000Y-117015000D01*
X104060000Y-117039000D01*
X104019000Y-117062000D01*
X103976000Y-117082000D01*
X103933000Y-117100000D01*
X103888000Y-117116000D01*
X103843000Y-117129000D01*
X103797000Y-117140000D01*
X103751000Y-117149000D01*
X103704000Y-117155000D01*
X103657000Y-117159000D01*
X103610000Y-117160000D01*
X101110000Y-117160000D01*
X101110000Y-115360000D01*
X103610000Y-115360000D01*
X103657000Y-115361000D01*
G36*
X103657000Y-115361000D02*
G01*
X103704000Y-115365000D01*
X103751000Y-115371000D01*
X103797000Y-115380000D01*
X103843000Y-115391000D01*
X103888000Y-115404000D01*
X103933000Y-115420000D01*
X103976000Y-115438000D01*
X104019000Y-115458000D01*
X104060000Y-115481000D01*
X104100000Y-115505000D01*
X104139000Y-115532000D01*
X104176000Y-115561000D01*
X104212000Y-115591000D01*
X104246000Y-115624000D01*
X104279000Y-115658000D01*
X104309000Y-115694000D01*
X104338000Y-115731000D01*
X104365000Y-115770000D01*
X104389000Y-115810000D01*
X104412000Y-115851000D01*
X104432000Y-115894000D01*
X104450000Y-115937000D01*
X104466000Y-115982000D01*
X104479000Y-116027000D01*
X104490000Y-116073000D01*
X104499000Y-116119000D01*
X104505000Y-116166000D01*
X104509000Y-116213000D01*
X104510000Y-116260000D01*
X104509000Y-116307000D01*
X104505000Y-116354000D01*
X104499000Y-116401000D01*
X104490000Y-116447000D01*
X104479000Y-116493000D01*
X104466000Y-116538000D01*
X104450000Y-116583000D01*
X104432000Y-116626000D01*
X104412000Y-116669000D01*
X104389000Y-116710000D01*
X104365000Y-116750000D01*
X104338000Y-116789000D01*
X104309000Y-116826000D01*
X104279000Y-116862000D01*
X104246000Y-116896000D01*
X104212000Y-116929000D01*
X104176000Y-116959000D01*
X104139000Y-116988000D01*
X104100000Y-117015000D01*
X104060000Y-117039000D01*
X104019000Y-117062000D01*
X103976000Y-117082000D01*
X103933000Y-117100000D01*
X103888000Y-117116000D01*
X103843000Y-117129000D01*
X103797000Y-117140000D01*
X103751000Y-117149000D01*
X103704000Y-117155000D01*
X103657000Y-117159000D01*
X103610000Y-117160000D01*
X101110000Y-117160000D01*
X101110000Y-115360000D01*
X103610000Y-115360000D01*
X103657000Y-115361000D01*
G37*
X123890000Y-68900000D02*
X121390000Y-68900000D01*
X121343000Y-68899000D01*
X121296000Y-68895000D01*
X121249000Y-68889000D01*
X121203000Y-68880000D01*
X121157000Y-68869000D01*
X121112000Y-68856000D01*
X121067000Y-68840000D01*
X121024000Y-68822000D01*
X120981000Y-68802000D01*
X120940000Y-68779000D01*
X120900000Y-68755000D01*
X120861000Y-68728000D01*
X120824000Y-68699000D01*
X120788000Y-68669000D01*
X120754000Y-68636000D01*
X120721000Y-68602000D01*
X120691000Y-68566000D01*
X120662000Y-68529000D01*
X120635000Y-68490000D01*
X120611000Y-68450000D01*
X120588000Y-68409000D01*
X120568000Y-68366000D01*
X120550000Y-68323000D01*
X120534000Y-68278000D01*
X120521000Y-68233000D01*
X120510000Y-68187000D01*
X120501000Y-68141000D01*
X120495000Y-68094000D01*
X120491000Y-68047000D01*
X120490000Y-68000000D01*
X120491000Y-67953000D01*
X120495000Y-67906000D01*
X120501000Y-67859000D01*
X120510000Y-67813000D01*
X120521000Y-67767000D01*
X120534000Y-67722000D01*
X120550000Y-67677000D01*
X120568000Y-67634000D01*
X120588000Y-67591000D01*
X120611000Y-67550000D01*
X120635000Y-67510000D01*
X120662000Y-67471000D01*
X120691000Y-67434000D01*
X120721000Y-67398000D01*
X120754000Y-67364000D01*
X120788000Y-67331000D01*
X120824000Y-67301000D01*
X120861000Y-67272000D01*
X120900000Y-67245000D01*
X120940000Y-67221000D01*
X120981000Y-67198000D01*
X121024000Y-67178000D01*
X121067000Y-67160000D01*
X121112000Y-67144000D01*
X121157000Y-67131000D01*
X121203000Y-67120000D01*
X121249000Y-67111000D01*
X121296000Y-67105000D01*
X121343000Y-67101000D01*
X121390000Y-67100000D01*
X123890000Y-67100000D01*
X123890000Y-68900000D01*
G36*
X123890000Y-68900000D02*
G01*
X121390000Y-68900000D01*
X121343000Y-68899000D01*
X121296000Y-68895000D01*
X121249000Y-68889000D01*
X121203000Y-68880000D01*
X121157000Y-68869000D01*
X121112000Y-68856000D01*
X121067000Y-68840000D01*
X121024000Y-68822000D01*
X120981000Y-68802000D01*
X120940000Y-68779000D01*
X120900000Y-68755000D01*
X120861000Y-68728000D01*
X120824000Y-68699000D01*
X120788000Y-68669000D01*
X120754000Y-68636000D01*
X120721000Y-68602000D01*
X120691000Y-68566000D01*
X120662000Y-68529000D01*
X120635000Y-68490000D01*
X120611000Y-68450000D01*
X120588000Y-68409000D01*
X120568000Y-68366000D01*
X120550000Y-68323000D01*
X120534000Y-68278000D01*
X120521000Y-68233000D01*
X120510000Y-68187000D01*
X120501000Y-68141000D01*
X120495000Y-68094000D01*
X120491000Y-68047000D01*
X120490000Y-68000000D01*
X120491000Y-67953000D01*
X120495000Y-67906000D01*
X120501000Y-67859000D01*
X120510000Y-67813000D01*
X120521000Y-67767000D01*
X120534000Y-67722000D01*
X120550000Y-67677000D01*
X120568000Y-67634000D01*
X120588000Y-67591000D01*
X120611000Y-67550000D01*
X120635000Y-67510000D01*
X120662000Y-67471000D01*
X120691000Y-67434000D01*
X120721000Y-67398000D01*
X120754000Y-67364000D01*
X120788000Y-67331000D01*
X120824000Y-67301000D01*
X120861000Y-67272000D01*
X120900000Y-67245000D01*
X120940000Y-67221000D01*
X120981000Y-67198000D01*
X121024000Y-67178000D01*
X121067000Y-67160000D01*
X121112000Y-67144000D01*
X121157000Y-67131000D01*
X121203000Y-67120000D01*
X121249000Y-67111000D01*
X121296000Y-67105000D01*
X121343000Y-67101000D01*
X121390000Y-67100000D01*
X123890000Y-67100000D01*
X123890000Y-68900000D01*
G37*
X123890000Y-71440000D02*
X121390000Y-71440000D01*
X121343000Y-71439000D01*
X121296000Y-71435000D01*
X121249000Y-71429000D01*
X121203000Y-71420000D01*
X121157000Y-71409000D01*
X121112000Y-71396000D01*
X121067000Y-71380000D01*
X121024000Y-71362000D01*
X120981000Y-71342000D01*
X120940000Y-71319000D01*
X120900000Y-71295000D01*
X120861000Y-71268000D01*
X120824000Y-71239000D01*
X120788000Y-71209000D01*
X120754000Y-71176000D01*
X120721000Y-71142000D01*
X120691000Y-71106000D01*
X120662000Y-71069000D01*
X120635000Y-71030000D01*
X120611000Y-70990000D01*
X120588000Y-70949000D01*
X120568000Y-70906000D01*
X120550000Y-70863000D01*
X120534000Y-70818000D01*
X120521000Y-70773000D01*
X120510000Y-70727000D01*
X120501000Y-70681000D01*
X120495000Y-70634000D01*
X120491000Y-70587000D01*
X120490000Y-70540000D01*
X120491000Y-70493000D01*
X120495000Y-70446000D01*
X120501000Y-70399000D01*
X120510000Y-70353000D01*
X120521000Y-70307000D01*
X120534000Y-70262000D01*
X120550000Y-70217000D01*
X120568000Y-70174000D01*
X120588000Y-70131000D01*
X120611000Y-70090000D01*
X120635000Y-70050000D01*
X120662000Y-70011000D01*
X120691000Y-69974000D01*
X120721000Y-69938000D01*
X120754000Y-69904000D01*
X120788000Y-69871000D01*
X120824000Y-69841000D01*
X120861000Y-69812000D01*
X120900000Y-69785000D01*
X120940000Y-69761000D01*
X120981000Y-69738000D01*
X121024000Y-69718000D01*
X121067000Y-69700000D01*
X121112000Y-69684000D01*
X121157000Y-69671000D01*
X121203000Y-69660000D01*
X121249000Y-69651000D01*
X121296000Y-69645000D01*
X121343000Y-69641000D01*
X121390000Y-69640000D01*
X123890000Y-69640000D01*
X123890000Y-71440000D01*
G36*
X123890000Y-71440000D02*
G01*
X121390000Y-71440000D01*
X121343000Y-71439000D01*
X121296000Y-71435000D01*
X121249000Y-71429000D01*
X121203000Y-71420000D01*
X121157000Y-71409000D01*
X121112000Y-71396000D01*
X121067000Y-71380000D01*
X121024000Y-71362000D01*
X120981000Y-71342000D01*
X120940000Y-71319000D01*
X120900000Y-71295000D01*
X120861000Y-71268000D01*
X120824000Y-71239000D01*
X120788000Y-71209000D01*
X120754000Y-71176000D01*
X120721000Y-71142000D01*
X120691000Y-71106000D01*
X120662000Y-71069000D01*
X120635000Y-71030000D01*
X120611000Y-70990000D01*
X120588000Y-70949000D01*
X120568000Y-70906000D01*
X120550000Y-70863000D01*
X120534000Y-70818000D01*
X120521000Y-70773000D01*
X120510000Y-70727000D01*
X120501000Y-70681000D01*
X120495000Y-70634000D01*
X120491000Y-70587000D01*
X120490000Y-70540000D01*
X120491000Y-70493000D01*
X120495000Y-70446000D01*
X120501000Y-70399000D01*
X120510000Y-70353000D01*
X120521000Y-70307000D01*
X120534000Y-70262000D01*
X120550000Y-70217000D01*
X120568000Y-70174000D01*
X120588000Y-70131000D01*
X120611000Y-70090000D01*
X120635000Y-70050000D01*
X120662000Y-70011000D01*
X120691000Y-69974000D01*
X120721000Y-69938000D01*
X120754000Y-69904000D01*
X120788000Y-69871000D01*
X120824000Y-69841000D01*
X120861000Y-69812000D01*
X120900000Y-69785000D01*
X120940000Y-69761000D01*
X120981000Y-69738000D01*
X121024000Y-69718000D01*
X121067000Y-69700000D01*
X121112000Y-69684000D01*
X121157000Y-69671000D01*
X121203000Y-69660000D01*
X121249000Y-69651000D01*
X121296000Y-69645000D01*
X121343000Y-69641000D01*
X121390000Y-69640000D01*
X123890000Y-69640000D01*
X123890000Y-71440000D01*
G37*
X123890000Y-76520000D02*
X121390000Y-76520000D01*
X121343000Y-76519000D01*
X121296000Y-76515000D01*
X121249000Y-76509000D01*
X121203000Y-76500000D01*
X121157000Y-76489000D01*
X121112000Y-76476000D01*
X121067000Y-76460000D01*
X121024000Y-76442000D01*
X120981000Y-76422000D01*
X120940000Y-76399000D01*
X120900000Y-76375000D01*
X120861000Y-76348000D01*
X120824000Y-76319000D01*
X120788000Y-76289000D01*
X120754000Y-76256000D01*
X120721000Y-76222000D01*
X120691000Y-76186000D01*
X120662000Y-76149000D01*
X120635000Y-76110000D01*
X120611000Y-76070000D01*
X120588000Y-76029000D01*
X120568000Y-75986000D01*
X120550000Y-75943000D01*
X120534000Y-75898000D01*
X120521000Y-75853000D01*
X120510000Y-75807000D01*
X120501000Y-75761000D01*
X120495000Y-75714000D01*
X120491000Y-75667000D01*
X120490000Y-75620000D01*
X120491000Y-75573000D01*
X120495000Y-75526000D01*
X120501000Y-75479000D01*
X120510000Y-75433000D01*
X120521000Y-75387000D01*
X120534000Y-75342000D01*
X120550000Y-75297000D01*
X120568000Y-75254000D01*
X120588000Y-75211000D01*
X120611000Y-75170000D01*
X120635000Y-75130000D01*
X120662000Y-75091000D01*
X120691000Y-75054000D01*
X120721000Y-75018000D01*
X120754000Y-74984000D01*
X120788000Y-74951000D01*
X120824000Y-74921000D01*
X120861000Y-74892000D01*
X120900000Y-74865000D01*
X120940000Y-74841000D01*
X120981000Y-74818000D01*
X121024000Y-74798000D01*
X121067000Y-74780000D01*
X121112000Y-74764000D01*
X121157000Y-74751000D01*
X121203000Y-74740000D01*
X121249000Y-74731000D01*
X121296000Y-74725000D01*
X121343000Y-74721000D01*
X121390000Y-74720000D01*
X123890000Y-74720000D01*
X123890000Y-76520000D01*
G36*
X123890000Y-76520000D02*
G01*
X121390000Y-76520000D01*
X121343000Y-76519000D01*
X121296000Y-76515000D01*
X121249000Y-76509000D01*
X121203000Y-76500000D01*
X121157000Y-76489000D01*
X121112000Y-76476000D01*
X121067000Y-76460000D01*
X121024000Y-76442000D01*
X120981000Y-76422000D01*
X120940000Y-76399000D01*
X120900000Y-76375000D01*
X120861000Y-76348000D01*
X120824000Y-76319000D01*
X120788000Y-76289000D01*
X120754000Y-76256000D01*
X120721000Y-76222000D01*
X120691000Y-76186000D01*
X120662000Y-76149000D01*
X120635000Y-76110000D01*
X120611000Y-76070000D01*
X120588000Y-76029000D01*
X120568000Y-75986000D01*
X120550000Y-75943000D01*
X120534000Y-75898000D01*
X120521000Y-75853000D01*
X120510000Y-75807000D01*
X120501000Y-75761000D01*
X120495000Y-75714000D01*
X120491000Y-75667000D01*
X120490000Y-75620000D01*
X120491000Y-75573000D01*
X120495000Y-75526000D01*
X120501000Y-75479000D01*
X120510000Y-75433000D01*
X120521000Y-75387000D01*
X120534000Y-75342000D01*
X120550000Y-75297000D01*
X120568000Y-75254000D01*
X120588000Y-75211000D01*
X120611000Y-75170000D01*
X120635000Y-75130000D01*
X120662000Y-75091000D01*
X120691000Y-75054000D01*
X120721000Y-75018000D01*
X120754000Y-74984000D01*
X120788000Y-74951000D01*
X120824000Y-74921000D01*
X120861000Y-74892000D01*
X120900000Y-74865000D01*
X120940000Y-74841000D01*
X120981000Y-74818000D01*
X121024000Y-74798000D01*
X121067000Y-74780000D01*
X121112000Y-74764000D01*
X121157000Y-74751000D01*
X121203000Y-74740000D01*
X121249000Y-74731000D01*
X121296000Y-74725000D01*
X121343000Y-74721000D01*
X121390000Y-74720000D01*
X123890000Y-74720000D01*
X123890000Y-76520000D01*
G37*
X123890000Y-79060000D02*
X121390000Y-79060000D01*
X121343000Y-79059000D01*
X121296000Y-79055000D01*
X121249000Y-79049000D01*
X121203000Y-79040000D01*
X121157000Y-79029000D01*
X121112000Y-79016000D01*
X121067000Y-79000000D01*
X121024000Y-78982000D01*
X120981000Y-78962000D01*
X120940000Y-78939000D01*
X120900000Y-78915000D01*
X120861000Y-78888000D01*
X120824000Y-78859000D01*
X120788000Y-78829000D01*
X120754000Y-78796000D01*
X120721000Y-78762000D01*
X120691000Y-78726000D01*
X120662000Y-78689000D01*
X120635000Y-78650000D01*
X120611000Y-78610000D01*
X120588000Y-78569000D01*
X120568000Y-78526000D01*
X120550000Y-78483000D01*
X120534000Y-78438000D01*
X120521000Y-78393000D01*
X120510000Y-78347000D01*
X120501000Y-78301000D01*
X120495000Y-78254000D01*
X120491000Y-78207000D01*
X120490000Y-78160000D01*
X120491000Y-78113000D01*
X120495000Y-78066000D01*
X120501000Y-78019000D01*
X120510000Y-77973000D01*
X120521000Y-77927000D01*
X120534000Y-77882000D01*
X120550000Y-77837000D01*
X120568000Y-77794000D01*
X120588000Y-77751000D01*
X120611000Y-77710000D01*
X120635000Y-77670000D01*
X120662000Y-77631000D01*
X120691000Y-77594000D01*
X120721000Y-77558000D01*
X120754000Y-77524000D01*
X120788000Y-77491000D01*
X120824000Y-77461000D01*
X120861000Y-77432000D01*
X120900000Y-77405000D01*
X120940000Y-77381000D01*
X120981000Y-77358000D01*
X121024000Y-77338000D01*
X121067000Y-77320000D01*
X121112000Y-77304000D01*
X121157000Y-77291000D01*
X121203000Y-77280000D01*
X121249000Y-77271000D01*
X121296000Y-77265000D01*
X121343000Y-77261000D01*
X121390000Y-77260000D01*
X123890000Y-77260000D01*
X123890000Y-79060000D01*
G36*
X123890000Y-79060000D02*
G01*
X121390000Y-79060000D01*
X121343000Y-79059000D01*
X121296000Y-79055000D01*
X121249000Y-79049000D01*
X121203000Y-79040000D01*
X121157000Y-79029000D01*
X121112000Y-79016000D01*
X121067000Y-79000000D01*
X121024000Y-78982000D01*
X120981000Y-78962000D01*
X120940000Y-78939000D01*
X120900000Y-78915000D01*
X120861000Y-78888000D01*
X120824000Y-78859000D01*
X120788000Y-78829000D01*
X120754000Y-78796000D01*
X120721000Y-78762000D01*
X120691000Y-78726000D01*
X120662000Y-78689000D01*
X120635000Y-78650000D01*
X120611000Y-78610000D01*
X120588000Y-78569000D01*
X120568000Y-78526000D01*
X120550000Y-78483000D01*
X120534000Y-78438000D01*
X120521000Y-78393000D01*
X120510000Y-78347000D01*
X120501000Y-78301000D01*
X120495000Y-78254000D01*
X120491000Y-78207000D01*
X120490000Y-78160000D01*
X120491000Y-78113000D01*
X120495000Y-78066000D01*
X120501000Y-78019000D01*
X120510000Y-77973000D01*
X120521000Y-77927000D01*
X120534000Y-77882000D01*
X120550000Y-77837000D01*
X120568000Y-77794000D01*
X120588000Y-77751000D01*
X120611000Y-77710000D01*
X120635000Y-77670000D01*
X120662000Y-77631000D01*
X120691000Y-77594000D01*
X120721000Y-77558000D01*
X120754000Y-77524000D01*
X120788000Y-77491000D01*
X120824000Y-77461000D01*
X120861000Y-77432000D01*
X120900000Y-77405000D01*
X120940000Y-77381000D01*
X120981000Y-77358000D01*
X121024000Y-77338000D01*
X121067000Y-77320000D01*
X121112000Y-77304000D01*
X121157000Y-77291000D01*
X121203000Y-77280000D01*
X121249000Y-77271000D01*
X121296000Y-77265000D01*
X121343000Y-77261000D01*
X121390000Y-77260000D01*
X123890000Y-77260000D01*
X123890000Y-79060000D01*
G37*
X123890000Y-81600000D02*
X121390000Y-81600000D01*
X121343000Y-81599000D01*
X121296000Y-81595000D01*
X121249000Y-81589000D01*
X121203000Y-81580000D01*
X121157000Y-81569000D01*
X121112000Y-81556000D01*
X121067000Y-81540000D01*
X121024000Y-81522000D01*
X120981000Y-81502000D01*
X120940000Y-81479000D01*
X120900000Y-81455000D01*
X120861000Y-81428000D01*
X120824000Y-81399000D01*
X120788000Y-81369000D01*
X120754000Y-81336000D01*
X120721000Y-81302000D01*
X120691000Y-81266000D01*
X120662000Y-81229000D01*
X120635000Y-81190000D01*
X120611000Y-81150000D01*
X120588000Y-81109000D01*
X120568000Y-81066000D01*
X120550000Y-81023000D01*
X120534000Y-80978000D01*
X120521000Y-80933000D01*
X120510000Y-80887000D01*
X120501000Y-80841000D01*
X120495000Y-80794000D01*
X120491000Y-80747000D01*
X120490000Y-80700000D01*
X120491000Y-80653000D01*
X120495000Y-80606000D01*
X120501000Y-80559000D01*
X120510000Y-80513000D01*
X120521000Y-80467000D01*
X120534000Y-80422000D01*
X120550000Y-80377000D01*
X120568000Y-80334000D01*
X120588000Y-80291000D01*
X120611000Y-80250000D01*
X120635000Y-80210000D01*
X120662000Y-80171000D01*
X120691000Y-80134000D01*
X120721000Y-80098000D01*
X120754000Y-80064000D01*
X120788000Y-80031000D01*
X120824000Y-80001000D01*
X120861000Y-79972000D01*
X120900000Y-79945000D01*
X120940000Y-79921000D01*
X120981000Y-79898000D01*
X121024000Y-79878000D01*
X121067000Y-79860000D01*
X121112000Y-79844000D01*
X121157000Y-79831000D01*
X121203000Y-79820000D01*
X121249000Y-79811000D01*
X121296000Y-79805000D01*
X121343000Y-79801000D01*
X121390000Y-79800000D01*
X123890000Y-79800000D01*
X123890000Y-81600000D01*
G36*
X123890000Y-81600000D02*
G01*
X121390000Y-81600000D01*
X121343000Y-81599000D01*
X121296000Y-81595000D01*
X121249000Y-81589000D01*
X121203000Y-81580000D01*
X121157000Y-81569000D01*
X121112000Y-81556000D01*
X121067000Y-81540000D01*
X121024000Y-81522000D01*
X120981000Y-81502000D01*
X120940000Y-81479000D01*
X120900000Y-81455000D01*
X120861000Y-81428000D01*
X120824000Y-81399000D01*
X120788000Y-81369000D01*
X120754000Y-81336000D01*
X120721000Y-81302000D01*
X120691000Y-81266000D01*
X120662000Y-81229000D01*
X120635000Y-81190000D01*
X120611000Y-81150000D01*
X120588000Y-81109000D01*
X120568000Y-81066000D01*
X120550000Y-81023000D01*
X120534000Y-80978000D01*
X120521000Y-80933000D01*
X120510000Y-80887000D01*
X120501000Y-80841000D01*
X120495000Y-80794000D01*
X120491000Y-80747000D01*
X120490000Y-80700000D01*
X120491000Y-80653000D01*
X120495000Y-80606000D01*
X120501000Y-80559000D01*
X120510000Y-80513000D01*
X120521000Y-80467000D01*
X120534000Y-80422000D01*
X120550000Y-80377000D01*
X120568000Y-80334000D01*
X120588000Y-80291000D01*
X120611000Y-80250000D01*
X120635000Y-80210000D01*
X120662000Y-80171000D01*
X120691000Y-80134000D01*
X120721000Y-80098000D01*
X120754000Y-80064000D01*
X120788000Y-80031000D01*
X120824000Y-80001000D01*
X120861000Y-79972000D01*
X120900000Y-79945000D01*
X120940000Y-79921000D01*
X120981000Y-79898000D01*
X121024000Y-79878000D01*
X121067000Y-79860000D01*
X121112000Y-79844000D01*
X121157000Y-79831000D01*
X121203000Y-79820000D01*
X121249000Y-79811000D01*
X121296000Y-79805000D01*
X121343000Y-79801000D01*
X121390000Y-79800000D01*
X123890000Y-79800000D01*
X123890000Y-81600000D01*
G37*
X123890000Y-84140000D02*
X121390000Y-84140000D01*
X121343000Y-84139000D01*
X121296000Y-84135000D01*
X121249000Y-84129000D01*
X121203000Y-84120000D01*
X121157000Y-84109000D01*
X121112000Y-84096000D01*
X121067000Y-84080000D01*
X121024000Y-84062000D01*
X120981000Y-84042000D01*
X120940000Y-84019000D01*
X120900000Y-83995000D01*
X120861000Y-83968000D01*
X120824000Y-83939000D01*
X120788000Y-83909000D01*
X120754000Y-83876000D01*
X120721000Y-83842000D01*
X120691000Y-83806000D01*
X120662000Y-83769000D01*
X120635000Y-83730000D01*
X120611000Y-83690000D01*
X120588000Y-83649000D01*
X120568000Y-83606000D01*
X120550000Y-83563000D01*
X120534000Y-83518000D01*
X120521000Y-83473000D01*
X120510000Y-83427000D01*
X120501000Y-83381000D01*
X120495000Y-83334000D01*
X120491000Y-83287000D01*
X120490000Y-83240000D01*
X120491000Y-83193000D01*
X120495000Y-83146000D01*
X120501000Y-83099000D01*
X120510000Y-83053000D01*
X120521000Y-83007000D01*
X120534000Y-82962000D01*
X120550000Y-82917000D01*
X120568000Y-82874000D01*
X120588000Y-82831000D01*
X120611000Y-82790000D01*
X120635000Y-82750000D01*
X120662000Y-82711000D01*
X120691000Y-82674000D01*
X120721000Y-82638000D01*
X120754000Y-82604000D01*
X120788000Y-82571000D01*
X120824000Y-82541000D01*
X120861000Y-82512000D01*
X120900000Y-82485000D01*
X120940000Y-82461000D01*
X120981000Y-82438000D01*
X121024000Y-82418000D01*
X121067000Y-82400000D01*
X121112000Y-82384000D01*
X121157000Y-82371000D01*
X121203000Y-82360000D01*
X121249000Y-82351000D01*
X121296000Y-82345000D01*
X121343000Y-82341000D01*
X121390000Y-82340000D01*
X123890000Y-82340000D01*
X123890000Y-84140000D01*
G36*
X123890000Y-84140000D02*
G01*
X121390000Y-84140000D01*
X121343000Y-84139000D01*
X121296000Y-84135000D01*
X121249000Y-84129000D01*
X121203000Y-84120000D01*
X121157000Y-84109000D01*
X121112000Y-84096000D01*
X121067000Y-84080000D01*
X121024000Y-84062000D01*
X120981000Y-84042000D01*
X120940000Y-84019000D01*
X120900000Y-83995000D01*
X120861000Y-83968000D01*
X120824000Y-83939000D01*
X120788000Y-83909000D01*
X120754000Y-83876000D01*
X120721000Y-83842000D01*
X120691000Y-83806000D01*
X120662000Y-83769000D01*
X120635000Y-83730000D01*
X120611000Y-83690000D01*
X120588000Y-83649000D01*
X120568000Y-83606000D01*
X120550000Y-83563000D01*
X120534000Y-83518000D01*
X120521000Y-83473000D01*
X120510000Y-83427000D01*
X120501000Y-83381000D01*
X120495000Y-83334000D01*
X120491000Y-83287000D01*
X120490000Y-83240000D01*
X120491000Y-83193000D01*
X120495000Y-83146000D01*
X120501000Y-83099000D01*
X120510000Y-83053000D01*
X120521000Y-83007000D01*
X120534000Y-82962000D01*
X120550000Y-82917000D01*
X120568000Y-82874000D01*
X120588000Y-82831000D01*
X120611000Y-82790000D01*
X120635000Y-82750000D01*
X120662000Y-82711000D01*
X120691000Y-82674000D01*
X120721000Y-82638000D01*
X120754000Y-82604000D01*
X120788000Y-82571000D01*
X120824000Y-82541000D01*
X120861000Y-82512000D01*
X120900000Y-82485000D01*
X120940000Y-82461000D01*
X120981000Y-82438000D01*
X121024000Y-82418000D01*
X121067000Y-82400000D01*
X121112000Y-82384000D01*
X121157000Y-82371000D01*
X121203000Y-82360000D01*
X121249000Y-82351000D01*
X121296000Y-82345000D01*
X121343000Y-82341000D01*
X121390000Y-82340000D01*
X123890000Y-82340000D01*
X123890000Y-84140000D01*
G37*
X123890000Y-89220000D02*
X121390000Y-89220000D01*
X121343000Y-89219000D01*
X121296000Y-89215000D01*
X121249000Y-89209000D01*
X121203000Y-89200000D01*
X121157000Y-89189000D01*
X121112000Y-89176000D01*
X121067000Y-89160000D01*
X121024000Y-89142000D01*
X120981000Y-89122000D01*
X120940000Y-89099000D01*
X120900000Y-89075000D01*
X120861000Y-89048000D01*
X120824000Y-89019000D01*
X120788000Y-88989000D01*
X120754000Y-88956000D01*
X120721000Y-88922000D01*
X120691000Y-88886000D01*
X120662000Y-88849000D01*
X120635000Y-88810000D01*
X120611000Y-88770000D01*
X120588000Y-88729000D01*
X120568000Y-88686000D01*
X120550000Y-88643000D01*
X120534000Y-88598000D01*
X120521000Y-88553000D01*
X120510000Y-88507000D01*
X120501000Y-88461000D01*
X120495000Y-88414000D01*
X120491000Y-88367000D01*
X120490000Y-88320000D01*
X120491000Y-88273000D01*
X120495000Y-88226000D01*
X120501000Y-88179000D01*
X120510000Y-88133000D01*
X120521000Y-88087000D01*
X120534000Y-88042000D01*
X120550000Y-87997000D01*
X120568000Y-87954000D01*
X120588000Y-87911000D01*
X120611000Y-87870000D01*
X120635000Y-87830000D01*
X120662000Y-87791000D01*
X120691000Y-87754000D01*
X120721000Y-87718000D01*
X120754000Y-87684000D01*
X120788000Y-87651000D01*
X120824000Y-87621000D01*
X120861000Y-87592000D01*
X120900000Y-87565000D01*
X120940000Y-87541000D01*
X120981000Y-87518000D01*
X121024000Y-87498000D01*
X121067000Y-87480000D01*
X121112000Y-87464000D01*
X121157000Y-87451000D01*
X121203000Y-87440000D01*
X121249000Y-87431000D01*
X121296000Y-87425000D01*
X121343000Y-87421000D01*
X121390000Y-87420000D01*
X123890000Y-87420000D01*
X123890000Y-89220000D01*
G36*
X123890000Y-89220000D02*
G01*
X121390000Y-89220000D01*
X121343000Y-89219000D01*
X121296000Y-89215000D01*
X121249000Y-89209000D01*
X121203000Y-89200000D01*
X121157000Y-89189000D01*
X121112000Y-89176000D01*
X121067000Y-89160000D01*
X121024000Y-89142000D01*
X120981000Y-89122000D01*
X120940000Y-89099000D01*
X120900000Y-89075000D01*
X120861000Y-89048000D01*
X120824000Y-89019000D01*
X120788000Y-88989000D01*
X120754000Y-88956000D01*
X120721000Y-88922000D01*
X120691000Y-88886000D01*
X120662000Y-88849000D01*
X120635000Y-88810000D01*
X120611000Y-88770000D01*
X120588000Y-88729000D01*
X120568000Y-88686000D01*
X120550000Y-88643000D01*
X120534000Y-88598000D01*
X120521000Y-88553000D01*
X120510000Y-88507000D01*
X120501000Y-88461000D01*
X120495000Y-88414000D01*
X120491000Y-88367000D01*
X120490000Y-88320000D01*
X120491000Y-88273000D01*
X120495000Y-88226000D01*
X120501000Y-88179000D01*
X120510000Y-88133000D01*
X120521000Y-88087000D01*
X120534000Y-88042000D01*
X120550000Y-87997000D01*
X120568000Y-87954000D01*
X120588000Y-87911000D01*
X120611000Y-87870000D01*
X120635000Y-87830000D01*
X120662000Y-87791000D01*
X120691000Y-87754000D01*
X120721000Y-87718000D01*
X120754000Y-87684000D01*
X120788000Y-87651000D01*
X120824000Y-87621000D01*
X120861000Y-87592000D01*
X120900000Y-87565000D01*
X120940000Y-87541000D01*
X120981000Y-87518000D01*
X121024000Y-87498000D01*
X121067000Y-87480000D01*
X121112000Y-87464000D01*
X121157000Y-87451000D01*
X121203000Y-87440000D01*
X121249000Y-87431000D01*
X121296000Y-87425000D01*
X121343000Y-87421000D01*
X121390000Y-87420000D01*
X123890000Y-87420000D01*
X123890000Y-89220000D01*
G37*
X123890000Y-91760000D02*
X121390000Y-91760000D01*
X121343000Y-91759000D01*
X121296000Y-91755000D01*
X121249000Y-91749000D01*
X121203000Y-91740000D01*
X121157000Y-91729000D01*
X121112000Y-91716000D01*
X121067000Y-91700000D01*
X121024000Y-91682000D01*
X120981000Y-91662000D01*
X120940000Y-91639000D01*
X120900000Y-91615000D01*
X120861000Y-91588000D01*
X120824000Y-91559000D01*
X120788000Y-91529000D01*
X120754000Y-91496000D01*
X120721000Y-91462000D01*
X120691000Y-91426000D01*
X120662000Y-91389000D01*
X120635000Y-91350000D01*
X120611000Y-91310000D01*
X120588000Y-91269000D01*
X120568000Y-91226000D01*
X120550000Y-91183000D01*
X120534000Y-91138000D01*
X120521000Y-91093000D01*
X120510000Y-91047000D01*
X120501000Y-91001000D01*
X120495000Y-90954000D01*
X120491000Y-90907000D01*
X120490000Y-90860000D01*
X120491000Y-90813000D01*
X120495000Y-90766000D01*
X120501000Y-90719000D01*
X120510000Y-90673000D01*
X120521000Y-90627000D01*
X120534000Y-90582000D01*
X120550000Y-90537000D01*
X120568000Y-90494000D01*
X120588000Y-90451000D01*
X120611000Y-90410000D01*
X120635000Y-90370000D01*
X120662000Y-90331000D01*
X120691000Y-90294000D01*
X120721000Y-90258000D01*
X120754000Y-90224000D01*
X120788000Y-90191000D01*
X120824000Y-90161000D01*
X120861000Y-90132000D01*
X120900000Y-90105000D01*
X120940000Y-90081000D01*
X120981000Y-90058000D01*
X121024000Y-90038000D01*
X121067000Y-90020000D01*
X121112000Y-90004000D01*
X121157000Y-89991000D01*
X121203000Y-89980000D01*
X121249000Y-89971000D01*
X121296000Y-89965000D01*
X121343000Y-89961000D01*
X121390000Y-89960000D01*
X123890000Y-89960000D01*
X123890000Y-91760000D01*
G36*
X123890000Y-91760000D02*
G01*
X121390000Y-91760000D01*
X121343000Y-91759000D01*
X121296000Y-91755000D01*
X121249000Y-91749000D01*
X121203000Y-91740000D01*
X121157000Y-91729000D01*
X121112000Y-91716000D01*
X121067000Y-91700000D01*
X121024000Y-91682000D01*
X120981000Y-91662000D01*
X120940000Y-91639000D01*
X120900000Y-91615000D01*
X120861000Y-91588000D01*
X120824000Y-91559000D01*
X120788000Y-91529000D01*
X120754000Y-91496000D01*
X120721000Y-91462000D01*
X120691000Y-91426000D01*
X120662000Y-91389000D01*
X120635000Y-91350000D01*
X120611000Y-91310000D01*
X120588000Y-91269000D01*
X120568000Y-91226000D01*
X120550000Y-91183000D01*
X120534000Y-91138000D01*
X120521000Y-91093000D01*
X120510000Y-91047000D01*
X120501000Y-91001000D01*
X120495000Y-90954000D01*
X120491000Y-90907000D01*
X120490000Y-90860000D01*
X120491000Y-90813000D01*
X120495000Y-90766000D01*
X120501000Y-90719000D01*
X120510000Y-90673000D01*
X120521000Y-90627000D01*
X120534000Y-90582000D01*
X120550000Y-90537000D01*
X120568000Y-90494000D01*
X120588000Y-90451000D01*
X120611000Y-90410000D01*
X120635000Y-90370000D01*
X120662000Y-90331000D01*
X120691000Y-90294000D01*
X120721000Y-90258000D01*
X120754000Y-90224000D01*
X120788000Y-90191000D01*
X120824000Y-90161000D01*
X120861000Y-90132000D01*
X120900000Y-90105000D01*
X120940000Y-90081000D01*
X120981000Y-90058000D01*
X121024000Y-90038000D01*
X121067000Y-90020000D01*
X121112000Y-90004000D01*
X121157000Y-89991000D01*
X121203000Y-89980000D01*
X121249000Y-89971000D01*
X121296000Y-89965000D01*
X121343000Y-89961000D01*
X121390000Y-89960000D01*
X123890000Y-89960000D01*
X123890000Y-91760000D01*
G37*
X123890000Y-94300000D02*
X121390000Y-94300000D01*
X121343000Y-94299000D01*
X121296000Y-94295000D01*
X121249000Y-94289000D01*
X121203000Y-94280000D01*
X121157000Y-94269000D01*
X121112000Y-94256000D01*
X121067000Y-94240000D01*
X121024000Y-94222000D01*
X120981000Y-94202000D01*
X120940000Y-94179000D01*
X120900000Y-94155000D01*
X120861000Y-94128000D01*
X120824000Y-94099000D01*
X120788000Y-94069000D01*
X120754000Y-94036000D01*
X120721000Y-94002000D01*
X120691000Y-93966000D01*
X120662000Y-93929000D01*
X120635000Y-93890000D01*
X120611000Y-93850000D01*
X120588000Y-93809000D01*
X120568000Y-93766000D01*
X120550000Y-93723000D01*
X120534000Y-93678000D01*
X120521000Y-93633000D01*
X120510000Y-93587000D01*
X120501000Y-93541000D01*
X120495000Y-93494000D01*
X120491000Y-93447000D01*
X120490000Y-93400000D01*
X120491000Y-93353000D01*
X120495000Y-93306000D01*
X120501000Y-93259000D01*
X120510000Y-93213000D01*
X120521000Y-93167000D01*
X120534000Y-93122000D01*
X120550000Y-93077000D01*
X120568000Y-93034000D01*
X120588000Y-92991000D01*
X120611000Y-92950000D01*
X120635000Y-92910000D01*
X120662000Y-92871000D01*
X120691000Y-92834000D01*
X120721000Y-92798000D01*
X120754000Y-92764000D01*
X120788000Y-92731000D01*
X120824000Y-92701000D01*
X120861000Y-92672000D01*
X120900000Y-92645000D01*
X120940000Y-92621000D01*
X120981000Y-92598000D01*
X121024000Y-92578000D01*
X121067000Y-92560000D01*
X121112000Y-92544000D01*
X121157000Y-92531000D01*
X121203000Y-92520000D01*
X121249000Y-92511000D01*
X121296000Y-92505000D01*
X121343000Y-92501000D01*
X121390000Y-92500000D01*
X123890000Y-92500000D01*
X123890000Y-94300000D01*
G36*
X123890000Y-94300000D02*
G01*
X121390000Y-94300000D01*
X121343000Y-94299000D01*
X121296000Y-94295000D01*
X121249000Y-94289000D01*
X121203000Y-94280000D01*
X121157000Y-94269000D01*
X121112000Y-94256000D01*
X121067000Y-94240000D01*
X121024000Y-94222000D01*
X120981000Y-94202000D01*
X120940000Y-94179000D01*
X120900000Y-94155000D01*
X120861000Y-94128000D01*
X120824000Y-94099000D01*
X120788000Y-94069000D01*
X120754000Y-94036000D01*
X120721000Y-94002000D01*
X120691000Y-93966000D01*
X120662000Y-93929000D01*
X120635000Y-93890000D01*
X120611000Y-93850000D01*
X120588000Y-93809000D01*
X120568000Y-93766000D01*
X120550000Y-93723000D01*
X120534000Y-93678000D01*
X120521000Y-93633000D01*
X120510000Y-93587000D01*
X120501000Y-93541000D01*
X120495000Y-93494000D01*
X120491000Y-93447000D01*
X120490000Y-93400000D01*
X120491000Y-93353000D01*
X120495000Y-93306000D01*
X120501000Y-93259000D01*
X120510000Y-93213000D01*
X120521000Y-93167000D01*
X120534000Y-93122000D01*
X120550000Y-93077000D01*
X120568000Y-93034000D01*
X120588000Y-92991000D01*
X120611000Y-92950000D01*
X120635000Y-92910000D01*
X120662000Y-92871000D01*
X120691000Y-92834000D01*
X120721000Y-92798000D01*
X120754000Y-92764000D01*
X120788000Y-92731000D01*
X120824000Y-92701000D01*
X120861000Y-92672000D01*
X120900000Y-92645000D01*
X120940000Y-92621000D01*
X120981000Y-92598000D01*
X121024000Y-92578000D01*
X121067000Y-92560000D01*
X121112000Y-92544000D01*
X121157000Y-92531000D01*
X121203000Y-92520000D01*
X121249000Y-92511000D01*
X121296000Y-92505000D01*
X121343000Y-92501000D01*
X121390000Y-92500000D01*
X123890000Y-92500000D01*
X123890000Y-94300000D01*
G37*
X123890000Y-96840000D02*
X121390000Y-96840000D01*
X121343000Y-96839000D01*
X121296000Y-96835000D01*
X121249000Y-96829000D01*
X121203000Y-96820000D01*
X121157000Y-96809000D01*
X121112000Y-96796000D01*
X121067000Y-96780000D01*
X121024000Y-96762000D01*
X120981000Y-96742000D01*
X120940000Y-96719000D01*
X120900000Y-96695000D01*
X120861000Y-96668000D01*
X120824000Y-96639000D01*
X120788000Y-96609000D01*
X120754000Y-96576000D01*
X120721000Y-96542000D01*
X120691000Y-96506000D01*
X120662000Y-96469000D01*
X120635000Y-96430000D01*
X120611000Y-96390000D01*
X120588000Y-96349000D01*
X120568000Y-96306000D01*
X120550000Y-96263000D01*
X120534000Y-96218000D01*
X120521000Y-96173000D01*
X120510000Y-96127000D01*
X120501000Y-96081000D01*
X120495000Y-96034000D01*
X120491000Y-95987000D01*
X120490000Y-95940000D01*
X120491000Y-95893000D01*
X120495000Y-95846000D01*
X120501000Y-95799000D01*
X120510000Y-95753000D01*
X120521000Y-95707000D01*
X120534000Y-95662000D01*
X120550000Y-95617000D01*
X120568000Y-95574000D01*
X120588000Y-95531000D01*
X120611000Y-95490000D01*
X120635000Y-95450000D01*
X120662000Y-95411000D01*
X120691000Y-95374000D01*
X120721000Y-95338000D01*
X120754000Y-95304000D01*
X120788000Y-95271000D01*
X120824000Y-95241000D01*
X120861000Y-95212000D01*
X120900000Y-95185000D01*
X120940000Y-95161000D01*
X120981000Y-95138000D01*
X121024000Y-95118000D01*
X121067000Y-95100000D01*
X121112000Y-95084000D01*
X121157000Y-95071000D01*
X121203000Y-95060000D01*
X121249000Y-95051000D01*
X121296000Y-95045000D01*
X121343000Y-95041000D01*
X121390000Y-95040000D01*
X123890000Y-95040000D01*
X123890000Y-96840000D01*
G36*
X123890000Y-96840000D02*
G01*
X121390000Y-96840000D01*
X121343000Y-96839000D01*
X121296000Y-96835000D01*
X121249000Y-96829000D01*
X121203000Y-96820000D01*
X121157000Y-96809000D01*
X121112000Y-96796000D01*
X121067000Y-96780000D01*
X121024000Y-96762000D01*
X120981000Y-96742000D01*
X120940000Y-96719000D01*
X120900000Y-96695000D01*
X120861000Y-96668000D01*
X120824000Y-96639000D01*
X120788000Y-96609000D01*
X120754000Y-96576000D01*
X120721000Y-96542000D01*
X120691000Y-96506000D01*
X120662000Y-96469000D01*
X120635000Y-96430000D01*
X120611000Y-96390000D01*
X120588000Y-96349000D01*
X120568000Y-96306000D01*
X120550000Y-96263000D01*
X120534000Y-96218000D01*
X120521000Y-96173000D01*
X120510000Y-96127000D01*
X120501000Y-96081000D01*
X120495000Y-96034000D01*
X120491000Y-95987000D01*
X120490000Y-95940000D01*
X120491000Y-95893000D01*
X120495000Y-95846000D01*
X120501000Y-95799000D01*
X120510000Y-95753000D01*
X120521000Y-95707000D01*
X120534000Y-95662000D01*
X120550000Y-95617000D01*
X120568000Y-95574000D01*
X120588000Y-95531000D01*
X120611000Y-95490000D01*
X120635000Y-95450000D01*
X120662000Y-95411000D01*
X120691000Y-95374000D01*
X120721000Y-95338000D01*
X120754000Y-95304000D01*
X120788000Y-95271000D01*
X120824000Y-95241000D01*
X120861000Y-95212000D01*
X120900000Y-95185000D01*
X120940000Y-95161000D01*
X120981000Y-95138000D01*
X121024000Y-95118000D01*
X121067000Y-95100000D01*
X121112000Y-95084000D01*
X121157000Y-95071000D01*
X121203000Y-95060000D01*
X121249000Y-95051000D01*
X121296000Y-95045000D01*
X121343000Y-95041000D01*
X121390000Y-95040000D01*
X123890000Y-95040000D01*
X123890000Y-96840000D01*
G37*
X123890000Y-101920000D02*
X121390000Y-101920000D01*
X121343000Y-101919000D01*
X121296000Y-101915000D01*
X121249000Y-101909000D01*
X121203000Y-101900000D01*
X121157000Y-101889000D01*
X121112000Y-101876000D01*
X121067000Y-101860000D01*
X121024000Y-101842000D01*
X120981000Y-101822000D01*
X120940000Y-101799000D01*
X120900000Y-101775000D01*
X120861000Y-101748000D01*
X120824000Y-101719000D01*
X120788000Y-101689000D01*
X120754000Y-101656000D01*
X120721000Y-101622000D01*
X120691000Y-101586000D01*
X120662000Y-101549000D01*
X120635000Y-101510000D01*
X120611000Y-101470000D01*
X120588000Y-101429000D01*
X120568000Y-101386000D01*
X120550000Y-101343000D01*
X120534000Y-101298000D01*
X120521000Y-101253000D01*
X120510000Y-101207000D01*
X120501000Y-101161000D01*
X120495000Y-101114000D01*
X120491000Y-101067000D01*
X120490000Y-101020000D01*
X120491000Y-100973000D01*
X120495000Y-100926000D01*
X120501000Y-100879000D01*
X120510000Y-100833000D01*
X120521000Y-100787000D01*
X120534000Y-100742000D01*
X120550000Y-100697000D01*
X120568000Y-100654000D01*
X120588000Y-100611000D01*
X120611000Y-100570000D01*
X120635000Y-100530000D01*
X120662000Y-100491000D01*
X120691000Y-100454000D01*
X120721000Y-100418000D01*
X120754000Y-100384000D01*
X120788000Y-100351000D01*
X120824000Y-100321000D01*
X120861000Y-100292000D01*
X120900000Y-100265000D01*
X120940000Y-100241000D01*
X120981000Y-100218000D01*
X121024000Y-100198000D01*
X121067000Y-100180000D01*
X121112000Y-100164000D01*
X121157000Y-100151000D01*
X121203000Y-100140000D01*
X121249000Y-100131000D01*
X121296000Y-100125000D01*
X121343000Y-100121000D01*
X121390000Y-100120000D01*
X123890000Y-100120000D01*
X123890000Y-101920000D01*
G36*
X123890000Y-101920000D02*
G01*
X121390000Y-101920000D01*
X121343000Y-101919000D01*
X121296000Y-101915000D01*
X121249000Y-101909000D01*
X121203000Y-101900000D01*
X121157000Y-101889000D01*
X121112000Y-101876000D01*
X121067000Y-101860000D01*
X121024000Y-101842000D01*
X120981000Y-101822000D01*
X120940000Y-101799000D01*
X120900000Y-101775000D01*
X120861000Y-101748000D01*
X120824000Y-101719000D01*
X120788000Y-101689000D01*
X120754000Y-101656000D01*
X120721000Y-101622000D01*
X120691000Y-101586000D01*
X120662000Y-101549000D01*
X120635000Y-101510000D01*
X120611000Y-101470000D01*
X120588000Y-101429000D01*
X120568000Y-101386000D01*
X120550000Y-101343000D01*
X120534000Y-101298000D01*
X120521000Y-101253000D01*
X120510000Y-101207000D01*
X120501000Y-101161000D01*
X120495000Y-101114000D01*
X120491000Y-101067000D01*
X120490000Y-101020000D01*
X120491000Y-100973000D01*
X120495000Y-100926000D01*
X120501000Y-100879000D01*
X120510000Y-100833000D01*
X120521000Y-100787000D01*
X120534000Y-100742000D01*
X120550000Y-100697000D01*
X120568000Y-100654000D01*
X120588000Y-100611000D01*
X120611000Y-100570000D01*
X120635000Y-100530000D01*
X120662000Y-100491000D01*
X120691000Y-100454000D01*
X120721000Y-100418000D01*
X120754000Y-100384000D01*
X120788000Y-100351000D01*
X120824000Y-100321000D01*
X120861000Y-100292000D01*
X120900000Y-100265000D01*
X120940000Y-100241000D01*
X120981000Y-100218000D01*
X121024000Y-100198000D01*
X121067000Y-100180000D01*
X121112000Y-100164000D01*
X121157000Y-100151000D01*
X121203000Y-100140000D01*
X121249000Y-100131000D01*
X121296000Y-100125000D01*
X121343000Y-100121000D01*
X121390000Y-100120000D01*
X123890000Y-100120000D01*
X123890000Y-101920000D01*
G37*
X123890000Y-104460000D02*
X121390000Y-104460000D01*
X121343000Y-104459000D01*
X121296000Y-104455000D01*
X121249000Y-104449000D01*
X121203000Y-104440000D01*
X121157000Y-104429000D01*
X121112000Y-104416000D01*
X121067000Y-104400000D01*
X121024000Y-104382000D01*
X120981000Y-104362000D01*
X120940000Y-104339000D01*
X120900000Y-104315000D01*
X120861000Y-104288000D01*
X120824000Y-104259000D01*
X120788000Y-104229000D01*
X120754000Y-104196000D01*
X120721000Y-104162000D01*
X120691000Y-104126000D01*
X120662000Y-104089000D01*
X120635000Y-104050000D01*
X120611000Y-104010000D01*
X120588000Y-103969000D01*
X120568000Y-103926000D01*
X120550000Y-103883000D01*
X120534000Y-103838000D01*
X120521000Y-103793000D01*
X120510000Y-103747000D01*
X120501000Y-103701000D01*
X120495000Y-103654000D01*
X120491000Y-103607000D01*
X120490000Y-103560000D01*
X120491000Y-103513000D01*
X120495000Y-103466000D01*
X120501000Y-103419000D01*
X120510000Y-103373000D01*
X120521000Y-103327000D01*
X120534000Y-103282000D01*
X120550000Y-103237000D01*
X120568000Y-103194000D01*
X120588000Y-103151000D01*
X120611000Y-103110000D01*
X120635000Y-103070000D01*
X120662000Y-103031000D01*
X120691000Y-102994000D01*
X120721000Y-102958000D01*
X120754000Y-102924000D01*
X120788000Y-102891000D01*
X120824000Y-102861000D01*
X120861000Y-102832000D01*
X120900000Y-102805000D01*
X120940000Y-102781000D01*
X120981000Y-102758000D01*
X121024000Y-102738000D01*
X121067000Y-102720000D01*
X121112000Y-102704000D01*
X121157000Y-102691000D01*
X121203000Y-102680000D01*
X121249000Y-102671000D01*
X121296000Y-102665000D01*
X121343000Y-102661000D01*
X121390000Y-102660000D01*
X123890000Y-102660000D01*
X123890000Y-104460000D01*
G36*
X123890000Y-104460000D02*
G01*
X121390000Y-104460000D01*
X121343000Y-104459000D01*
X121296000Y-104455000D01*
X121249000Y-104449000D01*
X121203000Y-104440000D01*
X121157000Y-104429000D01*
X121112000Y-104416000D01*
X121067000Y-104400000D01*
X121024000Y-104382000D01*
X120981000Y-104362000D01*
X120940000Y-104339000D01*
X120900000Y-104315000D01*
X120861000Y-104288000D01*
X120824000Y-104259000D01*
X120788000Y-104229000D01*
X120754000Y-104196000D01*
X120721000Y-104162000D01*
X120691000Y-104126000D01*
X120662000Y-104089000D01*
X120635000Y-104050000D01*
X120611000Y-104010000D01*
X120588000Y-103969000D01*
X120568000Y-103926000D01*
X120550000Y-103883000D01*
X120534000Y-103838000D01*
X120521000Y-103793000D01*
X120510000Y-103747000D01*
X120501000Y-103701000D01*
X120495000Y-103654000D01*
X120491000Y-103607000D01*
X120490000Y-103560000D01*
X120491000Y-103513000D01*
X120495000Y-103466000D01*
X120501000Y-103419000D01*
X120510000Y-103373000D01*
X120521000Y-103327000D01*
X120534000Y-103282000D01*
X120550000Y-103237000D01*
X120568000Y-103194000D01*
X120588000Y-103151000D01*
X120611000Y-103110000D01*
X120635000Y-103070000D01*
X120662000Y-103031000D01*
X120691000Y-102994000D01*
X120721000Y-102958000D01*
X120754000Y-102924000D01*
X120788000Y-102891000D01*
X120824000Y-102861000D01*
X120861000Y-102832000D01*
X120900000Y-102805000D01*
X120940000Y-102781000D01*
X120981000Y-102758000D01*
X121024000Y-102738000D01*
X121067000Y-102720000D01*
X121112000Y-102704000D01*
X121157000Y-102691000D01*
X121203000Y-102680000D01*
X121249000Y-102671000D01*
X121296000Y-102665000D01*
X121343000Y-102661000D01*
X121390000Y-102660000D01*
X123890000Y-102660000D01*
X123890000Y-104460000D01*
G37*
X123890000Y-107000000D02*
X121390000Y-107000000D01*
X121343000Y-106999000D01*
X121296000Y-106995000D01*
X121249000Y-106989000D01*
X121203000Y-106980000D01*
X121157000Y-106969000D01*
X121112000Y-106956000D01*
X121067000Y-106940000D01*
X121024000Y-106922000D01*
X120981000Y-106902000D01*
X120940000Y-106879000D01*
X120900000Y-106855000D01*
X120861000Y-106828000D01*
X120824000Y-106799000D01*
X120788000Y-106769000D01*
X120754000Y-106736000D01*
X120721000Y-106702000D01*
X120691000Y-106666000D01*
X120662000Y-106629000D01*
X120635000Y-106590000D01*
X120611000Y-106550000D01*
X120588000Y-106509000D01*
X120568000Y-106466000D01*
X120550000Y-106423000D01*
X120534000Y-106378000D01*
X120521000Y-106333000D01*
X120510000Y-106287000D01*
X120501000Y-106241000D01*
X120495000Y-106194000D01*
X120491000Y-106147000D01*
X120490000Y-106100000D01*
X120491000Y-106053000D01*
X120495000Y-106006000D01*
X120501000Y-105959000D01*
X120510000Y-105913000D01*
X120521000Y-105867000D01*
X120534000Y-105822000D01*
X120550000Y-105777000D01*
X120568000Y-105734000D01*
X120588000Y-105691000D01*
X120611000Y-105650000D01*
X120635000Y-105610000D01*
X120662000Y-105571000D01*
X120691000Y-105534000D01*
X120721000Y-105498000D01*
X120754000Y-105464000D01*
X120788000Y-105431000D01*
X120824000Y-105401000D01*
X120861000Y-105372000D01*
X120900000Y-105345000D01*
X120940000Y-105321000D01*
X120981000Y-105298000D01*
X121024000Y-105278000D01*
X121067000Y-105260000D01*
X121112000Y-105244000D01*
X121157000Y-105231000D01*
X121203000Y-105220000D01*
X121249000Y-105211000D01*
X121296000Y-105205000D01*
X121343000Y-105201000D01*
X121390000Y-105200000D01*
X123890000Y-105200000D01*
X123890000Y-107000000D01*
G36*
X123890000Y-107000000D02*
G01*
X121390000Y-107000000D01*
X121343000Y-106999000D01*
X121296000Y-106995000D01*
X121249000Y-106989000D01*
X121203000Y-106980000D01*
X121157000Y-106969000D01*
X121112000Y-106956000D01*
X121067000Y-106940000D01*
X121024000Y-106922000D01*
X120981000Y-106902000D01*
X120940000Y-106879000D01*
X120900000Y-106855000D01*
X120861000Y-106828000D01*
X120824000Y-106799000D01*
X120788000Y-106769000D01*
X120754000Y-106736000D01*
X120721000Y-106702000D01*
X120691000Y-106666000D01*
X120662000Y-106629000D01*
X120635000Y-106590000D01*
X120611000Y-106550000D01*
X120588000Y-106509000D01*
X120568000Y-106466000D01*
X120550000Y-106423000D01*
X120534000Y-106378000D01*
X120521000Y-106333000D01*
X120510000Y-106287000D01*
X120501000Y-106241000D01*
X120495000Y-106194000D01*
X120491000Y-106147000D01*
X120490000Y-106100000D01*
X120491000Y-106053000D01*
X120495000Y-106006000D01*
X120501000Y-105959000D01*
X120510000Y-105913000D01*
X120521000Y-105867000D01*
X120534000Y-105822000D01*
X120550000Y-105777000D01*
X120568000Y-105734000D01*
X120588000Y-105691000D01*
X120611000Y-105650000D01*
X120635000Y-105610000D01*
X120662000Y-105571000D01*
X120691000Y-105534000D01*
X120721000Y-105498000D01*
X120754000Y-105464000D01*
X120788000Y-105431000D01*
X120824000Y-105401000D01*
X120861000Y-105372000D01*
X120900000Y-105345000D01*
X120940000Y-105321000D01*
X120981000Y-105298000D01*
X121024000Y-105278000D01*
X121067000Y-105260000D01*
X121112000Y-105244000D01*
X121157000Y-105231000D01*
X121203000Y-105220000D01*
X121249000Y-105211000D01*
X121296000Y-105205000D01*
X121343000Y-105201000D01*
X121390000Y-105200000D01*
X123890000Y-105200000D01*
X123890000Y-107000000D01*
G37*
X123890000Y-109540000D02*
X121390000Y-109540000D01*
X121343000Y-109539000D01*
X121296000Y-109535000D01*
X121249000Y-109529000D01*
X121203000Y-109520000D01*
X121157000Y-109509000D01*
X121112000Y-109496000D01*
X121067000Y-109480000D01*
X121024000Y-109462000D01*
X120981000Y-109442000D01*
X120940000Y-109419000D01*
X120900000Y-109395000D01*
X120861000Y-109368000D01*
X120824000Y-109339000D01*
X120788000Y-109309000D01*
X120754000Y-109276000D01*
X120721000Y-109242000D01*
X120691000Y-109206000D01*
X120662000Y-109169000D01*
X120635000Y-109130000D01*
X120611000Y-109090000D01*
X120588000Y-109049000D01*
X120568000Y-109006000D01*
X120550000Y-108963000D01*
X120534000Y-108918000D01*
X120521000Y-108873000D01*
X120510000Y-108827000D01*
X120501000Y-108781000D01*
X120495000Y-108734000D01*
X120491000Y-108687000D01*
X120490000Y-108640000D01*
X120491000Y-108593000D01*
X120495000Y-108546000D01*
X120501000Y-108499000D01*
X120510000Y-108453000D01*
X120521000Y-108407000D01*
X120534000Y-108362000D01*
X120550000Y-108317000D01*
X120568000Y-108274000D01*
X120588000Y-108231000D01*
X120611000Y-108190000D01*
X120635000Y-108150000D01*
X120662000Y-108111000D01*
X120691000Y-108074000D01*
X120721000Y-108038000D01*
X120754000Y-108004000D01*
X120788000Y-107971000D01*
X120824000Y-107941000D01*
X120861000Y-107912000D01*
X120900000Y-107885000D01*
X120940000Y-107861000D01*
X120981000Y-107838000D01*
X121024000Y-107818000D01*
X121067000Y-107800000D01*
X121112000Y-107784000D01*
X121157000Y-107771000D01*
X121203000Y-107760000D01*
X121249000Y-107751000D01*
X121296000Y-107745000D01*
X121343000Y-107741000D01*
X121390000Y-107740000D01*
X123890000Y-107740000D01*
X123890000Y-109540000D01*
G36*
X123890000Y-109540000D02*
G01*
X121390000Y-109540000D01*
X121343000Y-109539000D01*
X121296000Y-109535000D01*
X121249000Y-109529000D01*
X121203000Y-109520000D01*
X121157000Y-109509000D01*
X121112000Y-109496000D01*
X121067000Y-109480000D01*
X121024000Y-109462000D01*
X120981000Y-109442000D01*
X120940000Y-109419000D01*
X120900000Y-109395000D01*
X120861000Y-109368000D01*
X120824000Y-109339000D01*
X120788000Y-109309000D01*
X120754000Y-109276000D01*
X120721000Y-109242000D01*
X120691000Y-109206000D01*
X120662000Y-109169000D01*
X120635000Y-109130000D01*
X120611000Y-109090000D01*
X120588000Y-109049000D01*
X120568000Y-109006000D01*
X120550000Y-108963000D01*
X120534000Y-108918000D01*
X120521000Y-108873000D01*
X120510000Y-108827000D01*
X120501000Y-108781000D01*
X120495000Y-108734000D01*
X120491000Y-108687000D01*
X120490000Y-108640000D01*
X120491000Y-108593000D01*
X120495000Y-108546000D01*
X120501000Y-108499000D01*
X120510000Y-108453000D01*
X120521000Y-108407000D01*
X120534000Y-108362000D01*
X120550000Y-108317000D01*
X120568000Y-108274000D01*
X120588000Y-108231000D01*
X120611000Y-108190000D01*
X120635000Y-108150000D01*
X120662000Y-108111000D01*
X120691000Y-108074000D01*
X120721000Y-108038000D01*
X120754000Y-108004000D01*
X120788000Y-107971000D01*
X120824000Y-107941000D01*
X120861000Y-107912000D01*
X120900000Y-107885000D01*
X120940000Y-107861000D01*
X120981000Y-107838000D01*
X121024000Y-107818000D01*
X121067000Y-107800000D01*
X121112000Y-107784000D01*
X121157000Y-107771000D01*
X121203000Y-107760000D01*
X121249000Y-107751000D01*
X121296000Y-107745000D01*
X121343000Y-107741000D01*
X121390000Y-107740000D01*
X123890000Y-107740000D01*
X123890000Y-109540000D01*
G37*
X123890000Y-114620000D02*
X121390000Y-114620000D01*
X121343000Y-114619000D01*
X121296000Y-114615000D01*
X121249000Y-114609000D01*
X121203000Y-114600000D01*
X121157000Y-114589000D01*
X121112000Y-114576000D01*
X121067000Y-114560000D01*
X121024000Y-114542000D01*
X120981000Y-114522000D01*
X120940000Y-114499000D01*
X120900000Y-114475000D01*
X120861000Y-114448000D01*
X120824000Y-114419000D01*
X120788000Y-114389000D01*
X120754000Y-114356000D01*
X120721000Y-114322000D01*
X120691000Y-114286000D01*
X120662000Y-114249000D01*
X120635000Y-114210000D01*
X120611000Y-114170000D01*
X120588000Y-114129000D01*
X120568000Y-114086000D01*
X120550000Y-114043000D01*
X120534000Y-113998000D01*
X120521000Y-113953000D01*
X120510000Y-113907000D01*
X120501000Y-113861000D01*
X120495000Y-113814000D01*
X120491000Y-113767000D01*
X120490000Y-113720000D01*
X120491000Y-113673000D01*
X120495000Y-113626000D01*
X120501000Y-113579000D01*
X120510000Y-113533000D01*
X120521000Y-113487000D01*
X120534000Y-113442000D01*
X120550000Y-113397000D01*
X120568000Y-113354000D01*
X120588000Y-113311000D01*
X120611000Y-113270000D01*
X120635000Y-113230000D01*
X120662000Y-113191000D01*
X120691000Y-113154000D01*
X120721000Y-113118000D01*
X120754000Y-113084000D01*
X120788000Y-113051000D01*
X120824000Y-113021000D01*
X120861000Y-112992000D01*
X120900000Y-112965000D01*
X120940000Y-112941000D01*
X120981000Y-112918000D01*
X121024000Y-112898000D01*
X121067000Y-112880000D01*
X121112000Y-112864000D01*
X121157000Y-112851000D01*
X121203000Y-112840000D01*
X121249000Y-112831000D01*
X121296000Y-112825000D01*
X121343000Y-112821000D01*
X121390000Y-112820000D01*
X123890000Y-112820000D01*
X123890000Y-114620000D01*
G36*
X123890000Y-114620000D02*
G01*
X121390000Y-114620000D01*
X121343000Y-114619000D01*
X121296000Y-114615000D01*
X121249000Y-114609000D01*
X121203000Y-114600000D01*
X121157000Y-114589000D01*
X121112000Y-114576000D01*
X121067000Y-114560000D01*
X121024000Y-114542000D01*
X120981000Y-114522000D01*
X120940000Y-114499000D01*
X120900000Y-114475000D01*
X120861000Y-114448000D01*
X120824000Y-114419000D01*
X120788000Y-114389000D01*
X120754000Y-114356000D01*
X120721000Y-114322000D01*
X120691000Y-114286000D01*
X120662000Y-114249000D01*
X120635000Y-114210000D01*
X120611000Y-114170000D01*
X120588000Y-114129000D01*
X120568000Y-114086000D01*
X120550000Y-114043000D01*
X120534000Y-113998000D01*
X120521000Y-113953000D01*
X120510000Y-113907000D01*
X120501000Y-113861000D01*
X120495000Y-113814000D01*
X120491000Y-113767000D01*
X120490000Y-113720000D01*
X120491000Y-113673000D01*
X120495000Y-113626000D01*
X120501000Y-113579000D01*
X120510000Y-113533000D01*
X120521000Y-113487000D01*
X120534000Y-113442000D01*
X120550000Y-113397000D01*
X120568000Y-113354000D01*
X120588000Y-113311000D01*
X120611000Y-113270000D01*
X120635000Y-113230000D01*
X120662000Y-113191000D01*
X120691000Y-113154000D01*
X120721000Y-113118000D01*
X120754000Y-113084000D01*
X120788000Y-113051000D01*
X120824000Y-113021000D01*
X120861000Y-112992000D01*
X120900000Y-112965000D01*
X120940000Y-112941000D01*
X120981000Y-112918000D01*
X121024000Y-112898000D01*
X121067000Y-112880000D01*
X121112000Y-112864000D01*
X121157000Y-112851000D01*
X121203000Y-112840000D01*
X121249000Y-112831000D01*
X121296000Y-112825000D01*
X121343000Y-112821000D01*
X121390000Y-112820000D01*
X123890000Y-112820000D01*
X123890000Y-114620000D01*
G37*
X123890000Y-117160000D02*
X121390000Y-117160000D01*
X121343000Y-117159000D01*
X121296000Y-117155000D01*
X121249000Y-117149000D01*
X121203000Y-117140000D01*
X121157000Y-117129000D01*
X121112000Y-117116000D01*
X121067000Y-117100000D01*
X121024000Y-117082000D01*
X120981000Y-117062000D01*
X120940000Y-117039000D01*
X120900000Y-117015000D01*
X120861000Y-116988000D01*
X120824000Y-116959000D01*
X120788000Y-116929000D01*
X120754000Y-116896000D01*
X120721000Y-116862000D01*
X120691000Y-116826000D01*
X120662000Y-116789000D01*
X120635000Y-116750000D01*
X120611000Y-116710000D01*
X120588000Y-116669000D01*
X120568000Y-116626000D01*
X120550000Y-116583000D01*
X120534000Y-116538000D01*
X120521000Y-116493000D01*
X120510000Y-116447000D01*
X120501000Y-116401000D01*
X120495000Y-116354000D01*
X120491000Y-116307000D01*
X120490000Y-116260000D01*
X120491000Y-116213000D01*
X120495000Y-116166000D01*
X120501000Y-116119000D01*
X120510000Y-116073000D01*
X120521000Y-116027000D01*
X120534000Y-115982000D01*
X120550000Y-115937000D01*
X120568000Y-115894000D01*
X120588000Y-115851000D01*
X120611000Y-115810000D01*
X120635000Y-115770000D01*
X120662000Y-115731000D01*
X120691000Y-115694000D01*
X120721000Y-115658000D01*
X120754000Y-115624000D01*
X120788000Y-115591000D01*
X120824000Y-115561000D01*
X120861000Y-115532000D01*
X120900000Y-115505000D01*
X120940000Y-115481000D01*
X120981000Y-115458000D01*
X121024000Y-115438000D01*
X121067000Y-115420000D01*
X121112000Y-115404000D01*
X121157000Y-115391000D01*
X121203000Y-115380000D01*
X121249000Y-115371000D01*
X121296000Y-115365000D01*
X121343000Y-115361000D01*
X121390000Y-115360000D01*
X123890000Y-115360000D01*
X123890000Y-117160000D01*
G36*
X123890000Y-117160000D02*
G01*
X121390000Y-117160000D01*
X121343000Y-117159000D01*
X121296000Y-117155000D01*
X121249000Y-117149000D01*
X121203000Y-117140000D01*
X121157000Y-117129000D01*
X121112000Y-117116000D01*
X121067000Y-117100000D01*
X121024000Y-117082000D01*
X120981000Y-117062000D01*
X120940000Y-117039000D01*
X120900000Y-117015000D01*
X120861000Y-116988000D01*
X120824000Y-116959000D01*
X120788000Y-116929000D01*
X120754000Y-116896000D01*
X120721000Y-116862000D01*
X120691000Y-116826000D01*
X120662000Y-116789000D01*
X120635000Y-116750000D01*
X120611000Y-116710000D01*
X120588000Y-116669000D01*
X120568000Y-116626000D01*
X120550000Y-116583000D01*
X120534000Y-116538000D01*
X120521000Y-116493000D01*
X120510000Y-116447000D01*
X120501000Y-116401000D01*
X120495000Y-116354000D01*
X120491000Y-116307000D01*
X120490000Y-116260000D01*
X120491000Y-116213000D01*
X120495000Y-116166000D01*
X120501000Y-116119000D01*
X120510000Y-116073000D01*
X120521000Y-116027000D01*
X120534000Y-115982000D01*
X120550000Y-115937000D01*
X120568000Y-115894000D01*
X120588000Y-115851000D01*
X120611000Y-115810000D01*
X120635000Y-115770000D01*
X120662000Y-115731000D01*
X120691000Y-115694000D01*
X120721000Y-115658000D01*
X120754000Y-115624000D01*
X120788000Y-115591000D01*
X120824000Y-115561000D01*
X120861000Y-115532000D01*
X120900000Y-115505000D01*
X120940000Y-115481000D01*
X120981000Y-115458000D01*
X121024000Y-115438000D01*
X121067000Y-115420000D01*
X121112000Y-115404000D01*
X121157000Y-115391000D01*
X121203000Y-115380000D01*
X121249000Y-115371000D01*
X121296000Y-115365000D01*
X121343000Y-115361000D01*
X121390000Y-115360000D01*
X123890000Y-115360000D01*
X123890000Y-117160000D01*
G37*
X104241000Y-72182000D02*
X104257000Y-72184000D01*
X104272000Y-72187000D01*
X104288000Y-72190000D01*
X104303000Y-72195000D01*
X104318000Y-72200000D01*
X104332000Y-72206000D01*
X104346000Y-72213000D01*
X104360000Y-72220000D01*
X104373000Y-72228000D01*
X104386000Y-72237000D01*
X104399000Y-72247000D01*
X104411000Y-72257000D01*
X104422000Y-72268000D01*
X104433000Y-72279000D01*
X104443000Y-72291000D01*
X104453000Y-72304000D01*
X104462000Y-72317000D01*
X104470000Y-72330000D01*
X104477000Y-72344000D01*
X104484000Y-72358000D01*
X104490000Y-72372000D01*
X104495000Y-72387000D01*
X104500000Y-72402000D01*
X104503000Y-72418000D01*
X104506000Y-72433000D01*
X104508000Y-72449000D01*
X104510000Y-72464000D01*
X104510000Y-72480000D01*
X104510000Y-73680000D01*
X104510000Y-73696000D01*
X104508000Y-73711000D01*
X104506000Y-73727000D01*
X104503000Y-73742000D01*
X104500000Y-73758000D01*
X104495000Y-73773000D01*
X104490000Y-73788000D01*
X104484000Y-73802000D01*
X104477000Y-73816000D01*
X104470000Y-73830000D01*
X104462000Y-73843000D01*
X104453000Y-73856000D01*
X104443000Y-73869000D01*
X104433000Y-73881000D01*
X104422000Y-73892000D01*
X104411000Y-73903000D01*
X104399000Y-73913000D01*
X104386000Y-73923000D01*
X104373000Y-73932000D01*
X104360000Y-73940000D01*
X104346000Y-73947000D01*
X104332000Y-73954000D01*
X104318000Y-73960000D01*
X104303000Y-73965000D01*
X104288000Y-73970000D01*
X104272000Y-73973000D01*
X104257000Y-73976000D01*
X104241000Y-73978000D01*
X104226000Y-73980000D01*
X104210000Y-73980000D01*
X101110000Y-73980000D01*
X101110000Y-72180000D01*
X104210000Y-72180000D01*
X104226000Y-72180000D01*
X104241000Y-72182000D01*
G36*
X104241000Y-72182000D02*
G01*
X104257000Y-72184000D01*
X104272000Y-72187000D01*
X104288000Y-72190000D01*
X104303000Y-72195000D01*
X104318000Y-72200000D01*
X104332000Y-72206000D01*
X104346000Y-72213000D01*
X104360000Y-72220000D01*
X104373000Y-72228000D01*
X104386000Y-72237000D01*
X104399000Y-72247000D01*
X104411000Y-72257000D01*
X104422000Y-72268000D01*
X104433000Y-72279000D01*
X104443000Y-72291000D01*
X104453000Y-72304000D01*
X104462000Y-72317000D01*
X104470000Y-72330000D01*
X104477000Y-72344000D01*
X104484000Y-72358000D01*
X104490000Y-72372000D01*
X104495000Y-72387000D01*
X104500000Y-72402000D01*
X104503000Y-72418000D01*
X104506000Y-72433000D01*
X104508000Y-72449000D01*
X104510000Y-72464000D01*
X104510000Y-72480000D01*
X104510000Y-73680000D01*
X104510000Y-73696000D01*
X104508000Y-73711000D01*
X104506000Y-73727000D01*
X104503000Y-73742000D01*
X104500000Y-73758000D01*
X104495000Y-73773000D01*
X104490000Y-73788000D01*
X104484000Y-73802000D01*
X104477000Y-73816000D01*
X104470000Y-73830000D01*
X104462000Y-73843000D01*
X104453000Y-73856000D01*
X104443000Y-73869000D01*
X104433000Y-73881000D01*
X104422000Y-73892000D01*
X104411000Y-73903000D01*
X104399000Y-73913000D01*
X104386000Y-73923000D01*
X104373000Y-73932000D01*
X104360000Y-73940000D01*
X104346000Y-73947000D01*
X104332000Y-73954000D01*
X104318000Y-73960000D01*
X104303000Y-73965000D01*
X104288000Y-73970000D01*
X104272000Y-73973000D01*
X104257000Y-73976000D01*
X104241000Y-73978000D01*
X104226000Y-73980000D01*
X104210000Y-73980000D01*
X101110000Y-73980000D01*
X101110000Y-72180000D01*
X104210000Y-72180000D01*
X104226000Y-72180000D01*
X104241000Y-72182000D01*
G37*
X104241000Y-84882000D02*
X104257000Y-84884000D01*
X104272000Y-84887000D01*
X104288000Y-84890000D01*
X104303000Y-84895000D01*
X104318000Y-84900000D01*
X104332000Y-84906000D01*
X104346000Y-84913000D01*
X104360000Y-84920000D01*
X104373000Y-84928000D01*
X104386000Y-84937000D01*
X104399000Y-84947000D01*
X104411000Y-84957000D01*
X104422000Y-84968000D01*
X104433000Y-84979000D01*
X104443000Y-84991000D01*
X104453000Y-85004000D01*
X104462000Y-85017000D01*
X104470000Y-85030000D01*
X104477000Y-85044000D01*
X104484000Y-85058000D01*
X104490000Y-85072000D01*
X104495000Y-85087000D01*
X104500000Y-85102000D01*
X104503000Y-85118000D01*
X104506000Y-85133000D01*
X104508000Y-85149000D01*
X104510000Y-85164000D01*
X104510000Y-85180000D01*
X104510000Y-86380000D01*
X104510000Y-86396000D01*
X104508000Y-86411000D01*
X104506000Y-86427000D01*
X104503000Y-86442000D01*
X104500000Y-86458000D01*
X104495000Y-86473000D01*
X104490000Y-86488000D01*
X104484000Y-86502000D01*
X104477000Y-86516000D01*
X104470000Y-86530000D01*
X104462000Y-86543000D01*
X104453000Y-86556000D01*
X104443000Y-86569000D01*
X104433000Y-86581000D01*
X104422000Y-86592000D01*
X104411000Y-86603000D01*
X104399000Y-86613000D01*
X104386000Y-86623000D01*
X104373000Y-86632000D01*
X104360000Y-86640000D01*
X104346000Y-86647000D01*
X104332000Y-86654000D01*
X104318000Y-86660000D01*
X104303000Y-86665000D01*
X104288000Y-86670000D01*
X104272000Y-86673000D01*
X104257000Y-86676000D01*
X104241000Y-86678000D01*
X104226000Y-86680000D01*
X104210000Y-86680000D01*
X101110000Y-86680000D01*
X101110000Y-84880000D01*
X104210000Y-84880000D01*
X104226000Y-84880000D01*
X104241000Y-84882000D01*
G36*
X104241000Y-84882000D02*
G01*
X104257000Y-84884000D01*
X104272000Y-84887000D01*
X104288000Y-84890000D01*
X104303000Y-84895000D01*
X104318000Y-84900000D01*
X104332000Y-84906000D01*
X104346000Y-84913000D01*
X104360000Y-84920000D01*
X104373000Y-84928000D01*
X104386000Y-84937000D01*
X104399000Y-84947000D01*
X104411000Y-84957000D01*
X104422000Y-84968000D01*
X104433000Y-84979000D01*
X104443000Y-84991000D01*
X104453000Y-85004000D01*
X104462000Y-85017000D01*
X104470000Y-85030000D01*
X104477000Y-85044000D01*
X104484000Y-85058000D01*
X104490000Y-85072000D01*
X104495000Y-85087000D01*
X104500000Y-85102000D01*
X104503000Y-85118000D01*
X104506000Y-85133000D01*
X104508000Y-85149000D01*
X104510000Y-85164000D01*
X104510000Y-85180000D01*
X104510000Y-86380000D01*
X104510000Y-86396000D01*
X104508000Y-86411000D01*
X104506000Y-86427000D01*
X104503000Y-86442000D01*
X104500000Y-86458000D01*
X104495000Y-86473000D01*
X104490000Y-86488000D01*
X104484000Y-86502000D01*
X104477000Y-86516000D01*
X104470000Y-86530000D01*
X104462000Y-86543000D01*
X104453000Y-86556000D01*
X104443000Y-86569000D01*
X104433000Y-86581000D01*
X104422000Y-86592000D01*
X104411000Y-86603000D01*
X104399000Y-86613000D01*
X104386000Y-86623000D01*
X104373000Y-86632000D01*
X104360000Y-86640000D01*
X104346000Y-86647000D01*
X104332000Y-86654000D01*
X104318000Y-86660000D01*
X104303000Y-86665000D01*
X104288000Y-86670000D01*
X104272000Y-86673000D01*
X104257000Y-86676000D01*
X104241000Y-86678000D01*
X104226000Y-86680000D01*
X104210000Y-86680000D01*
X101110000Y-86680000D01*
X101110000Y-84880000D01*
X104210000Y-84880000D01*
X104226000Y-84880000D01*
X104241000Y-84882000D01*
G37*
X104241000Y-97582000D02*
X104257000Y-97584000D01*
X104272000Y-97587000D01*
X104288000Y-97590000D01*
X104303000Y-97595000D01*
X104318000Y-97600000D01*
X104332000Y-97606000D01*
X104346000Y-97613000D01*
X104360000Y-97620000D01*
X104373000Y-97628000D01*
X104386000Y-97637000D01*
X104399000Y-97647000D01*
X104411000Y-97657000D01*
X104422000Y-97668000D01*
X104433000Y-97679000D01*
X104443000Y-97691000D01*
X104453000Y-97704000D01*
X104462000Y-97717000D01*
X104470000Y-97730000D01*
X104477000Y-97744000D01*
X104484000Y-97758000D01*
X104490000Y-97772000D01*
X104495000Y-97787000D01*
X104500000Y-97802000D01*
X104503000Y-97818000D01*
X104506000Y-97833000D01*
X104508000Y-97849000D01*
X104510000Y-97864000D01*
X104510000Y-97880000D01*
X104510000Y-99080000D01*
X104510000Y-99096000D01*
X104508000Y-99111000D01*
X104506000Y-99127000D01*
X104503000Y-99142000D01*
X104500000Y-99158000D01*
X104495000Y-99173000D01*
X104490000Y-99188000D01*
X104484000Y-99202000D01*
X104477000Y-99216000D01*
X104470000Y-99230000D01*
X104462000Y-99243000D01*
X104453000Y-99256000D01*
X104443000Y-99269000D01*
X104433000Y-99281000D01*
X104422000Y-99292000D01*
X104411000Y-99303000D01*
X104399000Y-99313000D01*
X104386000Y-99323000D01*
X104373000Y-99332000D01*
X104360000Y-99340000D01*
X104346000Y-99347000D01*
X104332000Y-99354000D01*
X104318000Y-99360000D01*
X104303000Y-99365000D01*
X104288000Y-99370000D01*
X104272000Y-99373000D01*
X104257000Y-99376000D01*
X104241000Y-99378000D01*
X104226000Y-99380000D01*
X104210000Y-99380000D01*
X101110000Y-99380000D01*
X101110000Y-97580000D01*
X104210000Y-97580000D01*
X104226000Y-97580000D01*
X104241000Y-97582000D01*
G36*
X104241000Y-97582000D02*
G01*
X104257000Y-97584000D01*
X104272000Y-97587000D01*
X104288000Y-97590000D01*
X104303000Y-97595000D01*
X104318000Y-97600000D01*
X104332000Y-97606000D01*
X104346000Y-97613000D01*
X104360000Y-97620000D01*
X104373000Y-97628000D01*
X104386000Y-97637000D01*
X104399000Y-97647000D01*
X104411000Y-97657000D01*
X104422000Y-97668000D01*
X104433000Y-97679000D01*
X104443000Y-97691000D01*
X104453000Y-97704000D01*
X104462000Y-97717000D01*
X104470000Y-97730000D01*
X104477000Y-97744000D01*
X104484000Y-97758000D01*
X104490000Y-97772000D01*
X104495000Y-97787000D01*
X104500000Y-97802000D01*
X104503000Y-97818000D01*
X104506000Y-97833000D01*
X104508000Y-97849000D01*
X104510000Y-97864000D01*
X104510000Y-97880000D01*
X104510000Y-99080000D01*
X104510000Y-99096000D01*
X104508000Y-99111000D01*
X104506000Y-99127000D01*
X104503000Y-99142000D01*
X104500000Y-99158000D01*
X104495000Y-99173000D01*
X104490000Y-99188000D01*
X104484000Y-99202000D01*
X104477000Y-99216000D01*
X104470000Y-99230000D01*
X104462000Y-99243000D01*
X104453000Y-99256000D01*
X104443000Y-99269000D01*
X104433000Y-99281000D01*
X104422000Y-99292000D01*
X104411000Y-99303000D01*
X104399000Y-99313000D01*
X104386000Y-99323000D01*
X104373000Y-99332000D01*
X104360000Y-99340000D01*
X104346000Y-99347000D01*
X104332000Y-99354000D01*
X104318000Y-99360000D01*
X104303000Y-99365000D01*
X104288000Y-99370000D01*
X104272000Y-99373000D01*
X104257000Y-99376000D01*
X104241000Y-99378000D01*
X104226000Y-99380000D01*
X104210000Y-99380000D01*
X101110000Y-99380000D01*
X101110000Y-97580000D01*
X104210000Y-97580000D01*
X104226000Y-97580000D01*
X104241000Y-97582000D01*
G37*
X104241000Y-110282000D02*
X104257000Y-110284000D01*
X104272000Y-110287000D01*
X104288000Y-110290000D01*
X104303000Y-110295000D01*
X104318000Y-110300000D01*
X104332000Y-110306000D01*
X104346000Y-110313000D01*
X104360000Y-110320000D01*
X104373000Y-110328000D01*
X104386000Y-110337000D01*
X104399000Y-110347000D01*
X104411000Y-110357000D01*
X104422000Y-110368000D01*
X104433000Y-110379000D01*
X104443000Y-110391000D01*
X104453000Y-110404000D01*
X104462000Y-110417000D01*
X104470000Y-110430000D01*
X104477000Y-110444000D01*
X104484000Y-110458000D01*
X104490000Y-110472000D01*
X104495000Y-110487000D01*
X104500000Y-110502000D01*
X104503000Y-110518000D01*
X104506000Y-110533000D01*
X104508000Y-110549000D01*
X104510000Y-110564000D01*
X104510000Y-110580000D01*
X104510000Y-111780000D01*
X104510000Y-111796000D01*
X104508000Y-111811000D01*
X104506000Y-111827000D01*
X104503000Y-111842000D01*
X104500000Y-111858000D01*
X104495000Y-111873000D01*
X104490000Y-111888000D01*
X104484000Y-111902000D01*
X104477000Y-111916000D01*
X104470000Y-111930000D01*
X104462000Y-111943000D01*
X104453000Y-111956000D01*
X104443000Y-111969000D01*
X104433000Y-111981000D01*
X104422000Y-111992000D01*
X104411000Y-112003000D01*
X104399000Y-112013000D01*
X104386000Y-112023000D01*
X104373000Y-112032000D01*
X104360000Y-112040000D01*
X104346000Y-112047000D01*
X104332000Y-112054000D01*
X104318000Y-112060000D01*
X104303000Y-112065000D01*
X104288000Y-112070000D01*
X104272000Y-112073000D01*
X104257000Y-112076000D01*
X104241000Y-112078000D01*
X104226000Y-112080000D01*
X104210000Y-112080000D01*
X101110000Y-112080000D01*
X101110000Y-110280000D01*
X104210000Y-110280000D01*
X104226000Y-110280000D01*
X104241000Y-110282000D01*
G36*
X104241000Y-110282000D02*
G01*
X104257000Y-110284000D01*
X104272000Y-110287000D01*
X104288000Y-110290000D01*
X104303000Y-110295000D01*
X104318000Y-110300000D01*
X104332000Y-110306000D01*
X104346000Y-110313000D01*
X104360000Y-110320000D01*
X104373000Y-110328000D01*
X104386000Y-110337000D01*
X104399000Y-110347000D01*
X104411000Y-110357000D01*
X104422000Y-110368000D01*
X104433000Y-110379000D01*
X104443000Y-110391000D01*
X104453000Y-110404000D01*
X104462000Y-110417000D01*
X104470000Y-110430000D01*
X104477000Y-110444000D01*
X104484000Y-110458000D01*
X104490000Y-110472000D01*
X104495000Y-110487000D01*
X104500000Y-110502000D01*
X104503000Y-110518000D01*
X104506000Y-110533000D01*
X104508000Y-110549000D01*
X104510000Y-110564000D01*
X104510000Y-110580000D01*
X104510000Y-111780000D01*
X104510000Y-111796000D01*
X104508000Y-111811000D01*
X104506000Y-111827000D01*
X104503000Y-111842000D01*
X104500000Y-111858000D01*
X104495000Y-111873000D01*
X104490000Y-111888000D01*
X104484000Y-111902000D01*
X104477000Y-111916000D01*
X104470000Y-111930000D01*
X104462000Y-111943000D01*
X104453000Y-111956000D01*
X104443000Y-111969000D01*
X104433000Y-111981000D01*
X104422000Y-111992000D01*
X104411000Y-112003000D01*
X104399000Y-112013000D01*
X104386000Y-112023000D01*
X104373000Y-112032000D01*
X104360000Y-112040000D01*
X104346000Y-112047000D01*
X104332000Y-112054000D01*
X104318000Y-112060000D01*
X104303000Y-112065000D01*
X104288000Y-112070000D01*
X104272000Y-112073000D01*
X104257000Y-112076000D01*
X104241000Y-112078000D01*
X104226000Y-112080000D01*
X104210000Y-112080000D01*
X101110000Y-112080000D01*
X101110000Y-110280000D01*
X104210000Y-110280000D01*
X104226000Y-110280000D01*
X104241000Y-110282000D01*
G37*
X123890000Y-73980000D02*
X120790000Y-73980000D01*
X120774000Y-73980000D01*
X120759000Y-73978000D01*
X120743000Y-73976000D01*
X120728000Y-73973000D01*
X120712000Y-73970000D01*
X120697000Y-73965000D01*
X120682000Y-73960000D01*
X120668000Y-73954000D01*
X120654000Y-73947000D01*
X120640000Y-73940000D01*
X120627000Y-73932000D01*
X120614000Y-73923000D01*
X120601000Y-73913000D01*
X120589000Y-73903000D01*
X120578000Y-73892000D01*
X120567000Y-73881000D01*
X120557000Y-73869000D01*
X120547000Y-73856000D01*
X120538000Y-73843000D01*
X120530000Y-73830000D01*
X120523000Y-73816000D01*
X120516000Y-73802000D01*
X120510000Y-73788000D01*
X120505000Y-73773000D01*
X120500000Y-73758000D01*
X120497000Y-73742000D01*
X120494000Y-73727000D01*
X120492000Y-73711000D01*
X120490000Y-73696000D01*
X120490000Y-73680000D01*
X120490000Y-72480000D01*
X120490000Y-72464000D01*
X120492000Y-72449000D01*
X120494000Y-72433000D01*
X120497000Y-72418000D01*
X120500000Y-72402000D01*
X120505000Y-72387000D01*
X120510000Y-72372000D01*
X120516000Y-72358000D01*
X120523000Y-72344000D01*
X120530000Y-72330000D01*
X120538000Y-72317000D01*
X120547000Y-72304000D01*
X120557000Y-72291000D01*
X120567000Y-72279000D01*
X120578000Y-72268000D01*
X120589000Y-72257000D01*
X120601000Y-72247000D01*
X120614000Y-72237000D01*
X120627000Y-72228000D01*
X120640000Y-72220000D01*
X120654000Y-72213000D01*
X120668000Y-72206000D01*
X120682000Y-72200000D01*
X120697000Y-72195000D01*
X120712000Y-72190000D01*
X120728000Y-72187000D01*
X120743000Y-72184000D01*
X120759000Y-72182000D01*
X120774000Y-72180000D01*
X120790000Y-72180000D01*
X123890000Y-72180000D01*
X123890000Y-73980000D01*
G36*
X123890000Y-73980000D02*
G01*
X120790000Y-73980000D01*
X120774000Y-73980000D01*
X120759000Y-73978000D01*
X120743000Y-73976000D01*
X120728000Y-73973000D01*
X120712000Y-73970000D01*
X120697000Y-73965000D01*
X120682000Y-73960000D01*
X120668000Y-73954000D01*
X120654000Y-73947000D01*
X120640000Y-73940000D01*
X120627000Y-73932000D01*
X120614000Y-73923000D01*
X120601000Y-73913000D01*
X120589000Y-73903000D01*
X120578000Y-73892000D01*
X120567000Y-73881000D01*
X120557000Y-73869000D01*
X120547000Y-73856000D01*
X120538000Y-73843000D01*
X120530000Y-73830000D01*
X120523000Y-73816000D01*
X120516000Y-73802000D01*
X120510000Y-73788000D01*
X120505000Y-73773000D01*
X120500000Y-73758000D01*
X120497000Y-73742000D01*
X120494000Y-73727000D01*
X120492000Y-73711000D01*
X120490000Y-73696000D01*
X120490000Y-73680000D01*
X120490000Y-72480000D01*
X120490000Y-72464000D01*
X120492000Y-72449000D01*
X120494000Y-72433000D01*
X120497000Y-72418000D01*
X120500000Y-72402000D01*
X120505000Y-72387000D01*
X120510000Y-72372000D01*
X120516000Y-72358000D01*
X120523000Y-72344000D01*
X120530000Y-72330000D01*
X120538000Y-72317000D01*
X120547000Y-72304000D01*
X120557000Y-72291000D01*
X120567000Y-72279000D01*
X120578000Y-72268000D01*
X120589000Y-72257000D01*
X120601000Y-72247000D01*
X120614000Y-72237000D01*
X120627000Y-72228000D01*
X120640000Y-72220000D01*
X120654000Y-72213000D01*
X120668000Y-72206000D01*
X120682000Y-72200000D01*
X120697000Y-72195000D01*
X120712000Y-72190000D01*
X120728000Y-72187000D01*
X120743000Y-72184000D01*
X120759000Y-72182000D01*
X120774000Y-72180000D01*
X120790000Y-72180000D01*
X123890000Y-72180000D01*
X123890000Y-73980000D01*
G37*
X123890000Y-86680000D02*
X120790000Y-86680000D01*
X120774000Y-86680000D01*
X120759000Y-86678000D01*
X120743000Y-86676000D01*
X120728000Y-86673000D01*
X120712000Y-86670000D01*
X120697000Y-86665000D01*
X120682000Y-86660000D01*
X120668000Y-86654000D01*
X120654000Y-86647000D01*
X120640000Y-86640000D01*
X120627000Y-86632000D01*
X120614000Y-86623000D01*
X120601000Y-86613000D01*
X120589000Y-86603000D01*
X120578000Y-86592000D01*
X120567000Y-86581000D01*
X120557000Y-86569000D01*
X120547000Y-86556000D01*
X120538000Y-86543000D01*
X120530000Y-86530000D01*
X120523000Y-86516000D01*
X120516000Y-86502000D01*
X120510000Y-86488000D01*
X120505000Y-86473000D01*
X120500000Y-86458000D01*
X120497000Y-86442000D01*
X120494000Y-86427000D01*
X120492000Y-86411000D01*
X120490000Y-86396000D01*
X120490000Y-86380000D01*
X120490000Y-85180000D01*
X120490000Y-85164000D01*
X120492000Y-85149000D01*
X120494000Y-85133000D01*
X120497000Y-85118000D01*
X120500000Y-85102000D01*
X120505000Y-85087000D01*
X120510000Y-85072000D01*
X120516000Y-85058000D01*
X120523000Y-85044000D01*
X120530000Y-85030000D01*
X120538000Y-85017000D01*
X120547000Y-85004000D01*
X120557000Y-84991000D01*
X120567000Y-84979000D01*
X120578000Y-84968000D01*
X120589000Y-84957000D01*
X120601000Y-84947000D01*
X120614000Y-84937000D01*
X120627000Y-84928000D01*
X120640000Y-84920000D01*
X120654000Y-84913000D01*
X120668000Y-84906000D01*
X120682000Y-84900000D01*
X120697000Y-84895000D01*
X120712000Y-84890000D01*
X120728000Y-84887000D01*
X120743000Y-84884000D01*
X120759000Y-84882000D01*
X120774000Y-84880000D01*
X120790000Y-84880000D01*
X123890000Y-84880000D01*
X123890000Y-86680000D01*
G36*
X123890000Y-86680000D02*
G01*
X120790000Y-86680000D01*
X120774000Y-86680000D01*
X120759000Y-86678000D01*
X120743000Y-86676000D01*
X120728000Y-86673000D01*
X120712000Y-86670000D01*
X120697000Y-86665000D01*
X120682000Y-86660000D01*
X120668000Y-86654000D01*
X120654000Y-86647000D01*
X120640000Y-86640000D01*
X120627000Y-86632000D01*
X120614000Y-86623000D01*
X120601000Y-86613000D01*
X120589000Y-86603000D01*
X120578000Y-86592000D01*
X120567000Y-86581000D01*
X120557000Y-86569000D01*
X120547000Y-86556000D01*
X120538000Y-86543000D01*
X120530000Y-86530000D01*
X120523000Y-86516000D01*
X120516000Y-86502000D01*
X120510000Y-86488000D01*
X120505000Y-86473000D01*
X120500000Y-86458000D01*
X120497000Y-86442000D01*
X120494000Y-86427000D01*
X120492000Y-86411000D01*
X120490000Y-86396000D01*
X120490000Y-86380000D01*
X120490000Y-85180000D01*
X120490000Y-85164000D01*
X120492000Y-85149000D01*
X120494000Y-85133000D01*
X120497000Y-85118000D01*
X120500000Y-85102000D01*
X120505000Y-85087000D01*
X120510000Y-85072000D01*
X120516000Y-85058000D01*
X120523000Y-85044000D01*
X120530000Y-85030000D01*
X120538000Y-85017000D01*
X120547000Y-85004000D01*
X120557000Y-84991000D01*
X120567000Y-84979000D01*
X120578000Y-84968000D01*
X120589000Y-84957000D01*
X120601000Y-84947000D01*
X120614000Y-84937000D01*
X120627000Y-84928000D01*
X120640000Y-84920000D01*
X120654000Y-84913000D01*
X120668000Y-84906000D01*
X120682000Y-84900000D01*
X120697000Y-84895000D01*
X120712000Y-84890000D01*
X120728000Y-84887000D01*
X120743000Y-84884000D01*
X120759000Y-84882000D01*
X120774000Y-84880000D01*
X120790000Y-84880000D01*
X123890000Y-84880000D01*
X123890000Y-86680000D01*
G37*
X123890000Y-99380000D02*
X120790000Y-99380000D01*
X120774000Y-99380000D01*
X120759000Y-99378000D01*
X120743000Y-99376000D01*
X120728000Y-99373000D01*
X120712000Y-99370000D01*
X120697000Y-99365000D01*
X120682000Y-99360000D01*
X120668000Y-99354000D01*
X120654000Y-99347000D01*
X120640000Y-99340000D01*
X120627000Y-99332000D01*
X120614000Y-99323000D01*
X120601000Y-99313000D01*
X120589000Y-99303000D01*
X120578000Y-99292000D01*
X120567000Y-99281000D01*
X120557000Y-99269000D01*
X120547000Y-99256000D01*
X120538000Y-99243000D01*
X120530000Y-99230000D01*
X120523000Y-99216000D01*
X120516000Y-99202000D01*
X120510000Y-99188000D01*
X120505000Y-99173000D01*
X120500000Y-99158000D01*
X120497000Y-99142000D01*
X120494000Y-99127000D01*
X120492000Y-99111000D01*
X120490000Y-99096000D01*
X120490000Y-99080000D01*
X120490000Y-97880000D01*
X120490000Y-97864000D01*
X120492000Y-97849000D01*
X120494000Y-97833000D01*
X120497000Y-97818000D01*
X120500000Y-97802000D01*
X120505000Y-97787000D01*
X120510000Y-97772000D01*
X120516000Y-97758000D01*
X120523000Y-97744000D01*
X120530000Y-97730000D01*
X120538000Y-97717000D01*
X120547000Y-97704000D01*
X120557000Y-97691000D01*
X120567000Y-97679000D01*
X120578000Y-97668000D01*
X120589000Y-97657000D01*
X120601000Y-97647000D01*
X120614000Y-97637000D01*
X120627000Y-97628000D01*
X120640000Y-97620000D01*
X120654000Y-97613000D01*
X120668000Y-97606000D01*
X120682000Y-97600000D01*
X120697000Y-97595000D01*
X120712000Y-97590000D01*
X120728000Y-97587000D01*
X120743000Y-97584000D01*
X120759000Y-97582000D01*
X120774000Y-97580000D01*
X120790000Y-97580000D01*
X123890000Y-97580000D01*
X123890000Y-99380000D01*
G36*
X123890000Y-99380000D02*
G01*
X120790000Y-99380000D01*
X120774000Y-99380000D01*
X120759000Y-99378000D01*
X120743000Y-99376000D01*
X120728000Y-99373000D01*
X120712000Y-99370000D01*
X120697000Y-99365000D01*
X120682000Y-99360000D01*
X120668000Y-99354000D01*
X120654000Y-99347000D01*
X120640000Y-99340000D01*
X120627000Y-99332000D01*
X120614000Y-99323000D01*
X120601000Y-99313000D01*
X120589000Y-99303000D01*
X120578000Y-99292000D01*
X120567000Y-99281000D01*
X120557000Y-99269000D01*
X120547000Y-99256000D01*
X120538000Y-99243000D01*
X120530000Y-99230000D01*
X120523000Y-99216000D01*
X120516000Y-99202000D01*
X120510000Y-99188000D01*
X120505000Y-99173000D01*
X120500000Y-99158000D01*
X120497000Y-99142000D01*
X120494000Y-99127000D01*
X120492000Y-99111000D01*
X120490000Y-99096000D01*
X120490000Y-99080000D01*
X120490000Y-97880000D01*
X120490000Y-97864000D01*
X120492000Y-97849000D01*
X120494000Y-97833000D01*
X120497000Y-97818000D01*
X120500000Y-97802000D01*
X120505000Y-97787000D01*
X120510000Y-97772000D01*
X120516000Y-97758000D01*
X120523000Y-97744000D01*
X120530000Y-97730000D01*
X120538000Y-97717000D01*
X120547000Y-97704000D01*
X120557000Y-97691000D01*
X120567000Y-97679000D01*
X120578000Y-97668000D01*
X120589000Y-97657000D01*
X120601000Y-97647000D01*
X120614000Y-97637000D01*
X120627000Y-97628000D01*
X120640000Y-97620000D01*
X120654000Y-97613000D01*
X120668000Y-97606000D01*
X120682000Y-97600000D01*
X120697000Y-97595000D01*
X120712000Y-97590000D01*
X120728000Y-97587000D01*
X120743000Y-97584000D01*
X120759000Y-97582000D01*
X120774000Y-97580000D01*
X120790000Y-97580000D01*
X123890000Y-97580000D01*
X123890000Y-99380000D01*
G37*
X123890000Y-112080000D02*
X120790000Y-112080000D01*
X120774000Y-112080000D01*
X120759000Y-112078000D01*
X120743000Y-112076000D01*
X120728000Y-112073000D01*
X120712000Y-112070000D01*
X120697000Y-112065000D01*
X120682000Y-112060000D01*
X120668000Y-112054000D01*
X120654000Y-112047000D01*
X120640000Y-112040000D01*
X120627000Y-112032000D01*
X120614000Y-112023000D01*
X120601000Y-112013000D01*
X120589000Y-112003000D01*
X120578000Y-111992000D01*
X120567000Y-111981000D01*
X120557000Y-111969000D01*
X120547000Y-111956000D01*
X120538000Y-111943000D01*
X120530000Y-111930000D01*
X120523000Y-111916000D01*
X120516000Y-111902000D01*
X120510000Y-111888000D01*
X120505000Y-111873000D01*
X120500000Y-111858000D01*
X120497000Y-111842000D01*
X120494000Y-111827000D01*
X120492000Y-111811000D01*
X120490000Y-111796000D01*
X120490000Y-111780000D01*
X120490000Y-110580000D01*
X120490000Y-110564000D01*
X120492000Y-110549000D01*
X120494000Y-110533000D01*
X120497000Y-110518000D01*
X120500000Y-110502000D01*
X120505000Y-110487000D01*
X120510000Y-110472000D01*
X120516000Y-110458000D01*
X120523000Y-110444000D01*
X120530000Y-110430000D01*
X120538000Y-110417000D01*
X120547000Y-110404000D01*
X120557000Y-110391000D01*
X120567000Y-110379000D01*
X120578000Y-110368000D01*
X120589000Y-110357000D01*
X120601000Y-110347000D01*
X120614000Y-110337000D01*
X120627000Y-110328000D01*
X120640000Y-110320000D01*
X120654000Y-110313000D01*
X120668000Y-110306000D01*
X120682000Y-110300000D01*
X120697000Y-110295000D01*
X120712000Y-110290000D01*
X120728000Y-110287000D01*
X120743000Y-110284000D01*
X120759000Y-110282000D01*
X120774000Y-110280000D01*
X120790000Y-110280000D01*
X123890000Y-110280000D01*
X123890000Y-112080000D01*
G36*
X123890000Y-112080000D02*
G01*
X120790000Y-112080000D01*
X120774000Y-112080000D01*
X120759000Y-112078000D01*
X120743000Y-112076000D01*
X120728000Y-112073000D01*
X120712000Y-112070000D01*
X120697000Y-112065000D01*
X120682000Y-112060000D01*
X120668000Y-112054000D01*
X120654000Y-112047000D01*
X120640000Y-112040000D01*
X120627000Y-112032000D01*
X120614000Y-112023000D01*
X120601000Y-112013000D01*
X120589000Y-112003000D01*
X120578000Y-111992000D01*
X120567000Y-111981000D01*
X120557000Y-111969000D01*
X120547000Y-111956000D01*
X120538000Y-111943000D01*
X120530000Y-111930000D01*
X120523000Y-111916000D01*
X120516000Y-111902000D01*
X120510000Y-111888000D01*
X120505000Y-111873000D01*
X120500000Y-111858000D01*
X120497000Y-111842000D01*
X120494000Y-111827000D01*
X120492000Y-111811000D01*
X120490000Y-111796000D01*
X120490000Y-111780000D01*
X120490000Y-110580000D01*
X120490000Y-110564000D01*
X120492000Y-110549000D01*
X120494000Y-110533000D01*
X120497000Y-110518000D01*
X120500000Y-110502000D01*
X120505000Y-110487000D01*
X120510000Y-110472000D01*
X120516000Y-110458000D01*
X120523000Y-110444000D01*
X120530000Y-110430000D01*
X120538000Y-110417000D01*
X120547000Y-110404000D01*
X120557000Y-110391000D01*
X120567000Y-110379000D01*
X120578000Y-110368000D01*
X120589000Y-110357000D01*
X120601000Y-110347000D01*
X120614000Y-110337000D01*
X120627000Y-110328000D01*
X120640000Y-110320000D01*
X120654000Y-110313000D01*
X120668000Y-110306000D01*
X120682000Y-110300000D01*
X120697000Y-110295000D01*
X120712000Y-110290000D01*
X120728000Y-110287000D01*
X120743000Y-110284000D01*
X120759000Y-110282000D01*
X120774000Y-110280000D01*
X120790000Y-110280000D01*
X123890000Y-110280000D01*
X123890000Y-112080000D01*
G37*
D11*
X96075000Y-102760000D03*
D12*
X93535000Y-102760000D03*
X96075000Y-105300000D03*
X93535000Y-105300000D03*
X96075000Y-107840000D03*
X93535000Y-107840000D03*
D13*
X125200000Y-91425000D03*
X125200000Y-89775000D03*
D14*
X131750000Y-69250000D03*
D15*
X97250000Y-118600000D03*
D13*
X125200000Y-87625000D03*
X125200000Y-85975000D03*
D15*
X129000000Y-118600000D03*
X97250000Y-67250000D03*
D16*
X129400000Y-79175000D03*
X129400000Y-80825000D03*
D14*
X93250000Y-69250000D03*
D17*
X128000000Y-87575000D03*
X128000000Y-86025000D03*
D16*
X127400000Y-79175000D03*
X127400000Y-80825000D03*
D14*
X93250000Y-116750000D03*
D18*
X130810000Y-111030000D03*
X130810000Y-108490000D03*
X130810000Y-105950000D03*
X130810000Y-103410000D03*
X130810000Y-100870000D03*
X130810000Y-98330000D03*
X130810000Y-95790000D03*
X130810000Y-93250000D03*
X130810000Y-90710000D03*
X128270000Y-90710000D03*
X128270000Y-93250000D03*
X128270000Y-95790000D03*
X128270000Y-98330000D03*
X128270000Y-100870000D03*
X128270000Y-103410000D03*
X128270000Y-105950000D03*
X128270000Y-108490000D03*
X128270000Y-111030000D03*
D19*
X109775000Y-68130000D03*
X115225000Y-68130000D03*
D20*
X110075000Y-71160000D03*
X114925000Y-71160000D03*
D21*
X113084100Y-97830000D03*
D22*
X115624100Y-97830000D03*
X118164100Y-97830000D03*
D23*
X112500000Y-71130000D03*
X113500000Y-67830000D03*
X111500000Y-67830000D03*
X110000000Y-76130000D03*
X110000000Y-78630000D03*
X110000000Y-81130000D03*
M02*
