G04 #@! TF.GenerationSoftware,KiCad,Pcbnew,8.0.7*
G04 #@! TF.CreationDate,2025-02-13T09:18:49+05:30*
G04 #@! TF.ProjectId,pico_ov7670_adapter,7069636f-5f6f-4763-9736-37305f616461,Ver 1.0*
G04 #@! TF.SameCoordinates,Original*
G04 #@! TF.FileFunction,Copper,L2,Bot*
G04 #@! TF.FilePolarity,Positive*
%FSLAX46Y46*%
G04 Gerber Fmt 4.6, Leading zero omitted, Abs format (unit mm)*
G04 Created by KiCad (PCBNEW 8.0.7) date 2025-02-13 09:18:49*
%MOMM*%
%LPD*%
G01*
G04 APERTURE LIST*
G04 Aperture macros list*
%AMRoundRect*
0 Rectangle with rounded corners*
0 $1 Rounding radius*
0 $2 $3 $4 $5 $6 $7 $8 $9 X,Y pos of 4 corners*
0 Add a 4 corners polygon primitive as box body*
4,1,4,$2,$3,$4,$5,$6,$7,$8,$9,$2,$3,0*
0 Add four circle primitives for the rounded corners*
1,1,$1+$1,$2,$3*
1,1,$1+$1,$4,$5*
1,1,$1+$1,$6,$7*
1,1,$1+$1,$8,$9*
0 Add four rect primitives between the rounded corners*
20,1,$1+$1,$2,$3,$4,$5,0*
20,1,$1+$1,$4,$5,$6,$7,0*
20,1,$1+$1,$6,$7,$8,$9,0*
20,1,$1+$1,$8,$9,$2,$3,0*%
G04 Aperture macros list end*
G04 #@! TA.AperFunction,ComponentPad*
%ADD10R,1.700000X1.700000*%
G04 #@! TD*
G04 #@! TA.AperFunction,ComponentPad*
%ADD11O,1.700000X1.700000*%
G04 #@! TD*
G04 #@! TA.AperFunction,SMDPad,CuDef*
%ADD12RoundRect,0.200000X-0.275000X0.200000X-0.275000X-0.200000X0.275000X-0.200000X0.275000X0.200000X0*%
G04 #@! TD*
G04 #@! TA.AperFunction,SMDPad,CuDef*
%ADD13RoundRect,0.218750X-0.218750X-0.256250X0.218750X-0.256250X0.218750X0.256250X-0.218750X0.256250X0*%
G04 #@! TD*
G04 #@! TA.AperFunction,SMDPad,CuDef*
%ADD14R,1.050000X0.650000*%
G04 #@! TD*
G04 #@! TA.AperFunction,ComponentPad*
%ADD15C,1.700000*%
G04 #@! TD*
G04 #@! TA.AperFunction,SMDPad,CuDef*
%ADD16RoundRect,0.200000X-0.200000X-0.275000X0.200000X-0.275000X0.200000X0.275000X-0.200000X0.275000X0*%
G04 #@! TD*
G04 #@! TA.AperFunction,SMDPad,CuDef*
%ADD17RoundRect,0.225000X-0.250000X0.225000X-0.250000X-0.225000X0.250000X-0.225000X0.250000X0.225000X0*%
G04 #@! TD*
G04 #@! TA.AperFunction,ViaPad*
%ADD18C,0.800000*%
G04 #@! TD*
G04 #@! TA.AperFunction,Conductor*
%ADD19C,0.200000*%
G04 #@! TD*
G04 #@! TA.AperFunction,Conductor*
%ADD20C,0.600000*%
G04 #@! TD*
G04 APERTURE END LIST*
D10*
X96075000Y-102760000D03*
D11*
X93535000Y-102760000D03*
X96075000Y-105300000D03*
X93535000Y-105300000D03*
X96075000Y-107840000D03*
X93535000Y-107840000D03*
D12*
X98750000Y-85275000D03*
X98750000Y-86925000D03*
D13*
X94212500Y-80777060D03*
X95787500Y-80777060D03*
D14*
X97075000Y-93525000D03*
X92925000Y-93525000D03*
X97075000Y-95675000D03*
X92925000Y-95675000D03*
D15*
X130810000Y-111030000D03*
X130810000Y-108490000D03*
X130810000Y-105950000D03*
X130810000Y-103410000D03*
X130810000Y-100870000D03*
X130810000Y-98330000D03*
X130810000Y-95790000D03*
X130810000Y-93250000D03*
X130810000Y-90710000D03*
X128270000Y-90710000D03*
X128270000Y-93250000D03*
X128270000Y-95790000D03*
X128270000Y-98330000D03*
X128270000Y-100870000D03*
X128270000Y-103410000D03*
X128270000Y-105950000D03*
X128270000Y-108490000D03*
X128270000Y-111030000D03*
D12*
X98750000Y-92275000D03*
X98750000Y-93925000D03*
D14*
X97075000Y-86525000D03*
X92925000Y-86525000D03*
X97075000Y-88675000D03*
X92925000Y-88675000D03*
D16*
X94175000Y-82377060D03*
X95825000Y-82377060D03*
D17*
X98750000Y-88325000D03*
X98750000Y-89875000D03*
X98750000Y-95325000D03*
X98750000Y-96875000D03*
D18*
X100000000Y-92000000D03*
X130600000Y-79200000D03*
X96075000Y-92200000D03*
X98800000Y-83800000D03*
X128000000Y-88400000D03*
X126400000Y-79175000D03*
X134000000Y-91000000D03*
X111000000Y-92000000D03*
X98500000Y-70500000D03*
X108000000Y-75500000D03*
X99000000Y-110500000D03*
X106400000Y-85500000D03*
X98500000Y-98500000D03*
X133000000Y-107500000D03*
X126000000Y-67500000D03*
X125500000Y-116500000D03*
X126000000Y-70500000D03*
X134000000Y-89000000D03*
X91500000Y-98500000D03*
X108500000Y-96000000D03*
X125500000Y-113500000D03*
X132000000Y-76500000D03*
X91500000Y-84500000D03*
X133000000Y-112500000D03*
X94500000Y-75500000D03*
X105500000Y-73000000D03*
X96500000Y-74500000D03*
X99000000Y-112500000D03*
X93200000Y-100200000D03*
X107600000Y-99400000D03*
X118600000Y-85600000D03*
X114000000Y-92000000D03*
X91500000Y-91000000D03*
X93000000Y-111500000D03*
X112000000Y-85500000D03*
X106000000Y-98400000D03*
X110000000Y-97500000D03*
X133000000Y-102500000D03*
X133000000Y-97500000D03*
X94000000Y-91000000D03*
X107500000Y-92000000D03*
X104500000Y-79500000D03*
X133500000Y-82500000D03*
X125400000Y-111200000D03*
X96500000Y-72000000D03*
X132000000Y-74500000D03*
X133000000Y-105000000D03*
X131000000Y-82500000D03*
X99000000Y-118000000D03*
X133000000Y-110000000D03*
X106000000Y-94500000D03*
X105500000Y-74500000D03*
X133000000Y-95000000D03*
X94500000Y-73500000D03*
X98500000Y-68000000D03*
X114000000Y-96000000D03*
X109200000Y-85500000D03*
X94500000Y-77500000D03*
X105000000Y-82000000D03*
X133500000Y-80000000D03*
X97500000Y-116500000D03*
X129400000Y-92000000D03*
X111000000Y-96000000D03*
X134000000Y-93000000D03*
X94500000Y-98500000D03*
X133000000Y-100000000D03*
X128000000Y-116500000D03*
X94000000Y-84500000D03*
X125000000Y-81000000D03*
X100000000Y-73000000D03*
X127000000Y-118000000D03*
X127500000Y-69000000D03*
X99600000Y-86800000D03*
X97200000Y-82400000D03*
D19*
X100000000Y-93550000D02*
X100000000Y-92000000D01*
X92925000Y-93375000D02*
X97075000Y-93375000D01*
X99625000Y-93925000D02*
X100000000Y-93550000D01*
X98750000Y-95325000D02*
X98750000Y-93925000D01*
X98750000Y-93925000D02*
X98175000Y-93925000D01*
X98750000Y-93925000D02*
X99625000Y-93925000D01*
X97775000Y-93525000D02*
X97075000Y-93525000D01*
X98175000Y-93925000D02*
X97775000Y-93525000D01*
D20*
X98750000Y-92275000D02*
X96150000Y-92275000D01*
X128000000Y-83000000D02*
X130600000Y-80400000D01*
X98377060Y-80777060D02*
X95787500Y-80777060D01*
X96150000Y-92275000D02*
X96075000Y-92200000D01*
X98750000Y-83850000D02*
X98800000Y-83800000D01*
X98800000Y-81200000D02*
X98377060Y-80777060D01*
X98750000Y-85275000D02*
X98750000Y-83850000D01*
X125025000Y-77800000D02*
X126400000Y-79175000D01*
X95787500Y-80777060D02*
X95787500Y-78412500D01*
X126425000Y-79200000D02*
X126400000Y-79175000D01*
X98800000Y-83800000D02*
X98800000Y-81200000D01*
X130600000Y-80400000D02*
X130600000Y-79200000D01*
X96400000Y-77800000D02*
X125025000Y-77800000D01*
X95787500Y-78412500D02*
X96400000Y-77800000D01*
X128000000Y-88400000D02*
X128000000Y-83000000D01*
X130600000Y-79200000D02*
X126425000Y-79200000D01*
D19*
X98750000Y-86925000D02*
X98200000Y-86925000D01*
X98750000Y-88325000D02*
X98750000Y-86925000D01*
X97800000Y-86525000D02*
X97075000Y-86525000D01*
X99475000Y-86925000D02*
X99600000Y-86800000D01*
X98750000Y-86925000D02*
X99475000Y-86925000D01*
X98200000Y-86925000D02*
X97800000Y-86525000D01*
X92925000Y-86525000D02*
X97075000Y-86525000D01*
X97177060Y-82377060D02*
X97200000Y-82400000D01*
X95825000Y-82377060D02*
X97177060Y-82377060D01*
X94175000Y-82377060D02*
X94175000Y-81825000D01*
X94287500Y-81712500D02*
X94287500Y-80777060D01*
X94175000Y-81825000D02*
X94287500Y-81712500D01*
G04 #@! TA.AperFunction,Conductor*
G36*
X91670428Y-66320185D02*
G01*
X91716183Y-66372989D01*
X91726127Y-66442147D01*
X91697102Y-66505703D01*
X91663370Y-66533028D01*
X91573887Y-66582483D01*
X91285753Y-66786924D01*
X91022334Y-67022331D01*
X91022331Y-67022334D01*
X90786924Y-67285753D01*
X90582483Y-67573887D01*
X90411589Y-67883095D01*
X90276393Y-68209488D01*
X90178591Y-68548965D01*
X90178589Y-68548974D01*
X90119413Y-68897259D01*
X90119411Y-68897271D01*
X90099603Y-69250000D01*
X90119411Y-69602728D01*
X90119413Y-69602740D01*
X90178589Y-69951025D01*
X90178591Y-69951034D01*
X90276393Y-70290511D01*
X90411589Y-70616904D01*
X90582483Y-70926112D01*
X90786924Y-71214246D01*
X91022331Y-71477665D01*
X91022334Y-71477668D01*
X91285753Y-71713075D01*
X91285759Y-71713079D01*
X91285760Y-71713080D01*
X91573888Y-71917517D01*
X91883094Y-72088410D01*
X92209490Y-72223607D01*
X92548971Y-72321410D01*
X92897267Y-72380588D01*
X93250000Y-72400397D01*
X93602733Y-72380588D01*
X93951029Y-72321410D01*
X94290510Y-72223607D01*
X94616906Y-72088410D01*
X94926112Y-71917517D01*
X95214240Y-71713080D01*
X95477667Y-71477667D01*
X95713080Y-71214240D01*
X95917517Y-70926112D01*
X96088410Y-70616906D01*
X96223607Y-70290510D01*
X96321410Y-69951029D01*
X96380588Y-69602733D01*
X96400397Y-69250000D01*
X96380588Y-68897267D01*
X96321410Y-68548971D01*
X96223607Y-68209490D01*
X96088410Y-67883094D01*
X95917517Y-67573888D01*
X95713080Y-67285760D01*
X95713079Y-67285759D01*
X95713075Y-67285753D01*
X95477668Y-67022334D01*
X95477665Y-67022331D01*
X95214246Y-66786924D01*
X94926112Y-66582483D01*
X94905701Y-66571202D01*
X94836629Y-66533027D01*
X94787477Y-66483371D01*
X94772974Y-66415023D01*
X94797724Y-66349684D01*
X94853871Y-66308099D01*
X94896611Y-66300500D01*
X130303005Y-66300500D01*
X130370044Y-66320185D01*
X130415799Y-66372989D01*
X130425743Y-66442147D01*
X130396718Y-66505703D01*
X130362986Y-66533028D01*
X130125336Y-66664372D01*
X130125331Y-66664375D01*
X129846061Y-66862529D01*
X129846053Y-66862535D01*
X129590719Y-67090716D01*
X129590716Y-67090719D01*
X129362535Y-67346053D01*
X129362529Y-67346061D01*
X129164375Y-67625331D01*
X129164372Y-67625336D01*
X128998722Y-67925057D01*
X128998720Y-67925061D01*
X128867676Y-68241433D01*
X128772877Y-68570486D01*
X128772875Y-68570494D01*
X128715516Y-68908088D01*
X128715514Y-68908100D01*
X128696314Y-69250000D01*
X128715514Y-69591899D01*
X128715516Y-69591911D01*
X128772875Y-69929505D01*
X128772877Y-69929513D01*
X128867676Y-70258566D01*
X128998720Y-70574938D01*
X128998722Y-70574942D01*
X129164372Y-70874663D01*
X129164375Y-70874668D01*
X129362529Y-71153938D01*
X129362535Y-71153946D01*
X129590716Y-71409280D01*
X129590719Y-71409283D01*
X129846053Y-71637464D01*
X129846061Y-71637470D01*
X130125331Y-71835624D01*
X130125336Y-71835627D01*
X130125339Y-71835628D01*
X130125341Y-71835630D01*
X130425055Y-72001276D01*
X130425057Y-72001277D01*
X130425061Y-72001279D01*
X130546301Y-72051497D01*
X130741431Y-72132323D01*
X131070491Y-72227124D01*
X131408096Y-72284485D01*
X131750000Y-72303686D01*
X132091904Y-72284485D01*
X132429509Y-72227124D01*
X132758569Y-72132323D01*
X133074945Y-72001276D01*
X133374659Y-71835630D01*
X133374664Y-71835626D01*
X133374668Y-71835624D01*
X133462703Y-71773159D01*
X133653942Y-71637468D01*
X133909282Y-71409282D01*
X134137468Y-71153942D01*
X134335630Y-70874659D01*
X134501276Y-70574945D01*
X134632323Y-70258569D01*
X134727124Y-69929509D01*
X134784485Y-69591904D01*
X134803686Y-69250000D01*
X134784485Y-68908096D01*
X134727124Y-68570491D01*
X134632323Y-68241431D01*
X134551497Y-68046301D01*
X134501279Y-67925061D01*
X134501277Y-67925057D01*
X134501276Y-67925055D01*
X134335630Y-67625341D01*
X134335628Y-67625339D01*
X134335627Y-67625336D01*
X134335624Y-67625331D01*
X134137470Y-67346061D01*
X134137464Y-67346053D01*
X133909283Y-67090719D01*
X133909280Y-67090716D01*
X133653946Y-66862535D01*
X133653938Y-66862529D01*
X133374668Y-66664375D01*
X133374663Y-66664372D01*
X133137014Y-66533028D01*
X133087861Y-66483371D01*
X133073358Y-66415023D01*
X133098108Y-66349684D01*
X133154255Y-66308099D01*
X133196995Y-66300500D01*
X133952405Y-66300500D01*
X133996519Y-66300500D01*
X134003472Y-66300695D01*
X134295306Y-66317084D01*
X134309103Y-66318638D01*
X134593827Y-66367015D01*
X134607382Y-66370108D01*
X134746141Y-66410084D01*
X134884899Y-66450060D01*
X134898025Y-66454653D01*
X135164841Y-66565172D01*
X135177355Y-66571198D01*
X135345946Y-66664375D01*
X135430125Y-66710899D01*
X135441899Y-66718297D01*
X135677430Y-66885415D01*
X135688302Y-66894085D01*
X135903642Y-67086524D01*
X135913475Y-67096357D01*
X136105914Y-67311697D01*
X136114584Y-67322569D01*
X136281702Y-67558100D01*
X136289100Y-67569874D01*
X136428797Y-67822637D01*
X136434830Y-67835165D01*
X136545346Y-68101975D01*
X136549939Y-68115100D01*
X136629890Y-68392615D01*
X136632984Y-68406172D01*
X136681359Y-68690885D01*
X136682916Y-68704703D01*
X136699305Y-68996527D01*
X136699500Y-69003480D01*
X136699500Y-120495124D01*
X136699118Y-120504853D01*
X136685497Y-120677915D01*
X136682453Y-120697133D01*
X136643070Y-120861176D01*
X136637057Y-120879682D01*
X136572495Y-121035547D01*
X136563661Y-121052884D01*
X136475515Y-121196725D01*
X136464079Y-121212466D01*
X136354513Y-121340753D01*
X136340753Y-121354513D01*
X136212466Y-121464079D01*
X136196725Y-121475515D01*
X136052884Y-121563661D01*
X136035547Y-121572495D01*
X135879682Y-121637057D01*
X135861176Y-121643070D01*
X135697133Y-121682453D01*
X135677915Y-121685497D01*
X135504854Y-121699118D01*
X135495125Y-121699500D01*
X91003481Y-121699500D01*
X90996528Y-121699305D01*
X90704703Y-121682916D01*
X90690885Y-121681359D01*
X90406172Y-121632984D01*
X90392615Y-121629890D01*
X90115100Y-121549939D01*
X90101975Y-121545346D01*
X89835165Y-121434830D01*
X89822637Y-121428797D01*
X89569874Y-121289100D01*
X89558100Y-121281702D01*
X89322569Y-121114584D01*
X89311697Y-121105914D01*
X89096357Y-120913475D01*
X89086524Y-120903642D01*
X88894085Y-120688302D01*
X88885415Y-120677430D01*
X88718297Y-120441899D01*
X88710899Y-120430125D01*
X88571202Y-120177362D01*
X88565172Y-120164841D01*
X88455636Y-119900397D01*
X88454653Y-119898024D01*
X88450060Y-119884899D01*
X88370109Y-119607384D01*
X88367015Y-119593827D01*
X88337059Y-119417517D01*
X88318638Y-119309103D01*
X88317084Y-119295306D01*
X88300695Y-119003472D01*
X88300500Y-118996519D01*
X88300500Y-116750000D01*
X90099603Y-116750000D01*
X90119411Y-117102728D01*
X90119413Y-117102740D01*
X90178589Y-117451025D01*
X90178591Y-117451034D01*
X90276393Y-117790511D01*
X90411589Y-118116904D01*
X90582483Y-118426112D01*
X90786924Y-118714246D01*
X91022331Y-118977665D01*
X91022334Y-118977668D01*
X91285753Y-119213075D01*
X91285759Y-119213079D01*
X91285760Y-119213080D01*
X91573888Y-119417517D01*
X91883094Y-119588410D01*
X92209490Y-119723607D01*
X92548971Y-119821410D01*
X92897267Y-119880588D01*
X93250000Y-119900397D01*
X93602733Y-119880588D01*
X93951029Y-119821410D01*
X94290510Y-119723607D01*
X94616906Y-119588410D01*
X94926112Y-119417517D01*
X95214240Y-119213080D01*
X95477667Y-118977667D01*
X95713080Y-118714240D01*
X95917517Y-118426112D01*
X96088410Y-118116906D01*
X96223607Y-117790510D01*
X96321410Y-117451029D01*
X96380588Y-117102733D01*
X96400397Y-116750000D01*
X96380588Y-116397267D01*
X96321410Y-116048971D01*
X96223607Y-115709490D01*
X96088410Y-115383094D01*
X95917517Y-115073888D01*
X95713080Y-114785760D01*
X95713079Y-114785759D01*
X95713075Y-114785753D01*
X95477668Y-114522334D01*
X95477665Y-114522331D01*
X95214246Y-114286924D01*
X94926112Y-114082483D01*
X94616904Y-113911589D01*
X94290511Y-113776393D01*
X93951034Y-113678591D01*
X93951025Y-113678589D01*
X93602740Y-113619413D01*
X93602728Y-113619411D01*
X93250000Y-113599603D01*
X92897271Y-113619411D01*
X92897259Y-113619413D01*
X92548974Y-113678589D01*
X92548965Y-113678591D01*
X92209488Y-113776393D01*
X91883095Y-113911589D01*
X91573887Y-114082483D01*
X91285753Y-114286924D01*
X91022334Y-114522331D01*
X91022331Y-114522334D01*
X90786924Y-114785753D01*
X90582483Y-115073887D01*
X90411589Y-115383095D01*
X90276393Y-115709488D01*
X90178591Y-116048965D01*
X90178589Y-116048974D01*
X90119413Y-116397259D01*
X90119411Y-116397271D01*
X90099603Y-116750000D01*
X88300500Y-116750000D01*
X88300500Y-109590438D01*
X105449500Y-109590438D01*
X105449500Y-117590438D01*
X105449500Y-117669562D01*
X105463152Y-117720513D01*
X105469979Y-117745990D01*
X105469982Y-117745995D01*
X105509535Y-117814504D01*
X105509539Y-117814509D01*
X105509540Y-117814511D01*
X105565489Y-117870460D01*
X105565491Y-117870461D01*
X105565495Y-117870464D01*
X105634004Y-117910017D01*
X105634011Y-117910021D01*
X105710438Y-117930500D01*
X105710440Y-117930500D01*
X119289560Y-117930500D01*
X119289562Y-117930500D01*
X119365989Y-117910021D01*
X119434511Y-117870460D01*
X119490460Y-117814511D01*
X119530021Y-117745989D01*
X119550500Y-117669562D01*
X119550500Y-115119995D01*
X131504451Y-115119995D01*
X131504451Y-115120004D01*
X131524616Y-115389101D01*
X131584664Y-115652188D01*
X131584666Y-115652195D01*
X131683257Y-115903398D01*
X131818185Y-116137102D01*
X131863359Y-116193748D01*
X131986442Y-116348089D01*
X132173183Y-116521358D01*
X132184259Y-116531635D01*
X132407226Y-116683651D01*
X132650359Y-116800738D01*
X132908228Y-116880280D01*
X132908229Y-116880280D01*
X132908232Y-116880281D01*
X133175063Y-116920499D01*
X133175068Y-116920499D01*
X133175071Y-116920500D01*
X133175072Y-116920500D01*
X133444928Y-116920500D01*
X133444929Y-116920500D01*
X133444936Y-116920499D01*
X133711767Y-116880281D01*
X133711768Y-116880280D01*
X133711772Y-116880280D01*
X133969641Y-116800738D01*
X134212775Y-116683651D01*
X134435741Y-116531635D01*
X134633561Y-116348085D01*
X134801815Y-116137102D01*
X134936743Y-115903398D01*
X135035334Y-115652195D01*
X135095383Y-115389103D01*
X135115549Y-115120000D01*
X135112093Y-115073888D01*
X135095383Y-114850898D01*
X135035335Y-114587811D01*
X135035334Y-114587805D01*
X134936743Y-114336602D01*
X134801815Y-114102898D01*
X134633561Y-113891915D01*
X134633560Y-113891914D01*
X134633557Y-113891910D01*
X134435741Y-113708365D01*
X134212775Y-113556349D01*
X134212769Y-113556346D01*
X134212768Y-113556345D01*
X134212767Y-113556344D01*
X133969643Y-113439263D01*
X133969645Y-113439263D01*
X133711773Y-113359720D01*
X133711767Y-113359718D01*
X133444936Y-113319500D01*
X133444929Y-113319500D01*
X133175071Y-113319500D01*
X133175063Y-113319500D01*
X132908232Y-113359718D01*
X132908226Y-113359720D01*
X132650358Y-113439262D01*
X132407230Y-113556346D01*
X132184258Y-113708365D01*
X131986442Y-113891910D01*
X131818185Y-114102898D01*
X131683258Y-114336599D01*
X131683256Y-114336603D01*
X131584666Y-114587804D01*
X131584664Y-114587811D01*
X131524616Y-114850898D01*
X131504451Y-115119995D01*
X119550500Y-115119995D01*
X119550500Y-111029999D01*
X127164785Y-111029999D01*
X127164785Y-111030000D01*
X127183602Y-111233082D01*
X127239417Y-111429247D01*
X127239422Y-111429260D01*
X127330327Y-111611821D01*
X127453237Y-111774581D01*
X127603958Y-111911980D01*
X127603960Y-111911982D01*
X127703141Y-111973392D01*
X127777363Y-112019348D01*
X127967544Y-112093024D01*
X128168024Y-112130500D01*
X128168026Y-112130500D01*
X128371974Y-112130500D01*
X128371976Y-112130500D01*
X128572456Y-112093024D01*
X128762637Y-112019348D01*
X128936041Y-111911981D01*
X129086764Y-111774579D01*
X129209673Y-111611821D01*
X129300582Y-111429250D01*
X129356397Y-111233083D01*
X129375215Y-111030000D01*
X129375215Y-111029999D01*
X129704785Y-111029999D01*
X129704785Y-111030000D01*
X129723602Y-111233082D01*
X129779417Y-111429247D01*
X129779422Y-111429260D01*
X129870327Y-111611821D01*
X129993237Y-111774581D01*
X130143958Y-111911980D01*
X130143960Y-111911982D01*
X130243141Y-111973392D01*
X130317363Y-112019348D01*
X130507544Y-112093024D01*
X130708024Y-112130500D01*
X130708026Y-112130500D01*
X130911974Y-112130500D01*
X130911976Y-112130500D01*
X131112456Y-112093024D01*
X131302637Y-112019348D01*
X131476041Y-111911981D01*
X131626764Y-111774579D01*
X131749673Y-111611821D01*
X131840582Y-111429250D01*
X131896397Y-111233083D01*
X131915215Y-111030000D01*
X131896397Y-110826917D01*
X131840582Y-110630750D01*
X131749673Y-110448179D01*
X131626764Y-110285421D01*
X131626762Y-110285418D01*
X131476041Y-110148019D01*
X131476039Y-110148017D01*
X131302642Y-110040655D01*
X131302635Y-110040651D01*
X131207546Y-110003814D01*
X131112456Y-109966976D01*
X130911976Y-109929500D01*
X130708024Y-109929500D01*
X130507544Y-109966976D01*
X130507541Y-109966976D01*
X130507541Y-109966977D01*
X130317364Y-110040651D01*
X130317357Y-110040655D01*
X130143960Y-110148017D01*
X130143958Y-110148019D01*
X129993237Y-110285418D01*
X129870327Y-110448178D01*
X129779422Y-110630739D01*
X129779417Y-110630752D01*
X129723602Y-110826917D01*
X129704785Y-111029999D01*
X129375215Y-111029999D01*
X129356397Y-110826917D01*
X129300582Y-110630750D01*
X129209673Y-110448179D01*
X129086764Y-110285421D01*
X129086762Y-110285418D01*
X128936041Y-110148019D01*
X128936039Y-110148017D01*
X128762642Y-110040655D01*
X128762635Y-110040651D01*
X128667546Y-110003814D01*
X128572456Y-109966976D01*
X128371976Y-109929500D01*
X128168024Y-109929500D01*
X127967544Y-109966976D01*
X127967541Y-109966976D01*
X127967541Y-109966977D01*
X127777364Y-110040651D01*
X127777357Y-110040655D01*
X127603960Y-110148017D01*
X127603958Y-110148019D01*
X127453237Y-110285418D01*
X127330327Y-110448178D01*
X127239422Y-110630739D01*
X127239417Y-110630752D01*
X127183602Y-110826917D01*
X127164785Y-111029999D01*
X119550500Y-111029999D01*
X119550500Y-109590438D01*
X119530021Y-109514011D01*
X119530017Y-109514004D01*
X119490464Y-109445495D01*
X119490458Y-109445487D01*
X119434512Y-109389541D01*
X119434504Y-109389535D01*
X119365995Y-109349982D01*
X119365990Y-109349979D01*
X119340513Y-109343152D01*
X119289562Y-109329500D01*
X105789562Y-109329500D01*
X105710438Y-109329500D01*
X105672224Y-109339739D01*
X105634009Y-109349979D01*
X105634004Y-109349982D01*
X105565495Y-109389535D01*
X105565487Y-109389541D01*
X105509541Y-109445487D01*
X105509535Y-109445495D01*
X105469982Y-109514004D01*
X105469979Y-109514009D01*
X105459526Y-109553022D01*
X105449500Y-109590438D01*
X88300500Y-109590438D01*
X88300500Y-107839999D01*
X92429785Y-107839999D01*
X92429785Y-107840000D01*
X92448602Y-108043082D01*
X92504417Y-108239247D01*
X92504422Y-108239260D01*
X92595327Y-108421821D01*
X92718237Y-108584581D01*
X92868958Y-108721980D01*
X92868960Y-108721982D01*
X92968141Y-108783392D01*
X93042363Y-108829348D01*
X93232544Y-108903024D01*
X93433024Y-108940500D01*
X93433026Y-108940500D01*
X93636974Y-108940500D01*
X93636976Y-108940500D01*
X93837456Y-108903024D01*
X94027637Y-108829348D01*
X94201041Y-108721981D01*
X94351764Y-108584579D01*
X94474673Y-108421821D01*
X94565582Y-108239250D01*
X94621397Y-108043083D01*
X94640215Y-107840000D01*
X94640215Y-107839999D01*
X94969785Y-107839999D01*
X94969785Y-107840000D01*
X94988602Y-108043082D01*
X95044417Y-108239247D01*
X95044422Y-108239260D01*
X95135327Y-108421821D01*
X95258237Y-108584581D01*
X95408958Y-108721980D01*
X95408960Y-108721982D01*
X95508141Y-108783392D01*
X95582363Y-108829348D01*
X95772544Y-108903024D01*
X95973024Y-108940500D01*
X95973026Y-108940500D01*
X96176974Y-108940500D01*
X96176976Y-108940500D01*
X96377456Y-108903024D01*
X96567637Y-108829348D01*
X96741041Y-108721981D01*
X96891764Y-108584579D01*
X96963187Y-108489999D01*
X127164785Y-108489999D01*
X127164785Y-108490000D01*
X127183602Y-108693082D01*
X127239417Y-108889247D01*
X127239422Y-108889260D01*
X127330327Y-109071821D01*
X127453237Y-109234581D01*
X127603958Y-109371980D01*
X127603960Y-109371982D01*
X127632319Y-109389541D01*
X127777363Y-109479348D01*
X127967544Y-109553024D01*
X128168024Y-109590500D01*
X128168026Y-109590500D01*
X128371974Y-109590500D01*
X128371976Y-109590500D01*
X128572456Y-109553024D01*
X128762637Y-109479348D01*
X128936041Y-109371981D01*
X129086764Y-109234579D01*
X129209673Y-109071821D01*
X129300582Y-108889250D01*
X129356397Y-108693083D01*
X129375215Y-108490000D01*
X129375215Y-108489999D01*
X129704785Y-108489999D01*
X129704785Y-108490000D01*
X129723602Y-108693082D01*
X129779417Y-108889247D01*
X129779422Y-108889260D01*
X129870327Y-109071821D01*
X129993237Y-109234581D01*
X130143958Y-109371980D01*
X130143960Y-109371982D01*
X130172319Y-109389541D01*
X130317363Y-109479348D01*
X130507544Y-109553024D01*
X130708024Y-109590500D01*
X130708026Y-109590500D01*
X130911974Y-109590500D01*
X130911976Y-109590500D01*
X131112456Y-109553024D01*
X131302637Y-109479348D01*
X131476041Y-109371981D01*
X131626764Y-109234579D01*
X131749673Y-109071821D01*
X131840582Y-108889250D01*
X131896397Y-108693083D01*
X131915215Y-108490000D01*
X131896397Y-108286917D01*
X131840582Y-108090750D01*
X131816846Y-108043082D01*
X131796272Y-108001764D01*
X131749673Y-107908179D01*
X131626764Y-107745421D01*
X131626762Y-107745418D01*
X131476041Y-107608019D01*
X131476039Y-107608017D01*
X131302642Y-107500655D01*
X131302635Y-107500651D01*
X131148011Y-107440750D01*
X131112456Y-107426976D01*
X130911976Y-107389500D01*
X130708024Y-107389500D01*
X130507544Y-107426976D01*
X130507541Y-107426976D01*
X130507541Y-107426977D01*
X130317364Y-107500651D01*
X130317357Y-107500655D01*
X130143960Y-107608017D01*
X130143958Y-107608019D01*
X129993237Y-107745418D01*
X129870327Y-107908178D01*
X129779422Y-108090739D01*
X129779417Y-108090752D01*
X129723602Y-108286917D01*
X129704785Y-108489999D01*
X129375215Y-108489999D01*
X129356397Y-108286917D01*
X129300582Y-108090750D01*
X129276846Y-108043082D01*
X129256272Y-108001764D01*
X129209673Y-107908179D01*
X129086764Y-107745421D01*
X129086762Y-107745418D01*
X128936041Y-107608019D01*
X128936039Y-107608017D01*
X128762642Y-107500655D01*
X128762635Y-107500651D01*
X128608011Y-107440750D01*
X128572456Y-107426976D01*
X128371976Y-107389500D01*
X128168024Y-107389500D01*
X127967544Y-107426976D01*
X127967541Y-107426976D01*
X127967541Y-107426977D01*
X127777364Y-107500651D01*
X127777357Y-107500655D01*
X127603960Y-107608017D01*
X127603958Y-107608019D01*
X127453237Y-107745418D01*
X127330327Y-107908178D01*
X127239422Y-108090739D01*
X127239417Y-108090752D01*
X127183602Y-108286917D01*
X127164785Y-108489999D01*
X96963187Y-108489999D01*
X97014673Y-108421821D01*
X97105582Y-108239250D01*
X97161397Y-108043083D01*
X97180215Y-107840000D01*
X97161397Y-107636917D01*
X97105582Y-107440750D01*
X97098723Y-107426976D01*
X97061272Y-107351764D01*
X97014673Y-107258179D01*
X96891764Y-107095421D01*
X96891762Y-107095418D01*
X96741041Y-106958019D01*
X96741039Y-106958017D01*
X96567642Y-106850655D01*
X96567635Y-106850651D01*
X96472546Y-106813814D01*
X96377456Y-106776976D01*
X96176976Y-106739500D01*
X95973024Y-106739500D01*
X95772544Y-106776976D01*
X95772541Y-106776976D01*
X95772541Y-106776977D01*
X95582364Y-106850651D01*
X95582357Y-106850655D01*
X95408960Y-106958017D01*
X95408958Y-106958019D01*
X95258237Y-107095418D01*
X95135327Y-107258178D01*
X95044422Y-107440739D01*
X95044417Y-107440752D01*
X94988602Y-107636917D01*
X94969785Y-107839999D01*
X94640215Y-107839999D01*
X94621397Y-107636917D01*
X94565582Y-107440750D01*
X94558723Y-107426976D01*
X94521272Y-107351764D01*
X94474673Y-107258179D01*
X94351764Y-107095421D01*
X94351762Y-107095418D01*
X94201041Y-106958019D01*
X94201039Y-106958017D01*
X94027642Y-106850655D01*
X94027635Y-106850651D01*
X93932546Y-106813814D01*
X93837456Y-106776976D01*
X93636976Y-106739500D01*
X93433024Y-106739500D01*
X93232544Y-106776976D01*
X93232541Y-106776976D01*
X93232541Y-106776977D01*
X93042364Y-106850651D01*
X93042357Y-106850655D01*
X92868960Y-106958017D01*
X92868958Y-106958019D01*
X92718237Y-107095418D01*
X92595327Y-107258178D01*
X92504422Y-107440739D01*
X92504417Y-107440752D01*
X92448602Y-107636917D01*
X92429785Y-107839999D01*
X88300500Y-107839999D01*
X88300500Y-102509999D01*
X92204364Y-102509999D01*
X92204364Y-102510000D01*
X93101988Y-102510000D01*
X93069075Y-102567007D01*
X93035000Y-102694174D01*
X93035000Y-102825826D01*
X93069075Y-102952993D01*
X93101988Y-103010000D01*
X92204364Y-103010000D01*
X92261567Y-103223486D01*
X92261570Y-103223492D01*
X92361399Y-103437578D01*
X92496894Y-103631082D01*
X92663917Y-103798105D01*
X92857421Y-103933600D01*
X93071507Y-104033429D01*
X93071516Y-104033433D01*
X93110583Y-104043901D01*
X93170244Y-104080266D01*
X93200773Y-104143113D01*
X93192479Y-104212488D01*
X93147993Y-104266366D01*
X93123284Y-104279302D01*
X93042373Y-104310647D01*
X93042357Y-104310655D01*
X92868960Y-104418017D01*
X92868958Y-104418019D01*
X92718237Y-104555418D01*
X92595327Y-104718178D01*
X92504422Y-104900739D01*
X92504417Y-104900752D01*
X92448602Y-105096917D01*
X92429785Y-105299999D01*
X92429785Y-105300000D01*
X92448602Y-105503082D01*
X92504417Y-105699247D01*
X92504422Y-105699260D01*
X92595327Y-105881821D01*
X92718237Y-106044581D01*
X92868958Y-106181980D01*
X92868960Y-106181982D01*
X92968141Y-106243392D01*
X93042363Y-106289348D01*
X93232544Y-106363024D01*
X93433024Y-106400500D01*
X93433026Y-106400500D01*
X93636974Y-106400500D01*
X93636976Y-106400500D01*
X93837456Y-106363024D01*
X94027637Y-106289348D01*
X94201041Y-106181981D01*
X94351764Y-106044579D01*
X94474673Y-105881821D01*
X94565582Y-105699250D01*
X94621397Y-105503083D01*
X94640215Y-105300000D01*
X94640215Y-105299999D01*
X94969785Y-105299999D01*
X94969785Y-105300000D01*
X94988602Y-105503082D01*
X95044417Y-105699247D01*
X95044422Y-105699260D01*
X95135327Y-105881821D01*
X95258237Y-106044581D01*
X95408958Y-106181980D01*
X95408960Y-106181982D01*
X95508141Y-106243392D01*
X95582363Y-106289348D01*
X95772544Y-106363024D01*
X95973024Y-106400500D01*
X95973026Y-106400500D01*
X96176974Y-106400500D01*
X96176976Y-106400500D01*
X96377456Y-106363024D01*
X96567637Y-106289348D01*
X96741041Y-106181981D01*
X96891764Y-106044579D01*
X96963187Y-105949999D01*
X127164785Y-105949999D01*
X127164785Y-105950000D01*
X127183602Y-106153082D01*
X127239417Y-106349247D01*
X127239422Y-106349260D01*
X127330327Y-106531821D01*
X127453237Y-106694581D01*
X127603958Y-106831980D01*
X127603960Y-106831982D01*
X127703141Y-106893392D01*
X127777363Y-106939348D01*
X127967544Y-107013024D01*
X128168024Y-107050500D01*
X128168026Y-107050500D01*
X128371974Y-107050500D01*
X128371976Y-107050500D01*
X128572456Y-107013024D01*
X128762637Y-106939348D01*
X128936041Y-106831981D01*
X129086764Y-106694579D01*
X129209673Y-106531821D01*
X129300582Y-106349250D01*
X129356397Y-106153083D01*
X129375215Y-105950000D01*
X129375215Y-105949999D01*
X129704785Y-105949999D01*
X129704785Y-105950000D01*
X129723602Y-106153082D01*
X129779417Y-106349247D01*
X129779422Y-106349260D01*
X129870327Y-106531821D01*
X129993237Y-106694581D01*
X130143958Y-106831980D01*
X130143960Y-106831982D01*
X130243141Y-106893392D01*
X130317363Y-106939348D01*
X130507544Y-107013024D01*
X130708024Y-107050500D01*
X130708026Y-107050500D01*
X130911974Y-107050500D01*
X130911976Y-107050500D01*
X131112456Y-107013024D01*
X131302637Y-106939348D01*
X131476041Y-106831981D01*
X131626764Y-106694579D01*
X131749673Y-106531821D01*
X131840582Y-106349250D01*
X131896397Y-106153083D01*
X131915215Y-105950000D01*
X131896397Y-105746917D01*
X131840582Y-105550750D01*
X131816846Y-105503082D01*
X131796272Y-105461764D01*
X131749673Y-105368179D01*
X131626764Y-105205421D01*
X131626762Y-105205418D01*
X131476041Y-105068019D01*
X131476039Y-105068017D01*
X131302642Y-104960655D01*
X131302635Y-104960651D01*
X131148011Y-104900750D01*
X131112456Y-104886976D01*
X130911976Y-104849500D01*
X130708024Y-104849500D01*
X130507544Y-104886976D01*
X130507541Y-104886976D01*
X130507541Y-104886977D01*
X130317364Y-104960651D01*
X130317357Y-104960655D01*
X130143960Y-105068017D01*
X130143958Y-105068019D01*
X129993237Y-105205418D01*
X129870327Y-105368178D01*
X129779422Y-105550739D01*
X129779417Y-105550752D01*
X129723602Y-105746917D01*
X129704785Y-105949999D01*
X129375215Y-105949999D01*
X129356397Y-105746917D01*
X129300582Y-105550750D01*
X129276846Y-105503082D01*
X129256272Y-105461764D01*
X129209673Y-105368179D01*
X129086764Y-105205421D01*
X129086762Y-105205418D01*
X128936041Y-105068019D01*
X128936039Y-105068017D01*
X128762642Y-104960655D01*
X128762635Y-104960651D01*
X128608011Y-104900750D01*
X128572456Y-104886976D01*
X128371976Y-104849500D01*
X128168024Y-104849500D01*
X127967544Y-104886976D01*
X127967541Y-104886976D01*
X127967541Y-104886977D01*
X127777364Y-104960651D01*
X127777357Y-104960655D01*
X127603960Y-105068017D01*
X127603958Y-105068019D01*
X127453237Y-105205418D01*
X127330327Y-105368178D01*
X127239422Y-105550739D01*
X127239417Y-105550752D01*
X127183602Y-105746917D01*
X127164785Y-105949999D01*
X96963187Y-105949999D01*
X97014673Y-105881821D01*
X97105582Y-105699250D01*
X97161397Y-105503083D01*
X97180215Y-105300000D01*
X97161397Y-105096917D01*
X97105582Y-104900750D01*
X97098723Y-104886976D01*
X97061272Y-104811764D01*
X97014673Y-104718179D01*
X96891764Y-104555421D01*
X96891762Y-104555418D01*
X96741041Y-104418019D01*
X96741039Y-104418017D01*
X96567642Y-104310655D01*
X96567635Y-104310651D01*
X96453321Y-104266366D01*
X96377456Y-104236976D01*
X96176976Y-104199500D01*
X95973024Y-104199500D01*
X95772544Y-104236976D01*
X95772541Y-104236976D01*
X95772541Y-104236977D01*
X95582364Y-104310651D01*
X95582357Y-104310655D01*
X95408960Y-104418017D01*
X95408958Y-104418019D01*
X95258237Y-104555418D01*
X95135327Y-104718178D01*
X95044422Y-104900739D01*
X95044417Y-104900752D01*
X94988602Y-105096917D01*
X94969785Y-105299999D01*
X94640215Y-105299999D01*
X94621397Y-105096917D01*
X94565582Y-104900750D01*
X94558723Y-104886976D01*
X94521272Y-104811764D01*
X94474673Y-104718179D01*
X94351764Y-104555421D01*
X94351762Y-104555418D01*
X94201041Y-104418019D01*
X94201039Y-104418017D01*
X94027642Y-104310655D01*
X94027635Y-104310651D01*
X93946715Y-104279303D01*
X93891313Y-104236730D01*
X93867723Y-104170963D01*
X93883434Y-104102883D01*
X93933458Y-104054104D01*
X93959417Y-104043901D01*
X93998481Y-104033434D01*
X93998492Y-104033429D01*
X94212578Y-103933600D01*
X94406082Y-103798105D01*
X94573105Y-103631082D01*
X94708600Y-103437577D01*
X94708601Y-103437575D01*
X94738118Y-103374277D01*
X94784290Y-103321837D01*
X94851483Y-103302685D01*
X94918364Y-103322900D01*
X94963699Y-103376065D01*
X94974500Y-103426681D01*
X94974500Y-103634678D01*
X94989032Y-103707735D01*
X94989033Y-103707739D01*
X94989034Y-103707740D01*
X95044399Y-103790601D01*
X95127260Y-103845966D01*
X95127264Y-103845967D01*
X95200321Y-103860499D01*
X95200324Y-103860500D01*
X95200326Y-103860500D01*
X96949676Y-103860500D01*
X96949677Y-103860499D01*
X97022740Y-103845966D01*
X97105601Y-103790601D01*
X97160966Y-103707740D01*
X97175500Y-103634674D01*
X97175500Y-103409999D01*
X127164785Y-103409999D01*
X127164785Y-103410000D01*
X127183602Y-103613082D01*
X127239417Y-103809247D01*
X127239422Y-103809260D01*
X127330327Y-103991821D01*
X127453237Y-104154581D01*
X127603958Y-104291980D01*
X127603960Y-104291982D01*
X127703141Y-104353392D01*
X127777363Y-104399348D01*
X127967544Y-104473024D01*
X128168024Y-104510500D01*
X128168026Y-104510500D01*
X128371974Y-104510500D01*
X128371976Y-104510500D01*
X128572456Y-104473024D01*
X128762637Y-104399348D01*
X128936041Y-104291981D01*
X129086764Y-104154579D01*
X129209673Y-103991821D01*
X129300582Y-103809250D01*
X129356397Y-103613083D01*
X129375215Y-103410000D01*
X129375215Y-103409999D01*
X129704785Y-103409999D01*
X129704785Y-103410000D01*
X129723602Y-103613082D01*
X129779417Y-103809247D01*
X129779422Y-103809260D01*
X129870327Y-103991821D01*
X129993237Y-104154581D01*
X130143958Y-104291980D01*
X130143960Y-104291982D01*
X130243141Y-104353392D01*
X130317363Y-104399348D01*
X130507544Y-104473024D01*
X130708024Y-104510500D01*
X130708026Y-104510500D01*
X130911974Y-104510500D01*
X130911976Y-104510500D01*
X131112456Y-104473024D01*
X131302637Y-104399348D01*
X131476041Y-104291981D01*
X131626764Y-104154579D01*
X131749673Y-103991821D01*
X131840582Y-103809250D01*
X131896397Y-103613083D01*
X131915215Y-103410000D01*
X131896397Y-103206917D01*
X131840582Y-103010750D01*
X131749673Y-102828179D01*
X131626764Y-102665421D01*
X131626762Y-102665418D01*
X131476041Y-102528019D01*
X131476039Y-102528017D01*
X131302642Y-102420655D01*
X131302635Y-102420651D01*
X131207546Y-102383814D01*
X131112456Y-102346976D01*
X130911976Y-102309500D01*
X130708024Y-102309500D01*
X130507544Y-102346976D01*
X130507541Y-102346976D01*
X130507541Y-102346977D01*
X130317364Y-102420651D01*
X130317357Y-102420655D01*
X130143960Y-102528017D01*
X130143958Y-102528019D01*
X129993237Y-102665418D01*
X129870327Y-102828178D01*
X129779422Y-103010739D01*
X129779417Y-103010752D01*
X129723602Y-103206917D01*
X129704785Y-103409999D01*
X129375215Y-103409999D01*
X129356397Y-103206917D01*
X129300582Y-103010750D01*
X129209673Y-102828179D01*
X129086764Y-102665421D01*
X129086762Y-102665418D01*
X128936041Y-102528019D01*
X128936039Y-102528017D01*
X128762642Y-102420655D01*
X128762635Y-102420651D01*
X128667546Y-102383814D01*
X128572456Y-102346976D01*
X128371976Y-102309500D01*
X128168024Y-102309500D01*
X127967544Y-102346976D01*
X127967541Y-102346976D01*
X127967541Y-102346977D01*
X127777364Y-102420651D01*
X127777357Y-102420655D01*
X127603960Y-102528017D01*
X127603958Y-102528019D01*
X127453237Y-102665418D01*
X127330327Y-102828178D01*
X127239422Y-103010739D01*
X127239417Y-103010752D01*
X127183602Y-103206917D01*
X127164785Y-103409999D01*
X97175500Y-103409999D01*
X97175500Y-101885326D01*
X97175500Y-101885323D01*
X97175499Y-101885321D01*
X97160967Y-101812264D01*
X97160966Y-101812260D01*
X97105601Y-101729399D01*
X97022740Y-101674034D01*
X97022739Y-101674033D01*
X97022735Y-101674032D01*
X96949677Y-101659500D01*
X96949674Y-101659500D01*
X95200326Y-101659500D01*
X95200323Y-101659500D01*
X95127264Y-101674032D01*
X95127260Y-101674033D01*
X95044399Y-101729399D01*
X94989033Y-101812260D01*
X94989032Y-101812264D01*
X94974500Y-101885321D01*
X94974500Y-102093318D01*
X94954815Y-102160357D01*
X94902011Y-102206112D01*
X94832853Y-102216056D01*
X94769297Y-102187031D01*
X94738118Y-102145723D01*
X94708600Y-102082422D01*
X94708599Y-102082420D01*
X94573113Y-101888926D01*
X94573108Y-101888920D01*
X94406082Y-101721894D01*
X94212578Y-101586399D01*
X93998492Y-101486570D01*
X93998486Y-101486567D01*
X93785000Y-101429364D01*
X93785000Y-102326988D01*
X93727993Y-102294075D01*
X93600826Y-102260000D01*
X93469174Y-102260000D01*
X93342007Y-102294075D01*
X93285000Y-102326988D01*
X93285000Y-101429364D01*
X93284999Y-101429364D01*
X93071513Y-101486567D01*
X93071507Y-101486570D01*
X92857422Y-101586399D01*
X92857420Y-101586400D01*
X92663926Y-101721886D01*
X92663920Y-101721891D01*
X92496891Y-101888920D01*
X92496886Y-101888926D01*
X92361400Y-102082420D01*
X92361399Y-102082422D01*
X92261570Y-102296507D01*
X92261567Y-102296513D01*
X92204364Y-102509999D01*
X88300500Y-102509999D01*
X88300500Y-100869999D01*
X127164785Y-100869999D01*
X127164785Y-100870000D01*
X127183602Y-101073082D01*
X127239417Y-101269247D01*
X127239422Y-101269260D01*
X127330327Y-101451821D01*
X127453237Y-101614581D01*
X127603958Y-101751980D01*
X127603960Y-101751982D01*
X127701313Y-101812260D01*
X127777363Y-101859348D01*
X127967544Y-101933024D01*
X128168024Y-101970500D01*
X128168026Y-101970500D01*
X128371974Y-101970500D01*
X128371976Y-101970500D01*
X128572456Y-101933024D01*
X128762637Y-101859348D01*
X128936041Y-101751981D01*
X129086764Y-101614579D01*
X129209673Y-101451821D01*
X129300582Y-101269250D01*
X129356397Y-101073083D01*
X129375215Y-100870000D01*
X129375215Y-100869999D01*
X129704785Y-100869999D01*
X129704785Y-100870000D01*
X129723602Y-101073082D01*
X129779417Y-101269247D01*
X129779422Y-101269260D01*
X129870327Y-101451821D01*
X129993237Y-101614581D01*
X130143958Y-101751980D01*
X130143960Y-101751982D01*
X130241313Y-101812260D01*
X130317363Y-101859348D01*
X130507544Y-101933024D01*
X130708024Y-101970500D01*
X130708026Y-101970500D01*
X130911974Y-101970500D01*
X130911976Y-101970500D01*
X131112456Y-101933024D01*
X131302637Y-101859348D01*
X131476041Y-101751981D01*
X131626764Y-101614579D01*
X131749673Y-101451821D01*
X131840582Y-101269250D01*
X131896397Y-101073083D01*
X131915215Y-100870000D01*
X131896397Y-100666917D01*
X131840582Y-100470750D01*
X131749673Y-100288179D01*
X131626764Y-100125421D01*
X131626762Y-100125418D01*
X131476041Y-99988019D01*
X131476039Y-99988017D01*
X131302642Y-99880655D01*
X131302635Y-99880651D01*
X131207546Y-99843814D01*
X131112456Y-99806976D01*
X130911976Y-99769500D01*
X130708024Y-99769500D01*
X130507544Y-99806976D01*
X130507541Y-99806976D01*
X130507541Y-99806977D01*
X130317364Y-99880651D01*
X130317357Y-99880655D01*
X130143960Y-99988017D01*
X130143958Y-99988019D01*
X129993237Y-100125418D01*
X129870327Y-100288178D01*
X129779422Y-100470739D01*
X129779417Y-100470752D01*
X129723602Y-100666917D01*
X129704785Y-100869999D01*
X129375215Y-100869999D01*
X129356397Y-100666917D01*
X129300582Y-100470750D01*
X129209673Y-100288179D01*
X129086764Y-100125421D01*
X129086762Y-100125418D01*
X128936041Y-99988019D01*
X128936039Y-99988017D01*
X128762642Y-99880655D01*
X128762635Y-99880651D01*
X128667546Y-99843814D01*
X128572456Y-99806976D01*
X128371976Y-99769500D01*
X128168024Y-99769500D01*
X127967544Y-99806976D01*
X127967541Y-99806976D01*
X127967541Y-99806977D01*
X127777364Y-99880651D01*
X127777357Y-99880655D01*
X127603960Y-99988017D01*
X127603958Y-99988019D01*
X127453237Y-100125418D01*
X127330327Y-100288178D01*
X127239422Y-100470739D01*
X127239417Y-100470752D01*
X127183602Y-100666917D01*
X127164785Y-100869999D01*
X88300500Y-100869999D01*
X88300500Y-98329999D01*
X127164785Y-98329999D01*
X127164785Y-98330000D01*
X127183602Y-98533082D01*
X127239417Y-98729247D01*
X127239422Y-98729260D01*
X127330327Y-98911821D01*
X127453237Y-99074581D01*
X127603958Y-99211980D01*
X127603960Y-99211982D01*
X127703141Y-99273392D01*
X127777363Y-99319348D01*
X127967544Y-99393024D01*
X128168024Y-99430500D01*
X128168026Y-99430500D01*
X128371974Y-99430500D01*
X128371976Y-99430500D01*
X128572456Y-99393024D01*
X128762637Y-99319348D01*
X128936041Y-99211981D01*
X129086764Y-99074579D01*
X129209673Y-98911821D01*
X129300582Y-98729250D01*
X129356397Y-98533083D01*
X129375215Y-98330000D01*
X129375215Y-98329999D01*
X129704785Y-98329999D01*
X129704785Y-98330000D01*
X129723602Y-98533082D01*
X129779417Y-98729247D01*
X129779422Y-98729260D01*
X129870327Y-98911821D01*
X129993237Y-99074581D01*
X130143958Y-99211980D01*
X130143960Y-99211982D01*
X130243141Y-99273392D01*
X130317363Y-99319348D01*
X130507544Y-99393024D01*
X130708024Y-99430500D01*
X130708026Y-99430500D01*
X130911974Y-99430500D01*
X130911976Y-99430500D01*
X131112456Y-99393024D01*
X131302637Y-99319348D01*
X131476041Y-99211981D01*
X131626764Y-99074579D01*
X131749673Y-98911821D01*
X131840582Y-98729250D01*
X131896397Y-98533083D01*
X131915215Y-98330000D01*
X131896397Y-98126917D01*
X131840582Y-97930750D01*
X131749673Y-97748179D01*
X131626764Y-97585421D01*
X131626762Y-97585418D01*
X131476041Y-97448019D01*
X131476039Y-97448017D01*
X131302642Y-97340655D01*
X131302635Y-97340651D01*
X131207546Y-97303814D01*
X131112456Y-97266976D01*
X130911976Y-97229500D01*
X130708024Y-97229500D01*
X130507544Y-97266976D01*
X130507541Y-97266976D01*
X130507541Y-97266977D01*
X130317364Y-97340651D01*
X130317357Y-97340655D01*
X130143960Y-97448017D01*
X130143958Y-97448019D01*
X129993237Y-97585418D01*
X129870327Y-97748178D01*
X129779422Y-97930739D01*
X129779417Y-97930752D01*
X129723602Y-98126917D01*
X129704785Y-98329999D01*
X129375215Y-98329999D01*
X129356397Y-98126917D01*
X129300582Y-97930750D01*
X129209673Y-97748179D01*
X129086764Y-97585421D01*
X129086762Y-97585418D01*
X128936041Y-97448019D01*
X128936039Y-97448017D01*
X128762642Y-97340655D01*
X128762635Y-97340651D01*
X128667546Y-97303814D01*
X128572456Y-97266976D01*
X128371976Y-97229500D01*
X128168024Y-97229500D01*
X127967544Y-97266976D01*
X127967541Y-97266976D01*
X127967541Y-97266977D01*
X127777364Y-97340651D01*
X127777357Y-97340655D01*
X127603960Y-97448017D01*
X127603958Y-97448019D01*
X127453237Y-97585418D01*
X127330327Y-97748178D01*
X127239422Y-97930739D01*
X127239417Y-97930752D01*
X127183602Y-98126917D01*
X127164785Y-98329999D01*
X88300500Y-98329999D01*
X88300500Y-97148322D01*
X97775001Y-97148322D01*
X97785144Y-97247607D01*
X97838452Y-97408481D01*
X97838457Y-97408492D01*
X97927424Y-97552728D01*
X97927427Y-97552732D01*
X98047267Y-97672572D01*
X98047271Y-97672575D01*
X98191507Y-97761542D01*
X98191518Y-97761547D01*
X98352393Y-97814855D01*
X98451683Y-97824999D01*
X99000000Y-97824999D01*
X99048308Y-97824999D01*
X99048322Y-97824998D01*
X99147607Y-97814855D01*
X99308481Y-97761547D01*
X99308492Y-97761542D01*
X99452728Y-97672575D01*
X99452732Y-97672572D01*
X99572572Y-97552732D01*
X99572575Y-97552728D01*
X99661542Y-97408492D01*
X99661547Y-97408481D01*
X99714855Y-97247606D01*
X99724999Y-97148322D01*
X99725000Y-97148309D01*
X99725000Y-97125000D01*
X99000000Y-97125000D01*
X99000000Y-97824999D01*
X98451683Y-97824999D01*
X98499999Y-97824998D01*
X98500000Y-97824998D01*
X98500000Y-97125000D01*
X97775001Y-97125000D01*
X97775001Y-97148322D01*
X88300500Y-97148322D01*
X88300500Y-96047844D01*
X91900000Y-96047844D01*
X91906401Y-96107372D01*
X91906403Y-96107379D01*
X91956645Y-96242086D01*
X91956649Y-96242093D01*
X92042809Y-96357187D01*
X92042812Y-96357190D01*
X92157906Y-96443350D01*
X92157913Y-96443354D01*
X92292620Y-96493596D01*
X92292627Y-96493598D01*
X92352155Y-96499999D01*
X92352172Y-96500000D01*
X92675000Y-96500000D01*
X93175000Y-96500000D01*
X93497828Y-96500000D01*
X93497844Y-96499999D01*
X93557372Y-96493598D01*
X93557379Y-96493596D01*
X93692086Y-96443354D01*
X93692093Y-96443350D01*
X93807187Y-96357190D01*
X93807190Y-96357187D01*
X93893350Y-96242093D01*
X93893354Y-96242086D01*
X93943596Y-96107379D01*
X93943598Y-96107372D01*
X93949999Y-96047844D01*
X96050000Y-96047844D01*
X96056401Y-96107372D01*
X96056403Y-96107379D01*
X96106645Y-96242086D01*
X96106649Y-96242093D01*
X96192809Y-96357187D01*
X96192812Y-96357190D01*
X96307906Y-96443350D01*
X96307913Y-96443354D01*
X96442620Y-96493596D01*
X96442627Y-96493598D01*
X96502155Y-96499999D01*
X96502172Y-96500000D01*
X96825000Y-96500000D01*
X96825000Y-95925000D01*
X96050000Y-95925000D01*
X96050000Y-96047844D01*
X93949999Y-96047844D01*
X93950000Y-96047827D01*
X93950000Y-95925000D01*
X93175000Y-95925000D01*
X93175000Y-96500000D01*
X92675000Y-96500000D01*
X92675000Y-95925000D01*
X91900000Y-95925000D01*
X91900000Y-96047844D01*
X88300500Y-96047844D01*
X88300500Y-95302155D01*
X91900000Y-95302155D01*
X91900000Y-95425000D01*
X92675000Y-95425000D01*
X93175000Y-95425000D01*
X93950000Y-95425000D01*
X93950000Y-95302172D01*
X93949999Y-95302155D01*
X96050000Y-95302155D01*
X96050000Y-95425000D01*
X96825000Y-95425000D01*
X96825000Y-94850000D01*
X96502155Y-94850000D01*
X96442627Y-94856401D01*
X96442620Y-94856403D01*
X96307913Y-94906645D01*
X96307906Y-94906649D01*
X96192812Y-94992809D01*
X96192809Y-94992812D01*
X96106649Y-95107906D01*
X96106645Y-95107913D01*
X96056403Y-95242620D01*
X96056401Y-95242627D01*
X96050000Y-95302155D01*
X93949999Y-95302155D01*
X93943598Y-95242627D01*
X93943596Y-95242620D01*
X93893354Y-95107913D01*
X93893350Y-95107906D01*
X93807190Y-94992812D01*
X93807187Y-94992809D01*
X93692093Y-94906649D01*
X93692086Y-94906645D01*
X93557379Y-94856403D01*
X93557372Y-94856401D01*
X93497844Y-94850000D01*
X93175000Y-94850000D01*
X93175000Y-95425000D01*
X92675000Y-95425000D01*
X92675000Y-94850000D01*
X92352155Y-94850000D01*
X92292627Y-94856401D01*
X92292620Y-94856403D01*
X92157913Y-94906645D01*
X92157906Y-94906649D01*
X92042812Y-94992809D01*
X92042809Y-94992812D01*
X91956649Y-95107906D01*
X91956645Y-95107913D01*
X91906403Y-95242620D01*
X91906401Y-95242627D01*
X91900000Y-95302155D01*
X88300500Y-95302155D01*
X88300500Y-93175321D01*
X92149500Y-93175321D01*
X92149500Y-93874678D01*
X92164032Y-93947735D01*
X92164033Y-93947739D01*
X92164034Y-93947740D01*
X92219399Y-94030601D01*
X92295266Y-94081293D01*
X92302260Y-94085966D01*
X92302264Y-94085967D01*
X92375321Y-94100499D01*
X92375324Y-94100500D01*
X92375326Y-94100500D01*
X93474676Y-94100500D01*
X93474677Y-94100499D01*
X93547740Y-94085966D01*
X93630601Y-94030601D01*
X93685966Y-93947740D01*
X93700500Y-93874674D01*
X93700500Y-93849500D01*
X93720185Y-93782461D01*
X93772989Y-93736706D01*
X93824500Y-93725500D01*
X96175500Y-93725500D01*
X96242539Y-93745185D01*
X96288294Y-93797989D01*
X96299500Y-93849500D01*
X96299500Y-93874678D01*
X96314032Y-93947735D01*
X96314033Y-93947739D01*
X96314034Y-93947740D01*
X96369399Y-94030601D01*
X96445266Y-94081293D01*
X96452260Y-94085966D01*
X96452264Y-94085967D01*
X96525321Y-94100499D01*
X96525324Y-94100500D01*
X96525326Y-94100500D01*
X97624676Y-94100500D01*
X97624677Y-94100499D01*
X97697740Y-94085966D01*
X97698571Y-94085410D01*
X97700658Y-94084756D01*
X97709021Y-94081293D01*
X97709330Y-94082041D01*
X97765246Y-94064530D01*
X97832627Y-94083012D01*
X97855145Y-94100828D01*
X97894516Y-94140198D01*
X97894531Y-94140212D01*
X97959788Y-94205469D01*
X97977800Y-94215868D01*
X98002760Y-94230280D01*
X98050975Y-94280847D01*
X98057800Y-94296710D01*
X98072207Y-94337882D01*
X98152849Y-94447148D01*
X98152851Y-94447151D01*
X98233035Y-94506329D01*
X98275286Y-94561976D01*
X98280745Y-94631632D01*
X98247678Y-94693182D01*
X98233713Y-94705365D01*
X98160315Y-94760310D01*
X98078372Y-94869772D01*
X98073934Y-94881673D01*
X98032061Y-94937606D01*
X97966596Y-94962021D01*
X97898324Y-94947168D01*
X97883442Y-94937604D01*
X97842088Y-94906646D01*
X97842086Y-94906645D01*
X97707379Y-94856403D01*
X97707372Y-94856401D01*
X97647844Y-94850000D01*
X97325000Y-94850000D01*
X97325000Y-96500000D01*
X97651000Y-96500000D01*
X97718039Y-96519685D01*
X97763794Y-96572489D01*
X97775000Y-96624000D01*
X97775000Y-96625000D01*
X99724999Y-96625000D01*
X99724999Y-96601692D01*
X99724998Y-96601677D01*
X99714855Y-96502392D01*
X99661547Y-96341518D01*
X99661542Y-96341507D01*
X99572575Y-96197271D01*
X99572572Y-96197267D01*
X99452732Y-96077427D01*
X99452728Y-96077424D01*
X99394730Y-96041650D01*
X99348005Y-95989702D01*
X99336784Y-95920739D01*
X99360558Y-95861805D01*
X99414312Y-95789999D01*
X127164785Y-95789999D01*
X127164785Y-95790000D01*
X127183602Y-95993082D01*
X127239417Y-96189247D01*
X127239422Y-96189260D01*
X127330327Y-96371821D01*
X127453237Y-96534581D01*
X127603958Y-96671980D01*
X127603960Y-96671982D01*
X127703141Y-96733392D01*
X127777363Y-96779348D01*
X127967544Y-96853024D01*
X128168024Y-96890500D01*
X128168026Y-96890500D01*
X128371974Y-96890500D01*
X128371976Y-96890500D01*
X128572456Y-96853024D01*
X128762637Y-96779348D01*
X128936041Y-96671981D01*
X129086764Y-96534579D01*
X129209673Y-96371821D01*
X129300582Y-96189250D01*
X129356397Y-95993083D01*
X129375215Y-95790000D01*
X129375215Y-95789999D01*
X129704785Y-95789999D01*
X129704785Y-95790000D01*
X129723602Y-95993082D01*
X129779417Y-96189247D01*
X129779422Y-96189260D01*
X129870327Y-96371821D01*
X129993237Y-96534581D01*
X130143958Y-96671980D01*
X130143960Y-96671982D01*
X130243141Y-96733392D01*
X130317363Y-96779348D01*
X130507544Y-96853024D01*
X130708024Y-96890500D01*
X130708026Y-96890500D01*
X130911974Y-96890500D01*
X130911976Y-96890500D01*
X131112456Y-96853024D01*
X131302637Y-96779348D01*
X131476041Y-96671981D01*
X131626764Y-96534579D01*
X131749673Y-96371821D01*
X131840582Y-96189250D01*
X131896397Y-95993083D01*
X131915215Y-95790000D01*
X131896397Y-95586917D01*
X131840582Y-95390750D01*
X131749673Y-95208179D01*
X131633632Y-95054516D01*
X131626762Y-95045418D01*
X131476041Y-94908019D01*
X131476039Y-94908017D01*
X131302642Y-94800655D01*
X131302635Y-94800651D01*
X131198502Y-94760310D01*
X131112456Y-94726976D01*
X130911976Y-94689500D01*
X130708024Y-94689500D01*
X130507544Y-94726976D01*
X130507541Y-94726976D01*
X130507541Y-94726977D01*
X130317364Y-94800651D01*
X130317357Y-94800655D01*
X130143960Y-94908017D01*
X130143958Y-94908019D01*
X129993237Y-95045418D01*
X129870327Y-95208178D01*
X129779422Y-95390739D01*
X129779417Y-95390752D01*
X129723602Y-95586917D01*
X129704785Y-95789999D01*
X129375215Y-95789999D01*
X129356397Y-95586917D01*
X129300582Y-95390750D01*
X129209673Y-95208179D01*
X129093632Y-95054516D01*
X129086762Y-95045418D01*
X128936041Y-94908019D01*
X128936039Y-94908017D01*
X128762642Y-94800655D01*
X128762635Y-94800651D01*
X128658502Y-94760310D01*
X128572456Y-94726976D01*
X128371976Y-94689500D01*
X128168024Y-94689500D01*
X127967544Y-94726976D01*
X127967541Y-94726976D01*
X127967541Y-94726977D01*
X127777364Y-94800651D01*
X127777357Y-94800655D01*
X127603960Y-94908017D01*
X127603958Y-94908019D01*
X127453237Y-95045418D01*
X127330327Y-95208178D01*
X127239422Y-95390739D01*
X127239417Y-95390752D01*
X127183602Y-95586917D01*
X127164785Y-95789999D01*
X99414312Y-95789999D01*
X99421628Y-95780226D01*
X99469412Y-95652114D01*
X99471687Y-95630944D01*
X99475499Y-95595501D01*
X99475499Y-95595494D01*
X99475500Y-95595485D01*
X99475499Y-95054516D01*
X99469412Y-94997886D01*
X99467519Y-94992812D01*
X99435382Y-94906649D01*
X99421628Y-94869774D01*
X99339687Y-94760313D01*
X99266285Y-94705365D01*
X99224415Y-94649432D01*
X99219431Y-94579740D01*
X99252916Y-94518417D01*
X99266950Y-94506339D01*
X99347150Y-94447150D01*
X99427793Y-94337882D01*
X99427793Y-94337881D01*
X99433311Y-94330405D01*
X99435285Y-94331862D01*
X99474580Y-94291485D01*
X99535480Y-94275500D01*
X99671142Y-94275500D01*
X99671144Y-94275500D01*
X99760288Y-94251614D01*
X99781533Y-94239348D01*
X99840212Y-94205470D01*
X100280470Y-93765212D01*
X100326614Y-93685288D01*
X100330514Y-93670734D01*
X100350500Y-93596144D01*
X100350500Y-92614350D01*
X100370185Y-92547311D01*
X100392271Y-92521536D01*
X100490483Y-92434530D01*
X100580220Y-92304523D01*
X100636237Y-92156818D01*
X100655278Y-92000000D01*
X100654538Y-91993901D01*
X100636237Y-91843181D01*
X100606765Y-91765470D01*
X100580220Y-91695477D01*
X100490483Y-91565470D01*
X100372240Y-91460717D01*
X100372238Y-91460716D01*
X100372237Y-91460715D01*
X100232365Y-91387303D01*
X100078986Y-91349500D01*
X100078985Y-91349500D01*
X99921015Y-91349500D01*
X99921014Y-91349500D01*
X99767634Y-91387303D01*
X99627762Y-91460715D01*
X99509516Y-91565471D01*
X99441736Y-91663667D01*
X99387453Y-91707658D01*
X99318004Y-91715317D01*
X99266054Y-91692998D01*
X99237885Y-91672209D01*
X99237880Y-91672206D01*
X99109700Y-91627353D01*
X99079270Y-91624500D01*
X99079266Y-91624500D01*
X98420734Y-91624500D01*
X98420730Y-91624500D01*
X98390300Y-91627353D01*
X98390298Y-91627353D01*
X98262119Y-91672206D01*
X98262113Y-91672209D01*
X98224093Y-91700270D01*
X98158464Y-91724241D01*
X98150460Y-91724500D01*
X96566264Y-91724500D01*
X96499225Y-91704815D01*
X96484038Y-91693316D01*
X96447240Y-91660717D01*
X96447238Y-91660715D01*
X96307365Y-91587303D01*
X96153986Y-91549500D01*
X96153985Y-91549500D01*
X95996015Y-91549500D01*
X95996014Y-91549500D01*
X95842634Y-91587303D01*
X95702762Y-91660715D01*
X95584516Y-91765471D01*
X95494781Y-91895475D01*
X95494780Y-91895476D01*
X95438762Y-92043181D01*
X95419722Y-92199999D01*
X95419722Y-92200000D01*
X95438762Y-92356818D01*
X95494780Y-92504523D01*
X95584517Y-92634530D01*
X95644740Y-92687882D01*
X95702762Y-92739285D01*
X95800732Y-92790704D01*
X95850945Y-92839289D01*
X95866919Y-92907308D01*
X95843584Y-92973165D01*
X95788347Y-93015952D01*
X95743106Y-93024500D01*
X93675850Y-93024500D01*
X93608811Y-93004815D01*
X93606960Y-93003603D01*
X93547739Y-92964033D01*
X93547735Y-92964032D01*
X93474677Y-92949500D01*
X93474674Y-92949500D01*
X92375326Y-92949500D01*
X92375323Y-92949500D01*
X92302264Y-92964032D01*
X92302260Y-92964033D01*
X92219399Y-93019399D01*
X92164033Y-93102260D01*
X92164032Y-93102264D01*
X92149500Y-93175321D01*
X88300500Y-93175321D01*
X88300500Y-90148322D01*
X97775001Y-90148322D01*
X97785144Y-90247607D01*
X97838452Y-90408481D01*
X97838457Y-90408492D01*
X97927424Y-90552728D01*
X97927427Y-90552732D01*
X98047267Y-90672572D01*
X98047271Y-90672575D01*
X98191507Y-90761542D01*
X98191518Y-90761547D01*
X98352393Y-90814855D01*
X98451683Y-90824999D01*
X99000000Y-90824999D01*
X99048308Y-90824999D01*
X99048322Y-90824998D01*
X99147607Y-90814855D01*
X99308481Y-90761547D01*
X99308492Y-90761542D01*
X99392057Y-90709998D01*
X126914843Y-90709998D01*
X126914843Y-90710001D01*
X126935430Y-90945315D01*
X126935432Y-90945326D01*
X126996566Y-91173483D01*
X126996570Y-91173492D01*
X127096398Y-91387576D01*
X127155073Y-91471372D01*
X127787037Y-90839408D01*
X127804075Y-90902993D01*
X127869901Y-91017007D01*
X127962993Y-91110099D01*
X128077007Y-91175925D01*
X128140591Y-91192962D01*
X127508626Y-91824926D01*
X127592417Y-91883598D01*
X127592421Y-91883600D01*
X127806507Y-91983429D01*
X127806516Y-91983433D01*
X127845583Y-91993901D01*
X127905244Y-92030266D01*
X127935773Y-92093113D01*
X127927479Y-92162488D01*
X127882993Y-92216366D01*
X127858284Y-92229302D01*
X127777373Y-92260647D01*
X127777357Y-92260655D01*
X127603960Y-92368017D01*
X127603958Y-92368019D01*
X127453237Y-92505418D01*
X127330327Y-92668178D01*
X127239422Y-92850739D01*
X127239417Y-92850752D01*
X127183602Y-93046917D01*
X127164785Y-93249999D01*
X127164785Y-93250000D01*
X127183602Y-93453082D01*
X127239417Y-93649247D01*
X127239422Y-93649260D01*
X127330327Y-93831821D01*
X127453237Y-93994581D01*
X127603958Y-94131980D01*
X127603960Y-94131982D01*
X127703141Y-94193392D01*
X127777363Y-94239348D01*
X127967544Y-94313024D01*
X128168024Y-94350500D01*
X128168026Y-94350500D01*
X128371974Y-94350500D01*
X128371976Y-94350500D01*
X128572456Y-94313024D01*
X128762637Y-94239348D01*
X128936041Y-94131981D01*
X129086764Y-93994579D01*
X129209673Y-93831821D01*
X129300582Y-93649250D01*
X129356397Y-93453083D01*
X129375215Y-93250000D01*
X129375215Y-93249999D01*
X129704785Y-93249999D01*
X129704785Y-93250000D01*
X129723602Y-93453082D01*
X129779417Y-93649247D01*
X129779422Y-93649260D01*
X129870327Y-93831821D01*
X129993237Y-93994581D01*
X130143958Y-94131980D01*
X130143960Y-94131982D01*
X130243141Y-94193392D01*
X130317363Y-94239348D01*
X130507544Y-94313024D01*
X130708024Y-94350500D01*
X130708026Y-94350500D01*
X130911974Y-94350500D01*
X130911976Y-94350500D01*
X131112456Y-94313024D01*
X131302637Y-94239348D01*
X131476041Y-94131981D01*
X131626764Y-93994579D01*
X131749673Y-93831821D01*
X131840582Y-93649250D01*
X131896397Y-93453083D01*
X131915215Y-93250000D01*
X131909927Y-93192937D01*
X131896397Y-93046917D01*
X131848276Y-92877792D01*
X131840582Y-92850750D01*
X131840074Y-92849730D01*
X131784005Y-92737128D01*
X131749673Y-92668179D01*
X131658398Y-92547311D01*
X131626762Y-92505418D01*
X131476041Y-92368019D01*
X131476039Y-92368017D01*
X131302642Y-92260655D01*
X131302635Y-92260651D01*
X131146072Y-92199999D01*
X131112456Y-92186976D01*
X130911976Y-92149500D01*
X130708024Y-92149500D01*
X130507544Y-92186976D01*
X130507541Y-92186976D01*
X130507541Y-92186977D01*
X130317364Y-92260651D01*
X130317357Y-92260655D01*
X130143960Y-92368017D01*
X130143958Y-92368019D01*
X129993237Y-92505418D01*
X129870327Y-92668178D01*
X129779422Y-92850739D01*
X129779417Y-92850752D01*
X129723602Y-93046917D01*
X129704785Y-93249999D01*
X129375215Y-93249999D01*
X129369927Y-93192937D01*
X129356397Y-93046917D01*
X129308276Y-92877792D01*
X129300582Y-92850750D01*
X129300074Y-92849730D01*
X129244005Y-92737128D01*
X129209673Y-92668179D01*
X129118398Y-92547311D01*
X129086762Y-92505418D01*
X128936041Y-92368019D01*
X128936039Y-92368017D01*
X128762642Y-92260655D01*
X128762635Y-92260651D01*
X128681715Y-92229303D01*
X128626313Y-92186730D01*
X128602723Y-92120963D01*
X128618434Y-92052883D01*
X128668458Y-92004104D01*
X128694417Y-91993901D01*
X128733481Y-91983434D01*
X128733492Y-91983429D01*
X128947580Y-91883599D01*
X129031371Y-91824925D01*
X128399408Y-91192962D01*
X128462993Y-91175925D01*
X128577007Y-91110099D01*
X128670099Y-91017007D01*
X128735925Y-90902993D01*
X128752962Y-90839408D01*
X129384925Y-91471371D01*
X129443599Y-91387580D01*
X129543429Y-91173492D01*
X129543431Y-91173489D01*
X129552406Y-91139992D01*
X129588770Y-91080331D01*
X129651616Y-91049800D01*
X129720992Y-91058094D01*
X129774871Y-91102578D01*
X129783182Y-91116811D01*
X129870327Y-91291821D01*
X129993237Y-91454581D01*
X130114878Y-91565470D01*
X130138827Y-91587303D01*
X130143958Y-91591980D01*
X130143960Y-91591982D01*
X130196479Y-91624500D01*
X130317363Y-91699348D01*
X130507544Y-91773024D01*
X130708024Y-91810500D01*
X130708026Y-91810500D01*
X130911974Y-91810500D01*
X130911976Y-91810500D01*
X131112456Y-91773024D01*
X131302637Y-91699348D01*
X131476041Y-91591981D01*
X131626764Y-91454579D01*
X131749673Y-91291821D01*
X131840582Y-91109250D01*
X131896397Y-90913083D01*
X131915215Y-90710000D01*
X131909115Y-90644174D01*
X131896397Y-90506917D01*
X131868389Y-90408481D01*
X131840582Y-90310750D01*
X131840159Y-90309901D01*
X131759696Y-90148309D01*
X131749673Y-90128179D01*
X131626764Y-89965421D01*
X131626762Y-89965418D01*
X131476041Y-89828019D01*
X131476039Y-89828017D01*
X131302642Y-89720655D01*
X131302635Y-89720651D01*
X131207546Y-89683814D01*
X131112456Y-89646976D01*
X130911976Y-89609500D01*
X130708024Y-89609500D01*
X130507544Y-89646976D01*
X130507541Y-89646976D01*
X130507541Y-89646977D01*
X130317364Y-89720651D01*
X130317357Y-89720655D01*
X130143960Y-89828017D01*
X130143958Y-89828019D01*
X129993237Y-89965418D01*
X129870327Y-90128178D01*
X129783182Y-90303188D01*
X129735679Y-90354425D01*
X129668016Y-90371846D01*
X129601676Y-90349920D01*
X129557721Y-90295609D01*
X129552407Y-90280008D01*
X129543434Y-90246518D01*
X129543429Y-90246507D01*
X129443601Y-90032424D01*
X129384925Y-89948626D01*
X128752962Y-90580590D01*
X128735925Y-90517007D01*
X128670099Y-90402993D01*
X128577007Y-90309901D01*
X128462993Y-90244075D01*
X128399409Y-90227037D01*
X129031372Y-89595073D01*
X128947576Y-89536398D01*
X128733492Y-89436570D01*
X128733483Y-89436566D01*
X128505326Y-89375432D01*
X128505315Y-89375430D01*
X128270002Y-89354843D01*
X128269998Y-89354843D01*
X128034684Y-89375430D01*
X128034673Y-89375432D01*
X127806516Y-89436566D01*
X127806507Y-89436570D01*
X127592423Y-89536399D01*
X127592421Y-89536400D01*
X127508627Y-89595073D01*
X127508626Y-89595073D01*
X128140591Y-90227037D01*
X128077007Y-90244075D01*
X127962993Y-90309901D01*
X127869901Y-90402993D01*
X127804075Y-90517007D01*
X127787037Y-90580590D01*
X127155073Y-89948626D01*
X127155073Y-89948627D01*
X127096400Y-90032421D01*
X127096399Y-90032423D01*
X126996570Y-90246507D01*
X126996566Y-90246516D01*
X126935432Y-90474673D01*
X126935430Y-90474684D01*
X126914843Y-90709998D01*
X99392057Y-90709998D01*
X99452728Y-90672575D01*
X99452732Y-90672572D01*
X99572572Y-90552732D01*
X99572575Y-90552728D01*
X99661542Y-90408492D01*
X99661547Y-90408481D01*
X99714855Y-90247606D01*
X99724999Y-90148322D01*
X99725000Y-90148309D01*
X99725000Y-90125000D01*
X99000000Y-90125000D01*
X99000000Y-90824999D01*
X98451683Y-90824999D01*
X98499999Y-90824998D01*
X98500000Y-90824998D01*
X98500000Y-90125000D01*
X97775001Y-90125000D01*
X97775001Y-90148322D01*
X88300500Y-90148322D01*
X88300500Y-89047844D01*
X91900000Y-89047844D01*
X91906401Y-89107372D01*
X91906403Y-89107379D01*
X91956645Y-89242086D01*
X91956649Y-89242093D01*
X92042809Y-89357187D01*
X92042812Y-89357190D01*
X92157906Y-89443350D01*
X92157913Y-89443354D01*
X92292620Y-89493596D01*
X92292627Y-89493598D01*
X92352155Y-89499999D01*
X92352172Y-89500000D01*
X92675000Y-89500000D01*
X93175000Y-89500000D01*
X93497828Y-89500000D01*
X93497844Y-89499999D01*
X93557372Y-89493598D01*
X93557379Y-89493596D01*
X93692086Y-89443354D01*
X93692093Y-89443350D01*
X93807187Y-89357190D01*
X93807190Y-89357187D01*
X93893350Y-89242093D01*
X93893354Y-89242086D01*
X93943596Y-89107379D01*
X93943598Y-89107372D01*
X93949999Y-89047844D01*
X96050000Y-89047844D01*
X96056401Y-89107372D01*
X96056403Y-89107379D01*
X96106645Y-89242086D01*
X96106649Y-89242093D01*
X96192809Y-89357187D01*
X96192812Y-89357190D01*
X96307906Y-89443350D01*
X96307913Y-89443354D01*
X96442620Y-89493596D01*
X96442627Y-89493598D01*
X96502155Y-89499999D01*
X96502172Y-89500000D01*
X96825000Y-89500000D01*
X96825000Y-88925000D01*
X96050000Y-88925000D01*
X96050000Y-89047844D01*
X93949999Y-89047844D01*
X93950000Y-89047827D01*
X93950000Y-88925000D01*
X93175000Y-88925000D01*
X93175000Y-89500000D01*
X92675000Y-89500000D01*
X92675000Y-88925000D01*
X91900000Y-88925000D01*
X91900000Y-89047844D01*
X88300500Y-89047844D01*
X88300500Y-88302155D01*
X91900000Y-88302155D01*
X91900000Y-88425000D01*
X92675000Y-88425000D01*
X93175000Y-88425000D01*
X93950000Y-88425000D01*
X93950000Y-88302172D01*
X93949999Y-88302155D01*
X96050000Y-88302155D01*
X96050000Y-88425000D01*
X96825000Y-88425000D01*
X96825000Y-87850000D01*
X96502155Y-87850000D01*
X96442627Y-87856401D01*
X96442620Y-87856403D01*
X96307913Y-87906645D01*
X96307906Y-87906649D01*
X96192812Y-87992809D01*
X96192809Y-87992812D01*
X96106649Y-88107906D01*
X96106645Y-88107913D01*
X96056403Y-88242620D01*
X96056401Y-88242627D01*
X96050000Y-88302155D01*
X93949999Y-88302155D01*
X93943598Y-88242627D01*
X93943596Y-88242620D01*
X93893354Y-88107913D01*
X93893350Y-88107906D01*
X93807190Y-87992812D01*
X93807187Y-87992809D01*
X93692093Y-87906649D01*
X93692086Y-87906645D01*
X93557379Y-87856403D01*
X93557372Y-87856401D01*
X93497844Y-87850000D01*
X93175000Y-87850000D01*
X93175000Y-88425000D01*
X92675000Y-88425000D01*
X92675000Y-87850000D01*
X92352155Y-87850000D01*
X92292627Y-87856401D01*
X92292620Y-87856403D01*
X92157913Y-87906645D01*
X92157906Y-87906649D01*
X92042812Y-87992809D01*
X92042809Y-87992812D01*
X91956649Y-88107906D01*
X91956645Y-88107913D01*
X91906403Y-88242620D01*
X91906401Y-88242627D01*
X91900000Y-88302155D01*
X88300500Y-88302155D01*
X88300500Y-86175321D01*
X92149500Y-86175321D01*
X92149500Y-86874678D01*
X92164032Y-86947735D01*
X92164033Y-86947739D01*
X92182405Y-86975235D01*
X92219399Y-87030601D01*
X92282855Y-87073000D01*
X92302260Y-87085966D01*
X92302264Y-87085967D01*
X92375321Y-87100499D01*
X92375324Y-87100500D01*
X92375326Y-87100500D01*
X93474676Y-87100500D01*
X93474677Y-87100499D01*
X93547740Y-87085966D01*
X93630601Y-87030601D01*
X93659630Y-86987155D01*
X93692752Y-86937585D01*
X93694756Y-86938924D01*
X93728030Y-86897640D01*
X93794325Y-86875579D01*
X93798744Y-86875500D01*
X96201256Y-86875500D01*
X96268295Y-86895185D01*
X96305846Y-86938521D01*
X96307248Y-86937585D01*
X96369398Y-87030600D01*
X96452260Y-87085966D01*
X96452264Y-87085967D01*
X96525321Y-87100499D01*
X96525324Y-87100500D01*
X96525326Y-87100500D01*
X97624676Y-87100500D01*
X97624677Y-87100499D01*
X97697740Y-87085966D01*
X97713562Y-87075393D01*
X97780240Y-87054516D01*
X97847620Y-87073000D01*
X97870134Y-87090815D01*
X97919531Y-87140212D01*
X97984788Y-87205469D01*
X97984790Y-87205470D01*
X97996430Y-87212191D01*
X98044645Y-87262758D01*
X98051471Y-87278623D01*
X98072207Y-87337882D01*
X98152850Y-87447150D01*
X98152851Y-87447151D01*
X98233035Y-87506329D01*
X98275286Y-87561976D01*
X98280745Y-87631632D01*
X98247678Y-87693182D01*
X98233713Y-87705365D01*
X98160315Y-87760310D01*
X98078372Y-87869772D01*
X98073934Y-87881673D01*
X98032061Y-87937606D01*
X97966596Y-87962021D01*
X97898324Y-87947168D01*
X97883442Y-87937604D01*
X97842088Y-87906646D01*
X97842086Y-87906645D01*
X97707379Y-87856403D01*
X97707372Y-87856401D01*
X97647844Y-87850000D01*
X97325000Y-87850000D01*
X97325000Y-89500000D01*
X97651000Y-89500000D01*
X97718039Y-89519685D01*
X97763794Y-89572489D01*
X97775000Y-89624000D01*
X97775000Y-89625000D01*
X99724999Y-89625000D01*
X99724999Y-89601692D01*
X99724998Y-89601677D01*
X99714855Y-89502392D01*
X99661547Y-89341518D01*
X99661542Y-89341507D01*
X99572575Y-89197271D01*
X99572572Y-89197267D01*
X99452732Y-89077427D01*
X99452728Y-89077424D01*
X99394730Y-89041650D01*
X99348005Y-88989702D01*
X99336784Y-88920739D01*
X99360558Y-88861805D01*
X99421628Y-88780226D01*
X99469412Y-88652114D01*
X99471687Y-88630944D01*
X99475499Y-88595501D01*
X99475499Y-88595494D01*
X99475500Y-88595485D01*
X99475499Y-88054516D01*
X99469412Y-87997886D01*
X99467519Y-87992812D01*
X99435382Y-87906649D01*
X99421628Y-87869774D01*
X99339687Y-87760313D01*
X99266285Y-87705365D01*
X99224415Y-87649432D01*
X99219431Y-87579740D01*
X99252916Y-87518417D01*
X99266950Y-87506339D01*
X99340462Y-87452085D01*
X99406091Y-87428116D01*
X99443764Y-87431459D01*
X99521015Y-87450500D01*
X99521017Y-87450500D01*
X99678985Y-87450500D01*
X99832365Y-87412696D01*
X99850077Y-87403400D01*
X99972240Y-87339283D01*
X100090483Y-87234530D01*
X100180220Y-87104523D01*
X100236237Y-86956818D01*
X100255278Y-86800000D01*
X100236237Y-86643182D01*
X100227443Y-86619995D01*
X100214992Y-86587164D01*
X100180220Y-86495477D01*
X100090483Y-86365470D01*
X99972240Y-86260717D01*
X99972238Y-86260716D01*
X99972237Y-86260715D01*
X99832365Y-86187303D01*
X99678986Y-86149500D01*
X99678985Y-86149500D01*
X99521015Y-86149500D01*
X99521014Y-86149500D01*
X99367634Y-86187303D01*
X99227760Y-86260716D01*
X99223933Y-86263358D01*
X99157578Y-86285239D01*
X99112551Y-86278351D01*
X99109704Y-86277355D01*
X99109694Y-86277353D01*
X99079270Y-86274500D01*
X99079266Y-86274500D01*
X98420734Y-86274500D01*
X98420730Y-86274500D01*
X98390303Y-86277353D01*
X98262117Y-86322207D01*
X98250602Y-86330705D01*
X98184971Y-86354672D01*
X98116802Y-86339352D01*
X98089293Y-86318611D01*
X98015213Y-86244531D01*
X98015208Y-86244527D01*
X97935290Y-86198387D01*
X97935289Y-86198386D01*
X97935288Y-86198386D01*
X97935285Y-86198385D01*
X97935282Y-86198384D01*
X97925047Y-86195641D01*
X97865388Y-86159274D01*
X97842036Y-86112965D01*
X97840640Y-86113544D01*
X97835966Y-86102260D01*
X97780601Y-86019399D01*
X97697740Y-85964034D01*
X97697739Y-85964033D01*
X97697735Y-85964032D01*
X97624677Y-85949500D01*
X97624674Y-85949500D01*
X96525326Y-85949500D01*
X96525323Y-85949500D01*
X96452264Y-85964032D01*
X96452260Y-85964033D01*
X96369398Y-86019399D01*
X96307248Y-86112415D01*
X96305243Y-86111075D01*
X96271970Y-86152360D01*
X96205675Y-86174421D01*
X96201256Y-86174500D01*
X93798744Y-86174500D01*
X93731705Y-86154815D01*
X93694153Y-86111478D01*
X93692752Y-86112415D01*
X93630601Y-86019399D01*
X93547739Y-85964033D01*
X93547735Y-85964032D01*
X93474677Y-85949500D01*
X93474674Y-85949500D01*
X92375326Y-85949500D01*
X92375323Y-85949500D01*
X92302264Y-85964032D01*
X92302260Y-85964033D01*
X92219399Y-86019399D01*
X92164033Y-86102260D01*
X92164032Y-86102264D01*
X92149500Y-86175321D01*
X88300500Y-86175321D01*
X88300500Y-80475915D01*
X93524500Y-80475915D01*
X93524500Y-81078204D01*
X93530509Y-81134084D01*
X93577662Y-81260507D01*
X93577664Y-81260510D01*
X93658528Y-81368532D01*
X93766550Y-81449396D01*
X93788583Y-81457613D01*
X93844517Y-81499483D01*
X93868935Y-81564947D01*
X93854084Y-81633221D01*
X93804680Y-81682627D01*
X93786209Y-81690836D01*
X93762119Y-81699266D01*
X93652850Y-81779910D01*
X93572207Y-81889177D01*
X93572206Y-81889179D01*
X93527353Y-82017358D01*
X93527353Y-82017360D01*
X93524500Y-82047790D01*
X93524500Y-82706329D01*
X93527353Y-82736759D01*
X93527353Y-82736761D01*
X93561565Y-82834530D01*
X93572207Y-82864942D01*
X93652850Y-82974210D01*
X93762118Y-83054853D01*
X93804845Y-83069804D01*
X93890299Y-83099706D01*
X93920730Y-83102560D01*
X93920734Y-83102560D01*
X94429270Y-83102560D01*
X94459699Y-83099706D01*
X94459701Y-83099706D01*
X94523790Y-83077279D01*
X94587882Y-83054853D01*
X94697150Y-82974210D01*
X94777793Y-82864942D01*
X94804886Y-82787515D01*
X94822646Y-82736761D01*
X94822646Y-82736759D01*
X94825500Y-82706329D01*
X94825500Y-82047790D01*
X94822646Y-82017360D01*
X94822646Y-82017358D01*
X94777793Y-81889179D01*
X94777792Y-81889177D01*
X94697150Y-81779910D01*
X94697147Y-81779908D01*
X94697146Y-81779906D01*
X94688363Y-81773424D01*
X94646114Y-81717775D01*
X94638000Y-81673656D01*
X94638000Y-81526774D01*
X94657685Y-81459735D01*
X94687690Y-81427507D01*
X94735515Y-81391706D01*
X94766472Y-81368532D01*
X94847336Y-81260510D01*
X94883818Y-81162698D01*
X94925689Y-81106764D01*
X94991153Y-81082347D01*
X95059426Y-81097199D01*
X95108832Y-81146604D01*
X95116182Y-81162698D01*
X95152662Y-81260507D01*
X95152664Y-81260510D01*
X95233528Y-81368532D01*
X95312310Y-81427507D01*
X95341549Y-81449395D01*
X95341552Y-81449397D01*
X95401044Y-81471586D01*
X95456978Y-81513457D01*
X95481395Y-81578921D01*
X95466544Y-81647194D01*
X95417139Y-81696600D01*
X95415659Y-81697395D01*
X95412120Y-81699265D01*
X95302850Y-81779910D01*
X95222207Y-81889177D01*
X95222206Y-81889179D01*
X95177353Y-82017358D01*
X95177353Y-82017360D01*
X95174500Y-82047790D01*
X95174500Y-82706329D01*
X95177353Y-82736759D01*
X95177353Y-82736761D01*
X95211565Y-82834530D01*
X95222207Y-82864942D01*
X95302850Y-82974210D01*
X95412118Y-83054853D01*
X95454845Y-83069804D01*
X95540299Y-83099706D01*
X95570730Y-83102560D01*
X95570734Y-83102560D01*
X96079270Y-83102560D01*
X96109699Y-83099706D01*
X96109701Y-83099706D01*
X96173790Y-83077279D01*
X96237882Y-83054853D01*
X96347150Y-82974210D01*
X96427793Y-82864942D01*
X96446806Y-82810603D01*
X96487527Y-82753829D01*
X96552480Y-82728082D01*
X96563847Y-82727560D01*
X96570601Y-82727560D01*
X96637640Y-82747245D01*
X96672650Y-82781119D01*
X96709517Y-82834530D01*
X96827760Y-82939283D01*
X96827762Y-82939284D01*
X96967634Y-83012696D01*
X97121014Y-83050500D01*
X97121015Y-83050500D01*
X97278985Y-83050500D01*
X97432365Y-83012696D01*
X97572240Y-82939283D01*
X97690483Y-82834530D01*
X97780220Y-82704523D01*
X97836237Y-82556818D01*
X97855278Y-82400000D01*
X97836237Y-82243182D01*
X97780220Y-82095477D01*
X97690483Y-81965470D01*
X97572240Y-81860717D01*
X97572238Y-81860716D01*
X97572237Y-81860715D01*
X97432365Y-81787303D01*
X97278986Y-81749500D01*
X97278985Y-81749500D01*
X97121015Y-81749500D01*
X97121014Y-81749500D01*
X96967634Y-81787303D01*
X96827762Y-81860715D01*
X96734300Y-81943514D01*
X96709517Y-81965470D01*
X96704319Y-81973000D01*
X96650040Y-82016989D01*
X96602270Y-82026560D01*
X96563847Y-82026560D01*
X96496808Y-82006875D01*
X96451053Y-81954071D01*
X96446812Y-81943531D01*
X96427793Y-81889178D01*
X96347150Y-81779910D01*
X96237882Y-81699267D01*
X96236585Y-81698813D01*
X96213790Y-81690836D01*
X96157015Y-81650113D01*
X96131270Y-81585159D01*
X96144728Y-81516598D01*
X96193117Y-81466197D01*
X96211413Y-81457615D01*
X96225773Y-81452258D01*
X96233448Y-81449397D01*
X96233448Y-81449396D01*
X96233450Y-81449396D01*
X96341472Y-81368532D01*
X96341474Y-81368529D01*
X96341477Y-81368527D01*
X96346130Y-81363875D01*
X96407454Y-81330393D01*
X96433807Y-81327560D01*
X98097673Y-81327560D01*
X98164712Y-81347245D01*
X98185354Y-81363879D01*
X98213181Y-81391706D01*
X98246666Y-81453029D01*
X98249500Y-81479387D01*
X98249500Y-83413780D01*
X98229815Y-83480819D01*
X98227552Y-83484217D01*
X98219780Y-83495476D01*
X98163762Y-83643181D01*
X98144722Y-83799999D01*
X98144722Y-83800000D01*
X98163762Y-83956817D01*
X98191442Y-84029800D01*
X98199500Y-84073772D01*
X98199500Y-84655823D01*
X98179815Y-84722862D01*
X98158617Y-84745477D01*
X98159420Y-84746280D01*
X98152851Y-84752848D01*
X98072207Y-84862117D01*
X98072206Y-84862119D01*
X98027353Y-84990298D01*
X98027353Y-84990300D01*
X98024500Y-85020730D01*
X98024500Y-85529269D01*
X98027353Y-85559699D01*
X98027353Y-85559701D01*
X98072206Y-85687880D01*
X98072207Y-85687882D01*
X98152850Y-85797150D01*
X98262118Y-85877793D01*
X98304845Y-85892744D01*
X98390299Y-85922646D01*
X98420730Y-85925500D01*
X98420734Y-85925500D01*
X99079270Y-85925500D01*
X99109699Y-85922646D01*
X99109701Y-85922646D01*
X99173790Y-85900219D01*
X99237882Y-85877793D01*
X99347150Y-85797150D01*
X99427793Y-85687882D01*
X99457530Y-85602898D01*
X99472646Y-85559701D01*
X99472646Y-85559699D01*
X99475500Y-85529269D01*
X99475500Y-85020730D01*
X99472646Y-84990300D01*
X99472646Y-84990298D01*
X99427793Y-84862119D01*
X99427792Y-84862117D01*
X99426023Y-84859720D01*
X99347150Y-84752850D01*
X99347148Y-84752849D01*
X99347148Y-84752848D01*
X99340580Y-84746280D01*
X99342407Y-84744452D01*
X99308614Y-84699940D01*
X99300500Y-84655823D01*
X99300500Y-84258657D01*
X99320185Y-84191618D01*
X99322450Y-84188217D01*
X99380219Y-84104524D01*
X99380220Y-84104523D01*
X99436237Y-83956818D01*
X99455278Y-83800000D01*
X99436237Y-83643182D01*
X99380220Y-83495477D01*
X99372448Y-83484217D01*
X99350567Y-83417862D01*
X99350500Y-83413780D01*
X99350500Y-81127527D01*
X99350500Y-81127525D01*
X99312984Y-80987515D01*
X99240510Y-80861985D01*
X98715075Y-80336550D01*
X98589545Y-80264076D01*
X98589546Y-80264076D01*
X98554542Y-80254697D01*
X98449535Y-80226560D01*
X98449532Y-80226560D01*
X96462000Y-80226560D01*
X96394961Y-80206875D01*
X96349206Y-80154071D01*
X96338000Y-80102560D01*
X96338000Y-78691887D01*
X96357685Y-78624848D01*
X96374319Y-78604206D01*
X96591706Y-78386819D01*
X96653029Y-78353334D01*
X96679387Y-78350500D01*
X124745613Y-78350500D01*
X124812652Y-78370185D01*
X124833294Y-78386819D01*
X125736063Y-79289588D01*
X125764324Y-79333298D01*
X125819780Y-79479523D01*
X125909517Y-79609530D01*
X126027760Y-79714283D01*
X126027762Y-79714284D01*
X126167634Y-79787696D01*
X126321014Y-79825500D01*
X126321015Y-79825500D01*
X126478985Y-79825500D01*
X126632365Y-79787696D01*
X126676172Y-79764703D01*
X126733798Y-79750500D01*
X129925500Y-79750500D01*
X129992539Y-79770185D01*
X130038294Y-79822989D01*
X130049500Y-79874500D01*
X130049500Y-80120613D01*
X130029815Y-80187652D01*
X130013181Y-80208294D01*
X127559491Y-82661983D01*
X127559490Y-82661985D01*
X127521330Y-82728082D01*
X127508388Y-82750498D01*
X127508387Y-82750499D01*
X127487017Y-82787512D01*
X127487016Y-82787513D01*
X127474419Y-82834528D01*
X127449500Y-82927525D01*
X127449500Y-82927527D01*
X127449500Y-88013780D01*
X127429815Y-88080819D01*
X127427552Y-88084217D01*
X127419780Y-88095476D01*
X127363762Y-88243181D01*
X127344722Y-88399999D01*
X127344722Y-88400000D01*
X127363762Y-88556818D01*
X127378427Y-88595485D01*
X127419780Y-88704523D01*
X127509517Y-88834530D01*
X127627760Y-88939283D01*
X127627762Y-88939284D01*
X127767634Y-89012696D01*
X127921014Y-89050500D01*
X127921015Y-89050500D01*
X128078985Y-89050500D01*
X128232365Y-89012696D01*
X128276176Y-88989702D01*
X128372240Y-88939283D01*
X128490483Y-88834530D01*
X128580220Y-88704523D01*
X128636237Y-88556818D01*
X128655278Y-88400000D01*
X128652884Y-88380279D01*
X128636237Y-88243181D01*
X128584936Y-88107913D01*
X128580220Y-88095477D01*
X128572448Y-88084217D01*
X128550567Y-88017862D01*
X128550500Y-88013780D01*
X128550500Y-86619995D01*
X131504451Y-86619995D01*
X131504451Y-86620004D01*
X131524616Y-86889101D01*
X131584664Y-87152188D01*
X131584666Y-87152195D01*
X131657543Y-87337882D01*
X131683257Y-87403398D01*
X131818185Y-87637102D01*
X131916443Y-87760313D01*
X131986442Y-87848089D01*
X132142414Y-87992809D01*
X132184259Y-88031635D01*
X132407226Y-88183651D01*
X132650359Y-88300738D01*
X132908228Y-88380280D01*
X132908229Y-88380280D01*
X132908232Y-88380281D01*
X133175063Y-88420499D01*
X133175068Y-88420499D01*
X133175071Y-88420500D01*
X133175072Y-88420500D01*
X133444928Y-88420500D01*
X133444929Y-88420500D01*
X133444936Y-88420499D01*
X133711767Y-88380281D01*
X133711768Y-88380280D01*
X133711772Y-88380280D01*
X133969641Y-88300738D01*
X134212775Y-88183651D01*
X134435741Y-88031635D01*
X134610188Y-87869772D01*
X134633557Y-87848089D01*
X134633557Y-87848087D01*
X134633561Y-87848085D01*
X134801815Y-87637102D01*
X134936743Y-87403398D01*
X135035334Y-87152195D01*
X135095383Y-86889103D01*
X135115549Y-86620000D01*
X135106217Y-86495476D01*
X135095383Y-86350898D01*
X135090774Y-86330705D01*
X135035334Y-86087805D01*
X134936743Y-85836602D01*
X134801815Y-85602898D01*
X134633561Y-85391915D01*
X134633560Y-85391914D01*
X134633557Y-85391910D01*
X134435741Y-85208365D01*
X134212775Y-85056349D01*
X134212769Y-85056346D01*
X134212768Y-85056345D01*
X134212767Y-85056344D01*
X133969643Y-84939263D01*
X133969645Y-84939263D01*
X133711773Y-84859720D01*
X133711767Y-84859718D01*
X133444936Y-84819500D01*
X133444929Y-84819500D01*
X133175071Y-84819500D01*
X133175063Y-84819500D01*
X132908232Y-84859718D01*
X132908226Y-84859720D01*
X132650358Y-84939262D01*
X132407230Y-85056346D01*
X132184258Y-85208365D01*
X131986442Y-85391910D01*
X131818185Y-85602898D01*
X131683258Y-85836599D01*
X131683256Y-85836603D01*
X131584666Y-86087804D01*
X131584664Y-86087811D01*
X131524616Y-86350898D01*
X131504451Y-86619995D01*
X128550500Y-86619995D01*
X128550500Y-83279387D01*
X128570185Y-83212348D01*
X128586819Y-83191706D01*
X129813056Y-81965469D01*
X131040510Y-80738015D01*
X131112984Y-80612485D01*
X131150500Y-80472475D01*
X131150500Y-79586219D01*
X131170185Y-79519180D01*
X131172434Y-79515802D01*
X131180220Y-79504523D01*
X131236237Y-79356818D01*
X131255278Y-79200000D01*
X131236237Y-79043182D01*
X131180220Y-78895477D01*
X131090483Y-78765470D01*
X130972240Y-78660717D01*
X130972238Y-78660716D01*
X130972237Y-78660715D01*
X130832365Y-78587303D01*
X130678986Y-78549500D01*
X130678985Y-78549500D01*
X130521015Y-78549500D01*
X130521014Y-78549500D01*
X130367636Y-78587303D01*
X130335431Y-78604206D01*
X130276194Y-78635296D01*
X130218569Y-78649500D01*
X126829065Y-78649500D01*
X126771439Y-78635296D01*
X126632366Y-78562304D01*
X126577626Y-78548812D01*
X126519620Y-78516096D01*
X125363016Y-77359491D01*
X125363015Y-77359490D01*
X125237485Y-77287016D01*
X125237486Y-77287016D01*
X125202482Y-77277637D01*
X125097475Y-77249500D01*
X96327525Y-77249500D01*
X96222517Y-77277637D01*
X96187514Y-77287016D01*
X96061986Y-77359489D01*
X96061983Y-77359491D01*
X95346991Y-78074483D01*
X95346989Y-78074486D01*
X95274516Y-78200014D01*
X95274516Y-78200015D01*
X95237000Y-78340025D01*
X95237000Y-78340027D01*
X95237000Y-80139678D01*
X95217315Y-80206717D01*
X95212267Y-80213988D01*
X95152666Y-80293605D01*
X95152662Y-80293612D01*
X95116182Y-80391421D01*
X95074311Y-80447355D01*
X95008846Y-80471772D01*
X94940573Y-80456920D01*
X94891168Y-80407515D01*
X94883818Y-80391421D01*
X94847337Y-80293612D01*
X94847335Y-80293609D01*
X94825227Y-80264076D01*
X94766472Y-80185588D01*
X94658450Y-80104724D01*
X94658447Y-80104722D01*
X94532024Y-80057569D01*
X94476144Y-80051560D01*
X94476130Y-80051560D01*
X93948870Y-80051560D01*
X93948855Y-80051560D01*
X93892975Y-80057569D01*
X93766552Y-80104722D01*
X93766549Y-80104724D01*
X93658528Y-80185588D01*
X93577664Y-80293609D01*
X93577662Y-80293612D01*
X93530509Y-80420035D01*
X93524500Y-80475915D01*
X88300500Y-80475915D01*
X88300500Y-69003480D01*
X88300695Y-68996527D01*
X88305661Y-68908096D01*
X88317084Y-68704691D01*
X88318638Y-68690898D01*
X88367015Y-68406167D01*
X88370109Y-68392615D01*
X88441563Y-68144596D01*
X88450061Y-68115096D01*
X88454653Y-68101975D01*
X88565175Y-67835151D01*
X88571195Y-67822651D01*
X88710902Y-67569868D01*
X88718297Y-67558100D01*
X88868749Y-67346058D01*
X88885422Y-67322559D01*
X88894077Y-67311705D01*
X89086534Y-67096346D01*
X89096346Y-67086534D01*
X89311705Y-66894077D01*
X89322559Y-66885422D01*
X89558105Y-66718293D01*
X89569868Y-66710902D01*
X89822651Y-66571195D01*
X89835151Y-66565175D01*
X90101979Y-66454651D01*
X90115096Y-66450061D01*
X90392621Y-66370107D01*
X90406167Y-66367015D01*
X90690898Y-66318638D01*
X90704691Y-66317084D01*
X90996528Y-66300695D01*
X91003481Y-66300500D01*
X91047595Y-66300500D01*
X91603389Y-66300500D01*
X91670428Y-66320185D01*
G37*
G04 #@! TD.AperFunction*
M02*
