G04 #@! TF.GenerationSoftware,KiCad,Pcbnew,8.0.7*
G04 #@! TF.CreationDate,2025-01-18T18:03:32+05:30*
G04 #@! TF.ProjectId,pico_ov7670_adapter,7069636f-5f6f-4763-9736-37305f616461,rev?*
G04 #@! TF.SameCoordinates,Original*
G04 #@! TF.FileFunction,Copper,L2,Bot*
G04 #@! TF.FilePolarity,Positive*
%FSLAX46Y46*%
G04 Gerber Fmt 4.6, Leading zero omitted, Abs format (unit mm)*
G04 Created by KiCad (PCBNEW 8.0.7) date 2025-01-18 18:03:32*
%MOMM*%
%LPD*%
G01*
G04 APERTURE LIST*
G04 Aperture macros list*
%AMRoundRect*
0 Rectangle with rounded corners*
0 $1 Rounding radius*
0 $2 $3 $4 $5 $6 $7 $8 $9 X,Y pos of 4 corners*
0 Add a 4 corners polygon primitive as box body*
4,1,4,$2,$3,$4,$5,$6,$7,$8,$9,$2,$3,0*
0 Add four circle primitives for the rounded corners*
1,1,$1+$1,$2,$3*
1,1,$1+$1,$4,$5*
1,1,$1+$1,$6,$7*
1,1,$1+$1,$8,$9*
0 Add four rect primitives between the rounded corners*
20,1,$1+$1,$2,$3,$4,$5,0*
20,1,$1+$1,$4,$5,$6,$7,0*
20,1,$1+$1,$6,$7,$8,$9,0*
20,1,$1+$1,$8,$9,$2,$3,0*%
G04 Aperture macros list end*
G04 #@! TA.AperFunction,SMDPad,CuDef*
%ADD10RoundRect,0.225000X-0.250000X0.225000X-0.250000X-0.225000X0.250000X-0.225000X0.250000X0.225000X0*%
G04 #@! TD*
G04 #@! TA.AperFunction,SMDPad,CuDef*
%ADD11R,1.050000X0.650000*%
G04 #@! TD*
G04 #@! TA.AperFunction,SMDPad,CuDef*
%ADD12RoundRect,0.200000X-0.275000X0.200000X-0.275000X-0.200000X0.275000X-0.200000X0.275000X0.200000X0*%
G04 #@! TD*
G04 #@! TA.AperFunction,SMDPad,CuDef*
%ADD13RoundRect,0.200000X-0.200000X-0.275000X0.200000X-0.275000X0.200000X0.275000X-0.200000X0.275000X0*%
G04 #@! TD*
G04 #@! TA.AperFunction,SMDPad,CuDef*
%ADD14RoundRect,0.218750X-0.218750X-0.256250X0.218750X-0.256250X0.218750X0.256250X-0.218750X0.256250X0*%
G04 #@! TD*
G04 #@! TA.AperFunction,ComponentPad*
%ADD15C,1.524000*%
G04 #@! TD*
G04 #@! TA.AperFunction,ComponentPad*
%ADD16R,1.524000X1.524000*%
G04 #@! TD*
G04 #@! TA.AperFunction,ComponentPad*
%ADD17R,1.700000X1.700000*%
G04 #@! TD*
G04 #@! TA.AperFunction,ComponentPad*
%ADD18O,1.700000X1.700000*%
G04 #@! TD*
G04 #@! TA.AperFunction,ViaPad*
%ADD19C,0.800000*%
G04 #@! TD*
G04 #@! TA.AperFunction,Conductor*
%ADD20C,0.200000*%
G04 #@! TD*
G04 #@! TA.AperFunction,Conductor*
%ADD21C,0.600000*%
G04 #@! TD*
G04 APERTURE END LIST*
D10*
X98750000Y-88325000D03*
X98750000Y-89875000D03*
D11*
X97075000Y-86525000D03*
X92925000Y-86525000D03*
X97075000Y-88675000D03*
X92925000Y-88675000D03*
X97075000Y-93525000D03*
X92925000Y-93525000D03*
X97075000Y-95675000D03*
X92925000Y-95675000D03*
D12*
X98750000Y-92275000D03*
X98750000Y-93925000D03*
D13*
X94175000Y-82377060D03*
X95825000Y-82377060D03*
D14*
X94212500Y-80777060D03*
X95787500Y-80777060D03*
D15*
X130810000Y-111030000D03*
X130810000Y-108490000D03*
X130810000Y-105950000D03*
X130810000Y-103410000D03*
X130810000Y-100870000D03*
X130810000Y-98330000D03*
X130810000Y-95790000D03*
X130810000Y-93250000D03*
D16*
X130810000Y-90710000D03*
D15*
X128270000Y-90710000D03*
X128270000Y-93250000D03*
X128270000Y-95790000D03*
X128270000Y-98330000D03*
X128270000Y-100870000D03*
X128270000Y-103410000D03*
X128270000Y-105950000D03*
X128270000Y-108490000D03*
X128270000Y-111030000D03*
D12*
X98750000Y-85275000D03*
X98750000Y-86925000D03*
D17*
X96075000Y-102760000D03*
D18*
X93535000Y-102760000D03*
X96075000Y-105300000D03*
X93535000Y-105300000D03*
X96075000Y-107840000D03*
X93535000Y-107840000D03*
D10*
X98750000Y-95325000D03*
X98750000Y-96875000D03*
D19*
X125500000Y-113500000D03*
X100000000Y-73000000D03*
X108000000Y-75500000D03*
X105500000Y-73000000D03*
X105500000Y-74500000D03*
X105000000Y-82000000D03*
X104500000Y-79500000D03*
X114000000Y-92000000D03*
X111000000Y-92000000D03*
X107500000Y-92000000D03*
X114000000Y-96000000D03*
X110000000Y-97500000D03*
X106000000Y-94500000D03*
X111000000Y-96000000D03*
X108500000Y-96000000D03*
X127000000Y-118000000D03*
X128000000Y-116500000D03*
X125500000Y-116500000D03*
X133000000Y-112500000D03*
X133000000Y-102500000D03*
X133000000Y-100000000D03*
X133000000Y-97500000D03*
X133000000Y-95000000D03*
X134000000Y-93000000D03*
X134000000Y-91000000D03*
X134000000Y-89000000D03*
X131000000Y-82500000D03*
X133500000Y-80000000D03*
X133500000Y-82500000D03*
X132000000Y-76500000D03*
X132000000Y-74500000D03*
X127500000Y-69000000D03*
X126000000Y-70500000D03*
X126000000Y-67500000D03*
X98500000Y-70500000D03*
X98500000Y-68000000D03*
X96500000Y-72000000D03*
X96500000Y-74500000D03*
X94500000Y-77500000D03*
X94500000Y-75500000D03*
X94500000Y-73500000D03*
X94000000Y-84500000D03*
X91500000Y-84500000D03*
X94000000Y-91000000D03*
X91500000Y-91000000D03*
X98500000Y-98500000D03*
X94500000Y-98500000D03*
X91500000Y-98500000D03*
X99000000Y-112500000D03*
X99000000Y-110500000D03*
X93000000Y-111500000D03*
X99000000Y-118000000D03*
X97500000Y-116500000D03*
X100000000Y-92000000D03*
X96075000Y-92200000D03*
X126400000Y-79175000D03*
X130600000Y-79200000D03*
X98800000Y-83800000D03*
X128000000Y-88400000D03*
X125400000Y-111200000D03*
X106400000Y-85500000D03*
X106000000Y-98400000D03*
X133000000Y-105000000D03*
X107600000Y-99400000D03*
X125000000Y-81000000D03*
X112000000Y-85500000D03*
X133000000Y-110000000D03*
X93200000Y-100200000D03*
X133000000Y-107500000D03*
X118600000Y-85600000D03*
X109200000Y-85500000D03*
X129400000Y-92000000D03*
X99600000Y-86800000D03*
X97200000Y-82400000D03*
D20*
X99625000Y-93925000D02*
X100000000Y-93550000D01*
X97775000Y-93525000D02*
X97075000Y-93525000D01*
X98175000Y-93925000D02*
X97775000Y-93525000D01*
X100000000Y-93550000D02*
X100000000Y-92000000D01*
X98750000Y-95325000D02*
X98750000Y-93925000D01*
X98750000Y-93925000D02*
X99625000Y-93925000D01*
X92925000Y-93375000D02*
X97075000Y-93375000D01*
X98750000Y-93925000D02*
X98175000Y-93925000D01*
D21*
X95787500Y-80777060D02*
X95787500Y-78412500D01*
X130600000Y-80400000D02*
X130600000Y-79200000D01*
X98800000Y-83800000D02*
X98800000Y-81200000D01*
X98750000Y-92275000D02*
X96150000Y-92275000D01*
X98750000Y-85275000D02*
X98750000Y-83850000D01*
X96150000Y-92275000D02*
X96075000Y-92200000D01*
X95787500Y-78412500D02*
X96400000Y-77800000D01*
X126425000Y-79200000D02*
X126400000Y-79175000D01*
X98800000Y-81200000D02*
X98377060Y-80777060D01*
X98377060Y-80777060D02*
X95787500Y-80777060D01*
X98750000Y-83850000D02*
X98800000Y-83800000D01*
X128000000Y-88400000D02*
X128000000Y-83000000D01*
X125025000Y-77800000D02*
X126400000Y-79175000D01*
X130600000Y-79200000D02*
X126425000Y-79200000D01*
X128000000Y-83000000D02*
X130600000Y-80400000D01*
X96400000Y-77800000D02*
X125025000Y-77800000D01*
D20*
X98750000Y-86925000D02*
X98200000Y-86925000D01*
X97800000Y-86525000D02*
X97075000Y-86525000D01*
X92925000Y-86525000D02*
X97075000Y-86525000D01*
X98200000Y-86925000D02*
X97800000Y-86525000D01*
X98750000Y-86925000D02*
X99475000Y-86925000D01*
X98750000Y-88325000D02*
X98750000Y-86925000D01*
X99475000Y-86925000D02*
X99600000Y-86800000D01*
X97177060Y-82377060D02*
X97200000Y-82400000D01*
X95825000Y-82377060D02*
X97177060Y-82377060D01*
X94287500Y-81712500D02*
X94287500Y-80777060D01*
X94175000Y-81825000D02*
X94287500Y-81712500D01*
X94175000Y-82377060D02*
X94175000Y-81825000D01*
G04 #@! TA.AperFunction,Conductor*
G36*
X130370044Y-66320185D02*
G01*
X130415799Y-66372989D01*
X130425743Y-66442147D01*
X130396718Y-66505703D01*
X130362986Y-66533028D01*
X130125336Y-66664372D01*
X130125331Y-66664375D01*
X129846061Y-66862529D01*
X129846053Y-66862535D01*
X129590719Y-67090716D01*
X129590716Y-67090719D01*
X129362535Y-67346053D01*
X129362529Y-67346061D01*
X129164375Y-67625331D01*
X129164372Y-67625336D01*
X128998722Y-67925057D01*
X128998720Y-67925061D01*
X128867676Y-68241433D01*
X128772877Y-68570486D01*
X128772875Y-68570494D01*
X128715516Y-68908088D01*
X128715514Y-68908100D01*
X128696314Y-69250000D01*
X128715514Y-69591899D01*
X128715516Y-69591911D01*
X128772875Y-69929505D01*
X128772877Y-69929513D01*
X128867676Y-70258566D01*
X128998720Y-70574938D01*
X128998722Y-70574942D01*
X129164372Y-70874663D01*
X129164375Y-70874668D01*
X129362529Y-71153938D01*
X129362535Y-71153946D01*
X129590716Y-71409280D01*
X129590719Y-71409283D01*
X129846053Y-71637464D01*
X129846061Y-71637470D01*
X130125331Y-71835624D01*
X130125336Y-71835627D01*
X130125339Y-71835628D01*
X130125341Y-71835630D01*
X130425055Y-72001276D01*
X130425057Y-72001277D01*
X130425061Y-72001279D01*
X130546301Y-72051497D01*
X130741431Y-72132323D01*
X131070491Y-72227124D01*
X131408096Y-72284485D01*
X131750000Y-72303686D01*
X132091904Y-72284485D01*
X132429509Y-72227124D01*
X132758569Y-72132323D01*
X133074945Y-72001276D01*
X133374659Y-71835630D01*
X133374664Y-71835626D01*
X133374668Y-71835624D01*
X133462703Y-71773159D01*
X133653942Y-71637468D01*
X133909282Y-71409282D01*
X134137468Y-71153942D01*
X134299122Y-70926112D01*
X134335624Y-70874668D01*
X134335627Y-70874663D01*
X134335630Y-70874659D01*
X134466972Y-70637012D01*
X134516629Y-70587860D01*
X134584977Y-70573357D01*
X134650316Y-70598107D01*
X134691901Y-70654253D01*
X134699500Y-70696994D01*
X134699500Y-84750457D01*
X134679815Y-84817496D01*
X134627011Y-84863251D01*
X134557853Y-84873195D01*
X134494297Y-84844170D01*
X134463302Y-84803255D01*
X134447397Y-84769456D01*
X134447396Y-84769455D01*
X134282507Y-84509630D01*
X134282504Y-84509626D01*
X134086345Y-84272510D01*
X133862014Y-84061850D01*
X133862013Y-84061849D01*
X133862005Y-84061842D01*
X133613060Y-83880973D01*
X133613042Y-83880962D01*
X133343375Y-83732711D01*
X133343367Y-83732707D01*
X133057252Y-83619426D01*
X133057249Y-83619425D01*
X132759183Y-83542895D01*
X132759170Y-83542893D01*
X132453880Y-83504326D01*
X132453869Y-83504326D01*
X132146131Y-83504326D01*
X132146119Y-83504326D01*
X131840829Y-83542893D01*
X131840816Y-83542895D01*
X131542750Y-83619425D01*
X131542747Y-83619426D01*
X131256632Y-83732707D01*
X131256624Y-83732711D01*
X130986957Y-83880962D01*
X130986939Y-83880973D01*
X130737994Y-84061842D01*
X130737984Y-84061851D01*
X130513657Y-84272508D01*
X130317492Y-84509630D01*
X130152603Y-84769455D01*
X130152599Y-84769461D01*
X130021575Y-85047900D01*
X130021573Y-85047905D01*
X129926478Y-85340578D01*
X129868812Y-85642873D01*
X129868811Y-85642880D01*
X129849490Y-85949994D01*
X129849490Y-85950005D01*
X129868811Y-86257119D01*
X129868812Y-86257126D01*
X129887420Y-86354672D01*
X129914279Y-86495475D01*
X129926478Y-86559421D01*
X130021573Y-86852094D01*
X130021575Y-86852099D01*
X130152599Y-87130538D01*
X130152603Y-87130544D01*
X130317492Y-87390369D01*
X130317495Y-87390373D01*
X130317496Y-87390374D01*
X130513655Y-87627490D01*
X130655098Y-87760313D01*
X130737984Y-87838148D01*
X130737994Y-87838157D01*
X130986939Y-88019026D01*
X130986945Y-88019029D01*
X130986951Y-88019034D01*
X131256624Y-88167288D01*
X131256632Y-88167292D01*
X131542747Y-88280573D01*
X131542750Y-88280574D01*
X131840816Y-88357104D01*
X131840820Y-88357105D01*
X131904865Y-88365195D01*
X132146119Y-88395673D01*
X132146128Y-88395673D01*
X132146131Y-88395674D01*
X132146133Y-88395674D01*
X132453867Y-88395674D01*
X132453869Y-88395674D01*
X132453872Y-88395673D01*
X132453880Y-88395673D01*
X132636061Y-88372658D01*
X132759180Y-88357105D01*
X133057249Y-88280574D01*
X133057252Y-88280573D01*
X133343367Y-88167292D01*
X133343371Y-88167289D01*
X133343376Y-88167288D01*
X133613049Y-88019034D01*
X133617314Y-88015934D01*
X133862005Y-87838157D01*
X133862007Y-87838154D01*
X133862014Y-87838150D01*
X134086345Y-87627490D01*
X134282504Y-87390374D01*
X134447398Y-87130542D01*
X134463302Y-87096745D01*
X134509657Y-87044467D01*
X134576917Y-87025550D01*
X134643727Y-87045999D01*
X134688876Y-87099323D01*
X134699500Y-87149542D01*
X134699500Y-114800457D01*
X134679815Y-114867496D01*
X134627011Y-114913251D01*
X134557853Y-114923195D01*
X134494297Y-114894170D01*
X134463302Y-114853255D01*
X134447397Y-114819456D01*
X134447396Y-114819455D01*
X134282507Y-114559630D01*
X134251653Y-114522334D01*
X134086345Y-114322510D01*
X133862014Y-114111850D01*
X133862013Y-114111849D01*
X133862005Y-114111842D01*
X133613060Y-113930973D01*
X133613042Y-113930962D01*
X133343375Y-113782711D01*
X133343367Y-113782707D01*
X133057252Y-113669426D01*
X133057249Y-113669425D01*
X132759183Y-113592895D01*
X132759170Y-113592893D01*
X132453880Y-113554326D01*
X132453869Y-113554326D01*
X132146131Y-113554326D01*
X132146119Y-113554326D01*
X131840829Y-113592893D01*
X131840816Y-113592895D01*
X131542750Y-113669425D01*
X131542747Y-113669426D01*
X131256632Y-113782707D01*
X131256624Y-113782711D01*
X130986957Y-113930962D01*
X130986939Y-113930973D01*
X130737994Y-114111842D01*
X130737984Y-114111851D01*
X130513657Y-114322508D01*
X130317492Y-114559630D01*
X130152603Y-114819455D01*
X130152599Y-114819461D01*
X130021575Y-115097900D01*
X130021573Y-115097905D01*
X129926478Y-115390578D01*
X129868812Y-115692873D01*
X129868811Y-115692880D01*
X129849490Y-115999994D01*
X129849490Y-116000005D01*
X129868811Y-116307119D01*
X129868812Y-116307126D01*
X129926478Y-116609421D01*
X130021573Y-116902094D01*
X130021575Y-116902099D01*
X130152599Y-117180538D01*
X130152603Y-117180544D01*
X130317492Y-117440369D01*
X130317495Y-117440373D01*
X130317496Y-117440374D01*
X130513655Y-117677490D01*
X130703115Y-117855404D01*
X130737984Y-117888148D01*
X130737994Y-117888157D01*
X130986939Y-118069026D01*
X130986945Y-118069029D01*
X130986951Y-118069034D01*
X131074030Y-118116906D01*
X131256624Y-118217288D01*
X131256632Y-118217292D01*
X131542747Y-118330573D01*
X131542750Y-118330574D01*
X131840816Y-118407104D01*
X131840820Y-118407105D01*
X131904865Y-118415195D01*
X132146119Y-118445673D01*
X132146128Y-118445673D01*
X132146131Y-118445674D01*
X132146133Y-118445674D01*
X132453867Y-118445674D01*
X132453869Y-118445674D01*
X132453872Y-118445673D01*
X132453880Y-118445673D01*
X132636061Y-118422658D01*
X132759180Y-118407105D01*
X133057249Y-118330574D01*
X133057252Y-118330573D01*
X133343367Y-118217292D01*
X133343371Y-118217289D01*
X133343376Y-118217288D01*
X133613049Y-118069034D01*
X133617314Y-118065934D01*
X133862005Y-117888157D01*
X133862007Y-117888154D01*
X133862014Y-117888150D01*
X134086345Y-117677490D01*
X134282504Y-117440374D01*
X134447398Y-117180542D01*
X134463302Y-117146745D01*
X134509657Y-117094467D01*
X134576917Y-117075550D01*
X134643727Y-117095999D01*
X134688876Y-117149323D01*
X134699500Y-117199542D01*
X134699500Y-118495124D01*
X134699118Y-118504853D01*
X134685497Y-118677915D01*
X134682453Y-118697133D01*
X134643070Y-118861176D01*
X134637057Y-118879682D01*
X134572495Y-119035547D01*
X134563661Y-119052884D01*
X134475515Y-119196725D01*
X134464079Y-119212466D01*
X134354513Y-119340753D01*
X134340753Y-119354513D01*
X134212466Y-119464079D01*
X134196725Y-119475515D01*
X134052884Y-119563661D01*
X134035547Y-119572495D01*
X133879682Y-119637057D01*
X133861176Y-119643070D01*
X133697133Y-119682453D01*
X133677915Y-119685497D01*
X133504854Y-119699118D01*
X133495125Y-119699500D01*
X94896611Y-119699500D01*
X94829572Y-119679815D01*
X94783817Y-119627011D01*
X94773873Y-119557853D01*
X94802898Y-119494297D01*
X94836630Y-119466972D01*
X94926112Y-119417517D01*
X95214240Y-119213080D01*
X95232542Y-119196725D01*
X95363164Y-119079993D01*
X95477667Y-118977667D01*
X95713080Y-118714240D01*
X95917517Y-118426112D01*
X96088410Y-118116906D01*
X96223607Y-117790510D01*
X96321410Y-117451029D01*
X96380588Y-117102733D01*
X96400397Y-116750000D01*
X96380588Y-116397267D01*
X96321410Y-116048971D01*
X96223607Y-115709490D01*
X96088410Y-115383094D01*
X95917517Y-115073888D01*
X95713080Y-114785760D01*
X95713079Y-114785759D01*
X95713075Y-114785753D01*
X95477668Y-114522334D01*
X95477665Y-114522331D01*
X95214246Y-114286924D01*
X94926112Y-114082483D01*
X94616904Y-113911589D01*
X94290511Y-113776393D01*
X93951034Y-113678591D01*
X93951025Y-113678589D01*
X93602740Y-113619413D01*
X93602728Y-113619411D01*
X93250000Y-113599603D01*
X92897271Y-113619411D01*
X92897259Y-113619413D01*
X92548974Y-113678589D01*
X92548965Y-113678591D01*
X92209488Y-113776393D01*
X91883095Y-113911589D01*
X91573887Y-114082483D01*
X91285753Y-114286924D01*
X91022334Y-114522331D01*
X91022331Y-114522334D01*
X90786924Y-114785753D01*
X90582481Y-115073890D01*
X90533027Y-115163370D01*
X90483370Y-115212522D01*
X90415023Y-115227025D01*
X90349684Y-115202274D01*
X90308099Y-115146128D01*
X90300500Y-115103388D01*
X90300500Y-109590438D01*
X105449500Y-109590438D01*
X105449500Y-117590438D01*
X105449500Y-117669562D01*
X105451625Y-117677491D01*
X105469979Y-117745990D01*
X105469982Y-117745995D01*
X105509535Y-117814504D01*
X105509539Y-117814509D01*
X105509540Y-117814511D01*
X105565489Y-117870460D01*
X105565491Y-117870461D01*
X105565495Y-117870464D01*
X105596129Y-117888150D01*
X105634011Y-117910021D01*
X105710438Y-117930500D01*
X105710440Y-117930500D01*
X119289560Y-117930500D01*
X119289562Y-117930500D01*
X119365989Y-117910021D01*
X119434511Y-117870460D01*
X119490460Y-117814511D01*
X119530021Y-117745989D01*
X119550500Y-117669562D01*
X119550500Y-111030000D01*
X127252601Y-111030000D01*
X127272149Y-111228481D01*
X127330048Y-111419348D01*
X127424060Y-111595231D01*
X127424065Y-111595238D01*
X127550589Y-111749410D01*
X127657875Y-111837456D01*
X127704763Y-111875936D01*
X127704766Y-111875937D01*
X127704768Y-111875939D01*
X127880651Y-111969951D01*
X127880654Y-111969951D01*
X127880658Y-111969954D01*
X128071515Y-112027850D01*
X128270000Y-112047399D01*
X128468485Y-112027850D01*
X128659342Y-111969954D01*
X128835237Y-111875936D01*
X128989410Y-111749410D01*
X129115936Y-111595237D01*
X129209954Y-111419342D01*
X129267850Y-111228485D01*
X129287399Y-111030000D01*
X129792601Y-111030000D01*
X129812149Y-111228481D01*
X129870048Y-111419348D01*
X129964060Y-111595231D01*
X129964065Y-111595238D01*
X130090589Y-111749410D01*
X130197875Y-111837456D01*
X130244763Y-111875936D01*
X130244766Y-111875937D01*
X130244768Y-111875939D01*
X130420651Y-111969951D01*
X130420654Y-111969951D01*
X130420658Y-111969954D01*
X130611515Y-112027850D01*
X130810000Y-112047399D01*
X131008485Y-112027850D01*
X131199342Y-111969954D01*
X131375237Y-111875936D01*
X131529410Y-111749410D01*
X131655936Y-111595237D01*
X131749954Y-111419342D01*
X131807850Y-111228485D01*
X131827399Y-111030000D01*
X131807850Y-110831515D01*
X131749954Y-110640658D01*
X131749951Y-110640654D01*
X131749951Y-110640651D01*
X131655939Y-110464768D01*
X131655937Y-110464766D01*
X131655936Y-110464763D01*
X131617456Y-110417875D01*
X131529410Y-110310589D01*
X131375238Y-110184065D01*
X131375231Y-110184060D01*
X131199348Y-110090048D01*
X131199342Y-110090046D01*
X131008485Y-110032150D01*
X131008483Y-110032149D01*
X131008481Y-110032149D01*
X130810000Y-110012601D01*
X130611518Y-110032149D01*
X130420651Y-110090048D01*
X130244768Y-110184060D01*
X130244761Y-110184065D01*
X130090589Y-110310589D01*
X129964065Y-110464761D01*
X129964060Y-110464768D01*
X129870048Y-110640651D01*
X129812149Y-110831518D01*
X129792601Y-111030000D01*
X129287399Y-111030000D01*
X129267850Y-110831515D01*
X129209954Y-110640658D01*
X129209951Y-110640654D01*
X129209951Y-110640651D01*
X129115939Y-110464768D01*
X129115937Y-110464766D01*
X129115936Y-110464763D01*
X129077456Y-110417875D01*
X128989410Y-110310589D01*
X128835238Y-110184065D01*
X128835231Y-110184060D01*
X128659348Y-110090048D01*
X128659342Y-110090046D01*
X128468485Y-110032150D01*
X128468483Y-110032149D01*
X128468481Y-110032149D01*
X128270000Y-110012601D01*
X128071518Y-110032149D01*
X127880651Y-110090048D01*
X127704768Y-110184060D01*
X127704761Y-110184065D01*
X127550589Y-110310589D01*
X127424065Y-110464761D01*
X127424060Y-110464768D01*
X127330048Y-110640651D01*
X127272149Y-110831518D01*
X127252601Y-111030000D01*
X119550500Y-111030000D01*
X119550500Y-109590438D01*
X119530021Y-109514011D01*
X119514917Y-109487850D01*
X119490464Y-109445495D01*
X119490458Y-109445487D01*
X119434512Y-109389541D01*
X119434504Y-109389535D01*
X119365995Y-109349982D01*
X119365990Y-109349979D01*
X119340513Y-109343152D01*
X119289562Y-109329500D01*
X105789562Y-109329500D01*
X105710438Y-109329500D01*
X105672224Y-109339739D01*
X105634009Y-109349979D01*
X105634004Y-109349982D01*
X105565495Y-109389535D01*
X105565487Y-109389541D01*
X105509541Y-109445487D01*
X105509535Y-109445495D01*
X105469982Y-109514004D01*
X105469979Y-109514009D01*
X105456326Y-109564962D01*
X105449500Y-109590438D01*
X90300500Y-109590438D01*
X90300500Y-107839999D01*
X92429785Y-107839999D01*
X92429785Y-107840000D01*
X92448602Y-108043082D01*
X92504417Y-108239247D01*
X92504422Y-108239260D01*
X92595327Y-108421821D01*
X92718237Y-108584581D01*
X92868958Y-108721980D01*
X92868960Y-108721982D01*
X92968141Y-108783392D01*
X93042363Y-108829348D01*
X93232544Y-108903024D01*
X93433024Y-108940500D01*
X93433026Y-108940500D01*
X93636974Y-108940500D01*
X93636976Y-108940500D01*
X93837456Y-108903024D01*
X94027637Y-108829348D01*
X94201041Y-108721981D01*
X94351764Y-108584579D01*
X94474673Y-108421821D01*
X94565582Y-108239250D01*
X94621397Y-108043083D01*
X94640215Y-107840000D01*
X94640215Y-107839999D01*
X94969785Y-107839999D01*
X94969785Y-107840000D01*
X94988602Y-108043082D01*
X95044417Y-108239247D01*
X95044422Y-108239260D01*
X95135327Y-108421821D01*
X95258237Y-108584581D01*
X95408958Y-108721980D01*
X95408960Y-108721982D01*
X95508141Y-108783392D01*
X95582363Y-108829348D01*
X95772544Y-108903024D01*
X95973024Y-108940500D01*
X95973026Y-108940500D01*
X96176974Y-108940500D01*
X96176976Y-108940500D01*
X96377456Y-108903024D01*
X96567637Y-108829348D01*
X96741041Y-108721981D01*
X96891764Y-108584579D01*
X96963187Y-108490000D01*
X127252601Y-108490000D01*
X127272149Y-108688481D01*
X127272149Y-108688483D01*
X127272150Y-108688485D01*
X127330046Y-108879342D01*
X127330048Y-108879348D01*
X127424060Y-109055231D01*
X127424065Y-109055238D01*
X127550589Y-109209410D01*
X127657875Y-109297456D01*
X127704763Y-109335936D01*
X127704766Y-109335937D01*
X127704768Y-109335939D01*
X127880651Y-109429951D01*
X127880654Y-109429951D01*
X127880658Y-109429954D01*
X128071515Y-109487850D01*
X128270000Y-109507399D01*
X128468485Y-109487850D01*
X128659342Y-109429954D01*
X128734961Y-109389535D01*
X128835231Y-109335939D01*
X128835229Y-109335939D01*
X128835237Y-109335936D01*
X128989410Y-109209410D01*
X129115936Y-109055237D01*
X129209954Y-108879342D01*
X129267850Y-108688485D01*
X129287399Y-108490000D01*
X129792601Y-108490000D01*
X129812149Y-108688481D01*
X129812149Y-108688483D01*
X129812150Y-108688485D01*
X129870046Y-108879342D01*
X129870048Y-108879348D01*
X129964060Y-109055231D01*
X129964065Y-109055238D01*
X130090589Y-109209410D01*
X130197875Y-109297456D01*
X130244763Y-109335936D01*
X130244766Y-109335937D01*
X130244768Y-109335939D01*
X130420651Y-109429951D01*
X130420654Y-109429951D01*
X130420658Y-109429954D01*
X130611515Y-109487850D01*
X130810000Y-109507399D01*
X131008485Y-109487850D01*
X131199342Y-109429954D01*
X131274961Y-109389535D01*
X131375231Y-109335939D01*
X131375229Y-109335939D01*
X131375237Y-109335936D01*
X131529410Y-109209410D01*
X131655936Y-109055237D01*
X131749954Y-108879342D01*
X131807850Y-108688485D01*
X131827399Y-108490000D01*
X131807850Y-108291515D01*
X131749954Y-108100658D01*
X131749951Y-108100654D01*
X131749951Y-108100651D01*
X131655939Y-107924768D01*
X131655937Y-107924766D01*
X131655936Y-107924763D01*
X131586373Y-107840000D01*
X131529410Y-107770589D01*
X131375238Y-107644065D01*
X131375231Y-107644060D01*
X131199348Y-107550048D01*
X131199342Y-107550046D01*
X131008485Y-107492150D01*
X131008483Y-107492149D01*
X131008481Y-107492149D01*
X130810000Y-107472601D01*
X130611518Y-107492149D01*
X130420651Y-107550048D01*
X130244768Y-107644060D01*
X130244761Y-107644065D01*
X130090589Y-107770589D01*
X129964065Y-107924761D01*
X129964060Y-107924768D01*
X129870048Y-108100651D01*
X129812149Y-108291518D01*
X129792601Y-108490000D01*
X129287399Y-108490000D01*
X129267850Y-108291515D01*
X129209954Y-108100658D01*
X129209951Y-108100654D01*
X129209951Y-108100651D01*
X129115939Y-107924768D01*
X129115937Y-107924766D01*
X129115936Y-107924763D01*
X129046373Y-107840000D01*
X128989410Y-107770589D01*
X128835238Y-107644065D01*
X128835231Y-107644060D01*
X128659348Y-107550048D01*
X128659342Y-107550046D01*
X128468485Y-107492150D01*
X128468483Y-107492149D01*
X128468481Y-107492149D01*
X128270000Y-107472601D01*
X128071518Y-107492149D01*
X127880651Y-107550048D01*
X127704768Y-107644060D01*
X127704761Y-107644065D01*
X127550589Y-107770589D01*
X127424065Y-107924761D01*
X127424060Y-107924768D01*
X127330048Y-108100651D01*
X127272149Y-108291518D01*
X127252601Y-108490000D01*
X96963187Y-108490000D01*
X97014673Y-108421821D01*
X97105582Y-108239250D01*
X97161397Y-108043083D01*
X97180215Y-107840000D01*
X97161397Y-107636917D01*
X97105582Y-107440750D01*
X97014673Y-107258179D01*
X96891764Y-107095421D01*
X96891762Y-107095418D01*
X96741041Y-106958019D01*
X96741039Y-106958017D01*
X96567642Y-106850655D01*
X96567635Y-106850651D01*
X96426405Y-106795939D01*
X96377456Y-106776976D01*
X96176976Y-106739500D01*
X95973024Y-106739500D01*
X95772544Y-106776976D01*
X95772541Y-106776976D01*
X95772541Y-106776977D01*
X95582364Y-106850651D01*
X95582357Y-106850655D01*
X95408960Y-106958017D01*
X95408958Y-106958019D01*
X95258237Y-107095418D01*
X95135327Y-107258178D01*
X95044422Y-107440739D01*
X95044417Y-107440752D01*
X94988602Y-107636917D01*
X94969785Y-107839999D01*
X94640215Y-107839999D01*
X94621397Y-107636917D01*
X94565582Y-107440750D01*
X94474673Y-107258179D01*
X94351764Y-107095421D01*
X94351762Y-107095418D01*
X94201041Y-106958019D01*
X94201039Y-106958017D01*
X94027642Y-106850655D01*
X94027635Y-106850651D01*
X93886405Y-106795939D01*
X93837456Y-106776976D01*
X93636976Y-106739500D01*
X93433024Y-106739500D01*
X93232544Y-106776976D01*
X93232541Y-106776976D01*
X93232541Y-106776977D01*
X93042364Y-106850651D01*
X93042357Y-106850655D01*
X92868960Y-106958017D01*
X92868958Y-106958019D01*
X92718237Y-107095418D01*
X92595327Y-107258178D01*
X92504422Y-107440739D01*
X92504417Y-107440752D01*
X92448602Y-107636917D01*
X92429785Y-107839999D01*
X90300500Y-107839999D01*
X90300500Y-102509999D01*
X92204364Y-102509999D01*
X92204364Y-102510000D01*
X93101988Y-102510000D01*
X93069075Y-102567007D01*
X93035000Y-102694174D01*
X93035000Y-102825826D01*
X93069075Y-102952993D01*
X93101988Y-103010000D01*
X92204364Y-103010000D01*
X92261567Y-103223486D01*
X92261570Y-103223492D01*
X92361399Y-103437578D01*
X92496894Y-103631082D01*
X92663917Y-103798105D01*
X92857421Y-103933600D01*
X93071507Y-104033429D01*
X93071516Y-104033433D01*
X93110583Y-104043901D01*
X93170244Y-104080266D01*
X93200773Y-104143113D01*
X93192479Y-104212488D01*
X93147993Y-104266366D01*
X93123284Y-104279302D01*
X93042373Y-104310647D01*
X93042357Y-104310655D01*
X92868960Y-104418017D01*
X92868958Y-104418019D01*
X92718237Y-104555418D01*
X92595327Y-104718178D01*
X92504422Y-104900739D01*
X92504417Y-104900752D01*
X92448602Y-105096917D01*
X92429785Y-105299999D01*
X92429785Y-105300000D01*
X92448602Y-105503082D01*
X92504417Y-105699247D01*
X92504422Y-105699260D01*
X92595327Y-105881821D01*
X92718237Y-106044581D01*
X92868958Y-106181980D01*
X92868960Y-106181982D01*
X92968141Y-106243392D01*
X93042363Y-106289348D01*
X93232544Y-106363024D01*
X93433024Y-106400500D01*
X93433026Y-106400500D01*
X93636974Y-106400500D01*
X93636976Y-106400500D01*
X93837456Y-106363024D01*
X94027637Y-106289348D01*
X94201041Y-106181981D01*
X94351764Y-106044579D01*
X94474673Y-105881821D01*
X94565582Y-105699250D01*
X94621397Y-105503083D01*
X94640215Y-105300000D01*
X94640215Y-105299999D01*
X94969785Y-105299999D01*
X94969785Y-105300000D01*
X94988602Y-105503082D01*
X95044417Y-105699247D01*
X95044422Y-105699260D01*
X95135327Y-105881821D01*
X95258237Y-106044581D01*
X95408958Y-106181980D01*
X95408960Y-106181982D01*
X95508141Y-106243392D01*
X95582363Y-106289348D01*
X95772544Y-106363024D01*
X95973024Y-106400500D01*
X95973026Y-106400500D01*
X96176974Y-106400500D01*
X96176976Y-106400500D01*
X96377456Y-106363024D01*
X96567637Y-106289348D01*
X96741041Y-106181981D01*
X96891764Y-106044579D01*
X96963187Y-105950000D01*
X127252601Y-105950000D01*
X127272149Y-106148481D01*
X127272149Y-106148483D01*
X127272150Y-106148485D01*
X127330046Y-106339342D01*
X127330048Y-106339348D01*
X127424060Y-106515231D01*
X127424065Y-106515238D01*
X127550589Y-106669410D01*
X127635995Y-106739500D01*
X127704763Y-106795936D01*
X127704766Y-106795937D01*
X127704768Y-106795939D01*
X127880651Y-106889951D01*
X127880654Y-106889951D01*
X127880658Y-106889954D01*
X128071515Y-106947850D01*
X128270000Y-106967399D01*
X128468485Y-106947850D01*
X128659342Y-106889954D01*
X128835237Y-106795936D01*
X128989410Y-106669410D01*
X129115936Y-106515237D01*
X129209954Y-106339342D01*
X129267850Y-106148485D01*
X129287399Y-105950000D01*
X129792601Y-105950000D01*
X129812149Y-106148481D01*
X129812149Y-106148483D01*
X129812150Y-106148485D01*
X129870046Y-106339342D01*
X129870048Y-106339348D01*
X129964060Y-106515231D01*
X129964065Y-106515238D01*
X130090589Y-106669410D01*
X130175995Y-106739500D01*
X130244763Y-106795936D01*
X130244766Y-106795937D01*
X130244768Y-106795939D01*
X130420651Y-106889951D01*
X130420654Y-106889951D01*
X130420658Y-106889954D01*
X130611515Y-106947850D01*
X130810000Y-106967399D01*
X131008485Y-106947850D01*
X131199342Y-106889954D01*
X131375237Y-106795936D01*
X131529410Y-106669410D01*
X131655936Y-106515237D01*
X131749954Y-106339342D01*
X131807850Y-106148485D01*
X131827399Y-105950000D01*
X131807850Y-105751515D01*
X131749954Y-105560658D01*
X131749951Y-105560654D01*
X131749951Y-105560651D01*
X131655939Y-105384768D01*
X131655937Y-105384766D01*
X131655936Y-105384763D01*
X131586373Y-105300000D01*
X131529410Y-105230589D01*
X131375238Y-105104065D01*
X131375231Y-105104060D01*
X131199348Y-105010048D01*
X131199342Y-105010046D01*
X131008485Y-104952150D01*
X131008483Y-104952149D01*
X131008481Y-104952149D01*
X130810000Y-104932601D01*
X130611518Y-104952149D01*
X130420651Y-105010048D01*
X130244768Y-105104060D01*
X130244761Y-105104065D01*
X130090589Y-105230589D01*
X129964065Y-105384761D01*
X129964060Y-105384768D01*
X129870048Y-105560651D01*
X129812149Y-105751518D01*
X129792601Y-105950000D01*
X129287399Y-105950000D01*
X129267850Y-105751515D01*
X129209954Y-105560658D01*
X129209951Y-105560654D01*
X129209951Y-105560651D01*
X129115939Y-105384768D01*
X129115937Y-105384766D01*
X129115936Y-105384763D01*
X129046373Y-105300000D01*
X128989410Y-105230589D01*
X128835238Y-105104065D01*
X128835231Y-105104060D01*
X128659348Y-105010048D01*
X128659342Y-105010046D01*
X128468485Y-104952150D01*
X128468483Y-104952149D01*
X128468481Y-104952149D01*
X128270000Y-104932601D01*
X128071518Y-104952149D01*
X127880651Y-105010048D01*
X127704768Y-105104060D01*
X127704761Y-105104065D01*
X127550589Y-105230589D01*
X127424065Y-105384761D01*
X127424060Y-105384768D01*
X127330048Y-105560651D01*
X127272149Y-105751518D01*
X127252601Y-105950000D01*
X96963187Y-105950000D01*
X97014673Y-105881821D01*
X97105582Y-105699250D01*
X97161397Y-105503083D01*
X97180215Y-105300000D01*
X97161397Y-105096917D01*
X97105582Y-104900750D01*
X97014673Y-104718179D01*
X96891764Y-104555421D01*
X96891762Y-104555418D01*
X96741041Y-104418019D01*
X96741039Y-104418017D01*
X96567642Y-104310655D01*
X96567635Y-104310651D01*
X96426405Y-104255939D01*
X96377456Y-104236976D01*
X96176976Y-104199500D01*
X95973024Y-104199500D01*
X95772544Y-104236976D01*
X95772541Y-104236976D01*
X95772541Y-104236977D01*
X95582364Y-104310651D01*
X95582357Y-104310655D01*
X95408960Y-104418017D01*
X95408958Y-104418019D01*
X95258237Y-104555418D01*
X95135327Y-104718178D01*
X95044422Y-104900739D01*
X95044417Y-104900752D01*
X94988602Y-105096917D01*
X94969785Y-105299999D01*
X94640215Y-105299999D01*
X94621397Y-105096917D01*
X94565582Y-104900750D01*
X94474673Y-104718179D01*
X94351764Y-104555421D01*
X94351762Y-104555418D01*
X94201041Y-104418019D01*
X94201039Y-104418017D01*
X94027642Y-104310655D01*
X94027635Y-104310651D01*
X93946715Y-104279303D01*
X93891313Y-104236730D01*
X93867723Y-104170963D01*
X93883434Y-104102883D01*
X93933458Y-104054104D01*
X93959417Y-104043901D01*
X93998481Y-104033434D01*
X93998492Y-104033429D01*
X94212578Y-103933600D01*
X94406082Y-103798105D01*
X94573105Y-103631082D01*
X94708600Y-103437577D01*
X94708601Y-103437575D01*
X94738118Y-103374277D01*
X94784290Y-103321837D01*
X94851483Y-103302685D01*
X94918364Y-103322900D01*
X94963699Y-103376065D01*
X94974500Y-103426681D01*
X94974500Y-103634678D01*
X94989032Y-103707735D01*
X94989033Y-103707739D01*
X94989034Y-103707740D01*
X95044399Y-103790601D01*
X95127260Y-103845966D01*
X95127264Y-103845967D01*
X95200321Y-103860499D01*
X95200324Y-103860500D01*
X95200326Y-103860500D01*
X96949676Y-103860500D01*
X96949677Y-103860499D01*
X97022740Y-103845966D01*
X97105601Y-103790601D01*
X97160966Y-103707740D01*
X97175500Y-103634674D01*
X97175500Y-103410000D01*
X127252601Y-103410000D01*
X127272149Y-103608481D01*
X127272149Y-103608483D01*
X127272150Y-103608485D01*
X127329671Y-103798105D01*
X127330048Y-103799348D01*
X127424060Y-103975231D01*
X127424065Y-103975238D01*
X127550589Y-104129410D01*
X127635995Y-104199500D01*
X127704763Y-104255936D01*
X127704766Y-104255937D01*
X127704768Y-104255939D01*
X127880651Y-104349951D01*
X127880654Y-104349951D01*
X127880658Y-104349954D01*
X128071515Y-104407850D01*
X128270000Y-104427399D01*
X128468485Y-104407850D01*
X128659342Y-104349954D01*
X128835237Y-104255936D01*
X128989410Y-104129410D01*
X129115936Y-103975237D01*
X129209954Y-103799342D01*
X129267850Y-103608485D01*
X129287399Y-103410000D01*
X129792601Y-103410000D01*
X129812149Y-103608481D01*
X129812149Y-103608483D01*
X129812150Y-103608485D01*
X129869671Y-103798105D01*
X129870048Y-103799348D01*
X129964060Y-103975231D01*
X129964065Y-103975238D01*
X130090589Y-104129410D01*
X130175995Y-104199500D01*
X130244763Y-104255936D01*
X130244766Y-104255937D01*
X130244768Y-104255939D01*
X130420651Y-104349951D01*
X130420654Y-104349951D01*
X130420658Y-104349954D01*
X130611515Y-104407850D01*
X130810000Y-104427399D01*
X131008485Y-104407850D01*
X131199342Y-104349954D01*
X131375237Y-104255936D01*
X131529410Y-104129410D01*
X131655936Y-103975237D01*
X131749954Y-103799342D01*
X131807850Y-103608485D01*
X131827399Y-103410000D01*
X131807850Y-103211515D01*
X131749954Y-103020658D01*
X131749951Y-103020654D01*
X131749951Y-103020651D01*
X131655939Y-102844768D01*
X131655937Y-102844766D01*
X131655936Y-102844763D01*
X131539627Y-102703039D01*
X131529410Y-102690589D01*
X131375238Y-102564065D01*
X131375231Y-102564060D01*
X131199348Y-102470048D01*
X131199342Y-102470046D01*
X131008485Y-102412150D01*
X131008483Y-102412149D01*
X131008481Y-102412149D01*
X130810000Y-102392601D01*
X130611518Y-102412149D01*
X130420651Y-102470048D01*
X130244768Y-102564060D01*
X130244761Y-102564065D01*
X130090589Y-102690589D01*
X129964065Y-102844761D01*
X129964060Y-102844768D01*
X129870048Y-103020651D01*
X129812149Y-103211518D01*
X129792601Y-103410000D01*
X129287399Y-103410000D01*
X129267850Y-103211515D01*
X129209954Y-103020658D01*
X129209951Y-103020654D01*
X129209951Y-103020651D01*
X129115939Y-102844768D01*
X129115937Y-102844766D01*
X129115936Y-102844763D01*
X128999627Y-102703039D01*
X128989410Y-102690589D01*
X128835238Y-102564065D01*
X128835231Y-102564060D01*
X128659348Y-102470048D01*
X128659342Y-102470046D01*
X128468485Y-102412150D01*
X128468483Y-102412149D01*
X128468481Y-102412149D01*
X128270000Y-102392601D01*
X128071518Y-102412149D01*
X127880651Y-102470048D01*
X127704768Y-102564060D01*
X127704761Y-102564065D01*
X127550589Y-102690589D01*
X127424065Y-102844761D01*
X127424060Y-102844768D01*
X127330048Y-103020651D01*
X127272149Y-103211518D01*
X127252601Y-103410000D01*
X97175500Y-103410000D01*
X97175500Y-101885326D01*
X97175500Y-101885323D01*
X97175499Y-101885321D01*
X97160967Y-101812264D01*
X97160966Y-101812260D01*
X97159423Y-101809951D01*
X97105601Y-101729399D01*
X97022740Y-101674034D01*
X97022739Y-101674033D01*
X97022735Y-101674032D01*
X96949677Y-101659500D01*
X96949674Y-101659500D01*
X95200326Y-101659500D01*
X95200323Y-101659500D01*
X95127264Y-101674032D01*
X95127260Y-101674033D01*
X95044399Y-101729399D01*
X94989033Y-101812260D01*
X94989032Y-101812264D01*
X94974500Y-101885321D01*
X94974500Y-102093318D01*
X94954815Y-102160357D01*
X94902011Y-102206112D01*
X94832853Y-102216056D01*
X94769297Y-102187031D01*
X94738118Y-102145723D01*
X94708600Y-102082422D01*
X94708599Y-102082420D01*
X94573113Y-101888926D01*
X94573108Y-101888920D01*
X94406082Y-101721894D01*
X94212578Y-101586399D01*
X93998492Y-101486570D01*
X93998486Y-101486567D01*
X93785000Y-101429364D01*
X93785000Y-102326988D01*
X93727993Y-102294075D01*
X93600826Y-102260000D01*
X93469174Y-102260000D01*
X93342007Y-102294075D01*
X93285000Y-102326988D01*
X93285000Y-101429364D01*
X93284999Y-101429364D01*
X93071513Y-101486567D01*
X93071507Y-101486570D01*
X92857422Y-101586399D01*
X92857420Y-101586400D01*
X92663926Y-101721886D01*
X92663920Y-101721891D01*
X92496891Y-101888920D01*
X92496886Y-101888926D01*
X92361400Y-102082420D01*
X92361399Y-102082422D01*
X92261570Y-102296507D01*
X92261567Y-102296513D01*
X92204364Y-102509999D01*
X90300500Y-102509999D01*
X90300500Y-100870000D01*
X127252601Y-100870000D01*
X127272149Y-101068481D01*
X127330048Y-101259348D01*
X127424060Y-101435231D01*
X127424065Y-101435238D01*
X127550589Y-101589410D01*
X127635995Y-101659500D01*
X127704763Y-101715936D01*
X127704766Y-101715937D01*
X127704768Y-101715939D01*
X127880651Y-101809951D01*
X127880654Y-101809951D01*
X127880658Y-101809954D01*
X128071515Y-101867850D01*
X128270000Y-101887399D01*
X128468485Y-101867850D01*
X128659342Y-101809954D01*
X128835237Y-101715936D01*
X128989410Y-101589410D01*
X129115936Y-101435237D01*
X129209954Y-101259342D01*
X129267850Y-101068485D01*
X129287399Y-100870000D01*
X129792601Y-100870000D01*
X129812149Y-101068481D01*
X129870048Y-101259348D01*
X129964060Y-101435231D01*
X129964065Y-101435238D01*
X130090589Y-101589410D01*
X130175995Y-101659500D01*
X130244763Y-101715936D01*
X130244766Y-101715937D01*
X130244768Y-101715939D01*
X130420651Y-101809951D01*
X130420654Y-101809951D01*
X130420658Y-101809954D01*
X130611515Y-101867850D01*
X130810000Y-101887399D01*
X131008485Y-101867850D01*
X131199342Y-101809954D01*
X131375237Y-101715936D01*
X131529410Y-101589410D01*
X131655936Y-101435237D01*
X131749954Y-101259342D01*
X131807850Y-101068485D01*
X131827399Y-100870000D01*
X131807850Y-100671515D01*
X131749954Y-100480658D01*
X131749951Y-100480654D01*
X131749951Y-100480651D01*
X131655939Y-100304768D01*
X131655937Y-100304766D01*
X131655936Y-100304763D01*
X131617456Y-100257875D01*
X131529410Y-100150589D01*
X131375238Y-100024065D01*
X131375231Y-100024060D01*
X131199348Y-99930048D01*
X131199342Y-99930046D01*
X131008485Y-99872150D01*
X131008483Y-99872149D01*
X131008481Y-99872149D01*
X130810000Y-99852601D01*
X130611518Y-99872149D01*
X130420651Y-99930048D01*
X130244768Y-100024060D01*
X130244761Y-100024065D01*
X130090589Y-100150589D01*
X129964065Y-100304761D01*
X129964060Y-100304768D01*
X129870048Y-100480651D01*
X129812149Y-100671518D01*
X129792601Y-100870000D01*
X129287399Y-100870000D01*
X129267850Y-100671515D01*
X129209954Y-100480658D01*
X129209951Y-100480654D01*
X129209951Y-100480651D01*
X129115939Y-100304768D01*
X129115937Y-100304766D01*
X129115936Y-100304763D01*
X129077456Y-100257875D01*
X128989410Y-100150589D01*
X128835238Y-100024065D01*
X128835231Y-100024060D01*
X128659348Y-99930048D01*
X128659342Y-99930046D01*
X128468485Y-99872150D01*
X128468483Y-99872149D01*
X128468481Y-99872149D01*
X128270000Y-99852601D01*
X128071518Y-99872149D01*
X127880651Y-99930048D01*
X127704768Y-100024060D01*
X127704761Y-100024065D01*
X127550589Y-100150589D01*
X127424065Y-100304761D01*
X127424060Y-100304768D01*
X127330048Y-100480651D01*
X127272149Y-100671518D01*
X127252601Y-100870000D01*
X90300500Y-100870000D01*
X90300500Y-98330000D01*
X127252601Y-98330000D01*
X127272149Y-98528481D01*
X127330048Y-98719348D01*
X127424060Y-98895231D01*
X127424065Y-98895238D01*
X127550589Y-99049410D01*
X127657875Y-99137456D01*
X127704763Y-99175936D01*
X127704766Y-99175937D01*
X127704768Y-99175939D01*
X127880651Y-99269951D01*
X127880654Y-99269951D01*
X127880658Y-99269954D01*
X128071515Y-99327850D01*
X128270000Y-99347399D01*
X128468485Y-99327850D01*
X128659342Y-99269954D01*
X128835237Y-99175936D01*
X128989410Y-99049410D01*
X129115936Y-98895237D01*
X129209954Y-98719342D01*
X129267850Y-98528485D01*
X129287399Y-98330000D01*
X129792601Y-98330000D01*
X129812149Y-98528481D01*
X129870048Y-98719348D01*
X129964060Y-98895231D01*
X129964065Y-98895238D01*
X130090589Y-99049410D01*
X130197875Y-99137456D01*
X130244763Y-99175936D01*
X130244766Y-99175937D01*
X130244768Y-99175939D01*
X130420651Y-99269951D01*
X130420654Y-99269951D01*
X130420658Y-99269954D01*
X130611515Y-99327850D01*
X130810000Y-99347399D01*
X131008485Y-99327850D01*
X131199342Y-99269954D01*
X131375237Y-99175936D01*
X131529410Y-99049410D01*
X131655936Y-98895237D01*
X131749954Y-98719342D01*
X131807850Y-98528485D01*
X131827399Y-98330000D01*
X131807850Y-98131515D01*
X131749954Y-97940658D01*
X131749951Y-97940654D01*
X131749951Y-97940651D01*
X131655939Y-97764768D01*
X131655937Y-97764766D01*
X131655936Y-97764763D01*
X131580277Y-97672572D01*
X131529410Y-97610589D01*
X131375238Y-97484065D01*
X131375231Y-97484060D01*
X131199348Y-97390048D01*
X131199342Y-97390046D01*
X131008485Y-97332150D01*
X131008483Y-97332149D01*
X131008481Y-97332149D01*
X130810000Y-97312601D01*
X130611518Y-97332149D01*
X130420651Y-97390048D01*
X130244768Y-97484060D01*
X130244761Y-97484065D01*
X130090589Y-97610589D01*
X129964065Y-97764761D01*
X129964060Y-97764768D01*
X129870048Y-97940651D01*
X129812149Y-98131518D01*
X129792601Y-98330000D01*
X129287399Y-98330000D01*
X129267850Y-98131515D01*
X129209954Y-97940658D01*
X129209951Y-97940654D01*
X129209951Y-97940651D01*
X129115939Y-97764768D01*
X129115937Y-97764766D01*
X129115936Y-97764763D01*
X129040277Y-97672572D01*
X128989410Y-97610589D01*
X128835238Y-97484065D01*
X128835231Y-97484060D01*
X128659348Y-97390048D01*
X128659342Y-97390046D01*
X128468485Y-97332150D01*
X128468483Y-97332149D01*
X128468481Y-97332149D01*
X128270000Y-97312601D01*
X128071518Y-97332149D01*
X127880651Y-97390048D01*
X127704768Y-97484060D01*
X127704761Y-97484065D01*
X127550589Y-97610589D01*
X127424065Y-97764761D01*
X127424060Y-97764768D01*
X127330048Y-97940651D01*
X127272149Y-98131518D01*
X127252601Y-98330000D01*
X90300500Y-98330000D01*
X90300500Y-97148322D01*
X97775001Y-97148322D01*
X97785144Y-97247607D01*
X97838452Y-97408481D01*
X97838457Y-97408492D01*
X97927424Y-97552728D01*
X97927427Y-97552732D01*
X98047267Y-97672572D01*
X98047271Y-97672575D01*
X98191507Y-97761542D01*
X98191518Y-97761547D01*
X98352393Y-97814855D01*
X98451683Y-97824999D01*
X99000000Y-97824999D01*
X99048308Y-97824999D01*
X99048322Y-97824998D01*
X99147607Y-97814855D01*
X99308481Y-97761547D01*
X99308492Y-97761542D01*
X99452728Y-97672575D01*
X99452732Y-97672572D01*
X99572572Y-97552732D01*
X99572575Y-97552728D01*
X99661542Y-97408492D01*
X99661547Y-97408481D01*
X99714855Y-97247606D01*
X99724999Y-97148322D01*
X99725000Y-97148309D01*
X99725000Y-97125000D01*
X99000000Y-97125000D01*
X99000000Y-97824999D01*
X98451683Y-97824999D01*
X98499999Y-97824998D01*
X98500000Y-97824998D01*
X98500000Y-97125000D01*
X97775001Y-97125000D01*
X97775001Y-97148322D01*
X90300500Y-97148322D01*
X90300500Y-96047844D01*
X91900000Y-96047844D01*
X91906401Y-96107372D01*
X91906403Y-96107379D01*
X91956645Y-96242086D01*
X91956649Y-96242093D01*
X92042809Y-96357187D01*
X92042812Y-96357190D01*
X92157906Y-96443350D01*
X92157913Y-96443354D01*
X92292620Y-96493596D01*
X92292627Y-96493598D01*
X92352155Y-96499999D01*
X92352172Y-96500000D01*
X92675000Y-96500000D01*
X93175000Y-96500000D01*
X93497828Y-96500000D01*
X93497844Y-96499999D01*
X93557372Y-96493598D01*
X93557379Y-96493596D01*
X93692086Y-96443354D01*
X93692093Y-96443350D01*
X93807187Y-96357190D01*
X93807190Y-96357187D01*
X93893350Y-96242093D01*
X93893354Y-96242086D01*
X93943596Y-96107379D01*
X93943598Y-96107372D01*
X93949999Y-96047844D01*
X96050000Y-96047844D01*
X96056401Y-96107372D01*
X96056403Y-96107379D01*
X96106645Y-96242086D01*
X96106649Y-96242093D01*
X96192809Y-96357187D01*
X96192812Y-96357190D01*
X96307906Y-96443350D01*
X96307913Y-96443354D01*
X96442620Y-96493596D01*
X96442627Y-96493598D01*
X96502155Y-96499999D01*
X96502172Y-96500000D01*
X96825000Y-96500000D01*
X96825000Y-95925000D01*
X96050000Y-95925000D01*
X96050000Y-96047844D01*
X93949999Y-96047844D01*
X93950000Y-96047827D01*
X93950000Y-95925000D01*
X93175000Y-95925000D01*
X93175000Y-96500000D01*
X92675000Y-96500000D01*
X92675000Y-95925000D01*
X91900000Y-95925000D01*
X91900000Y-96047844D01*
X90300500Y-96047844D01*
X90300500Y-95302155D01*
X91900000Y-95302155D01*
X91900000Y-95425000D01*
X92675000Y-95425000D01*
X93175000Y-95425000D01*
X93950000Y-95425000D01*
X93950000Y-95302172D01*
X93949999Y-95302155D01*
X96050000Y-95302155D01*
X96050000Y-95425000D01*
X96825000Y-95425000D01*
X96825000Y-94850000D01*
X96502155Y-94850000D01*
X96442627Y-94856401D01*
X96442620Y-94856403D01*
X96307913Y-94906645D01*
X96307906Y-94906649D01*
X96192812Y-94992809D01*
X96192809Y-94992812D01*
X96106649Y-95107906D01*
X96106645Y-95107913D01*
X96056403Y-95242620D01*
X96056401Y-95242627D01*
X96050000Y-95302155D01*
X93949999Y-95302155D01*
X93943598Y-95242627D01*
X93943596Y-95242620D01*
X93893354Y-95107913D01*
X93893350Y-95107906D01*
X93807190Y-94992812D01*
X93807187Y-94992809D01*
X93692093Y-94906649D01*
X93692086Y-94906645D01*
X93557379Y-94856403D01*
X93557372Y-94856401D01*
X93497844Y-94850000D01*
X93175000Y-94850000D01*
X93175000Y-95425000D01*
X92675000Y-95425000D01*
X92675000Y-94850000D01*
X92352155Y-94850000D01*
X92292627Y-94856401D01*
X92292620Y-94856403D01*
X92157913Y-94906645D01*
X92157906Y-94906649D01*
X92042812Y-94992809D01*
X92042809Y-94992812D01*
X91956649Y-95107906D01*
X91956645Y-95107913D01*
X91906403Y-95242620D01*
X91906401Y-95242627D01*
X91900000Y-95302155D01*
X90300500Y-95302155D01*
X90300500Y-93175321D01*
X92149500Y-93175321D01*
X92149500Y-93874678D01*
X92164032Y-93947735D01*
X92164033Y-93947739D01*
X92164034Y-93947740D01*
X92219399Y-94030601D01*
X92295266Y-94081293D01*
X92302260Y-94085966D01*
X92302264Y-94085967D01*
X92375321Y-94100499D01*
X92375324Y-94100500D01*
X92375326Y-94100500D01*
X93474676Y-94100500D01*
X93474677Y-94100499D01*
X93547740Y-94085966D01*
X93630601Y-94030601D01*
X93685966Y-93947740D01*
X93700500Y-93874674D01*
X93700500Y-93849500D01*
X93720185Y-93782461D01*
X93772989Y-93736706D01*
X93824500Y-93725500D01*
X96175500Y-93725500D01*
X96242539Y-93745185D01*
X96288294Y-93797989D01*
X96299500Y-93849500D01*
X96299500Y-93874678D01*
X96314032Y-93947735D01*
X96314033Y-93947739D01*
X96314034Y-93947740D01*
X96369399Y-94030601D01*
X96445266Y-94081293D01*
X96452260Y-94085966D01*
X96452264Y-94085967D01*
X96525321Y-94100499D01*
X96525324Y-94100500D01*
X96525326Y-94100500D01*
X97624676Y-94100500D01*
X97624677Y-94100499D01*
X97697740Y-94085966D01*
X97698571Y-94085410D01*
X97700658Y-94084756D01*
X97709021Y-94081293D01*
X97709330Y-94082041D01*
X97765246Y-94064530D01*
X97832627Y-94083012D01*
X97855145Y-94100828D01*
X97894516Y-94140198D01*
X97894531Y-94140212D01*
X97959788Y-94205469D01*
X97977800Y-94215868D01*
X98002760Y-94230280D01*
X98050975Y-94280847D01*
X98057800Y-94296710D01*
X98072207Y-94337882D01*
X98152849Y-94447148D01*
X98152851Y-94447151D01*
X98233035Y-94506329D01*
X98275286Y-94561976D01*
X98280745Y-94631632D01*
X98247678Y-94693182D01*
X98233713Y-94705365D01*
X98160315Y-94760310D01*
X98078372Y-94869772D01*
X98073934Y-94881673D01*
X98032061Y-94937606D01*
X97966596Y-94962021D01*
X97898324Y-94947168D01*
X97883442Y-94937604D01*
X97842088Y-94906646D01*
X97842086Y-94906645D01*
X97707379Y-94856403D01*
X97707372Y-94856401D01*
X97647844Y-94850000D01*
X97325000Y-94850000D01*
X97325000Y-96500000D01*
X97651000Y-96500000D01*
X97718039Y-96519685D01*
X97763794Y-96572489D01*
X97775000Y-96624000D01*
X97775000Y-96625000D01*
X99724999Y-96625000D01*
X99724999Y-96601692D01*
X99724998Y-96601677D01*
X99714855Y-96502392D01*
X99661547Y-96341518D01*
X99661542Y-96341507D01*
X99572575Y-96197271D01*
X99572572Y-96197267D01*
X99452732Y-96077427D01*
X99452728Y-96077424D01*
X99394730Y-96041650D01*
X99348005Y-95989702D01*
X99336784Y-95920739D01*
X99360558Y-95861805D01*
X99414311Y-95790000D01*
X127252601Y-95790000D01*
X127272149Y-95988481D01*
X127272149Y-95988483D01*
X127272150Y-95988485D01*
X127308214Y-96107372D01*
X127330048Y-96179348D01*
X127424060Y-96355231D01*
X127424065Y-96355238D01*
X127550589Y-96509410D01*
X127627452Y-96572489D01*
X127704763Y-96635936D01*
X127704766Y-96635937D01*
X127704768Y-96635939D01*
X127880651Y-96729951D01*
X127880654Y-96729951D01*
X127880658Y-96729954D01*
X128071515Y-96787850D01*
X128270000Y-96807399D01*
X128468485Y-96787850D01*
X128659342Y-96729954D01*
X128835237Y-96635936D01*
X128989410Y-96509410D01*
X129115936Y-96355237D01*
X129209954Y-96179342D01*
X129267850Y-95988485D01*
X129287399Y-95790000D01*
X129792601Y-95790000D01*
X129812149Y-95988481D01*
X129812149Y-95988483D01*
X129812150Y-95988485D01*
X129848214Y-96107372D01*
X129870048Y-96179348D01*
X129964060Y-96355231D01*
X129964065Y-96355238D01*
X130090589Y-96509410D01*
X130167452Y-96572489D01*
X130244763Y-96635936D01*
X130244766Y-96635937D01*
X130244768Y-96635939D01*
X130420651Y-96729951D01*
X130420654Y-96729951D01*
X130420658Y-96729954D01*
X130611515Y-96787850D01*
X130810000Y-96807399D01*
X131008485Y-96787850D01*
X131199342Y-96729954D01*
X131375237Y-96635936D01*
X131529410Y-96509410D01*
X131655936Y-96355237D01*
X131749954Y-96179342D01*
X131807850Y-95988485D01*
X131827399Y-95790000D01*
X131807850Y-95591515D01*
X131749954Y-95400658D01*
X131749951Y-95400654D01*
X131749951Y-95400651D01*
X131655939Y-95224768D01*
X131655937Y-95224766D01*
X131655936Y-95224763D01*
X131617456Y-95177875D01*
X131529410Y-95070589D01*
X131375238Y-94944065D01*
X131375231Y-94944060D01*
X131199348Y-94850048D01*
X131199342Y-94850046D01*
X131008485Y-94792150D01*
X131008483Y-94792149D01*
X131008481Y-94792149D01*
X130810000Y-94772601D01*
X130611518Y-94792149D01*
X130420651Y-94850048D01*
X130244768Y-94944060D01*
X130244761Y-94944065D01*
X130090589Y-95070589D01*
X129964065Y-95224761D01*
X129964060Y-95224768D01*
X129870048Y-95400651D01*
X129812149Y-95591518D01*
X129792601Y-95790000D01*
X129287399Y-95790000D01*
X129267850Y-95591515D01*
X129209954Y-95400658D01*
X129209951Y-95400654D01*
X129209951Y-95400651D01*
X129115939Y-95224768D01*
X129115937Y-95224766D01*
X129115936Y-95224763D01*
X129077456Y-95177875D01*
X128989410Y-95070589D01*
X128835238Y-94944065D01*
X128835231Y-94944060D01*
X128659348Y-94850048D01*
X128659342Y-94850046D01*
X128468485Y-94792150D01*
X128468483Y-94792149D01*
X128468481Y-94792149D01*
X128270000Y-94772601D01*
X128071518Y-94792149D01*
X127880651Y-94850048D01*
X127704768Y-94944060D01*
X127704761Y-94944065D01*
X127550589Y-95070589D01*
X127424065Y-95224761D01*
X127424060Y-95224768D01*
X127330048Y-95400651D01*
X127272149Y-95591518D01*
X127252601Y-95790000D01*
X99414311Y-95790000D01*
X99421628Y-95780226D01*
X99469412Y-95652114D01*
X99471687Y-95630944D01*
X99475499Y-95595501D01*
X99475499Y-95595494D01*
X99475500Y-95595485D01*
X99475499Y-95054516D01*
X99469412Y-94997886D01*
X99467519Y-94992812D01*
X99450495Y-94947168D01*
X99421628Y-94869774D01*
X99339687Y-94760313D01*
X99266285Y-94705365D01*
X99224415Y-94649432D01*
X99219431Y-94579740D01*
X99252916Y-94518417D01*
X99266950Y-94506339D01*
X99347150Y-94447150D01*
X99427793Y-94337882D01*
X99427793Y-94337881D01*
X99433311Y-94330405D01*
X99435285Y-94331862D01*
X99474580Y-94291485D01*
X99535480Y-94275500D01*
X99671142Y-94275500D01*
X99671144Y-94275500D01*
X99760288Y-94251614D01*
X99766807Y-94247850D01*
X99840212Y-94205470D01*
X100280470Y-93765212D01*
X100326614Y-93685288D01*
X100330514Y-93670734D01*
X100350500Y-93596144D01*
X100350500Y-93250000D01*
X127252601Y-93250000D01*
X127272149Y-93448481D01*
X127272149Y-93448483D01*
X127272150Y-93448485D01*
X127316942Y-93596144D01*
X127330048Y-93639348D01*
X127424060Y-93815231D01*
X127424065Y-93815238D01*
X127550589Y-93969410D01*
X127657875Y-94057456D01*
X127704763Y-94095936D01*
X127704766Y-94095937D01*
X127704768Y-94095939D01*
X127880651Y-94189951D01*
X127880654Y-94189951D01*
X127880658Y-94189954D01*
X128071515Y-94247850D01*
X128270000Y-94267399D01*
X128468485Y-94247850D01*
X128659342Y-94189954D01*
X128835237Y-94095936D01*
X128989410Y-93969410D01*
X129115936Y-93815237D01*
X129209954Y-93639342D01*
X129267850Y-93448485D01*
X129287399Y-93250000D01*
X129792601Y-93250000D01*
X129812149Y-93448481D01*
X129812149Y-93448483D01*
X129812150Y-93448485D01*
X129856942Y-93596144D01*
X129870048Y-93639348D01*
X129964060Y-93815231D01*
X129964065Y-93815238D01*
X130090589Y-93969410D01*
X130197875Y-94057456D01*
X130244763Y-94095936D01*
X130244766Y-94095937D01*
X130244768Y-94095939D01*
X130420651Y-94189951D01*
X130420654Y-94189951D01*
X130420658Y-94189954D01*
X130611515Y-94247850D01*
X130810000Y-94267399D01*
X131008485Y-94247850D01*
X131199342Y-94189954D01*
X131375237Y-94095936D01*
X131529410Y-93969410D01*
X131655936Y-93815237D01*
X131749954Y-93639342D01*
X131807850Y-93448485D01*
X131827399Y-93250000D01*
X131807850Y-93051515D01*
X131749954Y-92860658D01*
X131749951Y-92860654D01*
X131749951Y-92860651D01*
X131655939Y-92684768D01*
X131655937Y-92684766D01*
X131655936Y-92684763D01*
X131598150Y-92614350D01*
X131529410Y-92530589D01*
X131375238Y-92404065D01*
X131375231Y-92404060D01*
X131199348Y-92310048D01*
X131199342Y-92310046D01*
X131008485Y-92252150D01*
X131008483Y-92252149D01*
X131008481Y-92252149D01*
X130810000Y-92232601D01*
X130611518Y-92252149D01*
X130420651Y-92310048D01*
X130244768Y-92404060D01*
X130244761Y-92404065D01*
X130090589Y-92530589D01*
X129964065Y-92684761D01*
X129964060Y-92684768D01*
X129870048Y-92860651D01*
X129812149Y-93051518D01*
X129792601Y-93250000D01*
X129287399Y-93250000D01*
X129267850Y-93051515D01*
X129209954Y-92860658D01*
X129209951Y-92860654D01*
X129209951Y-92860651D01*
X129115939Y-92684768D01*
X129115937Y-92684766D01*
X129115936Y-92684763D01*
X129058150Y-92614350D01*
X128989410Y-92530589D01*
X128835238Y-92404065D01*
X128835231Y-92404060D01*
X128659348Y-92310048D01*
X128659342Y-92310046D01*
X128468485Y-92252150D01*
X128468483Y-92252149D01*
X128468481Y-92252149D01*
X128270000Y-92232601D01*
X128071518Y-92252149D01*
X127880651Y-92310048D01*
X127704768Y-92404060D01*
X127704761Y-92404065D01*
X127550589Y-92530589D01*
X127424065Y-92684761D01*
X127424060Y-92684768D01*
X127330048Y-92860651D01*
X127272149Y-93051518D01*
X127252601Y-93250000D01*
X100350500Y-93250000D01*
X100350500Y-92614350D01*
X100370185Y-92547311D01*
X100392271Y-92521536D01*
X100490483Y-92434530D01*
X100580220Y-92304523D01*
X100636237Y-92156818D01*
X100655278Y-92000000D01*
X100650127Y-91957573D01*
X100636237Y-91843181D01*
X100606765Y-91765470D01*
X100580220Y-91695477D01*
X100490483Y-91565470D01*
X100372240Y-91460717D01*
X100372238Y-91460716D01*
X100372237Y-91460715D01*
X100232365Y-91387303D01*
X100078986Y-91349500D01*
X100078985Y-91349500D01*
X99921015Y-91349500D01*
X99921014Y-91349500D01*
X99767634Y-91387303D01*
X99627762Y-91460715D01*
X99509516Y-91565471D01*
X99441736Y-91663667D01*
X99387453Y-91707658D01*
X99318004Y-91715317D01*
X99266054Y-91692998D01*
X99237885Y-91672209D01*
X99237880Y-91672206D01*
X99109700Y-91627353D01*
X99079270Y-91624500D01*
X99079266Y-91624500D01*
X98420734Y-91624500D01*
X98420730Y-91624500D01*
X98390300Y-91627353D01*
X98390298Y-91627353D01*
X98262119Y-91672206D01*
X98262113Y-91672209D01*
X98224093Y-91700270D01*
X98158464Y-91724241D01*
X98150460Y-91724500D01*
X96566264Y-91724500D01*
X96499225Y-91704815D01*
X96484038Y-91693316D01*
X96447240Y-91660717D01*
X96447238Y-91660715D01*
X96307365Y-91587303D01*
X96153986Y-91549500D01*
X96153985Y-91549500D01*
X95996015Y-91549500D01*
X95996014Y-91549500D01*
X95842634Y-91587303D01*
X95702762Y-91660715D01*
X95584516Y-91765471D01*
X95494781Y-91895475D01*
X95494780Y-91895476D01*
X95438762Y-92043181D01*
X95419722Y-92199999D01*
X95419722Y-92200000D01*
X95438762Y-92356818D01*
X95494780Y-92504523D01*
X95584517Y-92634530D01*
X95641217Y-92684761D01*
X95702762Y-92739285D01*
X95800732Y-92790704D01*
X95850945Y-92839289D01*
X95866919Y-92907308D01*
X95843584Y-92973165D01*
X95788347Y-93015952D01*
X95743106Y-93024500D01*
X93675850Y-93024500D01*
X93608811Y-93004815D01*
X93606960Y-93003603D01*
X93547739Y-92964033D01*
X93547735Y-92964032D01*
X93474677Y-92949500D01*
X93474674Y-92949500D01*
X92375326Y-92949500D01*
X92375323Y-92949500D01*
X92302264Y-92964032D01*
X92302260Y-92964033D01*
X92219399Y-93019399D01*
X92164033Y-93102260D01*
X92164032Y-93102264D01*
X92149500Y-93175321D01*
X90300500Y-93175321D01*
X90300500Y-90148322D01*
X97775001Y-90148322D01*
X97785144Y-90247607D01*
X97838452Y-90408481D01*
X97838457Y-90408492D01*
X97927424Y-90552728D01*
X97927427Y-90552732D01*
X98047267Y-90672572D01*
X98047271Y-90672575D01*
X98191507Y-90761542D01*
X98191518Y-90761547D01*
X98352393Y-90814855D01*
X98451683Y-90824999D01*
X99000000Y-90824999D01*
X99048308Y-90824999D01*
X99048322Y-90824998D01*
X99147607Y-90814855D01*
X99308481Y-90761547D01*
X99308492Y-90761542D01*
X99392055Y-90709999D01*
X127003179Y-90709999D01*
X127003179Y-90710000D01*
X127022424Y-90929976D01*
X127022426Y-90929986D01*
X127079575Y-91143270D01*
X127079580Y-91143284D01*
X127172898Y-91343405D01*
X127172901Y-91343411D01*
X127218258Y-91408187D01*
X127218258Y-91408188D01*
X127780504Y-90845941D01*
X127796619Y-90906081D01*
X127863498Y-91021920D01*
X127958080Y-91116502D01*
X128073919Y-91183381D01*
X128134057Y-91199494D01*
X127571810Y-91761740D01*
X127636590Y-91807099D01*
X127636592Y-91807100D01*
X127836715Y-91900419D01*
X127836729Y-91900424D01*
X128050013Y-91957573D01*
X128050023Y-91957575D01*
X128269999Y-91976821D01*
X128270001Y-91976821D01*
X128489976Y-91957575D01*
X128489986Y-91957573D01*
X128703270Y-91900424D01*
X128703284Y-91900419D01*
X128903407Y-91807100D01*
X128903417Y-91807094D01*
X128968188Y-91761741D01*
X128405942Y-91199494D01*
X128466081Y-91183381D01*
X128581920Y-91116502D01*
X128676502Y-91021920D01*
X128743381Y-90906081D01*
X128759495Y-90845942D01*
X129321741Y-91408188D01*
X129367094Y-91343417D01*
X129367100Y-91343407D01*
X129460419Y-91143284D01*
X129460424Y-91143270D01*
X129517573Y-90929986D01*
X129517575Y-90929976D01*
X129536821Y-90710000D01*
X129536821Y-90709999D01*
X129517575Y-90490023D01*
X129517573Y-90490013D01*
X129460424Y-90276729D01*
X129460420Y-90276720D01*
X129367096Y-90076586D01*
X129321741Y-90011811D01*
X129321740Y-90011810D01*
X128759494Y-90574056D01*
X128743381Y-90513919D01*
X128676502Y-90398080D01*
X128581920Y-90303498D01*
X128466081Y-90236619D01*
X128405941Y-90220504D01*
X128703125Y-89923321D01*
X129797500Y-89923321D01*
X129797500Y-91496678D01*
X129812032Y-91569735D01*
X129812033Y-91569739D01*
X129812034Y-91569740D01*
X129867399Y-91652601D01*
X129931566Y-91695475D01*
X129950260Y-91707966D01*
X129950264Y-91707967D01*
X130023321Y-91722499D01*
X130023324Y-91722500D01*
X130023326Y-91722500D01*
X131596676Y-91722500D01*
X131596677Y-91722499D01*
X131669740Y-91707966D01*
X131752601Y-91652601D01*
X131807966Y-91569740D01*
X131822500Y-91496674D01*
X131822500Y-89923326D01*
X131822500Y-89923323D01*
X131822499Y-89923321D01*
X131807967Y-89850264D01*
X131807966Y-89850260D01*
X131752601Y-89767399D01*
X131669740Y-89712034D01*
X131669739Y-89712033D01*
X131669735Y-89712032D01*
X131596677Y-89697500D01*
X131596674Y-89697500D01*
X130023326Y-89697500D01*
X130023323Y-89697500D01*
X129950264Y-89712032D01*
X129950260Y-89712033D01*
X129867399Y-89767399D01*
X129812033Y-89850260D01*
X129812032Y-89850264D01*
X129797500Y-89923321D01*
X128703125Y-89923321D01*
X128968188Y-89658258D01*
X128903411Y-89612901D01*
X128903405Y-89612898D01*
X128703284Y-89519580D01*
X128703270Y-89519575D01*
X128489986Y-89462426D01*
X128489976Y-89462424D01*
X128270001Y-89443179D01*
X128269999Y-89443179D01*
X128050023Y-89462424D01*
X128050013Y-89462426D01*
X127836729Y-89519575D01*
X127836720Y-89519579D01*
X127636590Y-89612901D01*
X127571811Y-89658258D01*
X128134058Y-90220504D01*
X128073919Y-90236619D01*
X127958080Y-90303498D01*
X127863498Y-90398080D01*
X127796619Y-90513919D01*
X127780504Y-90574057D01*
X127218258Y-90011811D01*
X127172901Y-90076590D01*
X127079579Y-90276720D01*
X127079575Y-90276729D01*
X127022426Y-90490013D01*
X127022424Y-90490023D01*
X127003179Y-90709999D01*
X99392055Y-90709999D01*
X99452728Y-90672575D01*
X99452732Y-90672572D01*
X99572572Y-90552732D01*
X99572575Y-90552728D01*
X99661542Y-90408492D01*
X99661547Y-90408481D01*
X99714855Y-90247606D01*
X99724999Y-90148322D01*
X99725000Y-90148309D01*
X99725000Y-90125000D01*
X99000000Y-90125000D01*
X99000000Y-90824999D01*
X98451683Y-90824999D01*
X98499999Y-90824998D01*
X98500000Y-90824998D01*
X98500000Y-90125000D01*
X97775001Y-90125000D01*
X97775001Y-90148322D01*
X90300500Y-90148322D01*
X90300500Y-89047844D01*
X91900000Y-89047844D01*
X91906401Y-89107372D01*
X91906403Y-89107379D01*
X91956645Y-89242086D01*
X91956649Y-89242093D01*
X92042809Y-89357187D01*
X92042812Y-89357190D01*
X92157906Y-89443350D01*
X92157913Y-89443354D01*
X92292620Y-89493596D01*
X92292627Y-89493598D01*
X92352155Y-89499999D01*
X92352172Y-89500000D01*
X92675000Y-89500000D01*
X93175000Y-89500000D01*
X93497828Y-89500000D01*
X93497844Y-89499999D01*
X93557372Y-89493598D01*
X93557379Y-89493596D01*
X93692086Y-89443354D01*
X93692093Y-89443350D01*
X93807187Y-89357190D01*
X93807190Y-89357187D01*
X93893350Y-89242093D01*
X93893354Y-89242086D01*
X93943596Y-89107379D01*
X93943598Y-89107372D01*
X93949999Y-89047844D01*
X96050000Y-89047844D01*
X96056401Y-89107372D01*
X96056403Y-89107379D01*
X96106645Y-89242086D01*
X96106649Y-89242093D01*
X96192809Y-89357187D01*
X96192812Y-89357190D01*
X96307906Y-89443350D01*
X96307913Y-89443354D01*
X96442620Y-89493596D01*
X96442627Y-89493598D01*
X96502155Y-89499999D01*
X96502172Y-89500000D01*
X96825000Y-89500000D01*
X96825000Y-88925000D01*
X96050000Y-88925000D01*
X96050000Y-89047844D01*
X93949999Y-89047844D01*
X93950000Y-89047827D01*
X93950000Y-88925000D01*
X93175000Y-88925000D01*
X93175000Y-89500000D01*
X92675000Y-89500000D01*
X92675000Y-88925000D01*
X91900000Y-88925000D01*
X91900000Y-89047844D01*
X90300500Y-89047844D01*
X90300500Y-88302155D01*
X91900000Y-88302155D01*
X91900000Y-88425000D01*
X92675000Y-88425000D01*
X93175000Y-88425000D01*
X93950000Y-88425000D01*
X93950000Y-88302172D01*
X93949999Y-88302155D01*
X96050000Y-88302155D01*
X96050000Y-88425000D01*
X96825000Y-88425000D01*
X96825000Y-87850000D01*
X96502155Y-87850000D01*
X96442627Y-87856401D01*
X96442620Y-87856403D01*
X96307913Y-87906645D01*
X96307906Y-87906649D01*
X96192812Y-87992809D01*
X96192809Y-87992812D01*
X96106649Y-88107906D01*
X96106645Y-88107913D01*
X96056403Y-88242620D01*
X96056401Y-88242627D01*
X96050000Y-88302155D01*
X93949999Y-88302155D01*
X93943598Y-88242627D01*
X93943596Y-88242620D01*
X93893354Y-88107913D01*
X93893350Y-88107906D01*
X93807190Y-87992812D01*
X93807187Y-87992809D01*
X93692093Y-87906649D01*
X93692086Y-87906645D01*
X93557379Y-87856403D01*
X93557372Y-87856401D01*
X93497844Y-87850000D01*
X93175000Y-87850000D01*
X93175000Y-88425000D01*
X92675000Y-88425000D01*
X92675000Y-87850000D01*
X92352155Y-87850000D01*
X92292627Y-87856401D01*
X92292620Y-87856403D01*
X92157913Y-87906645D01*
X92157906Y-87906649D01*
X92042812Y-87992809D01*
X92042809Y-87992812D01*
X91956649Y-88107906D01*
X91956645Y-88107913D01*
X91906403Y-88242620D01*
X91906401Y-88242627D01*
X91900000Y-88302155D01*
X90300500Y-88302155D01*
X90300500Y-86175321D01*
X92149500Y-86175321D01*
X92149500Y-86874678D01*
X92164032Y-86947735D01*
X92164033Y-86947739D01*
X92182405Y-86975235D01*
X92219399Y-87030601D01*
X92282855Y-87073000D01*
X92302260Y-87085966D01*
X92302264Y-87085967D01*
X92375321Y-87100499D01*
X92375324Y-87100500D01*
X92375326Y-87100500D01*
X93474676Y-87100500D01*
X93474677Y-87100499D01*
X93547740Y-87085966D01*
X93630601Y-87030601D01*
X93659630Y-86987155D01*
X93692752Y-86937585D01*
X93694756Y-86938924D01*
X93728030Y-86897640D01*
X93794325Y-86875579D01*
X93798744Y-86875500D01*
X96201256Y-86875500D01*
X96268295Y-86895185D01*
X96305846Y-86938521D01*
X96307248Y-86937585D01*
X96357655Y-87013025D01*
X96369399Y-87030601D01*
X96392444Y-87045999D01*
X96452260Y-87085966D01*
X96452264Y-87085967D01*
X96525321Y-87100499D01*
X96525324Y-87100500D01*
X96525326Y-87100500D01*
X97624676Y-87100500D01*
X97624677Y-87100499D01*
X97697740Y-87085966D01*
X97713562Y-87075393D01*
X97780240Y-87054516D01*
X97847620Y-87073000D01*
X97870134Y-87090815D01*
X97919531Y-87140212D01*
X97984788Y-87205469D01*
X97984790Y-87205470D01*
X97996430Y-87212191D01*
X98044645Y-87262758D01*
X98051471Y-87278623D01*
X98072207Y-87337882D01*
X98152850Y-87447150D01*
X98152851Y-87447151D01*
X98233035Y-87506329D01*
X98275286Y-87561976D01*
X98280745Y-87631632D01*
X98247678Y-87693182D01*
X98233713Y-87705365D01*
X98160315Y-87760310D01*
X98078372Y-87869772D01*
X98073934Y-87881673D01*
X98032061Y-87937606D01*
X97966596Y-87962021D01*
X97898324Y-87947168D01*
X97883442Y-87937604D01*
X97842088Y-87906646D01*
X97842086Y-87906645D01*
X97707379Y-87856403D01*
X97707372Y-87856401D01*
X97647844Y-87850000D01*
X97325000Y-87850000D01*
X97325000Y-89500000D01*
X97651000Y-89500000D01*
X97718039Y-89519685D01*
X97763794Y-89572489D01*
X97775000Y-89624000D01*
X97775000Y-89625000D01*
X99724999Y-89625000D01*
X99724999Y-89601692D01*
X99724998Y-89601677D01*
X99714855Y-89502392D01*
X99661547Y-89341518D01*
X99661542Y-89341507D01*
X99572575Y-89197271D01*
X99572572Y-89197267D01*
X99452732Y-89077427D01*
X99452728Y-89077424D01*
X99394730Y-89041650D01*
X99348005Y-88989702D01*
X99336784Y-88920739D01*
X99360558Y-88861805D01*
X99421628Y-88780226D01*
X99469412Y-88652114D01*
X99471687Y-88630944D01*
X99475499Y-88595501D01*
X99475499Y-88595494D01*
X99475500Y-88595485D01*
X99475499Y-88054516D01*
X99469412Y-87997886D01*
X99467519Y-87992812D01*
X99435382Y-87906649D01*
X99421628Y-87869774D01*
X99339687Y-87760313D01*
X99266285Y-87705365D01*
X99224415Y-87649432D01*
X99219431Y-87579740D01*
X99252916Y-87518417D01*
X99266950Y-87506339D01*
X99340462Y-87452085D01*
X99406091Y-87428116D01*
X99443764Y-87431459D01*
X99521015Y-87450500D01*
X99521017Y-87450500D01*
X99678985Y-87450500D01*
X99832365Y-87412696D01*
X99874905Y-87390369D01*
X99972240Y-87339283D01*
X100090483Y-87234530D01*
X100180220Y-87104523D01*
X100236237Y-86956818D01*
X100255278Y-86800000D01*
X100236237Y-86643182D01*
X100180220Y-86495477D01*
X100090483Y-86365470D01*
X99972240Y-86260717D01*
X99972238Y-86260716D01*
X99972237Y-86260715D01*
X99832365Y-86187303D01*
X99678986Y-86149500D01*
X99678985Y-86149500D01*
X99521015Y-86149500D01*
X99521014Y-86149500D01*
X99367634Y-86187303D01*
X99227760Y-86260716D01*
X99223933Y-86263358D01*
X99157578Y-86285239D01*
X99112551Y-86278351D01*
X99109704Y-86277355D01*
X99109694Y-86277353D01*
X99079270Y-86274500D01*
X99079266Y-86274500D01*
X98420734Y-86274500D01*
X98420730Y-86274500D01*
X98390303Y-86277353D01*
X98262117Y-86322207D01*
X98250602Y-86330705D01*
X98184971Y-86354672D01*
X98116802Y-86339352D01*
X98089293Y-86318611D01*
X98015213Y-86244531D01*
X98015208Y-86244527D01*
X97935290Y-86198387D01*
X97935289Y-86198386D01*
X97935288Y-86198386D01*
X97935285Y-86198385D01*
X97935282Y-86198384D01*
X97925047Y-86195641D01*
X97865388Y-86159274D01*
X97842036Y-86112965D01*
X97840640Y-86113544D01*
X97835966Y-86102260D01*
X97780601Y-86019399D01*
X97697740Y-85964034D01*
X97697739Y-85964033D01*
X97697735Y-85964032D01*
X97624677Y-85949500D01*
X97624674Y-85949500D01*
X96525326Y-85949500D01*
X96525323Y-85949500D01*
X96452264Y-85964032D01*
X96452260Y-85964033D01*
X96369398Y-86019399D01*
X96307248Y-86112415D01*
X96305243Y-86111075D01*
X96271970Y-86152360D01*
X96205675Y-86174421D01*
X96201256Y-86174500D01*
X93798744Y-86174500D01*
X93731705Y-86154815D01*
X93694153Y-86111478D01*
X93692752Y-86112415D01*
X93630601Y-86019399D01*
X93547739Y-85964033D01*
X93547735Y-85964032D01*
X93474677Y-85949500D01*
X93474674Y-85949500D01*
X92375326Y-85949500D01*
X92375323Y-85949500D01*
X92302264Y-85964032D01*
X92302260Y-85964033D01*
X92219399Y-86019399D01*
X92164033Y-86102260D01*
X92164032Y-86102264D01*
X92149500Y-86175321D01*
X90300500Y-86175321D01*
X90300500Y-80475915D01*
X93524500Y-80475915D01*
X93524500Y-81078204D01*
X93530509Y-81134084D01*
X93577662Y-81260507D01*
X93577664Y-81260510D01*
X93658528Y-81368532D01*
X93766550Y-81449396D01*
X93788583Y-81457613D01*
X93844517Y-81499483D01*
X93868935Y-81564947D01*
X93854084Y-81633221D01*
X93804680Y-81682627D01*
X93786209Y-81690836D01*
X93762119Y-81699266D01*
X93652850Y-81779910D01*
X93572207Y-81889177D01*
X93572206Y-81889179D01*
X93527353Y-82017358D01*
X93527353Y-82017360D01*
X93524500Y-82047790D01*
X93524500Y-82706329D01*
X93527353Y-82736759D01*
X93527353Y-82736761D01*
X93561565Y-82834530D01*
X93572207Y-82864942D01*
X93652850Y-82974210D01*
X93762118Y-83054853D01*
X93804845Y-83069804D01*
X93890299Y-83099706D01*
X93920730Y-83102560D01*
X93920734Y-83102560D01*
X94429270Y-83102560D01*
X94459699Y-83099706D01*
X94459701Y-83099706D01*
X94523790Y-83077279D01*
X94587882Y-83054853D01*
X94697150Y-82974210D01*
X94777793Y-82864942D01*
X94804886Y-82787515D01*
X94822646Y-82736761D01*
X94822646Y-82736759D01*
X94825500Y-82706329D01*
X94825500Y-82047790D01*
X94822646Y-82017360D01*
X94822646Y-82017358D01*
X94777793Y-81889179D01*
X94777792Y-81889177D01*
X94697150Y-81779910D01*
X94697147Y-81779908D01*
X94697146Y-81779906D01*
X94688363Y-81773424D01*
X94646114Y-81717775D01*
X94638000Y-81673656D01*
X94638000Y-81526774D01*
X94657685Y-81459735D01*
X94687690Y-81427507D01*
X94735515Y-81391706D01*
X94766472Y-81368532D01*
X94847336Y-81260510D01*
X94883818Y-81162698D01*
X94925689Y-81106764D01*
X94991153Y-81082347D01*
X95059426Y-81097199D01*
X95108832Y-81146604D01*
X95116182Y-81162698D01*
X95152662Y-81260507D01*
X95152664Y-81260510D01*
X95233528Y-81368532D01*
X95312310Y-81427507D01*
X95341549Y-81449395D01*
X95341552Y-81449397D01*
X95401044Y-81471586D01*
X95456978Y-81513457D01*
X95481395Y-81578921D01*
X95466544Y-81647194D01*
X95417139Y-81696600D01*
X95415659Y-81697395D01*
X95412120Y-81699265D01*
X95302850Y-81779910D01*
X95222207Y-81889177D01*
X95222206Y-81889179D01*
X95177353Y-82017358D01*
X95177353Y-82017360D01*
X95174500Y-82047790D01*
X95174500Y-82706329D01*
X95177353Y-82736759D01*
X95177353Y-82736761D01*
X95211565Y-82834530D01*
X95222207Y-82864942D01*
X95302850Y-82974210D01*
X95412118Y-83054853D01*
X95454845Y-83069804D01*
X95540299Y-83099706D01*
X95570730Y-83102560D01*
X95570734Y-83102560D01*
X96079270Y-83102560D01*
X96109699Y-83099706D01*
X96109701Y-83099706D01*
X96173790Y-83077279D01*
X96237882Y-83054853D01*
X96347150Y-82974210D01*
X96427793Y-82864942D01*
X96446806Y-82810603D01*
X96487527Y-82753829D01*
X96552480Y-82728082D01*
X96563847Y-82727560D01*
X96570601Y-82727560D01*
X96637640Y-82747245D01*
X96672650Y-82781119D01*
X96709517Y-82834530D01*
X96827760Y-82939283D01*
X96827762Y-82939284D01*
X96967634Y-83012696D01*
X97121014Y-83050500D01*
X97121015Y-83050500D01*
X97278985Y-83050500D01*
X97432365Y-83012696D01*
X97572240Y-82939283D01*
X97690483Y-82834530D01*
X97780220Y-82704523D01*
X97836237Y-82556818D01*
X97855278Y-82400000D01*
X97836237Y-82243182D01*
X97780220Y-82095477D01*
X97690483Y-81965470D01*
X97572240Y-81860717D01*
X97572238Y-81860716D01*
X97572237Y-81860715D01*
X97432365Y-81787303D01*
X97278986Y-81749500D01*
X97278985Y-81749500D01*
X97121015Y-81749500D01*
X97121014Y-81749500D01*
X96967634Y-81787303D01*
X96827762Y-81860715D01*
X96734300Y-81943514D01*
X96709517Y-81965470D01*
X96704319Y-81973000D01*
X96650040Y-82016989D01*
X96602270Y-82026560D01*
X96563847Y-82026560D01*
X96496808Y-82006875D01*
X96451053Y-81954071D01*
X96446812Y-81943531D01*
X96427793Y-81889178D01*
X96347150Y-81779910D01*
X96237882Y-81699267D01*
X96236585Y-81698813D01*
X96213790Y-81690836D01*
X96157015Y-81650113D01*
X96131270Y-81585159D01*
X96144728Y-81516598D01*
X96193117Y-81466197D01*
X96211413Y-81457615D01*
X96225773Y-81452258D01*
X96233448Y-81449397D01*
X96233448Y-81449396D01*
X96233450Y-81449396D01*
X96341472Y-81368532D01*
X96341474Y-81368529D01*
X96341477Y-81368527D01*
X96346130Y-81363875D01*
X96407454Y-81330393D01*
X96433807Y-81327560D01*
X98097673Y-81327560D01*
X98164712Y-81347245D01*
X98185354Y-81363879D01*
X98213181Y-81391706D01*
X98246666Y-81453029D01*
X98249500Y-81479387D01*
X98249500Y-83413780D01*
X98229815Y-83480819D01*
X98227552Y-83484217D01*
X98219780Y-83495476D01*
X98163762Y-83643181D01*
X98144722Y-83799999D01*
X98144722Y-83800000D01*
X98163762Y-83956817D01*
X98191442Y-84029800D01*
X98199500Y-84073772D01*
X98199500Y-84655823D01*
X98179815Y-84722862D01*
X98158617Y-84745477D01*
X98159420Y-84746280D01*
X98152851Y-84752848D01*
X98072207Y-84862117D01*
X98072206Y-84862119D01*
X98027353Y-84990298D01*
X98027353Y-84990300D01*
X98024500Y-85020730D01*
X98024500Y-85529269D01*
X98027353Y-85559699D01*
X98027353Y-85559701D01*
X98072206Y-85687880D01*
X98072207Y-85687882D01*
X98152850Y-85797150D01*
X98262118Y-85877793D01*
X98304845Y-85892744D01*
X98390299Y-85922646D01*
X98420730Y-85925500D01*
X98420734Y-85925500D01*
X99079270Y-85925500D01*
X99109699Y-85922646D01*
X99109701Y-85922646D01*
X99173790Y-85900219D01*
X99237882Y-85877793D01*
X99347150Y-85797150D01*
X99427793Y-85687882D01*
X99450219Y-85623790D01*
X99472646Y-85559701D01*
X99472646Y-85559699D01*
X99475500Y-85529269D01*
X99475500Y-85020730D01*
X99472646Y-84990300D01*
X99472646Y-84990298D01*
X99427793Y-84862119D01*
X99427792Y-84862117D01*
X99414547Y-84844170D01*
X99347150Y-84752850D01*
X99347148Y-84752849D01*
X99347148Y-84752848D01*
X99340580Y-84746280D01*
X99342407Y-84744452D01*
X99308614Y-84699940D01*
X99300500Y-84655823D01*
X99300500Y-84258657D01*
X99320185Y-84191618D01*
X99322450Y-84188217D01*
X99380219Y-84104524D01*
X99380220Y-84104523D01*
X99436237Y-83956818D01*
X99455278Y-83800000D01*
X99436237Y-83643182D01*
X99380220Y-83495477D01*
X99372448Y-83484217D01*
X99350567Y-83417862D01*
X99350500Y-83413780D01*
X99350500Y-81127527D01*
X99350500Y-81127525D01*
X99312984Y-80987515D01*
X99240510Y-80861985D01*
X98715075Y-80336550D01*
X98589545Y-80264076D01*
X98589546Y-80264076D01*
X98554542Y-80254697D01*
X98449535Y-80226560D01*
X98449532Y-80226560D01*
X96462000Y-80226560D01*
X96394961Y-80206875D01*
X96349206Y-80154071D01*
X96338000Y-80102560D01*
X96338000Y-78691887D01*
X96357685Y-78624848D01*
X96374319Y-78604206D01*
X96591706Y-78386819D01*
X96653029Y-78353334D01*
X96679387Y-78350500D01*
X124745613Y-78350500D01*
X124812652Y-78370185D01*
X124833294Y-78386819D01*
X125736063Y-79289588D01*
X125764324Y-79333298D01*
X125819780Y-79479523D01*
X125909517Y-79609530D01*
X126027760Y-79714283D01*
X126027762Y-79714284D01*
X126167634Y-79787696D01*
X126321014Y-79825500D01*
X126321015Y-79825500D01*
X126478985Y-79825500D01*
X126632365Y-79787696D01*
X126676172Y-79764703D01*
X126733798Y-79750500D01*
X129925500Y-79750500D01*
X129992539Y-79770185D01*
X130038294Y-79822989D01*
X130049500Y-79874500D01*
X130049500Y-80120613D01*
X130029815Y-80187652D01*
X130013181Y-80208294D01*
X127559491Y-82661983D01*
X127559490Y-82661985D01*
X127521330Y-82728082D01*
X127508388Y-82750498D01*
X127508387Y-82750499D01*
X127487017Y-82787512D01*
X127487016Y-82787513D01*
X127474419Y-82834528D01*
X127449500Y-82927525D01*
X127449500Y-82927527D01*
X127449500Y-88013780D01*
X127429815Y-88080819D01*
X127427552Y-88084217D01*
X127419780Y-88095476D01*
X127363762Y-88243181D01*
X127344722Y-88399999D01*
X127344722Y-88400000D01*
X127363762Y-88556818D01*
X127378427Y-88595485D01*
X127419780Y-88704523D01*
X127509517Y-88834530D01*
X127627760Y-88939283D01*
X127627762Y-88939284D01*
X127767634Y-89012696D01*
X127921014Y-89050500D01*
X127921015Y-89050500D01*
X128078985Y-89050500D01*
X128232365Y-89012696D01*
X128276176Y-88989702D01*
X128372240Y-88939283D01*
X128490483Y-88834530D01*
X128580220Y-88704523D01*
X128636237Y-88556818D01*
X128655278Y-88400000D01*
X128636237Y-88243182D01*
X128580220Y-88095477D01*
X128572448Y-88084217D01*
X128550567Y-88017862D01*
X128550500Y-88013780D01*
X128550500Y-83279387D01*
X128570185Y-83212348D01*
X128586819Y-83191706D01*
X129813056Y-81965469D01*
X131040510Y-80738015D01*
X131112984Y-80612485D01*
X131150500Y-80472475D01*
X131150500Y-79586219D01*
X131170185Y-79519180D01*
X131172434Y-79515802D01*
X131180220Y-79504523D01*
X131236237Y-79356818D01*
X131255278Y-79200000D01*
X131236237Y-79043182D01*
X131180220Y-78895477D01*
X131090483Y-78765470D01*
X130972240Y-78660717D01*
X130972238Y-78660716D01*
X130972237Y-78660715D01*
X130832365Y-78587303D01*
X130678986Y-78549500D01*
X130678985Y-78549500D01*
X130521015Y-78549500D01*
X130521014Y-78549500D01*
X130367636Y-78587303D01*
X130335431Y-78604206D01*
X130276194Y-78635296D01*
X130218569Y-78649500D01*
X126829065Y-78649500D01*
X126771439Y-78635296D01*
X126632366Y-78562304D01*
X126577626Y-78548812D01*
X126519620Y-78516096D01*
X125363016Y-77359491D01*
X125363015Y-77359490D01*
X125237485Y-77287016D01*
X125237486Y-77287016D01*
X125202482Y-77277637D01*
X125097475Y-77249500D01*
X96327525Y-77249500D01*
X96222517Y-77277637D01*
X96187514Y-77287016D01*
X96061986Y-77359489D01*
X96061983Y-77359491D01*
X95346991Y-78074483D01*
X95346989Y-78074486D01*
X95274516Y-78200014D01*
X95274516Y-78200015D01*
X95237000Y-78340025D01*
X95237000Y-78340027D01*
X95237000Y-80139678D01*
X95217315Y-80206717D01*
X95212267Y-80213988D01*
X95152666Y-80293605D01*
X95152662Y-80293612D01*
X95116182Y-80391421D01*
X95074311Y-80447355D01*
X95008846Y-80471772D01*
X94940573Y-80456920D01*
X94891168Y-80407515D01*
X94883818Y-80391421D01*
X94847337Y-80293612D01*
X94847335Y-80293609D01*
X94825227Y-80264076D01*
X94766472Y-80185588D01*
X94658450Y-80104724D01*
X94658447Y-80104722D01*
X94532024Y-80057569D01*
X94476144Y-80051560D01*
X94476130Y-80051560D01*
X93948870Y-80051560D01*
X93948855Y-80051560D01*
X93892975Y-80057569D01*
X93766552Y-80104722D01*
X93766549Y-80104724D01*
X93658528Y-80185588D01*
X93577664Y-80293609D01*
X93577662Y-80293612D01*
X93530509Y-80420035D01*
X93524500Y-80475915D01*
X90300500Y-80475915D01*
X90300500Y-70896611D01*
X90320185Y-70829572D01*
X90372989Y-70783817D01*
X90442147Y-70773873D01*
X90505703Y-70802898D01*
X90533028Y-70836630D01*
X90582483Y-70926112D01*
X90786924Y-71214246D01*
X91022331Y-71477665D01*
X91022334Y-71477668D01*
X91285753Y-71713075D01*
X91285759Y-71713079D01*
X91285760Y-71713080D01*
X91573888Y-71917517D01*
X91883094Y-72088410D01*
X92209490Y-72223607D01*
X92548971Y-72321410D01*
X92897267Y-72380588D01*
X93250000Y-72400397D01*
X93602733Y-72380588D01*
X93951029Y-72321410D01*
X94290510Y-72223607D01*
X94616906Y-72088410D01*
X94926112Y-71917517D01*
X95214240Y-71713080D01*
X95477667Y-71477667D01*
X95713080Y-71214240D01*
X95917517Y-70926112D01*
X96088410Y-70616906D01*
X96223607Y-70290510D01*
X96321410Y-69951029D01*
X96380588Y-69602733D01*
X96400397Y-69250000D01*
X96380588Y-68897267D01*
X96321410Y-68548971D01*
X96223607Y-68209490D01*
X96088410Y-67883094D01*
X95917517Y-67573888D01*
X95713080Y-67285760D01*
X95713079Y-67285759D01*
X95713075Y-67285753D01*
X95477668Y-67022334D01*
X95477665Y-67022331D01*
X95214246Y-66786924D01*
X94926112Y-66582483D01*
X94836630Y-66533028D01*
X94787477Y-66483371D01*
X94772974Y-66415023D01*
X94797724Y-66349684D01*
X94853871Y-66308099D01*
X94896611Y-66300500D01*
X130303005Y-66300500D01*
X130370044Y-66320185D01*
G37*
G04 #@! TD.AperFunction*
M02*
