M48
; DRILL file {KiCad 8.0.7} date 2025-01-09T23:38:11+0530
; FORMAT={-:-/ absolute / metric / decimal}
; #@! TF.CreationDate,2025-01-09T23:38:11+05:30
; #@! TF.GenerationSoftware,Kicad,Pcbnew,8.0.7
; #@! TF.FileFunction,Plated,1,2,PTH
FMAT,2
METRIC
; #@! TA.AperFunction,Plated,PTH,ViaDrill
T1C0.300
; #@! TA.AperFunction,Plated,PTH,ViaDrill
T2C0.400
; #@! TA.AperFunction,Plated,PTH,ComponentDrill
T3C1.000
; #@! TA.AperFunction,Plated,PTH,ComponentDrill
T4C1.016
%
G90
G05
T1
X91.5Y-78.5
X125.5Y-69.5
X127.25Y-104.25
X128.0Y-69.4
X130.5Y-69.5
X132.5Y-69.75
T2
X103.6Y-88.0
X111.0Y-91.5
X111.0Y-94.5
X115.5Y-102.75
X118.0Y-93.25
X119.0Y-114.0
X133.175Y-83.575
X134.75Y-93.0
X134.75Y-96.75
X136.25Y-91.5
X142.0Y-91.25
X142.0Y-92.25
T3
X92.499Y-55.097
X92.499Y-72.877
X95.039Y-55.097
X95.039Y-72.877
X97.579Y-55.097
X97.579Y-72.877
X100.119Y-55.097
X100.119Y-72.877
X102.659Y-55.097
X102.659Y-72.877
X105.199Y-55.097
X105.199Y-72.877
X107.739Y-55.097
X107.739Y-72.877
X110.279Y-55.097
X110.279Y-72.877
X112.819Y-55.097
X112.819Y-72.877
X115.359Y-55.097
X115.359Y-72.877
X117.899Y-55.097
X117.899Y-72.877
X120.439Y-55.097
X120.439Y-72.877
X122.329Y-58.323
X122.329Y-60.863
X122.329Y-63.403
X122.979Y-55.097
X122.979Y-72.877
X125.519Y-55.097
X125.519Y-72.877
X128.059Y-55.097
X128.059Y-72.877
X130.599Y-55.097
X130.599Y-72.877
X133.139Y-55.097
X133.139Y-72.877
X135.679Y-55.097
X135.679Y-72.877
X137.46Y-100.71
X137.46Y-103.25
X137.46Y-105.79
X137.46Y-108.33
X137.46Y-110.87
X138.219Y-55.097
X138.219Y-72.877
X140.0Y-100.71
X140.0Y-103.25
X140.0Y-105.79
X140.0Y-108.33
X140.0Y-110.87
X140.759Y-55.097
X140.759Y-72.877
T4
X102.879Y-91.68
X102.879Y-94.22
X102.879Y-96.76
X102.879Y-99.3
X102.879Y-101.84
X102.879Y-104.38
X102.879Y-106.92
X102.879Y-109.46
X102.879Y-112.0
X105.419Y-91.68
X105.419Y-94.22
X105.419Y-96.76
X105.419Y-99.3
X105.419Y-101.84
X105.419Y-104.38
X105.419Y-106.92
X105.419Y-109.46
X105.419Y-112.0
M30
