M48
; DRILL file {KiCad 8.0.7} date 2025-01-18T18:03:34+0530
; FORMAT={-:-/ absolute / metric / decimal}
; #@! TF.CreationDate,2025-01-18T18:03:34+05:30
; #@! TF.GenerationSoftware,Kicad,Pcbnew,8.0.7
; #@! TF.FileFunction,Plated,1,2,PTH
FMAT,2
METRIC
; #@! TA.AperFunction,Plated,PTH,ViaDrill
T1C0.400
; #@! TA.AperFunction,Plated,PTH,ComponentDrill
T2C1.000
; #@! TA.AperFunction,Plated,PTH,ComponentDrill
T3C1.016
%
G90
G05
T1
X91.5Y-84.5
X91.5Y-91.0
X91.5Y-98.5
X93.0Y-111.5
X93.2Y-100.2
X94.0Y-84.5
X94.0Y-91.0
X94.5Y-73.5
X94.5Y-75.5
X94.5Y-77.5
X94.5Y-98.5
X96.075Y-92.2
X96.5Y-72.0
X96.5Y-74.5
X97.2Y-82.4
X97.5Y-116.5
X98.5Y-68.0
X98.5Y-70.5
X98.5Y-98.5
X98.8Y-83.8
X99.0Y-110.5
X99.0Y-112.5
X99.0Y-118.0
X99.6Y-86.8
X100.0Y-73.0
X100.0Y-92.0
X104.5Y-79.5
X105.0Y-82.0
X105.5Y-73.0
X105.5Y-74.5
X106.0Y-94.5
X106.0Y-98.4
X106.4Y-85.5
X107.5Y-92.0
X107.6Y-99.4
X108.0Y-75.5
X108.5Y-96.0
X109.2Y-85.5
X110.0Y-97.5
X111.0Y-92.0
X111.0Y-96.0
X112.0Y-85.5
X114.0Y-92.0
X114.0Y-96.0
X118.6Y-85.6
X125.0Y-81.0
X125.4Y-111.2
X125.5Y-113.5
X125.5Y-116.5
X126.0Y-67.5
X126.0Y-70.5
X126.4Y-79.175
X127.0Y-118.0
X127.5Y-69.0
X128.0Y-88.4
X128.0Y-116.5
X129.4Y-92.0
X130.6Y-79.2
X131.0Y-82.5
X132.0Y-74.5
X132.0Y-76.5
X133.0Y-95.0
X133.0Y-97.5
X133.0Y-100.0
X133.0Y-102.5
X133.0Y-105.0
X133.0Y-107.5
X133.0Y-110.0
X133.0Y-112.5
X133.5Y-80.0
X133.5Y-82.5
X134.0Y-89.0
X134.0Y-91.0
X134.0Y-93.0
T2
X93.535Y-102.76
X93.535Y-105.3
X93.535Y-107.84
X96.075Y-102.76
X96.075Y-105.3
X96.075Y-107.84
T3
X128.27Y-90.71
X128.27Y-93.25
X128.27Y-95.79
X128.27Y-98.33
X128.27Y-100.87
X128.27Y-103.41
X128.27Y-105.95
X128.27Y-108.49
X128.27Y-111.03
X130.81Y-90.71
X130.81Y-93.25
X130.81Y-95.79
X130.81Y-98.33
X130.81Y-100.87
X130.81Y-103.41
X130.81Y-105.95
X130.81Y-108.49
X130.81Y-111.03
M30
