%TF.GenerationSoftware,KiCad,Pcbnew,8.0.7*%
%TF.CreationDate,2025-01-09T23:37:41+05:30*%
%TF.ProjectId,pico_ov7670_adapter,7069636f-5f6f-4763-9736-37305f616461,rev?*%
%TF.SameCoordinates,Original*%
%TF.FileFunction,Paste,Top*%
%TF.FilePolarity,Positive*%
%FSLAX46Y46*%
G04 Gerber Fmt 4.6, Leading zero omitted, Abs format (unit mm)*
G04 Created by KiCad (PCBNEW 8.0.7) date 2025-01-09 23:37:41*
%MOMM*%
%LPD*%
G01*
G04 APERTURE LIST*
G04 Aperture macros list*
%AMRoundRect*
0 Rectangle with rounded corners*
0 $1 Rounding radius*
0 $2 $3 $4 $5 $6 $7 $8 $9 X,Y pos of 4 corners*
0 Add a 4 corners polygon primitive as box body*
4,1,4,$2,$3,$4,$5,$6,$7,$8,$9,$2,$3,0*
0 Add four circle primitives for the rounded corners*
1,1,$1+$1,$2,$3*
1,1,$1+$1,$4,$5*
1,1,$1+$1,$6,$7*
1,1,$1+$1,$8,$9*
0 Add four rect primitives between the rounded corners*
20,1,$1+$1,$2,$3,$4,$5,0*
20,1,$1+$1,$4,$5,$6,$7,0*
20,1,$1+$1,$6,$7,$8,$9,0*
20,1,$1+$1,$8,$9,$2,$3,0*%
G04 Aperture macros list end*
%ADD10C,0.010000*%
%ADD11RoundRect,0.200000X0.200000X0.275000X-0.200000X0.275000X-0.200000X-0.275000X0.200000X-0.275000X0*%
%ADD12RoundRect,0.225000X-0.250000X0.225000X-0.250000X-0.225000X0.250000X-0.225000X0.250000X0.225000X0*%
%ADD13R,1.050000X0.650000*%
%ADD14RoundRect,0.200000X0.275000X-0.200000X0.275000X0.200000X-0.275000X0.200000X-0.275000X-0.200000X0*%
%ADD15O,1.800000X1.100000*%
%ADD16O,1.450000X1.050000*%
%ADD17R,1.574800X1.574800*%
%ADD18C,1.574800*%
%ADD19RoundRect,0.300000X0.450000X-0.450000X0.450000X0.450000X-0.450000X0.450000X-0.450000X-0.450000X0*%
%ADD20RoundRect,0.225000X-0.225000X-0.250000X0.225000X-0.250000X0.225000X0.250000X-0.225000X0.250000X0*%
%ADD21RoundRect,0.200000X-0.200000X-0.275000X0.200000X-0.275000X0.200000X0.275000X-0.200000X0.275000X0*%
G04 APERTURE END LIST*
D10*
%TO.C,U2*%
X93598686Y-56197500D02*
X91398686Y-56197500D01*
X91398686Y-52397500D01*
X93598686Y-52397500D01*
X93598686Y-56197500D01*
G36*
X93598686Y-56197500D02*
G01*
X91398686Y-56197500D01*
X91398686Y-52397500D01*
X93598686Y-52397500D01*
X93598686Y-56197500D01*
G37*
X93598686Y-75577500D02*
X91398686Y-75577500D01*
X91398686Y-71777500D01*
X93598686Y-71777500D01*
X93598686Y-75577500D01*
G36*
X93598686Y-75577500D02*
G01*
X91398686Y-75577500D01*
X91398686Y-71777500D01*
X93598686Y-71777500D01*
X93598686Y-75577500D01*
G37*
X96138686Y-56197500D02*
X93938686Y-56197500D01*
X93938686Y-52397500D01*
X96138686Y-52397500D01*
X96138686Y-56197500D01*
G36*
X96138686Y-56197500D02*
G01*
X93938686Y-56197500D01*
X93938686Y-52397500D01*
X96138686Y-52397500D01*
X96138686Y-56197500D01*
G37*
X96138686Y-75577500D02*
X93938686Y-75577500D01*
X93938686Y-71777500D01*
X96138686Y-71777500D01*
X96138686Y-75577500D01*
G36*
X96138686Y-75577500D02*
G01*
X93938686Y-75577500D01*
X93938686Y-71777500D01*
X96138686Y-71777500D01*
X96138686Y-75577500D01*
G37*
X98678686Y-56197500D02*
X96478686Y-56197500D01*
X96478686Y-52397500D01*
X98678686Y-52397500D01*
X98678686Y-56197500D01*
G36*
X98678686Y-56197500D02*
G01*
X96478686Y-56197500D01*
X96478686Y-52397500D01*
X98678686Y-52397500D01*
X98678686Y-56197500D01*
G37*
X98678686Y-75577500D02*
X96478686Y-75577500D01*
X96478686Y-71777500D01*
X98678686Y-71777500D01*
X98678686Y-75577500D01*
G36*
X98678686Y-75577500D02*
G01*
X96478686Y-75577500D01*
X96478686Y-71777500D01*
X98678686Y-71777500D01*
X98678686Y-75577500D01*
G37*
X101218686Y-56197500D02*
X99018686Y-56197500D01*
X99018686Y-52397500D01*
X101218686Y-52397500D01*
X101218686Y-56197500D01*
G36*
X101218686Y-56197500D02*
G01*
X99018686Y-56197500D01*
X99018686Y-52397500D01*
X101218686Y-52397500D01*
X101218686Y-56197500D01*
G37*
X101218686Y-75577500D02*
X99018686Y-75577500D01*
X99018686Y-71777500D01*
X101218686Y-71777500D01*
X101218686Y-75577500D01*
G36*
X101218686Y-75577500D02*
G01*
X99018686Y-75577500D01*
X99018686Y-71777500D01*
X101218686Y-71777500D01*
X101218686Y-75577500D01*
G37*
X103758686Y-56197500D02*
X101558686Y-56197500D01*
X101558686Y-52397500D01*
X103758686Y-52397500D01*
X103758686Y-56197500D01*
G36*
X103758686Y-56197500D02*
G01*
X101558686Y-56197500D01*
X101558686Y-52397500D01*
X103758686Y-52397500D01*
X103758686Y-56197500D01*
G37*
X103758686Y-75577500D02*
X101558686Y-75577500D01*
X101558686Y-71777500D01*
X103758686Y-71777500D01*
X103758686Y-75577500D01*
G36*
X103758686Y-75577500D02*
G01*
X101558686Y-75577500D01*
X101558686Y-71777500D01*
X103758686Y-71777500D01*
X103758686Y-75577500D01*
G37*
X106298686Y-56197500D02*
X104098686Y-56197500D01*
X104098686Y-52397500D01*
X106298686Y-52397500D01*
X106298686Y-56197500D01*
G36*
X106298686Y-56197500D02*
G01*
X104098686Y-56197500D01*
X104098686Y-52397500D01*
X106298686Y-52397500D01*
X106298686Y-56197500D01*
G37*
X106298686Y-75577500D02*
X104098686Y-75577500D01*
X104098686Y-71777500D01*
X106298686Y-71777500D01*
X106298686Y-75577500D01*
G36*
X106298686Y-75577500D02*
G01*
X104098686Y-75577500D01*
X104098686Y-71777500D01*
X106298686Y-71777500D01*
X106298686Y-75577500D01*
G37*
X108838686Y-56197500D02*
X106638686Y-56197500D01*
X106638686Y-52397500D01*
X108838686Y-52397500D01*
X108838686Y-56197500D01*
G36*
X108838686Y-56197500D02*
G01*
X106638686Y-56197500D01*
X106638686Y-52397500D01*
X108838686Y-52397500D01*
X108838686Y-56197500D01*
G37*
X108838686Y-75577500D02*
X106638686Y-75577500D01*
X106638686Y-71777500D01*
X108838686Y-71777500D01*
X108838686Y-75577500D01*
G36*
X108838686Y-75577500D02*
G01*
X106638686Y-75577500D01*
X106638686Y-71777500D01*
X108838686Y-71777500D01*
X108838686Y-75577500D01*
G37*
X111378686Y-56197500D02*
X109178686Y-56197500D01*
X109178686Y-52397500D01*
X111378686Y-52397500D01*
X111378686Y-56197500D01*
G36*
X111378686Y-56197500D02*
G01*
X109178686Y-56197500D01*
X109178686Y-52397500D01*
X111378686Y-52397500D01*
X111378686Y-56197500D01*
G37*
X111378686Y-75577500D02*
X109178686Y-75577500D01*
X109178686Y-71777500D01*
X111378686Y-71777500D01*
X111378686Y-75577500D01*
G36*
X111378686Y-75577500D02*
G01*
X109178686Y-75577500D01*
X109178686Y-71777500D01*
X111378686Y-71777500D01*
X111378686Y-75577500D01*
G37*
X113918686Y-56197500D02*
X111718686Y-56197500D01*
X111718686Y-52397500D01*
X113918686Y-52397500D01*
X113918686Y-56197500D01*
G36*
X113918686Y-56197500D02*
G01*
X111718686Y-56197500D01*
X111718686Y-52397500D01*
X113918686Y-52397500D01*
X113918686Y-56197500D01*
G37*
X113918686Y-75577500D02*
X111718686Y-75577500D01*
X111718686Y-71777500D01*
X113918686Y-71777500D01*
X113918686Y-75577500D01*
G36*
X113918686Y-75577500D02*
G01*
X111718686Y-75577500D01*
X111718686Y-71777500D01*
X113918686Y-71777500D01*
X113918686Y-75577500D01*
G37*
X116458686Y-56197500D02*
X114258686Y-56197500D01*
X114258686Y-52397500D01*
X116458686Y-52397500D01*
X116458686Y-56197500D01*
G36*
X116458686Y-56197500D02*
G01*
X114258686Y-56197500D01*
X114258686Y-52397500D01*
X116458686Y-52397500D01*
X116458686Y-56197500D01*
G37*
X116458686Y-75577500D02*
X114258686Y-75577500D01*
X114258686Y-71777500D01*
X116458686Y-71777500D01*
X116458686Y-75577500D01*
G36*
X116458686Y-75577500D02*
G01*
X114258686Y-75577500D01*
X114258686Y-71777500D01*
X116458686Y-71777500D01*
X116458686Y-75577500D01*
G37*
X118998686Y-56197500D02*
X116798686Y-56197500D01*
X116798686Y-52397500D01*
X118998686Y-52397500D01*
X118998686Y-56197500D01*
G36*
X118998686Y-56197500D02*
G01*
X116798686Y-56197500D01*
X116798686Y-52397500D01*
X118998686Y-52397500D01*
X118998686Y-56197500D01*
G37*
X118998686Y-75577500D02*
X116798686Y-75577500D01*
X116798686Y-71777500D01*
X118998686Y-71777500D01*
X118998686Y-75577500D01*
G36*
X118998686Y-75577500D02*
G01*
X116798686Y-75577500D01*
X116798686Y-71777500D01*
X118998686Y-71777500D01*
X118998686Y-75577500D01*
G37*
X121538686Y-56197500D02*
X119338686Y-56197500D01*
X119338686Y-52397500D01*
X121538686Y-52397500D01*
X121538686Y-56197500D01*
G36*
X121538686Y-56197500D02*
G01*
X119338686Y-56197500D01*
X119338686Y-52397500D01*
X121538686Y-52397500D01*
X121538686Y-56197500D01*
G37*
X121538686Y-75577500D02*
X119338686Y-75577500D01*
X119338686Y-71777500D01*
X121538686Y-71777500D01*
X121538686Y-75577500D01*
G36*
X121538686Y-75577500D02*
G01*
X119338686Y-75577500D01*
X119338686Y-71777500D01*
X121538686Y-71777500D01*
X121538686Y-75577500D01*
G37*
X124078686Y-56197500D02*
X121878686Y-56197500D01*
X121878686Y-52397500D01*
X124078686Y-52397500D01*
X124078686Y-56197500D01*
G36*
X124078686Y-56197500D02*
G01*
X121878686Y-56197500D01*
X121878686Y-52397500D01*
X124078686Y-52397500D01*
X124078686Y-56197500D01*
G37*
X124078686Y-75577500D02*
X121878686Y-75577500D01*
X121878686Y-71777500D01*
X124078686Y-71777500D01*
X124078686Y-75577500D01*
G36*
X124078686Y-75577500D02*
G01*
X121878686Y-75577500D01*
X121878686Y-71777500D01*
X124078686Y-71777500D01*
X124078686Y-75577500D01*
G37*
X126618686Y-56197500D02*
X124418686Y-56197500D01*
X124418686Y-52397500D01*
X126618686Y-52397500D01*
X126618686Y-56197500D01*
G36*
X126618686Y-56197500D02*
G01*
X124418686Y-56197500D01*
X124418686Y-52397500D01*
X126618686Y-52397500D01*
X126618686Y-56197500D01*
G37*
X126618686Y-75577500D02*
X124418686Y-75577500D01*
X124418686Y-71777500D01*
X126618686Y-71777500D01*
X126618686Y-75577500D01*
G36*
X126618686Y-75577500D02*
G01*
X124418686Y-75577500D01*
X124418686Y-71777500D01*
X126618686Y-71777500D01*
X126618686Y-75577500D01*
G37*
X129158686Y-56197500D02*
X126958686Y-56197500D01*
X126958686Y-52397500D01*
X129158686Y-52397500D01*
X129158686Y-56197500D01*
G36*
X129158686Y-56197500D02*
G01*
X126958686Y-56197500D01*
X126958686Y-52397500D01*
X129158686Y-52397500D01*
X129158686Y-56197500D01*
G37*
X129158686Y-75577500D02*
X126958686Y-75577500D01*
X126958686Y-71777500D01*
X129158686Y-71777500D01*
X129158686Y-75577500D01*
G36*
X129158686Y-75577500D02*
G01*
X126958686Y-75577500D01*
X126958686Y-71777500D01*
X129158686Y-71777500D01*
X129158686Y-75577500D01*
G37*
X131698686Y-56197500D02*
X129498686Y-56197500D01*
X129498686Y-52397500D01*
X131698686Y-52397500D01*
X131698686Y-56197500D01*
G36*
X131698686Y-56197500D02*
G01*
X129498686Y-56197500D01*
X129498686Y-52397500D01*
X131698686Y-52397500D01*
X131698686Y-56197500D01*
G37*
X131698686Y-75577500D02*
X129498686Y-75577500D01*
X129498686Y-71777500D01*
X131698686Y-71777500D01*
X131698686Y-75577500D01*
G36*
X131698686Y-75577500D02*
G01*
X129498686Y-75577500D01*
X129498686Y-71777500D01*
X131698686Y-71777500D01*
X131698686Y-75577500D01*
G37*
X134238686Y-56197500D02*
X132038686Y-56197500D01*
X132038686Y-52397500D01*
X134238686Y-52397500D01*
X134238686Y-56197500D01*
G36*
X134238686Y-56197500D02*
G01*
X132038686Y-56197500D01*
X132038686Y-52397500D01*
X134238686Y-52397500D01*
X134238686Y-56197500D01*
G37*
X134238686Y-75577500D02*
X132038686Y-75577500D01*
X132038686Y-71777500D01*
X134238686Y-71777500D01*
X134238686Y-75577500D01*
G36*
X134238686Y-75577500D02*
G01*
X132038686Y-75577500D01*
X132038686Y-71777500D01*
X134238686Y-71777500D01*
X134238686Y-75577500D01*
G37*
X136778686Y-56197500D02*
X134578686Y-56197500D01*
X134578686Y-52397500D01*
X136778686Y-52397500D01*
X136778686Y-56197500D01*
G36*
X136778686Y-56197500D02*
G01*
X134578686Y-56197500D01*
X134578686Y-52397500D01*
X136778686Y-52397500D01*
X136778686Y-56197500D01*
G37*
X136778686Y-75577500D02*
X134578686Y-75577500D01*
X134578686Y-71777500D01*
X136778686Y-71777500D01*
X136778686Y-75577500D01*
G36*
X136778686Y-75577500D02*
G01*
X134578686Y-75577500D01*
X134578686Y-71777500D01*
X136778686Y-71777500D01*
X136778686Y-75577500D01*
G37*
X139318686Y-56197500D02*
X137118686Y-56197500D01*
X137118686Y-52397500D01*
X139318686Y-52397500D01*
X139318686Y-56197500D01*
G36*
X139318686Y-56197500D02*
G01*
X137118686Y-56197500D01*
X137118686Y-52397500D01*
X139318686Y-52397500D01*
X139318686Y-56197500D01*
G37*
X139318686Y-75577500D02*
X137118686Y-75577500D01*
X137118686Y-71777500D01*
X139318686Y-71777500D01*
X139318686Y-75577500D01*
G36*
X139318686Y-75577500D02*
G01*
X137118686Y-75577500D01*
X137118686Y-71777500D01*
X139318686Y-71777500D01*
X139318686Y-75577500D01*
G37*
X141858686Y-56197500D02*
X139658686Y-56197500D01*
X139658686Y-52397500D01*
X141858686Y-52397500D01*
X141858686Y-56197500D01*
G36*
X141858686Y-56197500D02*
G01*
X139658686Y-56197500D01*
X139658686Y-52397500D01*
X141858686Y-52397500D01*
X141858686Y-56197500D01*
G37*
X141858686Y-75577500D02*
X139658686Y-75577500D01*
X139658686Y-71777500D01*
X141858686Y-71777500D01*
X141858686Y-75577500D01*
G36*
X141858686Y-75577500D02*
G01*
X139658686Y-75577500D01*
X139658686Y-71777500D01*
X141858686Y-71777500D01*
X141858686Y-75577500D01*
G37*
%TD*%
D11*
%TO.C,R4*%
X109825000Y-91500000D03*
X108175000Y-91500000D03*
%TD*%
D12*
%TO.C,C3*%
X136250000Y-87725000D03*
X136250000Y-89275000D03*
%TD*%
D13*
%TO.C,SW2*%
X137925000Y-87425000D03*
X142075000Y-87425000D03*
X137925000Y-89575000D03*
X142075000Y-89575000D03*
%TD*%
%TO.C,SW1*%
X137925000Y-93675000D03*
X142075000Y-93675000D03*
X137925000Y-95825000D03*
X142075000Y-95825000D03*
%TD*%
D14*
%TO.C,R1*%
X134750000Y-94175000D03*
X134750000Y-95825000D03*
%TD*%
%TO.C,R5*%
X134750000Y-89325000D03*
X134750000Y-87675000D03*
%TD*%
D15*
%TO.C,U2*%
X92628686Y-66712500D03*
X92628686Y-61262500D03*
D16*
X95658686Y-66412500D03*
X95658686Y-61562500D03*
D17*
X122328686Y-63403400D03*
D18*
X122328686Y-60863400D03*
X122328686Y-58323400D03*
D19*
X95628686Y-63987500D03*
X92328686Y-62987500D03*
X92328686Y-64987500D03*
X100628686Y-66487500D03*
X103128686Y-66487500D03*
X105628686Y-66487500D03*
%TD*%
D20*
%TO.C,C2*%
X103603686Y-89250000D03*
X105153686Y-89250000D03*
%TD*%
D21*
%TO.C,R2*%
X108175000Y-99250000D03*
X109825000Y-99250000D03*
%TD*%
D11*
%TO.C,R3*%
X109825000Y-94500000D03*
X108175000Y-94500000D03*
%TD*%
D12*
%TO.C,C1*%
X136250000Y-94225000D03*
X136250000Y-95775000D03*
%TD*%
M02*
